<svg width="50" height="60" viewBox="0 0 50 60" fill="none" xmlns="http://www.w3.org/2000/svg">
<path d="M24.9992 44.669C24.5018 44.669 24.0981 44.2653 24.0981 43.7679L24.0999 23.4411C24.0999 22.9437 24.5036 22.54 25.001 22.54C25.4984 22.54 25.9021 22.9437 25.9021 23.4411L25.9003 43.7679C25.9003 44.2653 25.4966 44.669 24.9992 44.669Z" fill="white"/>
<path d="M32.772 32.1132C32.5413 32.1132 32.3106 32.0249 32.134 31.8501L24.9992 24.7152L17.8644 31.8501C17.5129 32.2015 16.9417 32.2015 16.5902 31.8501C16.2388 31.4986 16.2388 30.9273 16.5902 30.5759L24.363 22.8031C24.7145 22.4517 25.2858 22.4517 25.6372 22.8031L33.41 30.5759C33.7614 30.9273 33.7614 31.4986 33.41 31.8501C33.2334 32.0249 33.0027 32.1132 32.772 32.1132Z" fill="white"/>
<path d="M44.7007 60H5.29964C2.81624 60 0.794189 57.9798 0.794189 55.4945V4.50545C0.794189 2.02024 2.81624 0 5.29964 0H33.9129C34.4103 0 34.814 0.403688 34.814 0.90109C34.814 1.39849 34.4103 1.80218 33.9129 1.80218H5.29964C3.80924 1.80218 2.59637 3.01505 2.59637 4.50545V55.4945C2.59637 56.985 3.80924 58.1978 5.29964 58.1978H44.7007C46.1911 58.1978 47.404 56.985 47.404 55.4945V15.6862C47.404 15.1888 47.8077 14.7851 48.3051 14.7851C48.8025 14.7851 49.2062 15.1888 49.2062 15.6862V55.4964C49.2062 57.9798 47.1859 60 44.7007 60Z" fill="white"/>
<path d="M48.305 16.5873H33.9128C33.4154 16.5873 33.0117 16.1836 33.0117 15.6862V1.2922C33.0117 0.794802 33.4154 0.391113 33.9128 0.391113C34.4102 0.391113 34.8139 0.794802 34.8139 1.2922V14.7833H48.305C48.8024 14.7833 49.2061 15.187 49.2061 15.6844C49.2061 16.1818 48.8042 16.5873 48.305 16.5873Z" fill="white"/>
<path d="M48.305 16.5873C48.0707 16.5873 47.8364 16.4954 47.6598 16.3152L33.2676 1.53191C32.9216 1.17688 32.9288 0.603791 33.2856 0.257772C33.6406 -0.0900484 34.2119 -0.0810375 34.5597 0.275794L48.952 15.0591C49.298 15.4141 49.2908 15.9872 48.9339 16.3332C48.7591 16.5026 48.5321 16.5873 48.305 16.5873Z" fill="white"/>
</svg>
