<svg width="129" height="30" viewBox="0 0 129 30" fill="none" xmlns="http://www.w3.org/2000/svg">
<g clip-path="url(#clip0)">
<path d="M25.6511 8.09732H37.5008C38.5781 8.09732 39.4533 8.29644 40.1939 8.76104C40.9345 9.22564 41.5405 9.82298 42.0118 10.5531C42.4831 11.2832 42.8197 12.0796 43.0217 12.9425C43.2237 13.8053 43.3583 14.7345 43.3583 15.5973V29.2699C43.3583 29.5354 43.2237 29.6681 42.9544 29.6681H28.2769C27.469 29.6681 26.7284 29.4026 26.1898 28.8717C25.6511 28.3407 25.2472 27.7433 24.9778 27.0796C24.7085 26.4159 24.5066 25.6858 24.3719 25.0221C24.2372 24.3584 24.2372 23.8274 24.2372 23.4292C24.2372 22.7655 24.3046 22.0354 24.5066 21.2389C24.6412 20.4425 24.9105 19.7124 25.3145 19.0486C25.6511 18.3849 26.1224 17.7876 26.7284 17.323C27.3343 16.8584 28.0076 16.5929 28.8829 16.5929H35.8849C36.6256 16.5929 37.1642 16.3938 37.6355 16.0619C38.0394 15.7301 38.3088 15.3318 38.3088 14.8672C38.3088 14.469 38.1741 14.0708 37.9048 13.7389C37.6355 13.3407 37.2315 13.1416 36.8275 13.1416H25.6511C25.3818 13.1416 25.2472 13.0088 25.2472 12.7433V8.49555C25.2472 8.23006 25.3818 8.09732 25.6511 8.09732ZM37.7701 24.823C38.0394 24.823 38.1741 24.6902 38.1741 24.4248V21.969C38.1741 21.7035 38.0394 21.5708 37.7701 21.5708H30.2967C29.8928 21.5708 29.5561 21.7035 29.3542 22.0354C29.0848 22.3672 28.9502 22.6991 28.9502 23.0973C28.9502 23.5619 29.0848 23.9602 29.3542 24.3584C29.6235 24.6902 30.0274 24.8894 30.4987 24.8894H37.7701V24.823Z" fill="white"/>
<path d="M82.6783 8.49555C82.6783 8.23006 82.813 8.09732 83.0823 8.09732H88.0646C88.3339 8.09732 88.4685 8.23006 88.4685 8.49555V29.2035C88.4685 29.469 88.3339 29.6017 88.0646 29.6017H83.0823C82.813 29.6017 82.6783 29.469 82.6783 29.2035V8.49555Z" fill="white"/>
<path d="M20.8033 0H16.1576C15.7537 0 15.417 0.331858 15.417 0.730088V21.1726C15.417 21.5044 15.3497 21.8363 15.1477 22.1681C14.9457 22.5 14.6764 22.8982 14.4071 23.1637C14.1378 23.4956 13.8012 23.7611 13.4645 23.9602C13.1279 24.1593 12.7913 24.292 12.4546 24.292H4.91391C4.71192 24.292 4.50994 24.3584 4.30796 24.5575L0.0663064 29.2035C-0.135677 29.4027 -0.00102137 29.7345 0.26829 29.7345H9.89616C13.8012 29.7345 16.6963 29.0044 18.6488 27.4779C20.5339 26.0177 21.4765 23.6283 21.4765 20.3761V0.730088C21.5439 0.331858 21.2072 0 20.8033 0Z" fill="white"/>
<path d="M108.531 7.56656L101.866 0.0665588H92.0361V0.398417L103.414 12.6772L108.531 7.56656Z" fill="#006261"/>
<path d="M115.332 13.9382L128.461 0.398417V0.0665588H118.833L110.08 9.22585H110.013L94.7969 24.8896L90.6899 29.3365V29.6683H100.318L109.811 19.3143L118.9 29.6683H128.999V29.3365L115.332 13.9382Z" fill="#006261"/>
<path d="M115.332 13.9382L128.461 0.398417V0.0665588H118.833L110.08 9.22585H110.013L94.7969 24.8896L90.6899 29.3365V29.6683H100.318L115.332 13.9382Z" fill="#4DBCBC"/>
<path d="M60.9315 8.56192C61.0661 8.36281 60.9315 8.09732 60.7295 8.09732H52.1115C51.3709 8.09732 50.6303 8.23006 49.957 8.56192C49.2838 8.82741 48.6778 9.22564 48.2065 9.75661C47.6679 10.2876 47.3313 10.8186 46.9946 11.4823C46.658 12.146 46.5233 12.9425 46.5233 13.6725V29.2699C46.5233 29.469 46.7253 29.6681 46.9273 29.6681H51.6402C51.8422 29.6681 52.0442 29.469 52.0442 29.2699V15C52.0442 14.8672 52.1115 14.6681 52.1789 14.469C52.2462 14.2699 52.3808 14.0708 52.5155 13.8717C52.6501 13.6725 52.8521 13.5398 53.0541 13.4071C53.2561 13.2743 53.4581 13.2079 53.7274 13.2079H56.3532C56.5552 13.2079 56.7571 13.1416 56.8918 12.9425L60.9315 8.56192Z" fill="white"/>
<path d="M79.9845 8.03076H75.1369C75.0022 8.03076 74.8675 8.03076 74.8002 8.09713C74.7329 8.1635 74.6656 8.22988 74.6656 8.42899L69.6833 21.5706C69.6833 21.637 69.616 21.7697 69.4813 22.0352C69.3467 22.3007 69.2793 22.4334 69.1447 22.4334C69.01 22.4334 68.9427 22.3007 68.808 22.0352C68.6734 21.7697 68.6061 21.637 68.6061 21.5706L63.7585 8.42899L59.8535 12.6768L65.509 27.6104C66.1149 29.2033 67.3268 29.9998 69.212 29.9998C71.0972 29.9998 72.3764 29.2033 72.915 27.6104L80.2538 8.36262V8.22988C80.1864 8.09713 80.1191 8.03076 79.9845 8.03076Z" fill="white"/>
</g>
<defs>
<clipPath id="clip0">
<rect width="129" height="30" fill="white"/>
</clipPath>
</defs>
</svg>
