<svg xmlns="http://www.w3.org/2000/svg" viewBox="0 0 197.11 71.65"><defs><style>.cls-1{fill:#d5d5d5;}.cls-2{fill:#fff;}</style></defs><title>JarviX_icon_20200325</title><g id="白字版_LOGO_小字_" data-name="白字版(LOGO+小字)"><path class="cls-1" d="M11.42,60.28a2.7,2.7,0,0,1-1.18,2.28A5.4,5.4,0,0,1,7,63.43H6.18L5.59,66H3.53l1.83-7.93H8.21a7.71,7.71,0,0,1,1.36.11,2.72,2.72,0,0,1,1,.37,1.74,1.74,0,0,1,.64.68A2.26,2.26,0,0,1,11.42,60.28Zm-2.19.19a.76.76,0,0,0-.33-.68,1.83,1.83,0,0,0-1-.23H7.07l-.54,2.38h.73a2.43,2.43,0,0,0,1.45-.38A1.27,1.27,0,0,0,9.23,60.47Z"/><path class="cls-1" d="M19.73,62.22a4.29,4.29,0,0,1-.28,1.57,3.7,3.7,0,0,1-.79,1.26,3.76,3.76,0,0,1-1.24.85,4.14,4.14,0,0,1-1.64.29,3,3,0,0,1-2-.63A2.28,2.28,0,0,1,13,63.79a4.31,4.31,0,0,1,.27-1.52A3.7,3.7,0,0,1,14.07,61a3.58,3.58,0,0,1,1.25-.84A4.15,4.15,0,0,1,17,59.84a3,3,0,0,1,2.05.64A2.22,2.22,0,0,1,19.73,62.22Zm-2.49,2a2.9,2.9,0,0,0,.37-.82,4.06,4.06,0,0,0,.13-1.07,1.32,1.32,0,0,0-.24-.85,1,1,0,0,0-.77-.29,1.23,1.23,0,0,0-.71.2,1.89,1.89,0,0,0-.54.55,2.88,2.88,0,0,0-.34.83,4.31,4.31,0,0,0-.12,1,1.2,1.2,0,0,0,.27.88,1,1,0,0,0,.74.26,1.29,1.29,0,0,0,.67-.19A1.67,1.67,0,0,0,17.24,64.18Z"/><path class="cls-1" d="M32.64,60l-3.12,6h-2l-.4-4-2,4H23l-.56-6h2l.17,4.12L26.7,60h1.7l.37,4.12L30.62,60Z"/><path class="cls-1" d="M37.19,66.17a3.66,3.66,0,0,1-2.36-.67A2.31,2.31,0,0,1,34,63.63a4,4,0,0,1,.27-1.5,3.74,3.74,0,0,1,.79-1.2,3.39,3.39,0,0,1,1.22-.79,4.25,4.25,0,0,1,1.62-.3,3.17,3.17,0,0,1,2,.55A1.92,1.92,0,0,1,40.59,62a3.35,3.35,0,0,1-.07.71,5.91,5.91,0,0,1-.19.69H35.88v.12a1.17,1.17,0,0,0,.44,1,2.08,2.08,0,0,0,1.34.36,3.35,3.35,0,0,0,1.19-.22,5.6,5.6,0,0,0,1-.47H40l-.35,1.54a6.74,6.74,0,0,1-1.18.37A6.89,6.89,0,0,1,37.19,66.17Zm1.47-3.91a1.41,1.41,0,0,0,0-.18.91.91,0,0,0,0-.17.81.81,0,0,0-.26-.64,1.12,1.12,0,0,0-.75-.23,1.58,1.58,0,0,0-1,.32,2,2,0,0,0-.61.9Z"/><path class="cls-1" d="M47.78,61.86h-.17a2.08,2.08,0,0,0-.36-.07l-.47,0a4.2,4.2,0,0,0-.72.06,3.38,3.38,0,0,0-.73.18l-.92,4H42.48l1.38-6h1.93l-.2.88a6.19,6.19,0,0,1,1.08-.65A2.51,2.51,0,0,1,47.76,60H48l.22,0Z"/><path class="cls-1" d="M52.68,66.17a3.66,3.66,0,0,1-2.36-.67,2.31,2.31,0,0,1-.83-1.87,4,4,0,0,1,.27-1.5,3.74,3.74,0,0,1,.79-1.2,3.39,3.39,0,0,1,1.22-.79,4.25,4.25,0,0,1,1.62-.3,3.17,3.17,0,0,1,2,.55A1.89,1.89,0,0,1,56.08,62a3.35,3.35,0,0,1-.07.71,5.91,5.91,0,0,1-.19.69H51.37v.12a1.17,1.17,0,0,0,.44,1,2.08,2.08,0,0,0,1.34.36,3.35,3.35,0,0,0,1.19-.22,5.6,5.6,0,0,0,1-.47h.21l-.35,1.54a6.74,6.74,0,0,1-1.18.37A6.89,6.89,0,0,1,52.68,66.17Zm1.47-3.91a1.41,1.41,0,0,0,0-.18.91.91,0,0,0,0-.17.81.81,0,0,0-.26-.64,1.12,1.12,0,0,0-.75-.23,1.58,1.58,0,0,0-1,.32,2,2,0,0,0-.61.9Z"/><path class="cls-1" d="M65.71,57.73,63.79,66H61.86l.15-.63-.49.32a3,3,0,0,1-.47.26,2.9,2.9,0,0,1-.47.16,2.24,2.24,0,0,1-.55,0,1.82,1.82,0,0,1-1.39-.56,2.27,2.27,0,0,1-.52-1.6,4.45,4.45,0,0,1,.28-1.6,4.28,4.28,0,0,1,.75-1.32,3.41,3.41,0,0,1,1.11-.89,2.85,2.85,0,0,1,1.33-.33,3.52,3.52,0,0,1,.85.09,3.61,3.61,0,0,1,.75.31l.59-2.54Zm-2.79,3.7a3,3,0,0,0-.4-.14,2,2,0,0,0-.45-.06,1.64,1.64,0,0,0-.82.21,1.8,1.8,0,0,0-.62.55,2.28,2.28,0,0,0-.36.8,3.45,3.45,0,0,0-.14.94,1.11,1.11,0,0,0,.25.78,1.07,1.07,0,0,0,.76.24,1.4,1.4,0,0,0,.55-.12,3.12,3.12,0,0,0,.55-.27Z"/><path class="cls-1" d="M79.21,61.94A5,5,0,0,1,79,63.52a4.64,4.64,0,0,1-.72,1.34,3.7,3.7,0,0,1-1.1.92,2.84,2.84,0,0,1-1.39.35,3.58,3.58,0,0,1-.9-.11,2.11,2.11,0,0,1-.7-.31L74,66H72.15l1.91-8.28H76l-.68,2.92a7.92,7.92,0,0,1,1-.57,2.51,2.51,0,0,1,1-.21,1.72,1.72,0,0,1,1.4.55A2.22,2.22,0,0,1,79.21,61.94Zm-2,.36a1.11,1.11,0,0,0-.22-.76.9.9,0,0,0-.75-.26,1.58,1.58,0,0,0-.56.1,4.51,4.51,0,0,0-.57.25l-.69,3a2.64,2.64,0,0,0,.4.12,2.09,2.09,0,0,0,.46,0,1.65,1.65,0,0,0,1.41-.7A2.93,2.93,0,0,0,77.18,62.3Z"/><path class="cls-1" d="M83.39,68.2h-2.1l1.52-2.31-1-5.86h2l.52,3.91L86.58,60h2Z"/><path class="cls-1" d="M97.85,66.15A9,9,0,0,1,96,66a7.74,7.74,0,0,1-1.38-.44l.41-1.9h.23a3.79,3.79,0,0,0,1.29.77,4.36,4.36,0,0,0,1.59.28,2.61,2.61,0,0,0,1.28-.24.75.75,0,0,0,.41-.68.51.51,0,0,0-.07-.28.72.72,0,0,0-.25-.24A3.08,3.08,0,0,0,99,63c-.22-.08-.51-.16-.86-.26s-.73-.23-1-.35a2.89,2.89,0,0,1-.78-.44,2,2,0,0,1-.5-.6,1.88,1.88,0,0,1-.16-.82,2.19,2.19,0,0,1,1-1.9,5.1,5.1,0,0,1,2.87-.71,9.69,9.69,0,0,1,1.66.14,6.12,6.12,0,0,1,1.32.39l-.38,1.83H102a3.23,3.23,0,0,0-1.1-.64,4.14,4.14,0,0,0-1.48-.26,2.7,2.7,0,0,0-1.22.23.7.7,0,0,0-.43.63.59.59,0,0,0,.07.31.68.68,0,0,0,.26.24,2.55,2.55,0,0,0,.53.23l.87.26a5.17,5.17,0,0,1,1.9.83,1.62,1.62,0,0,1,.57,1.3,2.39,2.39,0,0,1-.31,1.21,2.47,2.47,0,0,1-.85.85,4.14,4.14,0,0,1-1.3.5A7.41,7.41,0,0,1,97.85,66.15Z"/><path class="cls-1" d="M106.21,68.2H104.1l1.52-2.31-1-5.86h2l.52,3.91L109.39,60h2Z"/><path class="cls-1" d="M116.53,66.17a4,4,0,0,1-2.65-.8,2.79,2.79,0,0,1-.95-2.26,5,5,0,0,1,1.47-3.74,5.14,5.14,0,0,1,3.74-1.44,7.88,7.88,0,0,1,1.59.15,5.5,5.5,0,0,1,1.52.55l-.45,1.86h-.23a3.8,3.8,0,0,0-1.21-.84,3.2,3.2,0,0,0-1.25-.24,2.72,2.72,0,0,0-1.26.28,3,3,0,0,0-1,.77,3.46,3.46,0,0,0-.59,1.09,4,4,0,0,0-.21,1.31,1.75,1.75,0,0,0,.52,1.4,2.6,2.6,0,0,0,1.7.45h.51l.36-1.55h-1.58l.35-1.5h3.65l-.9,3.92c-.47.16-1,.3-1.51.43A7.58,7.58,0,0,1,116.53,66.17Z"/><path class="cls-1" d="M130.75,60.28a2.71,2.71,0,0,1-1.17,2.28,5.42,5.42,0,0,1-3.28.87h-.78L124.93,66h-2.06l1.83-7.93h2.85a7.51,7.51,0,0,1,1.35.11,2.7,2.7,0,0,1,1,.37,1.74,1.74,0,0,1,.64.68A2.26,2.26,0,0,1,130.75,60.28Zm-2.18.19a.76.76,0,0,0-.33-.68,1.83,1.83,0,0,0-1-.23h-.83l-.55,2.38h.74a2.43,2.43,0,0,0,1.45-.38A1.27,1.27,0,0,0,128.57,60.47Z"/><path class="cls-1" d="M135.19,66.15a8.91,8.91,0,0,1-1.81-.17,7.74,7.74,0,0,1-1.38-.44l.41-1.9h.22a4,4,0,0,0,1.29.77,4.4,4.4,0,0,0,1.59.28,2.66,2.66,0,0,0,1.29-.24.75.75,0,0,0,.41-.68.61.61,0,0,0-.07-.28.77.77,0,0,0-.26-.24,2.93,2.93,0,0,0-.52-.23c-.22-.08-.51-.16-.86-.26a10.49,10.49,0,0,1-1-.35,3.13,3.13,0,0,1-.79-.44,2,2,0,0,1-.49-.6,1.87,1.87,0,0,1-.17-.82,2.19,2.19,0,0,1,1.05-1.9,5.11,5.11,0,0,1,2.88-.71,9.78,9.78,0,0,1,1.66.14,6.12,6.12,0,0,1,1.32.39l-.39,1.83h-.22a3.17,3.17,0,0,0-1.09-.64,4.18,4.18,0,0,0-1.48-.26,2.67,2.67,0,0,0-1.22.23.69.69,0,0,0-.43.63.71.71,0,0,0,.06.31.68.68,0,0,0,.26.24A2.69,2.69,0,0,0,136,61l.86.26a5.09,5.09,0,0,1,1.9.83,1.62,1.62,0,0,1,.57,1.3,2.29,2.29,0,0,1-.31,1.21,2.39,2.39,0,0,1-.85.85,4.08,4.08,0,0,1-1.29.5A7.41,7.41,0,0,1,135.19,66.15Z"/><path class="cls-1" d="M154.15,58.08l-.34,1.51h-3.7L149.78,61h3.43l-.35,1.51h-3.43l-.46,2h3.69L152.32,66h-5.74l1.83-7.93Z"/><path class="cls-1" d="M162.35,61.38c0,.11,0,.22,0,.35s0,.25-.07.39l-.9,3.89h-1.94l.68-3c.05-.22.09-.4.12-.56a2.32,2.32,0,0,0,0-.44.66.66,0,0,0-.17-.5,1,1,0,0,0-.65-.16,1.53,1.53,0,0,0-.52.1,4.05,4.05,0,0,0-.68.29l-1,4.24h-1.93l1.38-6h1.93l-.16.66a9,9,0,0,1,1.08-.61,2.74,2.74,0,0,1,1.08-.21,1.9,1.9,0,0,1,1.25.38A1.42,1.42,0,0,1,162.35,61.38Z"/><path class="cls-1" d="M171.72,60l-1.2,5.29a4.53,4.53,0,0,1-.56,1.42,3,3,0,0,1-.88.9,3.43,3.43,0,0,1-1.15.48,6.63,6.63,0,0,1-1.4.14,9.94,9.94,0,0,1-1.24-.08,8.15,8.15,0,0,1-1-.18l.29-1.46h.23a7.69,7.69,0,0,0,.9.27,4.25,4.25,0,0,0,.8.1,3.28,3.28,0,0,0,.88-.1,1.41,1.41,0,0,0,.59-.27,1.33,1.33,0,0,0,.36-.45,2.63,2.63,0,0,0,.22-.67l0-.11a4.23,4.23,0,0,1-.83.45,2.43,2.43,0,0,1-.92.16,2.34,2.34,0,0,1-1.58-.5,1.94,1.94,0,0,1-.56-1.53,4.21,4.21,0,0,1,1-2.89,3.1,3.1,0,0,1,2.42-1.13,3.38,3.38,0,0,1,.93.12,2,2,0,0,1,.67.31l.14-.27Zm-2.24,1.38-.41-.13a1.92,1.92,0,0,0-.44-.06,1.68,1.68,0,0,0-1.38.65,2.53,2.53,0,0,0-.53,1.65,1.05,1.05,0,0,0,.23.72,1,1,0,0,0,.8.25,1.53,1.53,0,0,0,.58-.11,3.36,3.36,0,0,0,.54-.26Z"/><path class="cls-1" d="M176.88,60l-1.39,6h-1.93L175,60Zm.58-2.3-.33,1.45h-2l.33-1.45Z"/><path class="cls-1" d="M185.71,61.38c0,.11,0,.22,0,.35s0,.25-.07.39L184.73,66h-1.94l.68-3c.05-.22.09-.4.11-.56a2.37,2.37,0,0,0,0-.44.62.62,0,0,0-.18-.5,1,1,0,0,0-.64-.16,1.58,1.58,0,0,0-.53.1,4,4,0,0,0-.67.29l-1,4.24h-1.92l1.38-6H182l-.15.66a7.72,7.72,0,0,1,1.08-.61,2.65,2.65,0,0,1,1.07-.21,1.89,1.89,0,0,1,1.25.38A1.42,1.42,0,0,1,185.71,61.38Z"/><path class="cls-1" d="M191.26,66.17a3.65,3.65,0,0,1-2.36-.67,2.31,2.31,0,0,1-.83-1.87,4,4,0,0,1,.27-1.5,3.44,3.44,0,0,1,2-2,4.23,4.23,0,0,1,1.61-.3,3.2,3.2,0,0,1,2,.55,1.92,1.92,0,0,1,.68,1.59,4.17,4.17,0,0,1-.07.71c-.05.23-.12.46-.19.69H190v.12a1.14,1.14,0,0,0,.44,1,2.05,2.05,0,0,0,1.33.36,3.45,3.45,0,0,0,1.2-.22,6,6,0,0,0,1-.47h.21l-.36,1.54a6.38,6.38,0,0,1-1.17.37A7,7,0,0,1,191.26,66.17Zm1.47-3.91c0-.07,0-.13,0-.18a.91.91,0,0,0,0-.17.81.81,0,0,0-.26-.64,1.15,1.15,0,0,0-.76-.23,1.57,1.57,0,0,0-1,.32,2,2,0,0,0-.62.9Z"/><path class="cls-2" d="M40.84,15.47H58.43a7.51,7.51,0,0,1,4,1,8.38,8.38,0,0,1,2.68,2.65,11.54,11.54,0,0,1,1.5,3.62,17.53,17.53,0,0,1,.47,4V47.34a.55.55,0,0,1-.63.62H44.71a4.2,4.2,0,0,1-3.06-1.15,8.19,8.19,0,0,1-1.84-2.71,13.59,13.59,0,0,1-.9-3.12,15.83,15.83,0,0,1-.25-2.37A17.18,17.18,0,0,1,39,35.3,12.55,12.55,0,0,1,40.22,32a8.35,8.35,0,0,1,2.12-2.59,4.86,4.86,0,0,1,3.18-1.06H55.93a4,4,0,0,0,2.59-.78,2.29,2.29,0,0,0,1-1.84A3.06,3.06,0,0,0,58.87,24a1.93,1.93,0,0,0-1.63-.87H40.84a.55.55,0,0,1-.62-.62V16.1A.55.55,0,0,1,40.84,15.47Zm18,25.2a.55.55,0,0,0,.62-.63V36.3a.55.55,0,0,0-.62-.62H47.76a1.74,1.74,0,0,0-1.43.72A2.51,2.51,0,0,0,45.77,38a3,3,0,0,0,.62,1.87,2.09,2.09,0,0,0,1.75.81Z"/><path class="cls-2" d="M125.59,16.1a.55.55,0,0,1,.62-.63h7.36a.56.56,0,0,1,.63.63V47.34a.55.55,0,0,1-.63.62h-7.36a.55.55,0,0,1-.62-.62Z"/><path class="cls-2" d="M33.65,3.25H26.77a1.08,1.08,0,0,0-1.08,1.08V35.12a3.18,3.18,0,0,1-.44,1.49,7.26,7.26,0,0,1-1.09,1.53,7.12,7.12,0,0,1-1.43,1.22,2.86,2.86,0,0,1-1.53.5H10a1.17,1.17,0,0,0-.86.38l-6.27,7a.45.45,0,0,0,.34.76H17.52q8.73,0,13-3.36t4.24-10.73V4.33A1.08,1.08,0,0,0,33.65,3.25Z"/><polygon class="cls-2" points="163.9 14.63 154.08 3.33 139.44 3.33 139.44 3.82 156.4 22.35 163.9 14.63"/><polygon class="cls-2" points="174.05 24.3 193.5 3.82 193.5 3.33 179.26 3.33 166.21 17.12 166.2 17.11 143.59 40.71 143.59 40.71 137.49 47.47 137.49 47.96 151.8 47.96 165.81 32.39 179.37 47.96 194.36 47.96 194.36 47.47 174.05 24.3"/><path class="cls-2" d="M93.21,16.15a.41.41,0,0,0-.3-.68H80.13a7.81,7.81,0,0,0-3.18.66,8.33,8.33,0,0,0-2.62,1.78,8.5,8.5,0,0,0-1.78,2.62,8.27,8.27,0,0,0-.65,3.33V47.34a.62.62,0,0,0,.62.62h7a.62.62,0,0,0,.62-.62V25.83a2.27,2.27,0,0,1,.19-.85,3,3,0,0,1,.53-.87,4.45,4.45,0,0,1,.78-.72,1.72,1.72,0,0,1,1-.31h3.85a1.09,1.09,0,0,0,.81-.36Z"/><path class="cls-2" d="M121.53,15.35h-7.17a.76.76,0,0,0-.5.12,1.61,1.61,0,0,0-.25.5l-7.35,19.77c-.05.09-.15.31-.32.69s-.33.56-.49.56-.34-.19-.5-.56l-.31-.69L97.4,16h0L91.6,22.39,100,44.85q1.31,3.56,5.49,3.55T111,44.85l10.85-29v-.19A.28.28,0,0,0,121.53,15.35Z"/></g></svg>