<svg xmlns="http://www.w3.org/2000/svg" viewBox="0 0 197.11 51.32"><defs><style>.cls-1{fill:#fff;}</style></defs><title>JarviX_icon_20200325</title><g id="白字版_純LOGO_" data-name="白字版(純LOGO)"><path class="cls-1" d="M40.84,15.47H58.43a7.51,7.51,0,0,1,4,1,8.38,8.38,0,0,1,2.68,2.65,11.54,11.54,0,0,1,1.5,3.62,17.53,17.53,0,0,1,.47,4V47.34a.55.55,0,0,1-.63.62H44.71a4.2,4.2,0,0,1-3.06-1.15,8.19,8.19,0,0,1-1.84-2.71,13.59,13.59,0,0,1-.9-3.12,15.83,15.83,0,0,1-.25-2.37A17.18,17.18,0,0,1,39,35.3,12.55,12.55,0,0,1,40.22,32a8.35,8.35,0,0,1,2.12-2.59,4.86,4.86,0,0,1,3.18-1.06H55.93a4,4,0,0,0,2.59-.78,2.29,2.29,0,0,0,1-1.84A3.06,3.06,0,0,0,58.87,24a1.93,1.93,0,0,0-1.63-.87H40.84a.55.55,0,0,1-.62-.62V16.1A.55.55,0,0,1,40.84,15.47Zm18,25.2a.55.55,0,0,0,.62-.63V36.3a.55.55,0,0,0-.62-.62H47.76a1.74,1.74,0,0,0-1.43.72A2.51,2.51,0,0,0,45.77,38a3,3,0,0,0,.62,1.87,2.09,2.09,0,0,0,1.75.81Z"/><path class="cls-1" d="M125.59,16.1a.55.55,0,0,1,.62-.63h7.36a.56.56,0,0,1,.63.63V47.34a.55.55,0,0,1-.63.62h-7.36a.55.55,0,0,1-.62-.62Z"/><path class="cls-1" d="M33.65,3.25H26.77a1.08,1.08,0,0,0-1.08,1.08V35.12a3.18,3.18,0,0,1-.44,1.49,7.26,7.26,0,0,1-1.09,1.53,7.12,7.12,0,0,1-1.43,1.22,2.86,2.86,0,0,1-1.53.5H10a1.17,1.17,0,0,0-.86.38l-6.27,7a.45.45,0,0,0,.34.76H17.52q8.73,0,13-3.36t4.24-10.73V4.33A1.08,1.08,0,0,0,33.65,3.25Z"/><polygon class="cls-1" points="163.9 14.63 154.08 3.33 139.44 3.33 139.44 3.82 156.4 22.35 163.9 14.63"/><polygon class="cls-1" points="174.05 24.3 193.5 3.82 193.5 3.33 179.26 3.33 166.21 17.12 166.2 17.11 143.59 40.71 143.59 40.71 137.49 47.47 137.49 47.96 151.8 47.96 165.81 32.39 179.37 47.96 194.36 47.96 194.36 47.47 174.05 24.3"/><path class="cls-1" d="M93.21,16.15a.41.41,0,0,0-.3-.68H80.13a7.81,7.81,0,0,0-3.18.66,8.33,8.33,0,0,0-2.62,1.78,8.5,8.5,0,0,0-1.78,2.62,8.27,8.27,0,0,0-.65,3.33V47.34a.62.62,0,0,0,.62.62h7a.62.62,0,0,0,.62-.62V25.83a2.27,2.27,0,0,1,.19-.85,3,3,0,0,1,.53-.87,4.45,4.45,0,0,1,.78-.72,1.72,1.72,0,0,1,1-.31h3.85a1.09,1.09,0,0,0,.81-.36Z"/><path class="cls-1" d="M121.53,15.35h-7.17a.76.76,0,0,0-.5.12,1.61,1.61,0,0,0-.25.5l-7.35,19.77c-.05.09-.15.31-.32.69s-.33.56-.49.56-.34-.19-.5-.56l-.31-.69L97.4,16h0L91.6,22.39,100,44.85q1.31,3.56,5.49,3.55T111,44.85l10.85-29v-.19A.28.28,0,0,0,121.53,15.35Z"/></g></svg>