<svg width="296" height="200" viewBox="0 0 296 200" fill="none" xmlns="http://www.w3.org/2000/svg">
<path opacity="0.35" d="M149.802 62.2949C164.591 62.2949 177.707 69.4473 185.887 80.4883L191.609 82.0196C183.066 67.8557 167.552 58.3862 149.802 58.3862C141.239 58.3862 133.18 60.6025 126.169 64.4708L131.871 66.0021C137.371 63.6246 143.435 62.2949 149.802 62.2949ZM179.278 59.7361L182.421 62.2747L183.388 58.4668L186.894 56.4117L183.388 54.3567L182.421 50.5487L179.278 53.0873L175.168 52.7851L176.74 56.4117L175.168 60.0383L179.278 59.7361ZM124.92 51.2337L121.696 48.9973L120.991 52.9665L117.687 55.4245L121.253 57.1371L122.441 60.9047L125.343 57.9833L129.372 57.8422L127.599 54.3365L128.909 50.4883L124.92 51.2337ZM155.101 45.7334L152.703 42.6105L150.83 46.1767L146.941 47.5266L149.822 50.2264L149.802 54.1955L153.449 52.3016L157.337 53.3896L156.733 49.501L159.151 46.2371L155.101 45.7334ZM198.781 70.2533L195.397 67.9161L194.913 71.8248L191.73 74.1418L195.417 75.9551L196.827 79.7429L199.587 76.9625L203.657 76.9826L201.683 73.4366L202.771 69.669L198.781 70.2533ZM242.744 99.7496L73.039 54.2761C68.8685 53.1679 64.5971 55.626 63.4688 59.7966L51.3399 105.048C50.2318 109.219 52.6898 113.49 56.8604 114.619L226.565 160.092C230.736 161.2 235.007 158.742 236.135 154.572L248.264 109.32C249.372 105.149 246.894 100.858 242.744 99.7496ZM243.973 110.186L232.851 151.67C232.005 154.793 228.802 156.647 225.679 155.821L59.7617 111.355C56.6387 110.509 54.7852 107.305 55.6112 104.182L66.7328 62.6978C67.579 59.5749 70.7825 57.7213 73.9054 58.5474L239.843 103.014C242.965 103.86 244.819 107.063 243.973 110.186ZM149.802 36.9087C182.321 36.9087 209.681 59.0108 217.7 88.9907L222.012 90.1391C214.315 57.399 184.92 33 149.802 33C128.506 33 109.325 41.9658 95.7859 56.3311L100.098 57.4796C112.831 44.7663 130.4 36.9087 149.802 36.9087ZM167.713 148.366C162.233 150.764 156.169 152.094 149.802 152.094C135.014 152.094 121.897 144.941 113.717 133.9L107.995 132.369C116.538 146.533 132.072 156.002 149.802 156.002C158.365 156.002 166.424 153.786 173.435 149.918L167.713 148.366ZM125.826 156.466L122.723 153.927L121.756 157.715L118.291 159.77L121.777 161.805L122.744 165.613L125.846 163.074L129.916 163.376L128.365 159.77L129.916 156.163L125.826 156.466ZM149.782 168.494L152.159 171.597L154.013 168.03L157.881 166.701L155.041 164.001L155.061 160.072L151.434 161.966L147.586 160.878L148.19 164.746L145.793 168.01L149.782 168.494ZM100.44 143.954L103.623 146.513L104.369 142.644L107.693 140.549L104.167 138.474L103.039 134.605L100.118 137.184L96.1083 136.882L97.8208 140.549L96.4709 144.216L100.44 143.954ZM149.802 177.46C117.284 177.46 89.9229 155.358 81.9041 125.378L77.5924 124.209C85.2889 156.969 114.685 181.368 149.802 181.368C171.098 181.368 190.279 172.403 203.818 158.037L199.507 156.889C186.773 169.602 169.204 177.46 149.802 177.46ZM178.029 163.135L181.233 165.371L181.918 161.402L185.182 158.944L181.656 157.231L180.467 153.484L177.606 156.405L173.597 156.526L175.349 160.032L174.06 163.86L178.029 163.135Z" fill="#F1616D"/>
<path d="M100.65 82.5898L95.488 101.904L98.6529 102.75L100.938 94.2018L110.378 96.7252L111.101 94.0202L101.661 91.4968L103.092 86.1408L113.101 88.816L113.824 86.111L100.65 82.5898Z" fill="#F1616D"/>
<path d="M124.591 88.9889L112.044 106.329L115.425 107.233L118.477 102.861L126.565 105.023L127.03 110.335L130.411 111.238L128.189 89.9505L124.591 88.9889ZM120.118 100.517L125.438 92.8672L125.546 92.8961L126.313 102.173L120.118 100.517Z" fill="#F1616D"/>
<path d="M140.164 93.1514L135.002 112.465L138.166 113.311L143.329 93.9974L140.164 93.1514Z" fill="#F1616D"/>
<path d="M149.817 95.7315L144.654 115.045L158.233 118.675L158.956 115.97L148.515 113.179L152.954 96.5702L149.817 95.7315Z" fill="#F1616D"/>
<path d="M168.53 100.733L163.367 120.047L177.758 123.894L178.481 121.189L167.255 118.188L168.817 112.345L178.934 115.049L179.657 112.344L169.54 109.64L170.972 104.284L181.738 107.162L182.461 104.457L168.53 100.733Z" fill="#F1616D"/>
<path d="M188.591 106.095L183.428 125.409L190.488 127.296C193.626 128.135 196.211 127.899 198.297 126.601C200.28 125.363 201.693 123.22 202.51 120.163C203.334 117.079 203.179 114.516 202.071 112.481C200.911 110.316 198.789 108.821 195.651 107.982L188.591 106.095ZM191.032 109.646L194.333 110.528C196.74 111.172 198.354 112.183 199.166 113.588C199.959 114.96 200.023 116.89 199.372 119.324C198.736 121.705 197.725 123.318 196.339 124.165C194.934 124.978 193.024 125.076 190.616 124.432L187.316 123.55L191.032 109.646Z" fill="#F1616D"/>
<path opacity="0.75" fill-rule="evenodd" clip-rule="evenodd" d="M237.001 109.999L73.0006 66.9991L73.5078 65.0645L237.508 108.064L237.001 109.999Z" fill="#F1616D"/>
<path opacity="0.75" fill-rule="evenodd" clip-rule="evenodd" d="M226 149.999L63.0003 105.999L63.5215 104.068L226.521 148.068L226 149.999Z" fill="#F1616D"/>
<g opacity="0.75">
<path opacity="0.75" fill-rule="evenodd" clip-rule="evenodd" d="M259.858 27.8068L223.26 17.8438L221.527 24.2087L214.367 22.2594L207.003 49.3101L214.163 51.2593L214.163 51.2595L216.55 51.9093L213.301 63.8432L245.921 72.7232L249.17 60.7889L254.739 62.305L254.739 62.3052L257.922 63.1716L265.286 36.121L258.125 34.1717L259.858 27.8068ZM227.114 63.3303L220.749 61.5976L219.666 65.5756L226.031 67.3083L227.114 63.3303ZM240.639 67.0122L234.274 65.2795L233.191 69.2576L239.556 70.9903L240.639 67.0122ZM247.981 42.4894L245.524 38.1945L241.945 40.2417L244.402 44.5366L240.108 46.9928L242.156 50.5715L246.449 48.1152L248.906 52.4091L252.484 50.3619L250.028 46.0681L254.323 43.6112L252.276 40.0326L247.981 42.4894ZM227.295 36.8583L224.838 32.5634L221.259 34.6105L223.716 38.9054L219.422 41.3617L221.469 44.9404L225.763 42.4841L228.22 46.7779L231.798 44.7308L229.342 40.4369L233.637 37.9801L231.59 34.4014L227.295 36.8583Z" fill="#F1616D"/>
</g>
</svg>
