<svg width="296" height="200" viewBox="0 0 296 200" fill="none" xmlns="http://www.w3.org/2000/svg">
<path opacity="0.35" d="M149.802 62.2949C164.591 62.2949 177.707 69.4473 185.887 80.4883L191.609 82.0196C183.066 67.8557 167.552 58.3862 149.802 58.3862C141.239 58.3862 133.18 60.6025 126.169 64.4708L131.871 66.0021C137.371 63.6246 143.435 62.2949 149.802 62.2949ZM179.278 59.7361L182.421 62.2747L183.388 58.4668L186.894 56.4117L183.388 54.3567L182.421 50.5487L179.278 53.0873L175.168 52.7851L176.74 56.4117L175.168 60.0383L179.278 59.7361ZM124.92 51.2337L121.696 48.9973L120.991 52.9665L117.687 55.4245L121.253 57.1371L122.441 60.9047L125.343 57.9833L129.372 57.8422L127.599 54.3365L128.909 50.4883L124.92 51.2337ZM155.101 45.7334L152.703 42.6105L150.83 46.1767L146.941 47.5266L149.822 50.2264L149.802 54.1955L153.449 52.3016L157.337 53.3896L156.733 49.501L159.151 46.2371L155.101 45.7334ZM198.781 70.2533L195.397 67.9161L194.913 71.8248L191.73 74.1418L195.417 75.9551L196.827 79.7429L199.587 76.9625L203.657 76.9826L201.683 73.4366L202.771 69.669L198.781 70.2533ZM242.744 99.7496L73.039 54.2761C68.8685 53.1679 64.5971 55.626 63.4688 59.7966L51.3399 105.048C50.2318 109.219 52.6898 113.49 56.8604 114.619L226.565 160.092C230.736 161.2 235.007 158.742 236.135 154.572L248.264 109.32C249.372 105.149 246.894 100.858 242.744 99.7496ZM243.973 110.186L232.851 151.67C232.005 154.793 228.802 156.647 225.679 155.821L59.7617 111.355C56.6387 110.509 54.7852 107.305 55.6112 104.182L66.7328 62.6978C67.579 59.5749 70.7825 57.7213 73.9054 58.5474L239.843 103.014C242.965 103.86 244.819 107.063 243.973 110.186ZM149.802 36.9087C182.321 36.9087 209.681 59.0108 217.7 88.9907L222.012 90.1391C214.315 57.399 184.92 33 149.802 33C128.506 33 109.325 41.9658 95.7859 56.3311L100.098 57.4796C112.831 44.7663 130.4 36.9087 149.802 36.9087ZM167.713 148.366C162.233 150.764 156.169 152.094 149.802 152.094C135.014 152.094 121.897 144.941 113.717 133.9L107.995 132.369C116.538 146.533 132.072 156.002 149.802 156.002C158.365 156.002 166.424 153.786 173.435 149.918L167.713 148.366ZM125.826 156.466L122.723 153.927L121.756 157.715L118.291 159.77L121.777 161.805L122.744 165.613L125.846 163.074L129.916 163.376L128.365 159.77L129.916 156.163L125.826 156.466ZM149.782 168.494L152.159 171.597L154.013 168.03L157.881 166.701L155.041 164.001L155.061 160.072L151.434 161.966L147.586 160.878L148.19 164.746L145.793 168.01L149.782 168.494ZM100.44 143.954L103.623 146.513L104.369 142.644L107.693 140.549L104.167 138.474L103.039 134.605L100.118 137.184L96.1083 136.882L97.8208 140.549L96.4709 144.216L100.44 143.954ZM149.802 177.46C117.284 177.46 89.9229 155.358 81.9041 125.378L77.5924 124.209C85.2889 156.969 114.685 181.368 149.802 181.368C171.098 181.368 190.279 172.403 203.818 158.037L199.507 156.889C186.773 169.602 169.204 177.46 149.802 177.46ZM178.029 163.135L181.233 165.371L181.918 161.402L185.182 158.944L181.656 157.231L180.467 153.484L177.606 156.405L173.597 156.526L175.349 160.032L174.06 163.86L178.029 163.135Z" fill="#58D297"/>
<g opacity="0.75">
<path d="M94.1857 97.0864C93.7315 98.7859 92.7609 99.9463 91.2739 100.568C89.787 101.189 87.9869 101.218 85.8735 100.653C83.5841 100.041 81.9019 99.2751 80.8268 98.3556L81.4058 96.1895C82.1088 96.7359 82.9012 97.2307 83.7828 97.6739C84.6644 98.1171 85.5631 98.4611 86.4788 98.7059C87.9758 99.106 89.1782 99.1255 90.0861 98.7644C90.9963 98.3944 91.5868 97.7031 91.8574 96.6905C92.0363 96.0213 92.0458 95.4389 91.8858 94.9433C91.7369 94.4412 91.3938 93.9249 90.8563 93.3944C90.3276 92.8663 89.4816 92.2015 88.3184 91.4C86.6939 90.277 85.6119 89.1717 85.0724 88.0841C84.5417 86.9987 84.4658 85.7473 84.8447 84.3296C85.2425 82.8414 86.1182 81.8066 87.4718 81.2249C88.8255 80.6433 90.4225 80.5984 92.2628 81.0903C94.1824 81.6034 95.8538 82.4275 97.2769 83.5627L96.0543 85.3304C94.6394 84.2352 93.1791 83.4863 91.6734 83.0839C90.4846 82.7661 89.4874 82.7732 88.6817 83.105C87.876 83.4369 87.3519 84.0563 87.1095 84.9632C86.9306 85.6324 86.9068 86.2157 87.038 86.7131C87.1716 87.2017 87.4807 87.7041 87.9654 88.2205C88.4612 88.7304 89.2546 89.3623 90.3456 90.1162C92.1779 91.3796 93.362 92.5263 93.8981 93.5565C94.4429 94.5889 94.5388 95.7656 94.1857 97.0864Z" fill="#58D297"/>
<path d="M119.21 88.5902L115.87 101.085C115.282 103.287 114.155 104.839 112.488 105.743C110.822 106.647 108.827 106.788 106.502 106.167C104.177 105.545 102.546 104.43 101.608 102.821C100.679 101.214 100.511 99.3008 101.104 97.0818L104.43 84.6397L106.675 85.2399L103.307 97.8405C102.877 99.4519 102.986 100.807 103.636 101.905C104.286 103.003 105.465 103.781 107.173 104.237C108.802 104.673 110.173 104.577 111.284 103.949C112.397 103.313 113.171 102.184 113.604 100.564L116.965 87.9901L119.21 88.5902Z" fill="#58D297"/>
<path d="M134.846 94.6234C132.724 94.0562 130.857 94.3166 129.245 95.4048C127.644 96.4865 126.516 98.2558 125.859 100.712C125.184 103.24 125.251 105.352 126.062 107.05C126.883 108.741 128.39 109.88 130.583 110.466C131.93 110.826 133.531 110.995 135.387 110.972L134.861 112.94C133.388 113.084 131.67 112.894 129.706 112.369C126.862 111.609 124.896 110.158 123.807 108.018C122.728 105.881 122.613 103.222 123.462 100.044C123.994 98.0535 124.83 96.4089 125.97 95.1096C127.118 93.8128 128.501 92.9464 130.118 92.5105C131.743 92.077 133.507 92.1144 135.409 92.6228C137.434 93.1641 139.105 94.007 140.422 95.1515L138.955 96.8257C137.677 95.7482 136.307 95.0141 134.846 94.6234Z" fill="#58D297"/>
<path d="M154.616 99.9077C152.494 99.3405 150.627 99.601 149.015 100.689C147.414 101.771 146.286 103.54 145.629 105.997C144.954 108.524 145.021 110.636 145.832 112.334C146.653 114.026 148.16 115.164 150.353 115.75C151.7 116.111 153.301 116.279 155.157 116.256L154.631 118.224C153.158 118.368 151.44 118.178 149.476 117.653C146.632 116.893 144.666 115.443 143.577 113.303C142.498 111.165 142.383 108.507 143.232 105.328C143.764 103.338 144.6 101.693 145.74 100.394C146.888 99.0971 148.271 98.2307 149.888 97.7948C151.513 97.3613 153.277 97.3987 155.179 97.9071C157.204 98.4485 158.875 99.2914 160.192 100.436L158.725 102.11C157.447 101.033 156.077 100.298 154.616 99.9077Z" fill="#58D297"/>
<path d="M172.183 123.439L161.418 120.562L166.58 101.252L177.345 104.129L176.811 106.123L168.292 103.846L166.629 110.067L174.634 112.207L174.104 114.188L166.1 112.049L164.2 119.155L172.72 121.432L172.183 123.439Z" fill="#58D297"/>
<path d="M189.945 128.187L179.181 125.31L184.342 105.999L195.107 108.877L194.574 110.871L186.055 108.594L184.392 114.815L192.396 116.955L191.866 118.936L183.862 116.796L181.963 123.902L190.482 126.179L189.945 128.187Z" fill="#58D297"/>
<path d="M214.987 124.337C214.135 127.525 212.616 129.732 210.429 130.959C208.254 132.18 205.542 132.356 202.292 131.487L196.943 130.058L202.105 110.747L208.022 112.329C211.025 113.131 213.136 114.587 214.355 116.696C215.574 118.805 215.785 121.352 214.987 124.337ZM212.589 123.781C213.262 121.263 213.135 119.196 212.208 117.58C211.29 115.967 209.585 114.827 207.093 114.161L203.831 113.289L199.708 128.716L202.442 129.447C205.118 130.162 207.306 130.044 209.004 129.092C210.704 128.132 211.899 126.361 212.589 123.781Z" fill="#58D297"/>
</g>
<path opacity="0.75" fill-rule="evenodd" clip-rule="evenodd" d="M237.001 109.999L73.0006 66.9991L73.5078 65.0645L237.508 108.064L237.001 109.999Z" fill="#58D297"/>
<path opacity="0.75" fill-rule="evenodd" clip-rule="evenodd" d="M226 149.999L63.0003 105.999L63.5215 104.068L226.521 148.068L226 149.999Z" fill="#58D297"/>
<path opacity="0.75" d="M265.451 67.0599V66.4013C265.451 64.9192 264.824 63.6019 263.835 62.7127C266.176 62.4163 267.956 60.3414 267.956 57.8055V57.1469C267.956 55.1379 266.802 53.3924 265.154 52.6349H265.747C268.352 52.6349 270.495 50.4284 270.495 47.6948V46.147C270.495 44.5661 269.769 43.15 268.648 42.2608C271.088 42.0632 273 39.9554 273 37.3536V35.3776C273 32.6441 270.89 30.4375 268.253 30.4375H244.286C246.593 22.0394 243.89 11.7311 243.89 11.7311L242.538 7.64733C241.121 3.76114 239.505 2.31206 238.055 2.04859C236.802 1.81805 235.648 2.44379 234.791 3.16834C233.736 3.99168 233.143 5.34197 233.143 6.69225V16.2431C233.143 16.8029 232.853 21.25 231.529 22.5625C229.765 25.1875 227.444 27.375 224.912 30.4375C223.659 31.9525 222.231 33.2698 221.209 34.3896C220.681 34.9824 220.187 35.5093 219.758 35.9704C219.231 36.5632 218.283 37.0513 217.813 37.2219C217.344 37.3925 215.891 38.266 215.5 38.5C213 40 213 43 213 43V43.9341V44V45V45.0659V52.075V52.1409V52.5032V52.602V56.1512V56.25V55.375V55.4738V57.3932V58.4375C213 61.5 214.765 65 214.765 65L216.529 67.625C217.163 68.3922 218.735 69.8125 219.176 70.25C220.059 71.125 222.659 72 224.802 72H260.67C261 72 261.363 71.9671 261.692 71.9012C263.835 71.4401 265.451 69.4641 265.451 67.0599Z" fill="#58D297"/>
<path fill-rule="evenodd" clip-rule="evenodd" d="M257.079 45.1614L236.265 65.1898L221.891 50.9853L226.108 46.7175L236.32 56.8095L252.919 40.8379L257.079 45.1614Z" fill="white"/>
</svg>
