<?xml version="1.0" encoding="utf-8"?>
<!-- Generator: Adobe Illustrator 19.0.0, SVG Export Plug-In . SVG Version: 6.00 Build 0)  -->
<svg version="1.1" id="圖層_1" xmlns="http://www.w3.org/2000/svg" xmlns:xlink="http://www.w3.org/1999/xlink" x="0px" y="0px"
	 viewBox="-527.2 375.6 252 51.6" style="enable-background:new -527.2 375.6 252 51.6;" xml:space="preserve">
<style type="text/css">
	.st0{fill:#FFFFFF;}
	.st1{fill:#FFFFFF;}
	.st2{fill:#FFFFFF;}
	.st3{fill:#FFFFFF;}
</style>
<title>synergies logo copy 3</title>
<desc>Created with Sketch.</desc>
<g>
	<g id="XMLID_9308_">
		<path id="XMLID_9309_" class="st0" d="M-460.4,399.3v-3.4c1.9,0.9,3.7,1.3,5.1,1.3c1,0,1.7-0.2,2.4-0.7c0.5-0.4,0.9-1.1,0.9-1.9
			c0-0.7-0.2-1.2-0.5-1.7s-1.1-1-2.1-1.5l-1.2-0.8c-1.6-1-2.8-2-3.5-2.9s-1-2-1-3.2c0-1.7,0.5-2.9,1.7-3.9c1.1-1,2.6-1.4,4.4-1.4
			c1.5,0,3.1,0.2,5,0.7v3.2c-1.8-0.8-3.4-1.1-4.4-1.1c-0.9,0-1.5,0.2-2.1,0.6c-0.5,0.4-0.8,0.9-0.8,1.5c0,0.6,0.2,1,0.5,1.4
			s1.1,0.9,2.1,1.5l1.3,0.8c1.7,1.1,3,2,3.7,3c0.6,0.9,1,2,1,3.3c0,1.9-0.6,3.2-1.9,4.3c-1.3,1-3,1.5-5.3,1.5
			C-456.7,400-458.4,399.7-460.4,399.3z"/>
		<path id="XMLID_9314_" class="st0" d="M-435.2,399.4v-8.3l-6.2-11.4h4.2l4.5,8.3l4.8-8.3h3l-6.5,11.4v8.3H-435.2z"/>
		<path id="XMLID_9316_" class="st0" d="M-416.9,399.4v-19.7h3.4l8.5,13.5v-13.5h3.1v19.7h-3.5l-8.5-13.4v13.5h-3V399.4z"/>
		<path id="XMLID_9318_" class="st0" d="M-392.1,399.4v-19.7h11.6v2.7h-7.7v5.5h6.3v2.7h-6.3v6.1h8.3v2.8H-392.1z"/>
		<path id="XMLID_9320_" class="st0" d="M-371.7,399.4v-19.7h6.9c3.8,0,5.6,1.7,5.6,4.9c0,1.2-0.3,2.3-1,3.3s-1.5,1.8-2.6,2.3
			l6.1,9.2h-4.7l-4.5-8.1h-2.2v8.1C-368,399.4-371.7,399.4-371.7,399.4z M-368,388.7h0.9c2.8,0,4.2-1.2,4.2-3.6
			c0-1.8-1.3-2.7-3.8-2.7h-1.3V388.7z"/>
		<path id="XMLID_9323_" class="st0" d="M-334.1,399c-2.3,0.7-4.3,1-6,1c-3.1,0-5.6-0.9-7.4-2.7s-2.6-4.3-2.6-7.6
			c0-3.3,0.9-5.9,2.6-7.6c1.7-1.8,4.1-2.7,7.4-2.7c2.1,0,4,0.2,6.1,0.8v3.2c-2.3-0.9-4.2-1.2-5.7-1.2c-1.9,0-3.5,0.7-4.5,2
			c-1.1,1.3-1.6,3.2-1.6,5.6c0,2.3,0.5,4.2,1.7,5.5c1.2,1.3,2.7,2,4.8,2c0.4,0,1-0.1,1.5-0.2v-6.5h3.9v8.4H-334.1z"/>
		<path id="XMLID_9325_" class="st0" d="M-324.6,399.4v-19.7h3.9v19.7C-320.7,399.4-324.6,399.4-324.6,399.4z"/>
		<path id="XMLID_9327_" class="st0" d="M-311.1,399.4v-19.7h11.6v2.7h-7.7v5.5h6.3v2.7h-6.3v6.1h8.3v2.8H-311.1z"/>
		<path id="XMLID_9329_" class="st0" d="M-291.6,399.3v-3.4c1.9,0.9,3.7,1.3,5.1,1.3c1,0,1.7-0.2,2.4-0.7c0.5-0.4,0.9-1.1,0.9-1.9
			c0-0.7-0.2-1.2-0.5-1.7s-1.1-1-2.1-1.5l-1.2-0.8c-1.6-1-2.8-2-3.5-2.9c-0.6-0.9-1-2-1-3.2c0-1.7,0.5-2.9,1.7-3.9
			c1.1-1,2.6-1.4,4.4-1.4c1.5,0,3.1,0.2,5,0.7v3.2c-1.8-0.8-3.4-1.1-4.4-1.1c-0.9,0-1.5,0.2-2.1,0.6c-0.5,0.4-0.8,0.9-0.8,1.5
			c0,0.6,0.2,1,0.5,1.4s1.1,0.9,2.1,1.5l1.3,0.8c1.7,1.1,3,2,3.7,3c0.6,0.9,1,2,1,3.3c0,1.9-0.6,3.2-1.9,4.3c-1.3,1-3,1.5-5.3,1.5
			C-287.9,400-289.7,399.7-291.6,399.3z"/>
	</g>
	<g id="XMLID_9194_">
		<path id="XMLID_9220_" class="st1" d="M-460.3,424.2v-12.9h1.7v12.9H-460.3z"/>
		<path id="XMLID_9245_" class="st1" d="M-453.7,424.2v-9.5h1.6v1.8c0.9-1.3,1.9-2,3.1-2c0.8,0,1.4,0.2,1.8,0.8
			c0.4,0.6,0.6,1.3,0.6,2.2v6.8h-1.6V418c0-0.7-0.1-1.2-0.3-1.5s-0.5-0.4-1-0.4c-1,0-1.9,0.7-2.8,2.1v6.2h-1.5V424.2z"/>
		<path id="XMLID_9268_" class="st1" d="M-438.9,424.4c-0.9,0-1.5-0.2-1.9-0.8c-0.4-0.6-0.6-1.2-0.6-2.1V416h-1.1v-1.3h1.1V413
			l1.6-0.1v1.9h2.4v1.3h-2.4v5.3c0,1.2,0.5,1.9,1.5,1.9c0.2,0,0.4,0,0.8-0.1v1.2C-438.1,424.4-438.5,424.4-438.9,424.4z"/>
		<path id="XMLID_9272_" class="st1" d="M-427.1,423.9c-1.1,0.3-2.1,0.6-2.8,0.6c-1.3,0-2.4-0.4-3.2-1.4c-0.9-0.9-1.3-2.1-1.3-3.6
			c0-1.4,0.3-2.7,1.1-3.5s1.6-1.4,2.8-1.4c1.1,0,1.9,0.4,2.5,1.2c0.5,0.8,0.9,2,0.9,3.5v0.6h-5.6c0.2,2.2,1.3,3.4,3.1,3.4
			c0.6,0,1.5-0.2,2.5-0.6v1.3H-427.1z M-432.6,418.4h3.9c0-1.8-0.6-2.7-1.8-2.7S-432.5,416.6-432.6,418.4z"/>
		<path id="XMLID_9275_" class="st1" d="M-422.5,424.2v-13.8h1.6v13.8H-422.5z"/>
		<path id="XMLID_9277_" class="st1" d="M-416,424.2v-13.8h1.6v13.8H-416z"/>
		<path id="XMLID_9279_" class="st1" d="M-409.5,413v-1.8h1.6v1.8H-409.5z M-409.5,424.2v-9.5h1.6v9.5H-409.5z"/>
		<path id="XMLID_9282_" class="st1" d="M-402.9,427.4l0.2-1.5c1,0.4,1.8,0.7,2.8,0.7c1.8,0,2.7-1,2.7-3.1v-1.5
			c-0.6,1.3-1.6,2-2.9,2c-1.1,0-1.9-0.4-2.6-1.2c-0.6-0.8-1-2-1-3.3c0-1.4,0.3-2.7,1.1-3.5s1.6-1.3,2.8-1.3c1,0,1.8,0.4,2.6,1.3
			v-1.1h1.6v7c0,1.4-0.1,2.5-0.2,3.3c-0.1,0.7-0.4,1.3-0.9,1.8c-0.8,0.8-1.8,1.2-3.2,1.2C-401,427.9-402,427.7-402.9,427.4z
			 M-397.2,421v-4c-0.8-0.8-1.5-1.2-2.4-1.2c-0.8,0-1.3,0.3-1.7,1c-0.4,0.7-0.6,1.5-0.6,2.7c0,2.1,0.6,3.1,2.1,3.1
			C-398.9,422.5-398.1,421.9-397.2,421z"/>
		<path id="XMLID_9285_" class="st1" d="M-384.2,423.9c-1.1,0.3-2.1,0.6-2.8,0.6c-1.3,0-2.4-0.4-3.2-1.4c-0.9-0.9-1.3-2.1-1.3-3.6
			c0-1.4,0.3-2.7,1.1-3.5s1.6-1.4,2.8-1.4c1.1,0,1.9,0.4,2.5,1.2c0.5,0.8,0.9,2,0.9,3.5v0.6h-5.6c0.2,2.2,1.3,3.4,3.1,3.4
			c0.6,0,1.5-0.2,2.5-0.6v1.3H-384.2z M-389.8,418.4h3.9c0-1.8-0.6-2.7-1.8-2.7C-389,415.8-389.6,416.6-389.8,418.4z"/>
		<path id="XMLID_9288_" class="st1" d="M-379.8,424.2v-9.5h1.6v1.8c0.9-1.3,1.9-2,3.1-2c0.8,0,1.4,0.2,1.8,0.8
			c0.4,0.6,0.6,1.2,0.6,2.1v6.8h-1.6v-6.3c0-0.7-0.1-1.2-0.3-1.5c-0.2-0.3-0.5-0.4-1-0.4c-1,0-1.9,0.7-2.8,2.1v6.2H-379.8z"/>
		<path id="XMLID_9290_" class="st1" d="M-365,424.4c-0.9,0-1.5-0.2-1.9-0.8c-0.4-0.6-0.6-1.2-0.6-2.1V416h-1.1v-1.3h1.1V413
			l1.6-0.1v1.9h2.4v1.3h-2.4v5.3c0,1.2,0.5,1.9,1.5,1.9c0.2,0,0.4,0,0.8-0.1v1.2C-364.1,424.4-364.5,424.4-365,424.4z"/>
		<path id="XMLID_9292_" class="st1" d="M-350.4,424.5c-0.9,0-1.8-0.2-3.1-0.6v-1.8c1.4,0.7,2.5,1,3.4,1c0.6,0,1.2-0.2,1.6-0.6
			c0.4-0.3,0.6-0.9,0.6-1.5c0-0.6-0.1-0.9-0.4-1.3c-0.3-0.3-0.8-0.8-1.5-1.2l-0.9-0.6c-1.1-0.7-1.7-1.2-2.2-1.8s-0.5-1.1-0.5-1.9
			c0-1,0.3-1.8,1-2.4s1.5-1,2.6-1c1,0,1.9,0.2,2.9,0.6v1.7c-1.3-0.6-2.3-0.8-2.9-0.8s-1.1,0.2-1.5,0.6c-0.4,0.3-0.5,0.8-0.5,1.3
			c0,0.4,0.1,0.8,0.4,1.1c0.3,0.3,0.8,0.8,1.5,1.2l0.9,0.6c1.1,0.7,1.8,1.2,2.2,1.8c0.4,0.6,0.6,1.2,0.6,2c0,1.1-0.4,2-1.2,2.8
			C-348,424.2-349.1,424.5-350.4,424.5z"/>
		<path id="XMLID_9294_" class="st1" d="M-341.4,427.7l1.4-3.4l-3.5-9.5h1.7l2.6,7.2l2.7-7.2h1.5l-4.9,12.9H-341.4z"/>
		<path id="XMLID_9296_" class="st1" d="M-329.2,424.4c-0.8,0-1.6-0.2-2.7-0.6v-1.5c1.1,0.6,1.9,0.9,2.8,0.9c0.4,0,0.9-0.1,1.2-0.4
			c0.3-0.2,0.4-0.6,0.4-1c0-0.6-0.4-1.1-1.3-1.4l-1-0.4c-1.4-0.7-2.1-1.5-2.1-2.7c0-0.8,0.3-1.4,0.9-2c0.5-0.4,1.3-0.7,2.3-0.7
			c0.5,0,1.1,0.1,1.8,0.2l0.3,0.1v1.4c-0.9-0.3-1.6-0.4-2.2-0.4c-1.1,0-1.5,0.4-1.5,1.2c0,0.6,0.4,1,1.2,1.3l0.8,0.3
			c0.9,0.4,1.5,0.8,1.8,1.2s0.5,1,0.5,1.7c0,0.9-0.3,1.5-1,2.1C-327.3,424.2-328.2,424.4-329.2,424.4z"/>
		<path id="XMLID_9298_" class="st1" d="M-318.6,424.4c-0.9,0-1.5-0.2-1.9-0.8c-0.4-0.6-0.6-1.2-0.6-2.1V416h-1.1v-1.3h1.1V413
			l1.6-0.1v1.9h2.4v1.3h-2.4v5.3c0,1.2,0.5,1.9,1.5,1.9c0.2,0,0.4,0,0.8-0.1v1.2C-317.8,424.4-318.2,424.4-318.6,424.4z"/>
		<path id="XMLID_9300_" class="st1" d="M-306.8,423.9c-1.1,0.3-2.1,0.6-2.8,0.6c-1.3,0-2.4-0.4-3.2-1.4c-0.9-0.9-1.3-2.1-1.3-3.6
			c0-1.4,0.3-2.7,1.1-3.5s1.6-1.4,2.8-1.4c1.1,0,1.9,0.4,2.5,1.2c0.5,0.8,0.9,2,0.9,3.5v0.6h-5.4c0.2,2.2,1.3,3.4,3.1,3.4
			c0.6,0,1.5-0.2,2.5-0.6v1.3H-306.8z M-312.3,418.4h3.9c0-1.8-0.6-2.7-1.8-2.7S-312.1,416.6-312.3,418.4z"/>
		<path id="XMLID_9303_" class="st1" d="M-302.2,424.2v-9.5h1.6v1.8c0.8-1.3,1.8-2,3-2s2.1,0.7,2.5,2c0.8-1.3,1.7-2,3-2
			c0.8,0,1.4,0.2,1.8,0.8c0.4,0.4,0.6,1.2,0.6,2.1v7h-1.6v-6.6c0-1.1-0.4-1.7-1.2-1.7c-0.9,0-1.7,0.7-2.6,1.9v6.4h-1.6v-6.6
			c0-1.1-0.4-1.7-1.2-1.7c-0.9,0-1.7,0.7-2.6,1.9v6.4h-1.8V424.2z"/>
		<path id="XMLID_9305_" class="st1" d="M-282.4,424.4c-0.8,0-1.6-0.2-2.7-0.6v-1.5c1.1,0.6,1.9,0.9,2.8,0.9c0.4,0,0.9-0.1,1.2-0.4
			c0.3-0.2,0.4-0.6,0.4-1c0-0.6-0.4-1.1-1.3-1.4l-1-0.4c-1.4-0.7-2.1-1.5-2.1-2.7c0-0.8,0.3-1.4,0.9-2c0.5-0.4,1.3-0.7,2.3-0.7
			c0.5,0,1.1,0.1,1.8,0.2l0.3,0.1v1.4c-0.9-0.3-1.6-0.4-2.2-0.4c-1.1,0-1.5,0.4-1.5,1.2c0,0.6,0.4,1,1.2,1.3l0.8,0.3
			c0.9,0.4,1.5,0.8,1.8,1.2s0.5,1,0.5,1.7c0,0.9-0.3,1.5-1,2.1C-280.7,424.2-281.6,424.4-282.4,424.4z"/>
	</g>
	<g id="XMLID_9195_">
		
			<linearGradient id="XMLID_2_" gradientUnits="userSpaceOnUse" x1="-502.9614" y1="399.4394" x2="-489.6696" y2="421.933" gradientTransform="matrix(1 0 0 -1 0 804.8)">
			<stop  offset="0" style="stop-color:#0F9696"/>
			<stop  offset="1" style="stop-color:#4BC8C8"/>
		</linearGradient>
		<path id="XMLID_5341_" class="st2" d="M-511.1,381.2c-1.3,1.1-2.9,2.5-4.3,3.8c-2.5,2.4-3.9,3.8-5.7,6.6c2.7,2.6,3.8,3.8,6,6.1
			c0.3,0.3,0.5,0.5,0.8,0.8c2.7,2.6,5.3,5.2,7.9,7.9c1.6,1.7,1.8,1.7,2.2,1.8c0.1,0,0.2,0,0.3,0.1c0.6,0.1,1.3-0.1,2-0.8
			c0.7-0.7,1-1.3,0.9-2c-0.1-0.7-0.5-1.4-1-2c-0.8-0.9-1.3-1.3-2.1-2.2c-0.8-0.8-1.5-1.7-1.9-2.5c-0.5-0.9-0.8-1.8-0.8-2.7
			s0.2-1.8,0.7-2.8c0.5-0.9,1.2-1.9,2.2-2.9c1-1,2-1.7,2.9-2.1c0.9-0.4,1.8-0.6,2.7-0.5c0.9,0.1,1.7,0.4,2.5,1
			c0.8,0.5,1.6,1.3,2.4,2.1c4.6,4.6,11,10.8,16.1,15.4c0,0,0.2-0.5,0.5-0.9c0.3-0.8,0.6-1.6,0.7-2.4c0.1-0.4,0.1-0.9,0.1-1.3l0,0
			c0-0.9-0.1-1.8-0.3-2.8c-0.4-2-1-3.6-1.4-4.6c-3.5-6.2-9.2-12-15.2-15.6c-1.1-0.6-2.2-1.1-3.2-1.5c-1.3-0.6-2.6-0.8-3.9-0.8
			C-504.1,376.5-507.8,378.9-511.1,381.2"/>
		
			<linearGradient id="XMLID_3_" gradientUnits="userSpaceOnUse" x1="-506.9416" y1="409.7121" x2="-496.3562" y2="378.77" gradientTransform="matrix(1 0 0 -1 0 804.8)">
			<stop  offset="0" style="stop-color:#0A3232"/>
			<stop  offset="1" style="stop-color:#005055"/>
		</linearGradient>
		<path id="XMLID_8123_" class="st3" d="M-500.2,394.6c-0.7,0.7-1,1.4-0.9,2c0.1,0.7,0.4,1.4,1,2c0.8,0.9,1.3,1.3,2.1,2.2
			c0.8,0.9,1.5,1.7,1.9,2.6c0.5,0.9,0.8,2.2,0.9,3.1c0,0.9-0.2,2-0.7,2.9c-0.5,1-1.2,1.8-2.2,2.8c-1,1-2.2,1.6-3.1,2
			c-0.9,0.4-1.8,0.6-2.7,0.5c-0.6-0.1-1.2-0.2-1.8-0.5c-0.3-0.1-0.5-0.3-0.8-0.5c-0.8-0.6-1.6-1.3-3.8-3.6c-1.9-2-2.9-3-4.7-4.8
			c-0.3-0.3-0.5-0.5-0.8-0.8c-2-2-6.1-6.2-8.2-8.3c0,0-0.4,1-0.7,1.6c-0.4,1.2-0.6,2.4-0.6,3.7l0,0c0,9.1,10.7,18.7,17.1,22.1
			c5.5,3,9.9,2.6,15.6-0.5l0,0c4.9-3.4,8.7-6.9,12.2-11.9c-5.5-5.1-10.8-10.5-16-16.1c-0.6-0.6-1.2-1-1.9-1.2c-0.1,0-0.2,0-0.3,0
			C-499.1,393.8-499.6,394-500.2,394.6"/>
	</g>
</g>
</svg>
