<svg width="229" height="166" viewBox="0 0 229 166" fill="none" xmlns="http://www.w3.org/2000/svg">
<path fill-rule="evenodd" clip-rule="evenodd" d="M156.169 37.2233C156.546 37.6321 156.919 38.0451 157.287 38.4621C162.805 30.272 172.394 26.0043 182.265 27.6613C194.086 29.591 205.367 23.5338 210.533 12.5004L209.189 11.672C204.144 22.1383 193.442 27.7686 182.337 25.9075C171.969 24.1618 161.959 28.6069 156.169 37.2233ZM163.767 46.9376C164.087 47.4231 164.401 47.9124 164.709 48.4057C170.362 41.4354 179.22 37.9301 188.317 39.4573C200.138 41.387 211.419 35.3298 216.585 24.2963L215.241 23.468C210.196 33.9342 199.494 39.5645 188.389 37.7035C178.892 36.1044 169.695 39.6998 163.767 46.9376ZM170.01 58.5023C170.247 59.0495 170.477 59.6 170.7 60.1538C176.355 53.2392 185.179 49.768 194.24 51.2891C206.095 53.3426 217.341 47.1615 222.508 36.1281L221.164 35.2998C216.378 45.6943 205.546 51.3605 194.441 49.4994C185.046 47.9174 175.944 51.4193 170.01 58.5023ZM176.32 14.2355C164.46 12.2386 153.068 18.3419 147.926 29.5231C148.342 29.858 148.756 30.1973 149.165 30.5408C154.174 19.9054 164.93 13.9725 176.248 15.9893C188.102 18.0429 199.349 11.8618 204.515 0.828366L203.171 0C198.127 10.4662 187.424 16.0965 176.32 14.2355ZM174.394 72.0826C174.547 72.7789 174.691 73.4788 174.825 74.1821C180.302 65.7534 190.029 61.3335 200.046 63.0151C211.901 65.0686 223.148 58.8876 228.314 47.8541L226.97 47.0258C222.184 57.4203 211.352 63.0865 200.248 61.2254C190.065 59.5109 180.227 63.7676 174.394 72.0826ZM134.813 64.4883C126.633 53.4473 113.516 46.2949 98.7279 46.2949C92.3612 46.2949 86.2967 47.6246 80.7964 50.0021L75.0945 48.4708C82.106 44.6025 90.1651 42.3862 98.7279 42.3862C116.478 42.3862 131.992 51.8557 140.535 66.0196L134.813 64.4883ZM131.347 46.2747L128.204 43.7361L124.094 44.0383L125.665 40.4117L124.094 36.7851L128.204 37.0873L131.347 34.5487L132.314 38.3567L135.82 40.4117L132.314 42.4668L131.347 46.2747ZM70.6217 32.9973L73.8454 35.2337L77.8346 34.4883L76.525 38.3365L78.298 41.8422L74.2685 41.9833L71.3672 44.9047L70.1785 41.1371L66.6123 39.4245L69.9166 36.9665L70.6217 32.9973ZM101.629 26.6105L104.027 29.7334L108.076 30.2371L105.659 33.501L106.263 37.3896L102.375 36.3016L98.7279 38.1955L98.748 34.2264L95.8669 31.5266L99.7554 30.1767L101.629 26.6105ZM144.322 51.9161L147.707 54.2533L151.696 53.669L150.608 57.4366L152.583 60.9826L148.513 60.9625L145.753 63.7429L144.342 59.9551L140.655 58.1418L143.839 55.8248L144.322 51.9161ZM21.9648 38.2761L191.67 83.7496C195.82 84.8577 198.298 89.1492 197.19 93.3198L185.061 138.572C183.933 142.742 179.662 145.2 175.491 144.092L5.78615 98.6187C1.61556 97.4904 -0.842468 93.2191 0.265661 89.0485L12.3946 43.7966C13.5229 39.626 17.7942 37.1679 21.9648 38.2761ZM181.777 135.67L192.899 94.1862C193.745 91.0633 191.891 87.8598 188.768 87.0136L22.8312 42.5474C19.7083 41.7213 16.5048 43.5749 15.6586 46.6978L4.53699 88.1821C3.71093 91.305 5.56453 94.5085 8.68743 95.3548L174.604 139.821C177.727 140.647 180.931 138.793 181.777 135.67ZM166.626 72.9907C158.607 43.0108 131.246 20.9087 98.7279 20.9087C79.3256 20.9087 61.7567 28.7663 49.0233 41.4796L44.7117 40.3311C58.251 25.9658 77.4317 17 98.7279 17C133.845 17 163.241 41.399 170.938 74.1391L166.626 72.9907ZM98.7279 136.094C105.095 136.094 111.159 134.764 116.639 132.366L122.361 133.918C115.35 137.786 107.291 140.002 98.7279 140.002C80.9978 140.002 65.4639 130.533 56.9212 116.369L62.6432 117.9C70.8232 128.941 83.9394 136.094 98.7279 136.094ZM71.6493 137.927L74.752 140.466L78.842 140.163L77.2906 143.77L78.842 147.376L74.7722 147.074L71.6694 149.613L70.7023 145.805L67.2168 143.77L70.6822 141.715L71.6493 137.927ZM101.085 155.597L98.7077 152.494L94.7185 152.01L97.1161 148.746L96.5116 144.878L100.36 145.966L103.986 144.072L103.966 148.001L106.807 150.701L102.939 152.03L101.085 155.597ZM52.5492 130.513L49.3658 127.954L45.3967 128.216L46.7466 124.549L45.034 120.882L49.0434 121.184L51.9649 118.605L53.0932 122.474L56.619 124.549L53.2946 126.644L52.5492 130.513ZM30.8299 109.378C38.8487 139.358 66.2094 161.46 98.7279 161.46C118.13 161.46 135.699 153.602 148.432 140.889L152.744 142.037C139.205 156.403 120.024 165.368 98.7279 165.368C63.6103 165.368 34.2147 140.969 26.5182 108.209L30.8299 109.378ZM130.158 149.371L126.955 147.135L122.986 147.86L124.275 144.032L122.522 140.526L126.532 140.405L129.393 137.484L130.582 141.231L134.107 142.944L130.843 145.402L130.158 149.371Z" fill="#E0E0E0"/>
<g opacity="0.4">
<path d="M74.0671 84.3222C73.2151 87.5098 71.6782 89.7124 69.4564 90.93C67.237 92.1387 64.463 92.2983 61.1346 91.4086L55.7324 89.9647L60.8939 70.6543L66.864 72.25C69.9371 73.0715 72.1065 74.5382 73.3723 76.6502C74.6381 78.7622 74.8697 81.3196 74.0671 84.3222ZM70.7104 83.5382C71.9461 78.9154 70.4021 76.0261 66.0787 74.8705L63.3446 74.1397L59.5988 88.1536L61.8442 88.7538C66.4935 89.9965 69.4489 88.258 70.7104 83.5382Z" fill="black"/>
<path d="M98.0346 90.8983C97.1944 94.0419 95.7531 96.2747 93.711 97.5969C91.6776 98.9215 89.2212 99.1989 86.3418 98.4293C83.4272 97.6502 81.4169 96.1883 80.3108 94.0435C79.2159 91.8922 79.0944 89.2228 79.9464 86.0352C80.7985 82.8477 82.2364 80.6092 84.2604 79.3199C86.2932 78.0329 88.7669 77.779 91.6815 78.558C94.5521 79.3253 96.5392 80.7857 97.6429 82.9394C98.7466 85.093 98.8772 87.746 98.0346 90.8983ZM83.2943 86.9584C82.6588 89.3359 82.6562 91.2692 83.2865 92.7586C83.9191 94.2391 85.1776 95.2311 87.062 95.7348C88.9376 96.2361 90.5132 96.0063 91.789 95.0454C93.0736 94.0867 94.0372 92.4055 94.6797 90.0016C95.3128 87.6329 95.3175 85.7095 94.6937 84.2314C94.0786 82.7556 92.8333 81.767 90.9578 81.2657C89.0646 80.7597 87.4701 80.9892 86.1744 81.9543C84.8874 82.9217 83.9274 84.5897 83.2943 86.9584Z" fill="black"/>
<path d="M118.387 106.712L114.517 105.677L109.133 87.7512L109.027 87.723L108.864 88.5992C108.549 90.2699 108.211 91.7833 107.849 93.1394L105.165 103.178L102.299 102.412L107.461 83.1011L111.291 84.125L116.67 101.965L116.749 101.986C116.785 101.779 116.947 101.034 117.233 99.7517C117.521 98.4608 117.761 97.4587 117.951 96.7455L120.656 86.628L123.548 87.4012L118.387 106.712Z" fill="black"/>
<path d="M137.113 111.717L126.19 108.797L131.352 89.487L142.275 92.4066L141.562 95.0747L133.795 92.9988L132.39 98.2556L139.668 100.201L138.962 102.843L131.684 100.897L130.064 106.96L137.83 109.036L137.113 111.717Z" fill="black"/>
</g>
<path d="M21.9251 51L185.925 94L186.432 92.0654L22.4324 49.0654L21.9251 51Z" fill="#E0E0E0"/>
<path d="M11.9258 90.0002L174.926 134L175.447 132.069L12.447 88.0693L11.9258 90.0002Z" fill="#E0E0E0"/>
<path d="M21.9251 51L185.925 94L186.432 92.0654L22.4324 49.0654L21.9251 51Z" stroke="#E0E0E0" stroke-width="2"/>
<path d="M11.9258 90.0002L174.926 134L175.447 132.069L12.447 88.0693L11.9258 90.0002Z" stroke="#E0E0E0" stroke-width="2"/>
<path fill-rule="evenodd" clip-rule="evenodd" d="M21.7191 47.8447L187.654 91.352L186.639 95.2212L20.7047 51.7139L21.7191 47.8447ZM11.7426 86.8435L176.674 131.365L175.631 135.226L10.7002 90.7053L11.7426 86.8435Z" fill="#E0E0E0"/>
</svg>
