<!-- Generated by IcoMoon.io -->
<svg version="1.1" xmlns="http://www.w3.org/2000/svg" width="32" height="32" viewBox="0 0 32 32">
<title>account-management</title>
<path stroke-linejoin="miter" stroke-linecap="butt" stroke-miterlimit="4" stroke-width="0.8" d="M19.2 10.24v-5.12c0-0.17-0.067-0.333-0.188-0.453s-0.283-0.187-0.452-0.187h-5.12c-0.17 0-0.333 0.067-0.453 0.187s-0.187 0.283-0.187 0.453v5.12c0 0.17 0.067 0.333 0.187 0.453s0.283 0.187 0.453 0.187h5.12c0.17 0 0.332-0.067 0.452-0.187s0.188-0.283 0.188-0.453zM14.080 9.6v-3.84h3.84v3.84h-3.84z"></path>
<path stroke-linejoin="miter" stroke-linecap="butt" stroke-miterlimit="4" stroke-width="0.8" d="M28.8 26.88v-5.12c0-0.17-0.067-0.332-0.188-0.452s-0.283-0.188-0.452-0.188h-5.12c-0.17 0-0.332 0.068-0.452 0.188s-0.188 0.283-0.188 0.452v5.12c0 0.17 0.068 0.332 0.188 0.452s0.283 0.188 0.452 0.188h5.12c0.17 0 0.332-0.068 0.452-0.188s0.188-0.283 0.188-0.452zM23.68 26.24v-3.84h3.84v3.84h-3.84z"></path>
<path stroke-linejoin="miter" stroke-linecap="butt" stroke-miterlimit="4" stroke-width="0.8" d="M9.6 26.88v-5.12c0-0.17-0.067-0.332-0.187-0.452s-0.283-0.188-0.453-0.188h-5.12c-0.17 0-0.333 0.068-0.453 0.188s-0.187 0.283-0.187 0.452v5.12c0 0.17 0.067 0.332 0.187 0.452s0.283 0.188 0.453 0.188h5.12c0.17 0 0.333-0.068 0.453-0.188s0.187-0.283 0.187-0.452zM4.48 26.24v-3.84h3.84v3.84h-3.84z"></path>
<path stroke-linejoin="miter" stroke-linecap="butt" stroke-miterlimit="4" stroke-width="0.8" d="M19.2 26.88v-5.12c0-0.17-0.067-0.332-0.188-0.452s-0.283-0.188-0.452-0.188h-5.12c-0.17 0-0.333 0.068-0.453 0.188s-0.187 0.283-0.187 0.452v5.12c0 0.17 0.067 0.332 0.187 0.452s0.283 0.188 0.453 0.188h5.12c0.17 0 0.332-0.068 0.452-0.188s0.188-0.283 0.188-0.452zM14.080 26.24v-3.84h3.84v3.84h-3.84z"></path>
<path stroke-linejoin="miter" stroke-linecap="butt" stroke-miterlimit="4" stroke-width="0.8" d="M24.961 19.2c0 0.17 0.067 0.332 0.187 0.452s0.283 0.188 0.453 0.188 0.332-0.067 0.452-0.188c0.12-0.12 0.188-0.283 0.188-0.452v-2.56c0-0.17-0.068-0.333-0.188-0.453s-0.283-0.188-0.452-0.188h-8.96v-3.2c0-0.17-0.068-0.333-0.188-0.453s-0.283-0.187-0.452-0.187c-0.17 0-0.333 0.067-0.453 0.187s-0.187 0.283-0.187 0.453v3.2h-8.96c-0.17 0-0.333 0.068-0.453 0.188s-0.187 0.283-0.187 0.453v2.56c0 0.17 0.067 0.332 0.187 0.452s0.283 0.188 0.453 0.188 0.333-0.067 0.453-0.188c0.12-0.12 0.187-0.283 0.187-0.452v-1.92h8.32v1.92c0 0.17 0.067 0.332 0.187 0.452s0.283 0.188 0.453 0.188c0.17 0 0.332-0.067 0.452-0.188s0.188-0.283 0.188-0.452v-1.92h8.32v1.92z"></path>
</svg>
