<!-- Generated by IcoMoon.io -->
<svg version="1.1" xmlns="http://www.w3.org/2000/svg" width="32" height="32" viewBox="0 0 32 32">
<title>add-feature</title>
<path d="M21.92 4.8h-16.64c-0.552 0-1.081 0.232-1.471 0.644s-0.609 0.972-0.609 1.556v13.2c0 0.584 0.219 1.143 0.609 1.556s0.919 0.644 1.471 0.644h9.6c-0.303-0.459-0.48-1.009-0.48-1.6 0-0.412 0.086-0.803 0.24-1.158v-3.842h4.854v-0.094c0-0.829 0.347-1.576 0.903-2.106h-5.758v-4.4h7.28v3.639c0.156-0.026 0.316-0.039 0.48-0.039 0.591 0 1.141 0.177 1.6 0.48v-6.28c0-0.583-0.219-1.143-0.609-1.556s-0.919-0.644-1.471-0.644zM5.28 20.2v-4.4h7.28v4.4h-7.28zM5.28 13.6v-4.4h7.28v4.4h-7.28z"></path>
<path d="M20.8 16c0-0.884 0.716-1.6 1.6-1.6s1.6 0.716 1.6 1.6v9.6c0 0.884-0.716 1.6-1.6 1.6s-1.6-0.716-1.6-1.6v-9.6z"></path>
<path d="M17.6 22.4c-0.884 0-1.6-0.716-1.6-1.6s0.716-1.6 1.6-1.6h9.6c0.884 0 1.6 0.716 1.6 1.6s-0.716 1.6-1.6 1.6h-9.6z"></path>
</svg>
