<svg height="1024" viewBox="0 0 975 1024" width="975" xmlns="http://www.w3.org/2000/svg"><path d="m325.143 471.369h446.982c10.776 0 21.114 4.281 28.735 11.902s11.903 17.958 11.903 28.734-4.281 21.114-11.903 28.731c-7.621 7.621-17.959 11.903-28.735 11.903h-446.982v40.633c0 10.781-4.281 21.114-11.902 28.735s-17.956 11.903-28.733 11.903-21.113-4.281-28.733-11.903-11.902-17.954-11.902-28.735v-40.633h-40.635c-10.777 0-21.113-4.281-28.733-11.903-7.621-7.617-11.901-17.954-11.901-28.731s4.281-21.114 11.901-28.734c7.621-7.621 17.957-11.902 28.733-11.902h40.635v-40.635c0-10.777 4.281-21.112 11.902-28.733s17.956-11.902 28.733-11.902 21.112 4.281 28.733 11.902 11.902 17.956 11.902 28.733zm0 284.445h446.982c10.776 0 21.114 4.281 28.735 11.903 7.621 7.617 11.903 17.954 11.903 28.731s-4.281 21.114-11.903 28.735-17.959 11.898-28.735 11.898h-446.982v40.638c0 10.776-4.281 21.114-11.902 28.731-7.621 7.621-17.956 11.903-28.733 11.903s-21.113-4.281-28.733-11.903c-7.621-7.617-11.902-17.954-11.902-28.731v-40.638h-40.635c-10.777 0-21.113-4.276-28.733-11.898s-11.901-17.959-11.901-28.735 4.281-21.114 11.901-28.731c7.621-7.621 17.957-11.903 28.733-11.903h40.635v-40.638c0-10.776 4.281-21.109 11.902-28.731s17.956-11.903 28.733-11.903 21.112 4.281 28.733 11.903 11.902 17.954 11.902 28.731zm284.444-487.62v40.635c0 10.777-4.281 21.113-11.903 28.733s-17.954 11.902-28.731 11.902-21.114-4.281-28.735-11.902-11.903-17.956-11.903-28.733v-40.635h-325.078c-10.777 0-21.113-4.281-28.733-11.902s-11.901-17.956-11.901-28.733 4.281-21.113 11.901-28.733 17.957-11.902 28.733-11.902h325.078v-40.635c0-10.777 4.281-21.112 11.903-28.733s17.959-11.902 28.735-11.902 21.109 4.281 28.731 11.902 11.903 17.956 11.903 28.733v40.635h162.538c10.776 0 21.114 4.281 28.735 11.902s11.903 17.956 11.903 28.733-4.281 21.112-11.903 28.733-17.959 11.902-28.735 11.902z"/></svg>