<!-- Generated by IcoMoon.io -->
<svg version="1.1" xmlns="http://www.w3.org/2000/svg" width="32" height="32" viewBox="0 0 32 32">
<title>alert-circle-outline</title>
<path d="M15.998 5.332c5.88 0 10.667 4.787 10.667 10.667s-4.787 10.667-10.667 10.667c-5.88 0-10.667-4.787-10.667-10.667s4.787-10.667 10.667-10.667zM15.998 2.665c-7.364 0-13.333 5.969-13.333 13.333s5.969 13.333 13.333 13.333c7.364 0 13.333-5.969 13.333-13.333s-5.969-13.333-13.333-13.333zM17.332 19.998h-2.667v2.667h2.667v-2.667zM14.665 17.332h2.667l0.667-8h-4l0.667 8z"></path>
</svg>
