<!-- Generated by IcoMoon.io -->
<svg version="1.1" xmlns="http://www.w3.org/2000/svg" width="512" height="512" viewBox="0 0 512 512">
<title></title>
<g id="icomoon-ignore">
</g>
<path d="M213.298 138.667c0 41.237-33.429 74.667-74.666 74.667s-74.667-33.429-74.667-74.666c0-41.237 33.429-74.667 74.667-74.667s74.666 33.429 74.666 74.667z"></path>
<path d="M138.631 179.2c-22.386 0-40.534-18.148-40.534-40.533s18.148-40.534 40.534-40.534c22.386 0 40.533 18.148 40.533 40.534s-18.148 40.533-40.533 40.533zM138.631 213.333c41.237 0 74.667-33.429 74.667-74.667s-33.429-74.667-74.666-74.667c-41.237 0-74.667 33.429-74.667 74.667s33.429 74.666 74.667 74.666z"></path>
<path d="M405.299 98.133c4.711 0 8.533 3.82 8.533 8.534v64c0 4.713-3.822 8.533-8.533 8.533h-64c-4.713 0-8.535-3.821-8.535-8.533v-64c0-4.713 3.822-8.534 8.535-8.534h64zM341.299 64c-23.565 0-42.668 19.102-42.668 42.667v64c0 23.564 19.103 42.667 42.668 42.667h64c23.562 0 42.665-19.102 42.665-42.666v-64c0-23.564-19.103-42.667-42.665-42.667h-64z"></path>
<path d="M185.496 369.887c3.333 3.333 3.333 8.735 0 12.068l-38.248 38.249c-3.333 3.333-8.736 3.333-12.068 0l-38.248-38.249c-3.332-3.333-3.332-8.735 0-12.068l38.248-38.247c3.333-3.333 8.736-3.333 12.068 0l38.248 38.246zM171.385 307.502c-16.662-16.661-43.678-16.661-60.34 0l-38.248 38.249c-16.663 16.663-16.663 43.678 0 60.339l38.248 38.249c16.662 16.663 43.678 16.663 60.34 0l38.248-38.249c16.662-16.661 16.662-43.676 0-60.339l-38.248-38.249z"></path>
<path d="M319.964 155.733h-170.666v-34.133h170.666v34.133z"></path>
<path d="M383.964 390.4h-170.666v-34.132h170.666v34.132z"></path>
<path d="M356.231 213.333v-21.333h34.132v21.333c0 32.99-26.742 59.734-59.733 59.734h-128v-34.135h128c14.139 0 25.6-11.462 25.6-25.6z"></path>
<path d="M155.698 298.668v21.332h-34.133v-21.332c0-32.99 26.744-59.734 59.733-59.734h42.667v34.134h-42.667c-14.138 0-25.6 11.461-25.6 25.6z"></path>
<path d="M354.824 320c8.21-14.224 28.738-14.224 36.949 0l55.426 96c8.212 14.224-2.053 32-18.476 32h-110.851c-16.423 0-26.685-17.776-18.476-32l55.426-96z"></path>
<path d="M428.723 426.668h-110.851l55.426-96 55.424 96zM391.772 320c-8.21-14.224-28.738-14.224-36.949 0l-55.426 96c-8.21 14.224 2.053 32 18.476 32h110.851c16.423 0 26.688-17.776 18.476-32l-55.426-96z"></path>
</svg>
