<!-- Generated by IcoMoon.io -->
<svg version="1.1" xmlns="http://www.w3.org/2000/svg" width="512" height="512" viewBox="0 0 512 512">
<title></title>
<g id="icomoon-ignore">
</g>
<path d="M256.034 157.867c-16.495 0-29.867-13.372-29.867-29.867s13.371-29.867 29.867-29.867c16.494 0 29.868 13.372 29.868 29.867s-13.373 29.867-29.868 29.867zM256.034 192c35.346 0 64-28.654 64-64s-28.654-64-64-64c-35.346 0-64 28.654-64 64s28.654 64 64 64z"></path>
<path d="M238.967 256v-85.333h34.134v85.333h-34.134z"></path>
<path d="M238.967 394.668v-85.335h34.134v85.335h-34.134z"></path>
<path d="M135.714 245.76l64-85.333 27.307 20.48-64 85.333-27.307-20.48z"></path>
<path d="M58.143 401.193l21.333-85.332 33.114 8.279-21.333 85.332-33.114-8.279z"></path>
<path d="M399.475 324.139l21.335 85.332 33.113-8.279-21.332-85.332-33.116 8.279z"></path>
<path d="M122.040 313.037l21.333 96 33.321-7.406-21.333-96-33.321 7.406z"></path>
<path d="M335.373 401.63l21.332-96 33.321 7.406-21.332 96-33.321-7.406z"></path>
<path d="M286.633 182.734l85.332 85.333 24.135-24.136-85.332-85.333-24.135 24.136z"></path>
<path d="M117.367 307.2c-10.604 0-19.2-8.596-19.2-19.2s8.596-19.2 19.2-19.2c10.604 0 19.2 8.596 19.2 19.2s-8.596 19.2-19.2 19.2zM117.367 341.332c29.455 0 53.333-23.877 53.333-53.332s-23.878-53.333-53.333-53.333c-29.456 0-53.334 23.878-53.334 53.333s23.878 53.332 53.334 53.332z"></path>
<path d="M106.7 416c0 17.674-14.327 32-32 32s-32-14.326-32-32c0-17.674 14.327-32 32-32s32 14.326 32 32z"></path>
<path d="M192.034 416c0 17.674-14.327 32-32 32s-32-14.326-32-32c0-17.674 14.327-32 32-32s32 14.326 32 32z"></path>
<path d="M288.034 416c0 17.674-14.326 32-32 32s-32-14.326-32-32 14.327-32 32-32c17.674 0 32 14.326 32 32z"></path>
<path d="M384.034 416c0 17.674-14.326 32-32 32s-32-14.326-32-32c0-17.674 14.326-32 32-32s32 14.326 32 32z"></path>
<path d="M469.366 416c0 17.674-14.326 32-32 32-17.671 0-32-14.326-32-32s14.329-32 32-32c17.674 0 32 14.326 32 32z"></path>
<path d="M256.034 307.2c-10.604 0-19.2-8.596-19.2-19.2s8.596-19.2 19.2-19.2c10.603 0 19.2 8.596 19.2 19.2s-8.596 19.2-19.2 19.2zM256.034 341.332c29.456 0 53.332-23.877 53.332-53.332s-23.877-53.333-53.332-53.333c-29.455 0-53.333 23.878-53.333 53.333s23.878 53.332 53.333 53.332z"></path>
<path d="M394.701 307.2c-10.603 0-19.2-8.596-19.2-19.2s8.596-19.2 19.2-19.2c10.603 0 19.2 8.596 19.2 19.2s-8.596 19.2-19.2 19.2zM394.701 341.332c29.456 0 53.332-23.877 53.332-53.332s-23.877-53.333-53.332-53.333c-29.456 0-53.335 23.878-53.335 53.333s23.88 53.332 53.335 53.332z"></path>
</svg>
