<svg xmlns="http://www.w3.org/2000/svg" width="512" height="512"  xmlns:v="https://vecta.io/nano"><path d="M256.034 157.867c-16.495 0-29.867-13.372-29.867-29.867s13.371-29.867 29.867-29.867 29.868 13.372 29.868 29.867-13.373 29.867-29.868 29.867zm0 34.133c35.346 0 64-28.654 64-64s-28.654-64-64-64-64 28.654-64 64 28.654 64 64 64z"/><path d="M238.967 256v-85.333h34.134V256h-34.134zm0 138.668v-85.335h34.134v85.335h-34.134zM135.714 245.76l64-85.333 27.307 20.48-64 85.333-27.307-20.48zM58.143 401.193l21.333-85.332 33.114 8.279-21.333 85.332-33.114-8.279zm341.332-77.054l21.335 85.332 33.113-8.279-21.332-85.332-33.116 8.279zM122.04 313.037l21.333 96 33.321-7.406-21.333-96-33.321 7.406zm213.333 88.593l21.332-96 33.321 7.406-21.332 96-33.321-7.406zm-48.74-218.896l85.332 85.333 24.135-24.136-85.332-85.333-24.135 24.136z"/><path d="M117.367 307.2c-10.604 0-19.2-8.596-19.2-19.2s8.596-19.2 19.2-19.2 19.2 8.596 19.2 19.2-8.596 19.2-19.2 19.2zm0 34.132c29.455 0 53.333-23.877 53.333-53.332s-23.878-53.333-53.333-53.333S64.033 258.545 64.033 288s23.878 53.332 53.334 53.332zM106.7 416c0 17.674-14.327 32-32 32s-32-14.326-32-32 14.327-32 32-32 32 14.326 32 32zm85.334 0c0 17.674-14.327 32-32 32s-32-14.326-32-32 14.327-32 32-32 32 14.326 32 32zm96 0c0 17.674-14.326 32-32 32s-32-14.326-32-32 14.327-32 32-32 32 14.326 32 32zm96 0c0 17.674-14.326 32-32 32s-32-14.326-32-32 14.326-32 32-32 32 14.326 32 32zm85.332 0c0 17.674-14.326 32-32 32s-32-14.326-32-32 14.329-32 32-32 32 14.326 32 32zM256.034 307.2c-10.604 0-19.2-8.596-19.2-19.2s8.596-19.2 19.2-19.2 19.2 8.596 19.2 19.2-8.596 19.2-19.2 19.2zm0 34.132c29.456 0 53.332-23.877 53.332-53.332s-23.877-53.333-53.332-53.333-53.333 23.878-53.333 53.333 23.878 53.332 53.333 53.332zM394.701 307.2c-10.603 0-19.2-8.596-19.2-19.2s8.596-19.2 19.2-19.2 19.2 8.596 19.2 19.2-8.596 19.2-19.2 19.2zm0 34.132c29.456 0 53.332-23.877 53.332-53.332s-23.877-53.333-53.332-53.333-53.335 23.878-53.335 53.333 23.88 53.332 53.335 53.332z"/></svg>