<!-- Generated by IcoMoon.io -->
<svg version="1.1" xmlns="http://www.w3.org/2000/svg" width="975" height="1024" viewBox="0 0 975 1024">
<title></title>
<g id="icomoon-ignore">
</g>
<path d="M514.399 151.311c-33.316-13.69-69.801-21.24-108.050-21.24-157.094 0-284.444 127.35-284.444 284.444 0 157.096 127.35 284.442 284.444 284.442 116.076 0 215.916-69.53 260.138-169.214h-112.952c-34.216 43.647-87.426 71.69-147.186 71.69-103.233 0-186.92-83.685-186.92-186.919s83.687-186.92 186.92-186.92c20.894 0 40.988 3.428 59.748 9.753l48.302-86.037z"></path>
<path d="M589.124 600.712c23.686-23.92 62.279-24.109 86.199-0.422l158.444 156.899c23.92 23.686 24.109 62.279 0.422 86.199s-62.279 24.109-86.199 0.422l-158.444-156.899c-23.92-23.686-24.109-62.279-0.422-86.199z"></path>
<path d="M683.598 120.686c-23.898-41.677-83.646-41.677-107.544 0l-161.309 281.319c-23.898 41.677 5.974 93.772 53.77 93.772h322.623c47.796 0 77.668-52.095 53.77-93.772l-161.309-281.319zM633.856 341.365c-13.463 0-24.381-10.916-24.381-24.381v-121.905c0-13.465 10.918-24.381 24.381-24.381 13.468 0 24.381 10.916 24.381 24.381v121.905c0 13.465-10.913 24.381-24.381 24.381zM633.856 414.508c-13.463 0-24.381-10.916-24.381-24.381s10.918-24.381 24.381-24.381c13.468 0 24.381 10.916 24.381 24.381s-10.913 24.381-24.381 24.381z"></path>
</svg>
