<!-- Generated by IcoMoon.io -->
<svg version="1.1" xmlns="http://www.w3.org/2000/svg" width="1170" height="1024" viewBox="0 0 1170 1024">
<title></title>
<g id="icomoon-ignore">
</g>
<path d="M563.793 21.412c6.81 6.793 12.213 14.863 15.9 23.747s5.584 18.408 5.584 28.027c0 9.619-1.897 19.143-5.584 28.028s-9.090 16.954-15.9 23.747l-387.134 386.988 387.134 386.985c13.731 13.736 21.445 32.358 21.445 51.778s-7.714 38.042-21.445 51.771c-13.731 13.736-32.355 21.445-51.774 21.445s-38.042-7.709-51.773-21.445l-438.762-438.76c-6.81-6.793-12.213-14.863-15.9-23.747s-5.584-18.409-5.584-28.027c0-9.619 1.898-19.143 5.584-28.028s9.090-16.954 15.9-23.747l438.762-438.762c6.793-6.81 14.863-12.213 23.747-15.9s18.409-5.584 28.027-5.584c9.619 0 19.143 1.898 28.028 5.584s16.954 9.090 23.747 15.9z"></path>
<path d="M1170.169 511.928c0 19.399-8.989 38.003-24.993 51.72s-37.705 21.423-60.343 21.423h-853.33c-22.632 0-44.337-7.706-60.34-21.423s-24.994-32.321-24.994-51.72c0-19.398 8.991-38.003 24.994-51.719s37.708-21.424 60.34-21.424h853.33c22.638 0 44.339 7.706 60.343 21.424s24.993 32.321 24.993 51.719z"></path>
</svg>
