<svg width="18" height="18" viewBox="0 0 18 18" xmlns="http://www.w3.org/2000/svg">
<path fill-rule="evenodd" clip-rule="evenodd" d="M17.3334 5.25033C17.3334 7.78163 15.2814 9.83366 12.7501 9.83366C10.2188 9.83366 8.16675 7.78163 8.16675 5.25033C8.16675 2.71902 10.2188 0.666992 12.7501 0.666992C15.2814 0.666992 17.3334 2.71902 17.3334 5.25033ZM12.7503 2.33366C12.198 2.3343 11.6684 2.53599 11.2778 2.89449C10.8872 3.25299 10.6674 3.73903 10.6667 4.24602H11.726C11.726 3.72734 12.1858 3.30588 12.7503 3.30588C13.3149 3.30588 13.7747 3.72734 13.7747 4.24602C13.7747 4.53671 13.5199 4.74769 13.1306 5.03644C13.0035 5.12787 12.8813 5.22505 12.7646 5.32762C12.2361 5.81227 12.2207 6.32706 12.2207 6.38442V6.70866H13.28L13.2795 6.40095C13.28 6.39317 13.2969 6.21331 13.513 6.01546C13.5869 5.94765 13.6787 5.87983 13.7747 5.80889L13.7964 5.79283L13.7979 5.79167C14.2105 5.48493 14.8334 5.02185 14.8334 4.24602C14.833 3.73903 14.6134 3.25291 14.2229 2.89437C13.8323 2.53584 13.3027 2.33417 12.7503 2.33366ZM13.28 7.19477V8.16699H12.2207V7.19477H13.28ZM6.18582 2.33366C6.5343 2.33743 6.86632 2.36208 7.18187 2.40759C6.8451 3.06619 6.62176 3.79242 6.53758 4.5605C6.4238 4.54921 6.30654 4.54213 6.18582 4.53925C5.63497 4.55255 5.1618 4.65568 4.76632 4.84863C4.36378 5.04823 4.03892 5.29773 3.79175 5.59713C3.48808 5.90984 3.2868 6.31237 3.18793 6.80472C3.07494 7.32368 3.01844 8.2984 3.01844 9.72887C3.01844 11.1593 3.07494 12.1274 3.18793 12.6331C3.2868 13.1387 3.48808 13.5479 3.79175 13.8606C4.03892 14.16 4.36378 14.4029 4.76632 14.5891C5.1618 14.8087 5.63497 14.9185 6.18582 14.9185C6.90615 14.9185 7.48172 14.7488 7.91251 14.4095L5.94217 12.9325L7.32988 11.4255L9.13073 12.7728C9.25294 12.3671 9.32479 11.6067 9.3463 10.4918C10.0397 10.9429 10.8282 11.2602 11.6752 11.407C11.6579 12.0529 11.629 12.5481 11.5884 12.8925C11.4965 13.4913 11.3447 13.9571 11.1328 14.2897L13.1667 15.8167L11.779 17.3337L9.82988 15.8566C8.91887 16.675 7.70418 17.0975 6.18582 17.1241C4.97113 17.0975 3.95771 16.818 3.14556 16.2858C2.31929 15.7734 1.71901 15.1813 1.34471 14.5093C1.23172 14.2897 1.12932 14.0802 1.03751 13.8806C0.952765 13.6743 0.882144 13.4148 0.825646 13.1021C0.719714 12.5166 0.666748 11.3922 0.666748 9.72887C0.666748 8.03892 0.719714 6.90784 0.825646 6.33566C0.938641 5.76347 1.11166 5.30106 1.34471 4.94843C1.71901 4.27644 2.31929 3.67764 3.14556 3.15202C3.95771 2.61975 4.97113 2.34697 6.18582 2.33366Z"/>
</svg>
