<!-- Generated by IcoMoon.io -->
<svg version="1.1" xmlns="http://www.w3.org/2000/svg" width="43" height="32" viewBox="0 0 43 32">
<title>Vector</title>
<path d="M14.718 14l-6.295 6.829-6.295-6.829h4.566c0.91-7.882 7.126-14 14.634-14 3.94 0 7.644 1.665 10.428 4.687l-2.607 2.828c-2.088-2.267-4.865-3.515-7.821-3.515-5.472 0-10.027 4.332-10.908 10h4.298zM34.234 11.171l-6.294 6.829h4.297c-0.88 5.668-5.436 10-10.908 10-2.955 0-5.733-1.248-7.822-3.515l-2.608 2.828c2.786 3.022 6.49 4.687 10.429 4.687 7.509 0 13.724-6.118 14.635-14h4.565l-6.294-6.829zM19.485 8.5v9.621l4.092 4.439 1.955-2.121-3.282-3.56v-8.379h-2.765z"></path>
</svg>
