<!-- Generated by IcoMoon.io -->
<svg version="1.1" xmlns="http://www.w3.org/2000/svg" width="35" height="32" viewBox="0 0 35 32">
<title>bar-chart</title>
<path d="M27.847 0.494c-1.556 0-2.821 1.265-2.821 2.821v20.751c0 1.556 1.265 2.821 2.821 2.821h2.887c1.556 0 2.821-1.266 2.821-2.821v-20.751c0-1.556-1.265-2.821-2.821-2.821h-2.887zM27.059 3.315c0-0.434 0.354-0.788 0.788-0.788h2.887c0.434 0 0.788 0.354 0.788 0.788v20.751c0 0.434-0.354 0.788-0.788 0.788h-2.887c-0.434 0-0.788-0.354-0.788-0.788v-20.751zM16.48 6.99c-1.556 0-2.821 1.265-2.821 2.821v14.255c0 1.556 1.265 2.821 2.821 2.821h2.887c1.556 0 2.821-1.266 2.821-2.821v-14.255c0-1.556-1.265-2.821-2.821-2.821h-2.887zM15.693 9.811c0-0.434 0.354-0.788 0.788-0.788h2.887c0.434 0 0.788 0.354 0.788 0.788v14.255c0 0.434-0.354 0.788-0.788 0.788h-2.887c-0.434 0-0.788-0.354-0.788-0.788v-14.255zM5.112 13.486c-1.556 0-2.821 1.265-2.821 2.821v7.759c0 1.556 1.265 2.821 2.821 2.821h2.887c1.556 0 2.821-1.266 2.821-2.821v-7.759c0-1.556-1.265-2.821-2.821-2.821h-2.887zM4.324 16.307c0-0.434 0.354-0.788 0.788-0.788h2.887c0.434 0 0.788 0.354 0.788 0.788v7.759c0 0.434-0.354 0.788-0.788 0.788h-2.887c-0.434 0-0.788-0.354-0.788-0.788v-7.759zM2.28 29.726c-0.562 0-1.016 0.455-1.016 1.016s0.455 1.017 1.016 1.017h31.289c0.562 0 1.016-0.455 1.016-1.017s-0.455-1.016-1.016-1.016h-31.289z"></path>
</svg>
