<!-- Generated by IcoMoon.io -->
<svg version="1.1" xmlns="http://www.w3.org/2000/svg" width="975" height="1024" viewBox="0 0 975 1024">
<title></title>
<g id="icomoon-ignore">
</g>
<path d="M685.455 683.363c5.909 0 17.728 5.909 23.637 5.909 47.274 0 88.637-41.364 88.637-88.637s-41.364-88.637-88.637-88.637c-47.274 0-88.637 41.364-88.637 88.637 0 17.728 5.909 35.455 17.728 47.274l-76.818 100.455c-5.909 0-17.728-5.909-23.637-5.909-17.728 0-35.455 5.909-47.274 17.728l-100.455-76.818c-5.909-5.909-5.909-11.818-5.909-23.637 0-47.274-41.364-88.637-88.637-88.637s-88.637 41.364-88.637 88.637c0 17.728 5.909 29.546 11.818 41.364l-94.546 112.274c-11.818-5.909-23.637-5.909-35.455-5.909-47.274 0-88.637 41.364-88.637 88.637s41.364 88.637 88.637 88.637 88.637-41.364 88.637-88.637c0-17.728-5.909-29.546-11.818-41.364l94.546-112.274c11.818 5.909 23.637 5.909 35.455 5.909 17.728 0 35.455-5.909 47.274-17.728l100.455 76.818c0 11.818 0 17.728 0 29.546 0 47.274 41.364 88.637 88.637 88.637s88.637-41.364 88.637-88.637c0-17.728-5.909-35.455-17.728-47.274l82.728-106.364z"></path>
<path d="M856.82 39.269h-709.096c-65 0-118.183 53.183-118.183 118.183v490.458c0 23.637 17.728 41.364 41.364 41.364v0c23.637 0 41.364-17.728 41.364-41.364v-342.73h768.187v502.276c0 17.728-11.818 29.546-29.546 29.546h-135.91c-23.637 0-41.364 17.728-41.364 47.274v0c0 23.637 17.728 47.274 41.364 47.274h141.82c65 0 118.183-53.183 118.183-118.183v-655.913c0-65-53.183-118.183-118.183-118.183zM886.365 216.542h-768.187v-59.091c0-17.728 11.818-29.546 29.546-29.546h709.096c17.728 0 29.546 11.818 29.546 29.546v59.091z"></path>
</svg>
