<!-- Generated by IcoMoon.io -->
<svg version="1.1" xmlns="http://www.w3.org/2000/svg" width="32" height="32" viewBox="0 0 32 32">
<title>block-selection</title>
<path d="M30.3 20.53l-7.9-4.53v9.059l2.912-1.67 3.145 5.41 1.943-1.114-3.145-5.41 3.045-1.746z"></path>
<path d="M3 6.5h-1v-2.5h3.25v2h-1.25v0.5h-1zM13.917 4h-6.5v2h6.5v-2zM16.083 4v2h6.5v-2h-6.5zM24.75 4v2h1.25v0.5h2v-2.5h-3.25zM28 8.167h-2v7.033h2v-7.033zM19.2 22h-3.117v2h3.117v-2zM13.917 24v-2h-6.5v2h6.5zM5.25 24v-2h-1.25v-0.5h-2v2.5h3.25zM2 19.833h2v-5h-2v5zM2 13.167h2v-5h-2v5z"></path>
</svg>
