<!-- Generated by IcoMoon.io -->
<svg version="1.1" xmlns="http://www.w3.org/2000/svg" width="32" height="32" viewBox="0 0 32 32">
<title>block-selection</title>
<path d="M2 6.5h2v-0.5h1.25v-2h-3.25v2.5zM7.417 4h6.5v2h-6.5v-2zM16.083 5v-1h6.5v2h-6.5v-1zM24.75 5v-1h3.25v2.5h-2v-0.5h-1.25v-1zM27 8.167h1v7.033h-2v-7.033h1zM16.083 22h3.117v2h-3.117v-2zM13.917 23v1h-6.5v-2h6.5v1zM5.25 23v1h-3.25v-2.5h2v0.5h1.25v1zM3 19.833h-1v-5h2v5h-1zM3 13.167h-1v-5h2v5h-1zM22.4 16l7.9 4.53-3.045 1.746 3.145 5.41-1.943 1.114-3.145-5.41-2.912 1.67v-9.059z"></path>
</svg>
