<svg width="14" height="12" viewBox="0 0 14 12" fill="none" xmlns="http://www.w3.org/2000/svg">
<path d="M3.84681 0.399902C3.54593 0.399902 3.30201 0.63016 3.30201 0.914188V1.42013H2.35559C1.38762 1.42013 0.600098 2.16353 0.600098 3.07727V4.60827V5.63685V9.94276C0.600098 10.8565 1.38762 11.5999 2.35559 11.5999H11.6446C12.6126 11.5999 13.4001 10.8565 13.4001 9.94276V5.63682V4.60825V3.07725C13.4001 2.1635 12.6126 1.4201 11.6446 1.4201H10.8333V0.914188C10.8333 0.63016 10.5894 0.399902 10.2885 0.399902C9.98761 0.399902 9.74368 0.63016 9.74368 0.914188V1.42013H4.39162V0.914188C4.39162 0.63016 4.14773 0.399902 3.84681 0.399902ZM12.3105 9.94276C12.3105 10.2894 12.0118 10.5713 11.6446 10.5713H2.35562C1.98845 10.5713 1.68974 10.2894 1.68974 9.94276V5.42845H12.3105V9.94276ZM9.74372 2.4487V2.95462C9.74372 3.23865 9.98764 3.4689 10.2885 3.4689C10.5894 3.4689 10.8333 3.23865 10.8333 2.95462V2.4487H11.6446C12.0118 2.4487 12.3105 2.73067 12.3105 3.07727V4.3999H1.68974V3.07727C1.68974 2.73067 1.98845 2.4487 2.35562 2.4487H3.30204V2.95462C3.30204 3.23865 3.54596 3.4689 3.84684 3.4689C4.14773 3.4689 4.39165 3.23865 4.39165 2.95462V2.4487H9.74372Z" fill="white"/>
</svg>
