<!-- Generated by IcoMoon.io -->
<svg version="1.1" xmlns="http://www.w3.org/2000/svg" width="32" height="32" viewBox="0 0 32 32">
<title>cancel-selection</title>
<path d="M2 9v-5h5.833v2h-3.833v3h-2zM21.833 4h-11.667v2h11.667v-2zM24.167 4v2h3.833v3h2v-5h-5.833zM30 11h-2v10h2v-10zM30 23h-2v3h-3.833v2h5.833v-5zM21.833 28v-2h-11.667v2h11.667zM7.833 28v-2h-3.833v-3h-2v5h5.833zM2 21h2v-10h-2v10z"></path>
<path d="M16.002 14.588l-4.75-4.75-1.414 1.414 4.75 4.75-4.749 4.749 1.414 1.414 4.749-4.749 4.749 4.749 1.414-1.414-4.749-4.749 4.75-4.75-1.414-1.414-4.75 4.75z"></path>
</svg>
