<!-- Generated by IcoMoon.io -->
<svg version="1.1" xmlns="http://www.w3.org/2000/svg" width="32" height="32" viewBox="0 0 32 32">
<title>cancel-selection</title>
<path d="M2 4v5h2v-3h3.833v-2h-5.833zM10.167 4h11.667v2h-11.667v-2zM24.167 6v-2h5.833v5h-2v-3h-3.833zM28 11h2v10h-2v-10zM28 23h2v5h-5.833v-2h3.833v-3zM21.833 26v2h-11.667v-2h11.667zM7.833 26v2h-5.833v-5h2v3h3.833zM4 21h-2v-10h2v10zM11.252 9.838l4.75 4.75 4.75-4.75 1.414 1.414-4.75 4.75 4.749 4.749-1.414 1.414-4.749-4.749-4.749 4.749-1.414-1.414 4.749-4.749-4.75-4.75 1.414-1.414z"></path>
</svg>
