<!-- Generated by IcoMoon.io -->
<svg version="1.1" xmlns="http://www.w3.org/2000/svg" width="32" height="32" viewBox="0 0 32 32">
<title>Vector1</title>
<path d="M10.096 14.819c1.892-1.892 5.193-1.892 7.085 0l1.181 1.181 2.362-2.361-1.181-1.181c-1.575-1.577-3.673-2.447-5.904-2.447s-4.329 0.87-5.904 2.447l-3.544 3.542c-1.563 1.568-2.44 3.691-2.44 5.904s0.877 4.337 2.44 5.904c0.775 0.776 1.695 1.391 2.708 1.81s2.099 0.634 3.196 0.632c1.097 0.002 2.183-0.212 3.197-0.631s1.934-1.034 2.709-1.81l1.181-1.181-2.362-2.361-1.181 1.181c-0.941 0.937-2.215 1.463-3.543 1.463s-2.602-0.526-3.543-1.463c-0.938-0.941-1.464-2.215-1.464-3.543s0.526-2.602 1.464-3.543l3.544-3.542z"></path>
<path d="M16 4.191l-1.181 1.181 2.362 2.361 1.181-1.181c0.941-0.937 2.215-1.463 3.543-1.463s2.602 0.526 3.543 1.463c0.938 0.941 1.464 2.215 1.464 3.543s-0.526 2.602-1.464 3.543l-3.544 3.542c-1.892 1.892-5.193 1.892-7.085 0l-1.181-1.181-2.362 2.361 1.181 1.181c1.575 1.577 3.673 2.447 5.904 2.447s4.329-0.87 5.904-2.447l3.544-3.542c1.563-1.568 2.44-3.691 2.44-5.904s-0.877-4.337-2.44-5.904c-1.567-1.563-3.691-2.441-5.905-2.441s-4.338 0.878-5.905 2.441z"></path>
</svg>
