<svg width="16" height="16" viewBox="0 0 16 16" fill="none" xmlns="http://www.w3.org/2000/svg">
<path d="M10.4615 0C7.41846 0 4.92308 2.49538 4.92308 5.53846C4.92308 5.85846 4.97538 6.14031 5.01908 6.42338L0.172308 11.2492L0 11.4425V16H4.30769V14.1538H6.15385V12.3077H8V10.48C8.72615 10.8369 9.57231 11.0769 10.4615 11.0769C13.5046 11.0769 16 8.58154 16 5.53846C16 2.49538 13.5046 0 10.4615 0ZM10.4615 1.23077C12.8338 1.23077 14.7692 3.16615 14.7692 5.53846C14.7692 7.91077 12.8338 9.84615 10.4615 9.84615C9.72966 9.83842 9.01052 9.65368 8.36554 9.30769L8.21169 9.23077H6.76923V11.0769H4.92308V12.9231H3.07692V14.7692H1.23077V11.9612L6.096 7.07692L6.32677 6.86523L6.27015 6.53908C6.20862 6.16985 6.15446 5.83939 6.15446 5.53846C6.15446 3.16615 8.08985 1.23077 10.4622 1.23077H10.4615ZM11.6923 3.07692C11.5284 3.07322 11.3654 3.10229 11.2129 3.16244C11.0604 3.2226 10.9214 3.31261 10.8042 3.4272C10.687 3.54179 10.5938 3.67866 10.5302 3.82975C10.4665 3.98084 10.4338 4.14313 10.4337 4.30707C10.4337 4.47101 10.4664 4.63331 10.5299 4.78444C10.5935 4.93556 10.6866 5.07247 10.8038 5.18712C10.9209 5.30177 11.0599 5.39186 11.2123 5.45209C11.3648 5.51231 11.5278 5.54147 11.6917 5.53785C12.0133 5.53074 12.3193 5.39802 12.5442 5.1681C12.7692 4.93818 12.8952 4.62934 12.8953 4.30769C12.8953 3.98603 12.7695 3.67713 12.5447 3.4471C12.3198 3.21707 12.0139 3.0842 11.6923 3.07692Z" fill="#4DE2F0"/>
</svg>
