<svg width="12" height="12" viewBox="0 0 12 12" fill="none" xmlns="http://www.w3.org/2000/svg">
<path d="M0.399902 11.5999V11.0572C0.72626 11.0271 0.968556 10.9567 1.12679 10.8462C1.28502 10.7256 1.45315 10.5045 1.63116 10.1829C1.80917 9.85132 2.06136 9.26845 2.38772 8.43436L5.47328 0.595865C5.54251 0.545618 5.70074 0.500396 5.94798 0.460199C6.20511 0.420001 6.38313 0.399902 6.48202 0.399902C9.01377 6.76114 10.3192 10.0222 10.3983 10.1829C10.4873 10.3437 10.5664 10.4744 10.6357 10.5749C10.7148 10.6653 10.8384 10.7608 11.0065 10.8613C11.1746 10.9618 11.3724 11.0271 11.5999 11.0572V11.5999H7.35725V11.0874C8.23743 11.017 8.67752 10.796 8.67752 10.4241C8.67752 10.1528 8.57368 9.77595 8.36599 9.29358L8.08414 8.63032C7.96547 8.35899 7.86162 8.0977 7.77262 7.84647H3.48547C3.30745 8.25849 3.10966 8.75594 2.89209 9.3388C2.67452 9.91161 2.56573 10.2483 2.56573 10.3488C2.56573 10.7105 3.01076 10.9316 3.90083 11.012V11.5999H0.399902ZM3.69315 7.19829H7.57977L5.60679 2.23893L3.69315 7.19829Z" fill="white"/>
</svg>
