<!-- Generated by IcoMoon.io -->
<svg version="1.1" xmlns="http://www.w3.org/2000/svg" width="32" height="32" viewBox="0 0 32 32">
<title>clock</title>
<path d="M16 30.933c-8.247 0-14.933-6.686-14.933-14.933s6.686-14.933 14.933-14.933c8.247 0 14.933 6.686 14.933 14.933s-6.686 14.933-14.933 14.933zM16 32c8.837 0 16-7.163 16-16s-7.163-16-16-16c-8.837 0-16 7.163-16 16s7.163 16 16 16z"></path>
<path d="M16 6.4c0.294 0 0.533 0.239 0.533 0.533v9.067h8.533c0.294 0 0.533 0.239 0.533 0.533s-0.239 0.533-0.533 0.533h-9.067c-0.294 0-0.533-0.239-0.533-0.533v-9.6c0-0.295 0.239-0.533 0.533-0.533z"></path>
</svg>
