<!-- Generated by IcoMoon.io -->
<svg version="1.1" xmlns="http://www.w3.org/2000/svg" width="32" height="32" viewBox="0 0 32 32">
<title>clock</title>
<path d="M16 2c-7.731 0-14 6.269-14 14s6.269 14 14 14c7.731 0 14-6.269 14-14s-6.269-14-14-14zM16 27.625c-6.419 0-11.625-5.206-11.625-11.625s5.206-11.625 11.625-11.625c6.419 0 11.625 5.206 11.625 11.625s-5.206 11.625-11.625 11.625z"></path>
<path d="M21.459 19.956l-4.456-3.222v-7.734c0-0.137-0.113-0.25-0.25-0.25h-1.503c-0.137 0-0.25 0.113-0.25 0.25v8.606c0 0.081 0.037 0.156 0.103 0.203l5.169 3.769c0.113 0.081 0.269 0.056 0.35-0.053l0.894-1.219c0.081-0.116 0.056-0.272-0.056-0.35z"></path>
</svg>
