<!-- Generated by IcoMoon.io -->
<svg version="1.1" xmlns="http://www.w3.org/2000/svg" width="24" height="24" viewBox="0 0 24 24">
<title>close</title>
<path d="M0.622 3.021l8.979 8.979-8.979 8.979c-0.663 0.663-0.663 1.737 0 2.399s1.737 0.663 2.399 0l8.979-8.979 8.979 8.979c0.663 0.663 1.737 0.663 2.399 0s0.663-1.737 0-2.399l-8.979-8.979 8.979-8.979c0.663-0.663 0.663-1.737 0-2.399s-1.737-0.663-2.399 0l-8.979 8.979-8.979-8.979c-0.663-0.663-1.737-0.663-2.399 0s-0.663 1.737 0 2.399z"></path>
</svg>
