<!-- Generated by IcoMoon.io -->
<svg version="1.1" xmlns="http://www.w3.org/2000/svg" width="1024" height="1024" viewBox="0 0 1024 1024">
<title></title>
<g id="icomoon-ignore">
</g>
<path d="M831.247 382.494c0-6.024 0-18.071 0-24.094 0-180.706-144.565-325.271-319.247-325.271s-319.247 144.565-319.247 319.247c0 6.024 0 18.071 0 24.094-114.447 48.188-192.753 162.635-192.753 295.153 0 174.682 144.565 319.247 319.247 319.247 72.282 0 138.541-24.094 192.753-66.259 54.212 42.165 120.471 66.259 192.753 66.259 174.682 0 319.247-144.565 319.247-319.247 0-126.494-78.306-240.941-192.753-289.129zM512 117.459c48.188 0 96.376 12.047 132.518 42.165 60.235 42.165 102.4 114.447 102.4 198.776 0 0 0 0 0 0-12.047 0-30.118 0-42.165 0-72.282 0-138.541 24.094-192.753 66.259-54.212-48.188-120.471-72.282-192.753-72.282-12.047 0-30.118 0-42.165 0 0 0 0 0 0 0 0-126.494 102.4-234.918 234.918-234.918zM734.871 442.73c-18.071 54.212-60.235 96.376-114.447 126.494-12.047-30.118-30.118-60.235-48.188-84.329 36.141-24.094 84.329-42.165 132.518-42.165 12.047-6.024 18.071-6.024 30.118 0zM542.118 587.294c-12.047 0-18.071 0-30.118 0s-18.071 0-30.118 0c6.024-18.071 18.071-36.141 30.118-54.212 12.047 18.071 18.071 36.141 30.118 54.212zM319.247 912.565c-132.518 0-234.918-108.424-234.918-234.918 0-90.353 54.212-168.659 126.494-210.824 30.118 84.329 96.376 150.588 174.682 186.729 0 6.024 0 18.071 0 24.094 0 72.282 24.094 144.565 66.259 198.776-36.141 24.094-84.329 36.141-132.518 36.141zM403.576 563.2c-48.188-24.094-90.353-72.282-114.447-126.494 12.047 0 18.071 0 30.118 0 48.188 0 96.376 18.071 132.518 42.165-18.071 24.094-36.141 54.212-48.188 84.329zM512 816.188c-30.118-36.141-42.165-84.329-42.165-138.541 0 0 0 0 0 0 12.047 0 30.118 0 42.165 0s30.118 0 42.165 0c0 0 0 0 0 0 0 48.188-12.047 96.376-42.165 138.541zM704.753 912.565c-48.188 0-96.376-12.047-132.518-42.165 42.165-54.212 66.259-120.471 66.259-198.776 0-6.024 0-18.071 0-24.094 78.306-36.141 144.565-102.4 174.682-186.729 78.306 42.165 126.494 120.471 126.494 210.824 0 132.518-102.4 240.941-234.918 240.941z"></path>
</svg>
