<!-- Generated by IcoMoon.io -->
<svg version="1.1" xmlns="http://www.w3.org/2000/svg" width="41" height="32" viewBox="0 0 41 32">
<title>column</title>
<path d="M5.336 0.761h30.476c1.010 0 1.979 0.401 2.694 1.116s1.116 1.683 1.116 2.694v22.857c0 1.010-0.401 1.979-1.116 2.694s-1.683 1.116-2.694 1.116h-30.476c-1.010 0-1.979-0.401-2.694-1.116s-1.116-1.683-1.116-2.694v-22.857c0-1.010 0.401-1.979 1.116-2.694s1.683-1.116 2.694-1.116zM28.193 4.571v22.857h7.619v-22.857h-7.619zM5.336 4.571v22.857h7.619v-22.857h-7.619zM16.765 4.571v22.857h7.619v-22.857h-7.619z"></path>
</svg>
