<!-- Generated by IcoMoon.io -->
<svg version="1.1" xmlns="http://www.w3.org/2000/svg" width="1152" height="1024" viewBox="0 0 1152 1024">
<title></title>
<g id="icomoon-ignore">
</g>
<path d="M1092 354c-28.109-66.536-68.864-126.987-120-178-51.014-51.137-111.462-91.889-178.003-120-69.12-29.25-142.374-44-217.997-44-75.625 0-148.875 14.75-218 44-66.536 28.111-126.987 68.863-178 120-51.137 51.013-91.889 111.464-120 178-29.25 69.125-44 142.375-44 218 0 165.875 72.875 322.125 199.875 428.877l2.125 1.747c7.25 6.003 16.375 9.376 25.75 9.376h664.628c9.37 0 18.496-3.373 25.747-9.376l2.125-1.747c126.874-106.752 199.75-263.002 199.75-428.877 0-75.625-14.874-148.875-44-218zM887.75 916.998h-623.5c-48.301-43.552-86.904-96.768-113.306-156.205s-40.011-123.758-39.944-188.794c0-124.25 48.374-241 136.25-328.75 87.875-87.875 204.625-136.25 328.75-136.25 124.25 0 240.998 48.374 328.749 136.25 87.878 87.875 136.25 204.625 136.25 328.75 0 132-55.622 256.877-153.248 344.998zM715.373 398.875c-1.875-1.861-4.416-2.905-7.059-2.905s-5.184 1.044-7.066 2.905l-105.623 105.625c-23.375-6.25-49.25-0.25-67.625 18.125-6.508 6.496-11.672 14.211-15.195 22.705s-5.336 17.599-5.336 26.794c0 9.196 1.814 18.301 5.336 26.795s8.687 16.209 15.195 22.705c6.496 6.508 14.212 11.672 22.705 15.195 8.494 3.526 17.599 5.337 26.795 5.337s18.3-1.811 26.794-5.337c8.494-3.523 16.209-8.687 22.706-15.195 8.705-8.68 14.964-19.503 18.145-31.377 3.187-11.874 3.174-24.378-0.019-36.248l105.626-105.625c3.872-3.875 3.872-10.25 0-14.125l-35.379-35.375zM548.5 272h55c5.5 0 10-4.5 10-10v-100c0-5.5-4.5-10-10-10h-55c-5.5 0-10 4.5-10 10v100c0 5.5 4.5 10 10 10zM873.498 544.5v55c0 5.5 4.506 10 10.003 10h100c5.498 0 9.997-4.5 9.997-10v-55c0-5.5-4.499-10-9.997-10h-100c-5.498 0-10.003 4.5-10.003 10zM889.376 298l-38.874-38.875c-1.882-1.861-4.422-2.905-7.066-2.905s-5.184 1.044-7.059 2.905l-70.752 70.75c-1.862 1.879-2.906 4.417-2.906 7.062s1.043 5.183 2.906 7.062l38.874 38.875c3.878 3.875 10.253 3.875 14.125 0l70.752-70.75c3.872-3.875 3.872-10.25 0-14.125zM316.125 259.125c-1.879-1.861-4.417-2.905-7.062-2.905s-5.183 1.044-7.062 2.905l-38.875 38.875c-1.861 1.88-2.905 4.417-2.905 7.062s1.044 5.183 2.905 7.062l70.75 70.75c3.875 3.875 10.25 3.875 14.125 0l38.875-38.875c3.875-3.875 3.875-10.25 0-14.125l-70.75-70.75zM263.5 534.5h-100c-5.5 0-10 4.5-10 10v55c0 5.5 4.5 10 10 10h100c5.5 0 10-4.5 10-10v-55c0-5.5-4.5-10-10-10z"></path>
</svg>
