<!-- Generated by IcoMoon.io -->
<svg version="1.1" xmlns="http://www.w3.org/2000/svg" width="975" height="1024" viewBox="0 0 975 1024">
<title></title>
<g id="icomoon-ignore">
</g>
<path d="M220.686 679.131l121.905-142.219 46.278 39.668-121.905 142.219-46.278-39.668z"></path>
<path d="M673.587 271.494l-101.586 121.905-46.826-39.021 101.586-121.905 46.826 39.021zM262.864 268.82l101.587 81.27-38.077 47.596-101.587-81.27 38.077-47.596zM711.129 505.954h-142.224v-60.954h142.224v60.954zM668.033 759.852l-162.543-182.862 45.558-40.492 162.538 182.857-45.553 40.497z"></path>
<path d="M447 556.744c-56.105 0-101.587-45.48-101.587-101.586s45.482-101.587 101.587-101.587c56.106 0 101.586 45.482 101.586 101.587s-45.48 101.586-101.586 101.586zM447 617.696c89.766 0 162.539-72.772 162.539-162.539 0-89.768-72.772-162.54-162.539-162.54-89.768 0-162.54 72.771-162.54 162.54 0 89.766 72.771 162.539 162.54 162.539z"></path>
<path d="M711.129 231.666c-22.445 0-40.638-18.193-40.638-40.635s18.193-40.635 40.638-40.635c22.44 0 40.633 18.193 40.633 40.635s-18.193 40.635-40.633 40.635zM711.129 292.618c56.105 0 101.586-45.482 101.586-101.588s-45.48-101.587-101.586-101.587c-56.105 0-101.591 45.482-101.591 101.587s45.485 101.588 101.591 101.588z"></path>
<path d="M792.396 516.111c-22.44 0-40.633-18.193-40.633-40.635s18.193-40.635 40.633-40.635c22.445 0 40.638 18.193 40.638 40.635s-18.193 40.635-40.638 40.635zM792.396 577.063c56.105 0 101.591-45.485 101.591-101.588 0-56.105-45.485-101.588-101.591-101.588s-101.586 45.482-101.586 101.588c0 56.103 45.48 101.588 101.586 101.588z"></path>
<path d="M751.762 841.192c-22.44 0-40.633-18.193-40.633-40.638 0-22.44 18.193-40.633 40.633-40.633s40.633 18.193 40.633 40.633c0 22.445-18.193 40.638-40.633 40.638zM751.762 902.144c56.105 0 101.586-45.485 101.586-101.591s-45.48-101.586-101.586-101.586c-56.105 0-101.586 45.48-101.586 101.586s45.48 101.591 101.586 101.591z"></path>
<path d="M182.873 800.553c-22.442 0-40.635-18.193-40.635-40.633s18.193-40.633 40.635-40.633c22.442 0 40.635 18.193 40.635 40.633s-18.193 40.633-40.635 40.633zM182.873 861.506c56.105 0 101.587-45.48 101.587-101.586s-45.482-101.586-101.587-101.586c-56.105 0-101.588 45.48-101.588 101.586s45.482 101.586 101.588 101.586z"></path>
<path d="M182.873 272.301c-22.442 0-40.635-18.193-40.635-40.635s18.193-40.635 40.635-40.635c22.442 0 40.635 18.193 40.635 40.635s-18.193 40.635-40.635 40.635zM182.873 333.253c56.105 0 101.587-45.482 101.587-101.587s-45.482-101.588-101.587-101.588c-56.105 0-101.588 45.482-101.588 101.588s45.482 101.587 101.588 101.587z"></path>
</svg>
