<!-- Generated by IcoMoon.io -->
<svg version="1.1" xmlns="http://www.w3.org/2000/svg" width="32" height="32" viewBox="0 0 32 32">
<title>correlation</title>
<path d="M24.891 14.519h-4.717c-0.305-0.864-0.869-1.613-1.616-2.143s-1.64-0.817-2.556-0.82c-0.916 0.003-1.809 0.289-2.556 0.82s-1.311 1.279-1.616 2.143h-4.717c-0.495 0-2.963-0.144-2.963-2.963v-1.482c0-2.705 2.276-2.951 2.963-2.963h15.087c0.305 0.864 0.869 1.613 1.616 2.143s1.64 0.817 2.556 0.82c2.45 0 4.444-1.994 4.444-4.444s-1.994-4.444-4.444-4.444c-0.916 0.003-1.809 0.289-2.556 0.82s-1.311 1.279-1.616 2.143h-15.087c-2.381 0-5.926 1.578-5.926 5.926v1.482c0 4.348 3.545 5.926 5.926 5.926h4.717c0.305 0.864 0.869 1.613 1.616 2.143s1.64 0.817 2.556 0.82c0.916-0.003 1.809-0.289 2.556-0.82s1.311-1.279 1.616-2.143h4.717c0.495 0 2.963 0.144 2.963 2.963v1.482c0 2.705-2.276 2.951-2.963 2.963h-15.087c-0.305-0.864-0.869-1.613-1.616-2.143s-1.64-0.817-2.556-0.82c-2.45 0-4.444 1.994-4.444 4.444s1.994 4.444 4.444 4.444c0.916-0.003 1.809-0.289 2.556-0.82s1.311-1.279 1.616-2.143h15.087c2.381 0 5.926-1.578 5.926-5.926v-1.482c0-4.348-3.545-5.926-5.926-5.926zM26.373 4.149c0.381 0.017 0.742 0.181 1.006 0.457s0.411 0.643 0.411 1.025-0.147 0.749-0.411 1.025c-0.264 0.276-0.624 0.439-1.006 0.457-0.381-0.017-0.741-0.181-1.006-0.457s-0.411-0.643-0.411-1.025 0.147-0.749 0.411-1.025c0.264-0.276 0.624-0.439 1.006-0.457zM5.632 27.852c-0.381-0.017-0.742-0.181-1.006-0.457s-0.411-0.643-0.411-1.025c0-0.382 0.147-0.749 0.411-1.025s0.624-0.439 1.005-0.457c0.381 0.017 0.742 0.181 1.005 0.457s0.411 0.643 0.411 1.025c0 0.382-0.147 0.749-0.411 1.025s-0.624 0.439-1.005 0.457z"></path>
</svg>
