<!-- Generated by IcoMoon.io -->
<svg version="1.1" xmlns="http://www.w3.org/2000/svg" width="975" height="1024" viewBox="0 0 975 1024">
<title></title>
<g id="icomoon-ignore">
</g>
<path d="M902.051 576.824l-68.194-20.168c0.332-6.295 0.805-12.493 0.805-18.744 0-167.095-114.634-312.085-272.579-344.652l-12.371 64.424c128.38 26.555 221.545 144.327 221.545 280.228v0.283l-61.698-18.222c-6.124 3.682-10.586 9.577-12.468 16.462-1.877 6.885-1.029 14.234 2.375 20.509l56.013 104.468c7.105 13.063 23.030 17.754 35.728 10.557l100.796-58.178c6.115-3.686 10.567-9.587 12.439-16.472s1.014-14.224-2.389-20.495z"></path>
<path d="M908.108 569.354l-64.975-19.212c0.224-3.994 0.419-8.129 0.419-12.229 0-171.076-117.37-319.885-279.669-353.35l-8.831-1.821-15.721 81.864 8.582 1.775c120.354 24.896 209.067 132.941 214.216 259.858l-53.804-15.892-3.355 2.019c-8.080 4.862-13.975 12.644-16.457 21.733-2.477 9.084-1.351 18.788 3.131 27.073 0.005 0.005 0-0.010 0 0l56.022 104.482c9.411 17.301 30.774 23.757 47.928 14.039l101.005-58.3c8.070-4.871 13.951-12.659 16.423-21.748 2.467-9.089 1.336-18.778-3.16-27.058l-1.755-3.233zM833.858 556.656l68.194 20.168c3.404 6.271 4.262 13.609 2.389 20.495s-6.324 12.785-12.439 16.472l-100.796 58.178c-12.698 7.197-28.623 2.506-35.728-10.557l-56.013-104.468c-3.404-6.276-4.252-13.624-2.375-20.509 1.882-6.885 6.344-12.78 12.468-16.462l61.698 18.222v-0.283c0-3.013-0.044-6.022-0.137-9.016-4.013-132.065-95.876-245.246-221.408-271.212l12.371-64.424c2.911 0.6 5.803 1.238 8.684 1.914 153.449 36.003 263.895 178.722 263.895 342.738 0 4.769-0.278 9.513-0.556 14.292-0.083 1.482-0.171 2.965-0.249 4.452z"></path>
<path d="M214.535 524.176c0-111.38 62.838-210.832 156.383-257.506l29.002 78.483c3.419 1.544 7.115 2.384 10.867 2.47s7.482-0.586 10.968-1.973c3.486-1.387 6.656-3.463 9.32-6.102s4.769-5.788 6.188-9.258l50.752-117.867c3.067-7.063 3.282-15.038 0.595-22.255-2.684-7.217-8.059-13.117-15-16.465l-113.733-52.543c-3.414-1.56-7.109-2.413-10.862-2.508s-7.486 0.57-10.975 1.954c-3.489 1.384-6.661 3.46-9.326 6.101s-4.766 5.795-6.179 9.269l25.637 69.347c-117.524 56.472-197.042 180.113-197.042 318.902 0 39.005 6.398 77.917 19.145 115.644l59.805-21.636c-10.24-30.306-15.49-62.069-15.543-94.057z"></path>
<path d="M399.919 345.153c3.419 1.544 7.115 2.384 10.867 2.47s7.482-0.586 10.968-1.973c3.486-1.387 6.656-3.463 9.32-6.102s4.769-5.788 6.188-9.258l50.752-117.867c3.067-7.063 3.282-15.038 0.595-22.255-2.684-7.217-8.059-13.117-15-16.465l-113.733-52.543c-3.414-1.56-7.109-2.413-10.862-2.508s-7.486 0.57-10.975 1.954c-3.489 1.384-6.661 3.46-9.326 6.101s-4.766 5.795-6.179 9.269l25.637 69.347c-117.524 56.472-197.042 180.113-197.042 318.902 0 36.098 5.479 72.114 16.401 107.188 0.88 2.823 1.794 5.642 2.744 8.455l59.805-21.636c-10.24-30.306-15.49-62.069-15.543-94.057 0-108.194 59.294-205.135 148.433-253.373 2.624-1.42 5.274-2.798 7.95-4.133l29.002 78.483zM496.172 215.957c-0.005 0.005 0-0.005 0 0l-50.713 117.771c-1.87 4.543-4.633 8.666-8.125 12.126-3.513 3.48-7.693 6.216-12.289 8.046s-9.514 2.714-14.461 2.602c-4.947-0.113-9.82-1.221-14.328-3.257l-3.389-1.531-26.788-72.49c-85.611 46.874-142.651 140.431-142.654 244.948 0.053 31.022 5.145 61.83 15.077 91.224l2.782 8.231-76.527 27.682-2.906-8.602c-13.054-38.629-19.612-78.502-19.612-118.482 0-139.289 78.183-263.813 194.825-323.312l-24.063-65.089 1.296-3.189c1.864-4.585 4.637-8.746 8.153-12.232s7.702-6.224 12.307-8.051c4.605-1.827 9.531-2.704 14.483-2.578s9.828 1.251 14.334 3.309l113.902 52.621c9.008 4.346 15.985 12.004 19.467 21.37 3.486 9.361 3.204 19.72-0.77 28.883z"></path>
<path d="M511.873 807.287c-49.569 0-97.858-12.449-140.034-38.39l53.407-56.237c0.033-3.74-0.687-7.446-2.116-10.903s-3.539-6.593-6.204-9.216c-2.665-2.628-5.831-4.696-9.311-6.076s-7.201-2.053-10.944-1.97h-124.443c-3.794 0.088-7.534 0.922-11.004 2.458s-6.6 3.745-9.213 6.495c-2.612 2.75-4.654 5.988-6.007 9.528-1.354 3.545-1.992 7.319-1.878 11.108l0.853 129.131c-0.050 3.789 0.652 7.553 2.067 11.069 1.415 3.521 3.514 6.724 6.175 9.426s5.833 4.852 9.332 6.324c3.498 1.468 7.253 2.233 11.049 2.243l52.886-55.667c54.707 36.996 119.321 56.627 185.385 56.33 95.393 0 186.997-42.364 251.397-116.161l-47.011-44.071c-52.409 60.119-126.908 94.579-204.386 94.579z"></path>
<path d="M425.246 712.66l-53.407 56.237c2.595 1.595 5.213 3.14 7.853 4.632 40.27 22.791 85.662 33.758 132.181 33.758 74.596 0 146.422-31.944 198.441-87.971 2.014-2.165 3.994-4.369 5.944-6.607l47.011 44.071c-64.4 73.796-156.004 116.161-251.397 116.161-66.064 0.297-130.678-19.334-185.385-56.33l-52.886 55.667c-3.796-0.010-7.551-0.775-11.049-2.243-3.498-1.473-6.67-3.623-9.332-6.324s-4.76-5.905-6.175-9.426c-1.415-3.516-2.117-7.28-2.067-11.069l-0.853-129.131c-0.114-3.789 0.525-7.563 1.878-11.108 1.353-3.54 3.395-6.778 6.007-9.528s5.743-4.959 9.213-6.495c3.47-1.536 7.209-2.37 11.004-2.458h124.443c3.743-0.083 7.465 0.59 10.944 1.97s6.646 3.447 9.311 6.076c2.665 2.623 4.775 5.759 6.204 9.216s2.149 7.163 2.116 10.903zM511.893 881.82c0.010 0-0.005 0 0 0 98.041-0.005 192.049-43.544 258.077-119.203l5.632-6.456-59.987-56.232-6.061 6.949c-50.781 58.246-122.856 91.531-197.681 91.531-44.369 0-87.523-10.284-125.869-31.525l48.102-50.649 0.031-3.496c0.043-4.93-0.906-9.816-2.789-14.37-1.884-4.559-4.665-8.689-8.177-12.151s-7.685-6.183-12.271-8.002c-4.553-1.809-9.421-2.692-14.319-2.599zM396.58 675.616l-124.553 0.005c-4.967 0.112-9.863 1.204-14.404 3.213s-8.641 4.901-12.061 8.499c-3.42 3.599-6.092 7.841-7.863 12.478-1.758 4.603-2.595 9.504-2.462 14.424l0.852 128.956c-0.053 4.935 0.867 9.826 2.709 14.404 1.852 4.608 4.601 8.802 8.087 12.342s7.639 6.354 12.22 8.28c4.581 1.926 9.499 2.926 14.47 2.94l3.837 0.015 50.396-53.048c54.814 35.304 118.761 53.989 184.086 53.697z"></path>
</svg>
