<!-- Generated by IcoMoon.io -->
<svg version="1.1" xmlns="http://www.w3.org/2000/svg" width="1170" height="1024" viewBox="0 0 1170 1024">
<title></title>
<g id="icomoon-ignore">
</g>
<path d="M238.903 921.501h692.189c84.614-87.019 136.532-205.583 136.532-336.376 0-266.548-216.078-482.627-482.627-482.627s-482.627 216.079-482.627 482.627c0 130.795 51.921 249.357 136.531 336.376zM971.949 1023.877h-773.903c-121.45-107.194-198.048-264.026-198.048-438.751 0-323.088 261.914-585.002 585.002-585.002s585.002 261.914 585.002 585.002c0 174.726-76.599 331.557-198.052 438.751zM658.124 292.624c0-40.386-32.739-73.125-73.125-73.125s-73.125 32.739-73.125 73.125c0 40.386 32.74 73.125 73.125 73.125s73.125-32.739 73.125-73.125zM877.5 585.125c-40.387 0-73.125-32.74-73.125-73.125s32.738-73.125 73.125-73.125c40.387 0 73.125 32.74 73.125 73.125s-32.738 73.125-73.125 73.125zM365.623 512c0-40.385-32.74-73.125-73.125-73.125s-73.125 32.74-73.125 73.125c0 40.385 32.74 73.125 73.125 73.125s73.125-32.74 73.125-73.125zM704.056 496.743c-26.693-13.83-59.543-3.402-73.371 23.29l-111.541 215.291c-13.83 26.691-3.402 59.539 23.291 73.366s59.542 3.4 73.371-23.29l111.541-215.286c13.833-26.693 3.402-59.542-23.29-73.371z"></path>
</svg>
