<!-- Generated by IcoMoon.io -->
<svg version="1.1" xmlns="http://www.w3.org/2000/svg" width="805" height="1024" viewBox="0 0 805 1024">
<title></title>
<g id="icomoon-ignore">
</g>
<path d="M805 787.248v-550.342c0-119.434-184.221-220.213-402.5-220.213s-402.5 100.78-402.5 220.136v550.342c0 119.356 184.221 220.136 402.5 220.136s402.5-100.857 402.5-220.136zM402.501 126.761c185.769 0 298.392 82.977 301.875 109.759-3.483 27.479-116.105 110.378-301.875 110.378s-298.392-82.9-301.875-109.759c3.483-27.479 116.105-110.378 301.875-110.378zM100.625 380.336c74.308 46.597 182.983 76.629 301.875 76.629s227.567-30.032 301.875-76.629v131.354c-3.483 27.479-116.105 110.378-301.875 110.378s-298.392-82.9-301.875-109.991v-131.741zM100.625 787.248v-131.741c74.308 46.597 182.983 76.629 301.875 76.629s227.567-30.032 301.875-76.629v131.354c-3.483 27.479-116.105 110.378-301.875 110.378s-298.392-82.977-301.875-110.068z"></path>
</svg>
