<svg width="12" height="16" viewBox="0 0 12 16" fill="none" xmlns="http://www.w3.org/2000/svg">
<path d="M3 11.75C2.85166 11.75 2.70666 11.794 2.58332 11.8764C2.45999 11.9588 2.36386 12.0759 2.30709 12.213C2.25032 12.35 2.23547 12.5008 2.26441 12.6463C2.29335 12.7918 2.36478 12.9254 2.46967 13.0303C2.57456 13.1352 2.7082 13.2066 2.85368 13.2356C2.99917 13.2645 3.14997 13.2497 3.28701 13.1929C3.42406 13.1361 3.54119 13.04 3.6236 12.9167C3.70601 12.7933 3.75 12.6483 3.75 12.5C3.75 12.3011 3.67098 12.1103 3.53033 11.9697C3.38968 11.829 3.19891 11.75 3 11.75ZM3 7.25C2.85166 7.25 2.70666 7.29399 2.58332 7.3764C2.45999 7.45881 2.36386 7.57594 2.30709 7.71299C2.25032 7.85003 2.23547 8.00083 2.26441 8.14632C2.29335 8.2918 2.36478 8.42544 2.46967 8.53033C2.57456 8.63522 2.7082 8.70665 2.85368 8.73559C2.99917 8.76453 3.14997 8.74968 3.28701 8.69291C3.42406 8.63614 3.54119 8.54002 3.6236 8.41668C3.70601 8.29334 3.75 8.14834 3.75 8C3.75 7.80109 3.67098 7.61032 3.53033 7.46967C3.38968 7.32902 3.19891 7.25 3 7.25ZM9 0.5H3C2.20435 0.5 1.44129 0.816071 0.87868 1.37868C0.31607 1.94129 0 2.70435 0 3.5V12.5C0 13.2956 0.31607 14.0587 0.87868 14.6213C1.44129 15.1839 2.20435 15.5 3 15.5H9C9.79565 15.5 10.5587 15.1839 11.1213 14.6213C11.6839 14.0587 12 13.2956 12 12.5V3.5C12 2.70435 11.6839 1.94129 11.1213 1.37868C10.5587 0.816071 9.79565 0.5 9 0.5ZM10.5 12.5C10.5 12.8978 10.342 13.2794 10.0607 13.5607C9.77936 13.842 9.39782 14 9 14H3C2.60218 14 2.22064 13.842 1.93934 13.5607C1.65804 13.2794 1.5 12.8978 1.5 12.5V10.58C1.95299 10.8527 2.47128 10.9978 3 11H9C9.52872 10.9978 10.047 10.8527 10.5 10.58V12.5ZM10.5 8C10.5 8.39782 10.342 8.77936 10.0607 9.06066C9.77936 9.34196 9.39782 9.5 9 9.5H3C2.60218 9.5 2.22064 9.34196 1.93934 9.06066C1.65804 8.77936 1.5 8.39782 1.5 8V6.08C1.95299 6.35266 2.47128 6.49778 3 6.5H9C9.52872 6.49778 10.047 6.35266 10.5 6.08V8ZM9 5H3C2.60218 5 2.22064 4.84196 1.93934 4.56066C1.65804 4.27936 1.5 3.89782 1.5 3.5C1.5 3.10218 1.65804 2.72064 1.93934 2.43934C2.22064 2.15804 2.60218 2 3 2H9C9.39782 2 9.77936 2.15804 10.0607 2.43934C10.342 2.72064 10.5 3.10218 10.5 3.5C10.5 3.89782 10.342 4.27936 10.0607 4.56066C9.77936 4.84196 9.39782 5 9 5Z" fill="#4DE2F0"/>
</svg>
