<svg xmlns="http://www.w3.org/2000/svg" width="11" height="14" fill="none" xmlns:v="https://vecta.io/nano"><path d="M11 10.555v-7.11C11 1.902 8.62.6 5.8.6S.6 1.902.6 3.444v7.11c0 1.542 2.38 2.844 5.2 2.844s5.2-1.303 5.2-2.844zM5.8 2.022c2.4 0 3.855 1.072 3.9 1.418-.045.355-1.5 1.426-3.9 1.426S1.945 3.795 1.9 3.448c.045-.355 1.5-1.426 3.9-1.426zM1.9 5.298c.96.602 2.364.99 3.9.99s2.94-.388 3.9-.99v1.697c-.045.355-1.5 1.426-3.9 1.426S1.945 7.35 1.9 7V5.298zm0 5.257V8.853c.96.602 2.364.99 3.9.99s2.94-.388 3.9-.99v1.697c-.045.355-1.5 1.426-3.9 1.426s-3.855-1.072-3.9-1.422z" fill="#fff"/></svg>