<!-- Generated by IcoMoon.io -->
<svg version="1.1" xmlns="http://www.w3.org/2000/svg" width="32" height="32" viewBox="0 0 32 32">
<title>db-connection</title>
<path d="M14.96 17.055c-0.206 0-0.407 0.062-0.578 0.178s-0.304 0.281-0.383 0.473c-0.079 0.193-0.099 0.405-0.059 0.609s0.139 0.392 0.285 0.54 0.331 0.248 0.533 0.289c0.202 0.041 0.411 0.020 0.601-0.060s0.352-0.215 0.467-0.388c0.114-0.173 0.175-0.377 0.175-0.586 0-0.28-0.11-0.548-0.305-0.746s-0.46-0.309-0.735-0.309zM10.8 17.055c-0.206 0-0.407 0.062-0.578 0.178s-0.304 0.281-0.383 0.473c-0.079 0.193-0.099 0.405-0.059 0.609s0.139 0.392 0.285 0.54 0.331 0.248 0.533 0.289c0.202 0.041 0.411 0.020 0.601-0.060s0.352-0.215 0.467-0.388c0.114-0.173 0.175-0.377 0.175-0.586 0-0.28-0.11-0.548-0.305-0.746s-0.46-0.309-0.735-0.309zM26.4 7.564c0-0.839-0.329-1.644-0.914-2.237s-1.379-0.927-2.206-0.927h-14.56c-0.827 0-1.621 0.333-2.206 0.927s-0.914 1.398-0.914 2.237v4.218c0.005 0.78 0.293 1.532 0.811 2.109-0.518 0.577-0.807 1.329-0.811 2.109v4.218c0 0.839 0.329 1.644 0.914 2.237s1.379 0.927 2.206 0.927h6.24v2.109h-8.32c-0.276 0-0.54 0.111-0.735 0.309s-0.305 0.466-0.305 0.746 0.11 0.548 0.305 0.746c0.195 0.198 0.46 0.309 0.735 0.309h18.72c0.276 0 0.54-0.111 0.735-0.309s0.305-0.466 0.305-0.746c0-0.28-0.11-0.548-0.305-0.746s-0.46-0.309-0.735-0.309h-8.32v-2.109h6.24c0.827 0 1.621-0.333 2.206-0.927s0.914-1.398 0.914-2.237v-4.218c-0.005-0.78-0.294-1.532-0.811-2.109 0.518-0.578 0.807-1.329 0.811-2.109v-4.218zM24.32 20.218c0 0.28-0.11 0.548-0.305 0.746s-0.46 0.309-0.735 0.309h-14.56c-0.276 0-0.54-0.111-0.735-0.309s-0.305-0.466-0.305-0.746v-4.218c0-0.28 0.11-0.548 0.305-0.746s0.46-0.309 0.735-0.309h14.56c0.276 0 0.54 0.111 0.735 0.309s0.305 0.466 0.305 0.746v4.218zM24.32 11.782c0 0.28-0.11 0.548-0.305 0.746s-0.46 0.309-0.735 0.309h-14.56c-0.276 0-0.54-0.111-0.735-0.309s-0.305-0.466-0.305-0.746v-4.218c0-0.28 0.11-0.548 0.305-0.746s0.46-0.309 0.735-0.309h14.56c0.276 0 0.54 0.111 0.735 0.309s0.305 0.466 0.305 0.746v4.218zM14.96 8.618c-0.206 0-0.407 0.062-0.578 0.178s-0.304 0.281-0.383 0.473c-0.079 0.193-0.099 0.405-0.059 0.609s0.139 0.392 0.285 0.54 0.331 0.248 0.533 0.289c0.202 0.041 0.411 0.020 0.601-0.060s0.352-0.215 0.467-0.388c0.114-0.173 0.175-0.377 0.175-0.586 0-0.28-0.11-0.548-0.305-0.746s-0.46-0.309-0.735-0.309zM10.8 8.618c-0.206 0-0.407 0.062-0.578 0.178s-0.304 0.281-0.383 0.473c-0.079 0.193-0.099 0.405-0.059 0.609s0.139 0.392 0.285 0.54 0.331 0.248 0.533 0.289c0.202 0.041 0.411 0.020 0.601-0.060s0.352-0.215 0.467-0.388c0.114-0.173 0.175-0.377 0.175-0.586 0-0.28-0.11-0.548-0.305-0.746s-0.46-0.309-0.735-0.309z"></path>
</svg>
