<!-- Generated by IcoMoon.io -->
<svg version="1.1" xmlns="http://www.w3.org/2000/svg" width="28" height="32" viewBox="0 0 28 32">
<title>delete</title>
<path d="M18.413 11.595c-0.414 0-0.749 0.335-0.749 0.749v14.164c0 0.414 0.335 0.749 0.749 0.749s0.749-0.336 0.749-0.749v-14.164c0-0.414-0.335-0.749-0.749-0.749z"></path>
<path d="M9.57 11.595c-0.414 0-0.749 0.335-0.749 0.749v14.164c0 0.414 0.335 0.749 0.749 0.749s0.749-0.336 0.749-0.749v-14.164c0-0.414-0.335-0.749-0.749-0.749z"></path>
<path d="M3.125 9.527v18.464c0 1.091 0.4 2.116 1.099 2.852 0.696 0.737 1.664 1.156 2.678 1.158h14.179c1.014-0.002 1.982-0.42 2.678-1.158 0.699-0.735 1.099-1.76 1.099-2.852v-18.464c1.39-0.369 2.29-1.711 2.104-3.137s-1.401-2.492-2.839-2.492h-3.837v-0.937c0.004-0.788-0.307-1.544-0.865-2.101s-1.315-0.866-2.103-0.859h-6.655c-0.788-0.006-1.545 0.303-2.103 0.859s-0.869 1.313-0.865 2.101v0.937h-3.837c-1.438 0-2.652 1.067-2.839 2.492s0.715 2.768 2.104 3.137zM21.081 30.501h-14.179c-1.281 0-2.278-1.101-2.278-2.511v-18.398h18.735v18.398c0 1.41-0.997 2.511-2.278 2.511zM9.195 2.96c-0.005-0.39 0.148-0.766 0.425-1.041s0.653-0.427 1.044-0.42h6.655c0.39-0.007 0.767 0.145 1.044 0.42s0.43 0.651 0.425 1.041v0.937h-9.592v-0.937zM3.859 5.396h20.264c0.745 0 1.349 0.604 1.349 1.349s-0.604 1.349-1.349 1.349h-20.264c-0.745 0-1.349-0.604-1.349-1.349s0.604-1.349 1.349-1.349z"></path>
<path d="M13.992 11.595c-0.414 0-0.749 0.335-0.749 0.749v14.164c0 0.414 0.335 0.749 0.749 0.749s0.749-0.336 0.749-0.749v-14.164c0-0.414-0.335-0.749-0.749-0.749z"></path>
</svg>
