<!-- Generated by IcoMoon.io -->
<svg version="1.1" xmlns="http://www.w3.org/2000/svg" width="32" height="32" viewBox="0 0 32 32">
<title>delete</title>
<path d="M16.1 27.662c0.331 0 0.6-0.242 0.6-0.542v-17.898c0-0.3-0.269-0.542-0.6-0.542s-0.6 0.242-0.6 0.542v17.898c0 0.3 0.269 0.542 0.6 0.542z"></path>
<path d="M10.1 27.662c0.331 0 0.6-0.242 0.6-0.542v-17.898c0-0.3-0.269-0.542-0.6-0.542s-0.6 0.242-0.6 0.542v17.898c0 0.3 0.269 0.542 0.6 0.542z"></path>
<path d="M22.103 27.662c0.331 0 0.6-0.242 0.6-0.542v-17.898c0-0.3-0.269-0.542-0.6-0.542s-0.6 0.242-0.6 0.542v17.898c0 0.3 0.269 0.542 0.6 0.542z"></path>
<path d="M29.901 3.254h-8.426c-0.066-0.678-0.297-1.821-1.088-2.555-0.5-0.464-1.135-0.699-1.886-0.699h-5.999c-0.751 0-1.386 0.235-1.886 0.699-0.791 0.734-1.022 1.877-1.088 2.555h-7.226c-0.331 0-0.6 0.242-0.6 0.542s0.269 0.542 0.6 0.542h1.225l1.149 24.961c0.022 0.934 0.665 2.7 2.945 2.7h16.963c2.279 0 2.923-1.767 2.944-2.689l1.15-24.972h1.225c0.331 0 0.6-0.242 0.6-0.542s-0.269-0.542-0.6-0.542zM11.477 1.454c0.269-0.248 0.604-0.369 1.025-0.369h5.999c0.421 0 0.756 0.121 1.025 0.369 0.483 0.446 0.677 1.232 0.744 1.8h-9.536c0.067-0.568 0.261-1.354 0.743-1.8zM26.328 29.277c-0.004 0.167-0.086 1.638-1.745 1.638h-16.963c-1.64 0-1.739-1.474-1.745-1.65l-1.148-24.926h22.749l-1.148 24.938z"></path>
</svg>
