<!-- Generated by IcoMoon.io -->
<svg version="1.1" xmlns="http://www.w3.org/2000/svg" width="983" height="1024" viewBox="0 0 983 1024">
<title></title>
<g id="icomoon-ignore">
</g>
<path d="M452.194 747.93h78.643v-78.643h-78.643v78.643zM491.516 118.785c-217.055 0-393.216 176.161-393.216 393.215s176.161 393.216 393.216 393.216c217.055 0 393.216-176.161 393.216-393.216s-176.161-393.215-393.216-393.215zM491.516 826.573c-173.408 0-314.573-141.165-314.573-314.573s141.165-314.572 314.573-314.572c173.408 0 314.573 141.165 314.573 314.572s-141.165 314.573-314.573 314.573zM491.516 276.071c-86.901 0-157.286 70.386-157.286 157.286h78.643c0-43.253 35.389-78.642 78.643-78.642s78.643 35.389 78.643 78.642c0 78.643-117.965 68.813-117.965 196.608h78.643c0-88.474 117.965-98.304 117.965-196.608 0-86.9-70.386-157.286-157.286-157.286z"></path>
</svg>
