<svg width="20" height="20" viewBox="0 0 20 20" fill="none" xmlns="http://www.w3.org/2000/svg">
<path d="M9.04002 15.76H10.96V13.84H9.04002V15.76ZM10 0.400002C4.70082 0.400002 0.400024 4.7008 0.400024 10C0.400024 15.2992 4.70082 19.6 10 19.6C15.2992 19.6 19.6 15.2992 19.6 10C19.6 4.7008 15.2992 0.400002 10 0.400002ZM10 17.68C5.76642 17.68 2.32002 14.2336 2.32002 10C2.32002 5.7664 5.76642 2.32 10 2.32C14.2336 2.32 17.68 5.7664 17.68 10C17.68 14.2336 14.2336 17.68 10 17.68ZM10 4.24C7.87842 4.24 6.16002 5.9584 6.16002 8.08H8.08002C8.08002 7.024 8.94402 6.16 10 6.16C11.056 6.16 11.92 7.024 11.92 8.08C11.92 10 9.04002 9.76 9.04002 12.88H10.96C10.96 10.72 13.84 10.48 13.84 8.08C13.84 5.9584 12.1216 4.24 10 4.24Z" fill="#8B9B9C"/>
</svg>
