<svg xmlns="http://www.w3.org/2000/svg" width="16" height="14" xmlns:v="https://vecta.io/nano"><path d="M7.8 9.9c.015.02.033.034.054.044s.044.016.068.016.047-.005.068-.016.04-.025.054-.044l2.173-2.768c.08-.102.008-.252-.122-.252H8.667V.28c0-.086-.07-.156-.155-.156H7.348c-.085 0-.155.07-.155.156V6.89H5.76c-.13 0-.202.15-.122.252L7.8 9.9zm7.222-.684h-1.164c-.085 0-.155.07-.155.156v3.008H2.15V9.383c0-.086-.07-.156-.155-.156H.832c-.085 0-.155.07-.155.156v3.867c0 .346.277.625.62.625h13.268c.343 0 .62-.28.62-.625V9.383c0-.086-.07-.156-.155-.156z" /></svg>