<!-- Generated by IcoMoon.io -->
<svg version="1.1" xmlns="http://www.w3.org/2000/svg" width="32" height="32" viewBox="0 0 32 32">
<title>pen-angled</title>
<path d="M24.998 10.624l-15.762 15.78-3.639-3.639 15.77-15.772 3.631 3.631zM25.985 9.636l-3.63-3.63 2.412-2.413c0.546-0.547 1.43-0.542 1.978 0.004l1.648 1.643c0.547 0.546 0.551 1.432 0.007 1.977l-2.415 2.418zM4.693 23.836l3.485 3.485-4.378 0.862 0.893-4.347zM3.431 22.983l-1.397 6.983 6.983-1.396 20.362-20.362c1.095-1.095 1.098-2.868 0.014-3.952l-1.647-1.647c-1.088-1.088-2.845-1.094-3.952 0.014l-20.362 20.362z"></path>
</svg>
