<!-- Generated by IcoMoon.io -->
<svg version="1.1" xmlns="http://www.w3.org/2000/svg" width="1152" height="1024" viewBox="0 0 1152 1024">
<title></title>
<g id="icomoon-ignore">
</g>
<path d="M712.868 78.769c-60.832-105.025-212.908-105.025-273.739 0l-410.609 708.926c-60.831 105.022 15.209 236.305 136.869 236.305h821.222c121.658 0 197.7-131.283 136.868-236.305l-410.61-708.926zM530.375 131.282c20.277-35.008 70.97-35.008 91.247 0l410.611 708.924c20.275 35.007-5.072 78.766-45.622 78.766h-821.222c-40.554 0-65.9-43.759-45.622-78.766l410.609-708.924zM632.889 625.778c0 31.419-25.47 56.89-56.89 56.89s-56.889-25.47-56.889-56.89v-284.444c0-31.419 25.47-56.89 56.889-56.89s56.889 25.47 56.889 56.89l0.001 284.444zM632.889 796.447c0 31.417-25.47 56.886-56.89 56.886s-56.889-25.47-56.889-56.886c0-31.423 25.47-56.894 56.889-56.894s56.89 25.47 56.89 56.894z"></path>
</svg>
