<!-- Generated by IcoMoon.io -->
<svg version="1.1" xmlns="http://www.w3.org/2000/svg" width="32" height="32" viewBox="0 0 32 32">
<title>exit</title>
<path d="M21.907 23.65v2.25c0 2.481-2.019 4.5-4.5 4.5h-11.307c-2.482 0-4.5-2.019-4.5-4.5v-19.8c0-2.481 2.019-4.5 4.5-4.5h11.307c2.482 0 4.5 2.019 4.5 4.5v2.25c0 0.621-0.504 1.125-1.125 1.125s-1.125-0.504-1.125-1.125v-2.25c0-1.241-1.009-2.25-2.25-2.25h-11.307c-1.241 0-2.25 1.009-2.25 2.25v19.8c0 1.241 1.009 2.25 2.25 2.25h11.307c1.241 0 2.25-1.009 2.25-2.25v-2.25c0-0.621 0.504-1.125 1.125-1.125s1.125 0.504 1.125 1.125zM29.578 14.067l-2.519-2.519c-0.439-0.439-1.152-0.439-1.591 0s-0.439 1.152 0 1.591l1.792 1.792h-13.508c-0.621 0-1.125 0.504-1.125 1.125s0.504 1.125 1.125 1.125h13.508l-1.792 1.792c-0.439 0.439-0.439 1.152 0 1.591 0.22 0.22 0.508 0.33 0.795 0.33s0.576-0.11 0.796-0.33l2.519-2.519c1.097-1.097 1.097-2.881 0-3.977z"></path>
</svg>
