<!-- Generated by IcoMoon.io -->
<svg version="1.1" xmlns="http://www.w3.org/2000/svg" width="32" height="32" viewBox="0 0 32 32">
<title>feature</title>
<path d="M22.421 14.558c0.176-0.357 0.685-0.357 0.861 0l1.574 3.189c0.070 0.142 0.205 0.24 0.361 0.263l3.519 0.511c0.394 0.057 0.551 0.541 0.266 0.819l-2.547 2.482c-0.113 0.11-0.165 0.269-0.138 0.425l0.601 3.505c0.067 0.392-0.344 0.691-0.696 0.506l-3.148-1.655c-0.14-0.074-0.307-0.074-0.447 0l-3.148 1.655c-0.352 0.185-0.764-0.114-0.696-0.506l0.601-3.505c0.027-0.156-0.025-0.315-0.138-0.425l-2.547-2.482c-0.285-0.278-0.128-0.761 0.266-0.819l3.519-0.511c0.156-0.023 0.292-0.121 0.361-0.263l1.574-3.189z"></path>
<path d="M21.572 5.686h-16.64c-0.552 0-1.081 0.232-1.471 0.644s-0.609 0.972-0.609 1.556v13.2c0 0.584 0.219 1.143 0.609 1.556s0.919 0.644 1.471 0.644h12.838c0.075-0.507-0.098-1.021-0.466-1.38l-0.841-0.82h-2.171v-4.4h5.074c0.345-0.149 0.631-0.416 0.801-0.761l0.71-1.439h-6.586v-4.4h7.28v3.053c0.496-0.669 1.407-0.812 2.080-0.427v-4.826c0-0.583-0.219-1.143-0.609-1.556s-0.919-0.644-1.471-0.644zM4.932 21.086v-4.4h7.28v4.4h-7.28zM4.932 14.486v-4.4h7.28v4.4h-7.28z"></path>
</svg>
