<!-- Generated by IcoMoon.io -->
<svg version="1.1" xmlns="http://www.w3.org/2000/svg" width="25" height="32" viewBox="0 0 25 32">
<title>file-plus</title>
<path d="M24.34 8.243l-7.472-7.472c-0.208-0.208-0.49-0.326-0.785-0.326h-14.75c-0.615 0-1.111 0.497-1.111 1.111v28.889c0 0.615 0.497 1.111 1.111 1.111h22.222c0.615 0 1.111-0.497 1.111-1.111v-21.413c0-0.295-0.118-0.58-0.326-0.788zM22.104 9.542h-6.535v-6.535l6.535 6.535zM22.167 29.056h-19.444v-26.111h10.486v7.5c0 0.387 0.154 0.758 0.427 1.031s0.644 0.427 1.031 0.427h7.5v17.153zM13.556 14.611c0-0.153-0.125-0.278-0.278-0.278h-1.667c-0.153 0-0.278 0.125-0.278 0.278v3.75h-3.75c-0.153 0-0.278 0.125-0.278 0.278v1.667c0 0.153 0.125 0.278 0.278 0.278h3.75v3.75c0 0.153 0.125 0.278 0.278 0.278h1.667c0.153 0 0.278-0.125 0.278-0.278v-3.75h3.75c0.153 0 0.278-0.125 0.278-0.278v-1.667c0-0.153-0.125-0.278-0.278-0.278h-3.75v-3.75z"></path>
</svg>
