<!-- Generated by IcoMoon.io -->
<svg version="1.1" xmlns="http://www.w3.org/2000/svg" width="25" height="32" viewBox="0 0 25 32">
<title>file-plus</title>
<path d="M2.895 31.099c-1.373 0-2.491-1.117-2.491-2.491v-25.044c0-1.374 1.118-2.491 2.491-2.491h14.054c0.211 0 0.401 0.091 0.533 0.235l7.020 7.211c0.146 0.132 0.238 0.323 0.238 0.536 0 0.014-0 0.027-0.001 0.040v19.515c0 1.373-1.117 2.49-2.491 2.49h-19.353zM17.671 3.17v0zM16.382 1.351c0-0 0-0 0-0h-13.487c-1.22 0-2.213 0.992-2.213 2.213v25.044c0 0.61 0.248 1.164 0.649 1.564-0.401-0.401-0.649-0.954-0.649-1.564v-25.044c0-1.221 0.993-2.213 2.213-2.213h13.486zM17.671 3.568v4.764h4.638l-4.638-4.764zM22.58 8.611v0zM22.969 8.611v0 0zM23.576 28.608v-18.833h-0v18.832c0 0.732-0.596 1.328-1.328 1.328h-19.353c-0.341 0-0.652-0.129-0.887-0.341 0.235 0.212 0.547 0.341 0.888 0.341h19.353c0.732 0 1.328-0.596 1.328-1.328zM23.298 28.607v-18.832h-6.347c-0.398 0-0.721-0.323-0.721-0.721v-6.541h-13.334c-0.578 0-1.050 0.471-1.050 1.050v25.044c0 0.578 0.471 1.050 1.050 1.050h19.353c0.578 0 1.049-0.471 1.049-1.050zM16.508 9.054v-6.541h0v6.541c0 0.121 0.049 0.231 0.128 0.311-0.079-0.080-0.128-0.19-0.128-0.311z"></path>
<path d="M17.391 18.087h-9.739v-1.391h9.739v1.391z"></path>
<path d="M11.826 22.261v-9.739h1.391v9.739h-1.391z"></path>
</svg>
