<svg xmlns="http://www.w3.org/2000/svg" width="20" height="20" xmlns:v="https://vecta.io/nano"><path fill-rule="evenodd" d="M16.792 10.805l-.67-.495.01-.31-.01-.3.67-.495c.72-.532.923-1.537.46-2.285l-.835-1.363c-.444-.72-1.39-1.036-2.196-.73l-.843.318c-.21-.13-.427-.25-.65-.356l-.12-.788c-.13-.85-.894-1.493-1.774-1.493h-1.67c-.882 0-1.645.643-1.774 1.496l-.12.785c-.225.106-.44.225-.65.357l-.843-.32a1.84 1.84 0 0 0-2.197.73L2.746 6.91c-.46.75-.258 1.756.46 2.285l.67.496-.008.3.008.31-.67.494c-.72.53-.923 1.535-.462 2.286l.836 1.363c.442.72 1.388 1.034 2.195.73l.843-.32c.21.132.425.25.65.357l.12.785c.13.853.892 1.496 1.774 1.496h1.67c.88 0 1.643-.642 1.775-1.496l.12-.785c.224-.106.44-.225.65-.356l.843.318c.8.308 1.754-.008 2.196-.73l.834-1.36c.463-.75.26-1.756-.46-2.288zM14.74 10a4.2 4.2 0 0 1-.101.921l1.318.973a.38.38 0 0 1 .106.493l-.835 1.362c-.097.158-.324.23-.506.16l-1.555-.587c-.485.4-1.06.727-1.694.922l-.237 1.56c-.028.184-.207.333-.4.333h-1.67c-.195 0-.372-.15-.4-.333l-.237-1.56a4.82 4.82 0 0 1-1.694-.922l-1.555.587c-.184.07-.4-.002-.506-.16l-.836-1.362c-.097-.158-.05-.378.106-.493l1.317-.973c-.067-.297-.1-.605-.1-.92s.035-.624.1-.92l-1.317-.973c-.156-.115-.204-.335-.106-.493l.836-1.362c.097-.157.322-.23.506-.16l1.555.587a4.82 4.82 0 0 1 1.694-.922l.237-1.56c.028-.183.206-.333.4-.333h1.67c.193 0 .372.15.4.333l.237 1.56c.634.195 1.21.512 1.694.922l1.555-.587c.183-.07.41.001.506.16l.835 1.362a.38.38 0 0 1-.106.493l-1.318.973c.067.297.1.605.1.92zm-4.8-2.727c-1.535 0-2.78 1.22-2.78 2.727s1.244 2.727 2.78 2.727 2.78-1.22 2.78-2.727-1.244-2.727-2.78-2.727zm0 4.09c-.766 0-1.39-.612-1.39-1.364s.623-1.364 1.39-1.364 1.39.612 1.39 1.364-.623 1.364-1.39 1.364z"/></svg>