<!-- Generated by IcoMoon.io -->
<svg version="1.1" xmlns="http://www.w3.org/2000/svg" width="956" height="1024" viewBox="0 0 956 1024">
<title></title>
<g id="icomoon-ignore">
</g>
<path d="M370.221 900.198l96.971 69.987c15.034 13.121 33.827 19.681 56.379 19.681 9.021 0 24.055-2.915 45.103-8.745 34.579-17.497 51.868-45.93 51.868-85.299v-330.24l313.468-378.357c25.559-30.618 28.563-63.424 9.018-98.416-22.548-36.451-51.118-54.676-85.695-54.676h-762.242c-43.599 0-72.165 16.767-85.696 50.302-15.034 37.908-12.028 70.714 9.021 98.417l313.466 382.731v260.26c0 32.072 12.78 56.859 38.338 74.356zM95.092 125.989h762.242l-333.763 402.414v367.419l-94.717-69.98v-297.439l-333.763-402.414z"></path>
</svg>
