<!-- Generated by IcoMoon.io -->
<svg version="1.1" xmlns="http://www.w3.org/2000/svg" width="37" height="32" viewBox="0 0 37 32">
<title>filter</title>
<path d="M34.743 4.598c-0-0.692-0.269-1.356-0.749-1.854s-1.134-0.79-1.826-0.815v-0.005l-27.522 0.007c-0.048-0.002-0.095-0.007-0.143-0.007-0.553 0-1.092 0.172-1.544 0.492s-0.792 0.771-0.976 1.293c-0.184 0.522-0.202 1.087-0.051 1.619s0.463 1.004 0.894 1.352l12.4 12.4-0 7.652v0.063h0.006c0.010 0.236 0.081 0.465 0.204 0.667s0.296 0.368 0.501 0.485l-0.004 0.007 3.239 1.87c0.027 0.019 0.057 0.032 0.086 0.049l0.012 0.006v-0c0.207 0.119 0.444 0.193 0.699 0.193 0.185 0 0.367-0.036 0.538-0.107s0.326-0.174 0.456-0.305c0.131-0.131 0.234-0.285 0.305-0.456s0.107-0.353 0.107-0.538c0-0.037-0.008-0.072-0.011-0.108h0.011v-9.467l12.514-12.514-0.012-0.012c0.273-0.25 0.491-0.553 0.641-0.892s0.226-0.705 0.226-1.075v0zM10.982 7.273h0.006l0 0.006-0.006-0.006z"></path>
</svg>
