<!-- Generated by IcoMoon.io -->
<svg version="1.1" xmlns="http://www.w3.org/2000/svg" width="32" height="32" viewBox="0 0 32 32">
<title>focus</title>
<path d="M1.374 0h9.269v2.714h-7.929v7.436h-2.714v-8.775c0-0.74 0.634-1.374 1.374-1.374zM32 1.374c0-0.74-0.599-1.339-1.339-1.339h-8.987v2.714h7.612v7.436h2.714v-8.811zM0 30.626c0 0.74 0.599 1.339 1.339 1.339h9.269v-2.714h-7.894v-8.035h-2.714v9.41zM32 30.626v-9.41h-2.714v8.071h-7.612v2.714h8.952c0.74 0 1.374-0.634 1.374-1.374zM14.626 8.952v5.709h-5.674v2.714h5.709v5.674h2.714v-5.674h5.674v-2.714h-5.674v-5.709h-2.749z"></path>
</svg>
