<!-- Generated by IcoMoon.io -->
<svg version="1.1" xmlns="http://www.w3.org/2000/svg" width="43" height="32" viewBox="0 0 43 32">
<title>full-join</title>
<path fill="#43bac3" opacity="0.75" d="M22 24.92c-1.9 1.549-4.325 2.478-6.967 2.478-6.093 0-11.032-4.939-11.032-11.032s4.939-11.032 11.032-11.032c2.642 0 5.068 0.929 6.967 2.478 1.9-1.549 4.325-2.478 6.967-2.478 6.093 0 11.032 4.939 11.032 11.032s-4.939 11.032-11.032 11.032c-2.642 0-5.068-0.929-6.967-2.478z"></path>
<path fill="#43bac3" d="M21.999 24.919c2.48-2.023 4.064-5.103 4.064-8.554s-1.584-6.531-4.064-8.554c-2.481 2.023-4.065 5.103-4.065 8.554s1.584 6.531 4.065 8.554z"></path>
</svg>
