<!-- Generated by IcoMoon.io -->
<svg version="1.1" xmlns="http://www.w3.org/2000/svg" width="32" height="32" viewBox="0 0 32 32">
<title>global</title>
<path d="M16 1.6c-2.848 0-5.632 0.845-8 2.427s-4.214 3.831-5.304 6.463c-1.090 2.631-1.375 5.527-0.819 8.32s1.927 5.359 3.941 7.373 4.58 3.385 7.373 3.941c2.793 0.556 5.689 0.27 8.32-0.82s4.88-2.935 6.462-5.304c1.582-2.368 2.427-5.152 2.427-8 0-3.819-1.517-7.482-4.218-10.182s-6.363-4.218-10.182-4.218zM27.217 10.857h-4.901c-0.717-2.534-1.961-4.888-3.652-6.907 1.861 0.415 3.601 1.255 5.084 2.453s2.67 2.722 3.468 4.454zM15.943 27.859c-1.886-1.879-3.295-4.182-4.109-6.716h8.331c-0.816 2.535-2.226 4.838-4.114 6.716-0.016 0.011-0.035 0.017-0.054 0.017s-0.038-0.006-0.054-0.017zM11.315 19.085c-0.377-2.040-0.377-4.132 0-6.171h9.37c0.377 2.040 0.377 4.132 0 6.171h-9.37zM3.657 16c-0.002-1.041 0.13-2.078 0.391-3.086h5.179c-0.336 2.043-0.336 4.128 0 6.171h-5.179c-0.261-1.008-0.393-2.045-0.391-3.086zM16 4.12c0.018-0.007 0.038-0.007 0.057 0 1.889 1.885 3.298 4.195 4.109 6.737h-8.331c0.816-2.535 2.226-4.838 4.114-6.717 0.014-0.013 0.032-0.020 0.051-0.021zM22.773 12.914h5.179c0.521 2.024 0.521 4.147 0 6.171h-5.179c0.336-2.043 0.336-4.128 0-6.171zM13.336 3.95c-1.688 2.021-2.932 4.374-3.651 6.907h-4.901c0.798-1.732 1.985-3.256 3.468-4.454s3.223-2.037 5.084-2.453zM4.784 21.143h4.901c0.717 2.534 1.961 4.887 3.651 6.907-1.861-0.415-3.601-1.255-5.084-2.453s-2.67-2.722-3.468-4.454zM18.669 28.050c1.687-2.021 2.929-4.374 3.646-6.907h4.901c-0.798 1.732-1.985 3.256-3.468 4.454s-3.223 2.038-5.084 2.453h0.005z"></path>
</svg>
