<!-- Generated by IcoMoon.io -->
<svg version="1.1" xmlns="http://www.w3.org/2000/svg" width="1024" height="1024" viewBox="0 0 1024 1024">
<title></title>
<g id="icomoon-ignore">
</g>
<path d="M549.803 95.273l175.522 146.872v-71.483c0-23.564 19.102-42.667 42.667-42.667 23.561 0 42.667 19.102 42.667 42.667v128c0 4.591-0.725 9.014-2.069 13.158l86.255 72.175h1.148v0.96l112.713 94.32c18.074 15.121 20.463 42.031 5.342 60.1-15.121 18.074-42.031 20.463-60.1 5.342l-57.954-48.495v357.107c0 47.125-38.208 85.333-85.333 85.333h-597.335c-47.128 0-85.333-38.208-85.333-85.333v-354.982l-58.67 46.959c-18.397 14.724-45.248 11.746-59.973-6.647-14.725-18.398-11.748-45.248 6.649-59.972l479.765-384.002c15.855-12.692 38.464-12.446 54.042 0.589zM810.658 424.817l-288.836-241.691-308.499 246.92v423.283h170.667v-170.667c0-47.13 38.205-85.333 85.335-85.333h85.333c47.125 0 85.333 38.204 85.333 85.333v170.667h170.667v-428.512zM554.658 853.329v-170.667h-85.333v170.667h85.333z"></path>
</svg>
