<!-- Generated by IcoMoon.io -->
<svg version="1.1" xmlns="http://www.w3.org/2000/svg" width="32" height="32" viewBox="0 0 32 32">
<title>horizontal-selection</title>
<path d="M8 5.733h2v-1.733h1.2v-2h-3.2v3.733zM12.8 2h6.4v2h-6.4v-2zM20.8 3v-1h3.2v3.733h-2v-1.733h-1.2v-1zM23 7.6h1v2.4h-2v-2.4h1zM10 10v-2.4h-2v2.4h2zM8 22v2.4h2v-2.4h-2zM22 22v2.4h2v-2.4h-2zM23 26.267h1v3.733h-3.2v-2h1.2v-1.733h1zM19.2 29v1h-6.4v-2h6.4v1zM11.2 29v1h-3.2v-3.733h2v1.733h1.2v1zM2 15.998l4.5-3.464v6.928l-4.5-3.464zM25.5 19.466l4.5-3.464-4.5-3.464v6.928z"></path>
</svg>
