<svg width="6" height="18" viewBox="0 0 6 18" fill="none" xmlns="http://www.w3.org/2000/svg">
<path d="M3.83333 14.833C3.83333 14.612 3.74554 14.4 3.58926 14.2438C3.43297 14.0875 3.22101 13.9997 3 13.9997C2.77899 13.9997 2.56702 14.0875 2.41074 14.2438C2.25446 14.4 2.16667 14.612 2.16667 14.833C2.16667 15.054 2.25446 15.266 2.41074 15.4223C2.56702 15.5785 2.77899 15.6663 3 15.6663C3.22101 15.6663 3.43297 15.5785 3.58926 15.4223C3.74554 15.266 3.83333 15.054 3.83333 14.833ZM5.5 14.833C5.5 15.496 5.23661 16.1319 4.76777 16.6008C4.29893 17.0696 3.66304 17.333 3 17.333C2.33696 17.333 1.70107 17.0696 1.23223 16.6008C0.763392 16.1319 0.5 15.496 0.5 14.833C0.5 14.17 0.763392 13.5341 1.23223 13.0652C1.70107 12.5964 2.33696 12.333 3 12.333C3.66304 12.333 4.29893 12.5964 4.76777 13.0652C5.23661 13.5341 5.5 14.17 5.5 14.833ZM5.5 3.16634C5.5 3.82938 5.23661 4.46527 4.76777 4.93411C4.29893 5.40295 3.66304 5.66634 3 5.66634C2.33696 5.66634 1.70107 5.40295 1.23223 4.93411C0.763391 4.46527 0.499999 3.82938 0.499999 3.16634C0.499999 2.5033 0.763391 1.86741 1.23223 1.39857C1.70107 0.929731 2.33696 0.66634 3 0.66634C3.66304 0.66634 4.29893 0.929731 4.76777 1.39857C5.23661 1.86741 5.5 2.5033 5.5 3.16634ZM3.83333 3.16634C3.83333 2.94533 3.74553 2.73336 3.58925 2.57708C3.43297 2.4208 3.22101 2.33301 3 2.33301C2.77899 2.33301 2.56702 2.4208 2.41074 2.57708C2.25446 2.73336 2.16667 2.94533 2.16667 3.16634C2.16667 3.38735 2.25446 3.59932 2.41074 3.7556C2.56702 3.91188 2.77899 3.99967 3 3.99967C3.22101 3.99967 3.43297 3.91188 3.58925 3.7556C3.74554 3.59932 3.83333 3.38735 3.83333 3.16634ZM5.5 8.99967C5.5 9.66272 5.23661 10.2986 4.76777 10.7674C4.29893 11.2363 3.66304 11.4997 3 11.4997C2.33696 11.4997 1.70107 11.2363 1.23223 10.7674C0.763391 10.2986 0.5 9.66272 0.5 8.99967C0.5 8.33663 0.763391 7.70075 1.23223 7.23191C1.70107 6.76307 2.33696 6.49967 3 6.49967C3.66304 6.49967 4.29893 6.76307 4.76777 7.23191C5.23661 7.70075 5.5 8.33663 5.5 8.99967ZM3.83333 8.99967C3.83333 8.77866 3.74554 8.5667 3.58925 8.41042C3.43297 8.25414 3.22101 8.16634 3 8.16634C2.77899 8.16634 2.56702 8.25414 2.41074 8.41042C2.25446 8.5667 2.16667 8.77866 2.16667 8.99967C2.16667 9.22069 2.25446 9.43265 2.41074 9.58893C2.56702 9.74521 2.77899 9.83301 3 9.83301C3.22101 9.83301 3.43297 9.74521 3.58925 9.58893C3.74554 9.43265 3.83333 9.22069 3.83333 8.99967Z" fill="#4DE2F0"/>
</svg>
