<!-- Generated by IcoMoon.io -->
<svg version="1.1" xmlns="http://www.w3.org/2000/svg" width="1024" height="1024" viewBox="0 0 1024 1024">
<title></title>
<g id="icomoon-ignore">
</g>
<path d="M225.273 230.392h51.2v51.2h-51.2v-51.2z"></path>
<path d="M327.67 230.392h51.2v51.2h-51.2v-51.2z"></path>
<path d="M481.267 230.392h-51.2v51.2h51.2v-51.2z"></path>
<path d="M424.328 435.21l62.067 76.127-47.647 51.873-105.953-124.631v-3.369h91.533z"></path>
<path d="M691.195 435.21v3.443l-135.314 142.479 135.314 157.832v3.446h-101.23l-87.926-103.698-96.963 103.698h-97.882v-3.446l41.167-46.147 152.52-162.555h0.676l87.731-95.053h101.906z"></path>
<path d="M870.4 153.599h-716.8c-13.579 0-26.602 5.394-36.204 14.996s-14.996 22.625-14.996 36.204v614.401c0 13.578 5.394 26.601 14.996 36.204s22.625 14.996 36.204 14.996h716.8c13.578 0 26.601-5.394 36.204-14.996s14.996-22.625 14.996-36.204v-614.401c0-13.579-5.394-26.602-14.996-36.204s-22.625-14.996-36.204-14.996zM153.6 204.799h716.8v107.521h-716.8v-107.521zM153.6 819.2v-465.92h716.8v465.92h-716.8z"></path>
</svg>
