<!-- Generated by IcoMoon.io -->
<svg version="1.1" xmlns="http://www.w3.org/2000/svg" width="32" height="32" viewBox="0 0 32 32">
<title>icon-key</title>
<path d="M20.376 1.778c-5.41 0-9.846 4.436-9.846 9.846 0 0.569 0.093 1.070 0.171 1.573l-8.616 8.579-0.306 0.343v8.102h7.658v-3.282h3.282v-3.282h3.282v-3.249c1.291 0.635 2.795 1.061 4.376 1.061 5.41 0 9.846-4.436 9.846-9.846s-4.436-9.846-9.846-9.846zM20.376 3.966c4.217 0 7.658 3.441 7.658 7.658s-3.441 7.658-7.658 7.658c-1.301-0.014-2.58-0.342-3.726-0.957l-0.273-0.137h-2.564v3.282h-3.282v3.282h-3.282v3.282h-3.282v-4.992l8.649-8.683 0.41-0.376-0.101-0.58c-0.109-0.656-0.206-1.244-0.206-1.779 0-4.217 3.441-7.658 7.658-7.658h-0.001zM22.564 7.248c-0.291-0.007-0.581 0.045-0.852 0.152s-0.518 0.267-0.727 0.471c-0.209 0.204-0.374 0.447-0.487 0.716s-0.171 0.557-0.171 0.849c-0 0.291 0.058 0.58 0.171 0.849s0.278 0.512 0.487 0.716c0.208 0.204 0.455 0.364 0.726 0.471s0.561 0.159 0.852 0.152c0.572-0.013 1.116-0.249 1.516-0.657s0.624-0.958 0.624-1.53c0-0.572-0.224-1.121-0.623-1.53s-0.944-0.645-1.515-0.658z"></path>
</svg>
