<svg width="16" height="16" viewBox="0 0 16 16" fill="none" xmlns="http://www.w3.org/2000/svg">
<path d="M11.6322 7.58415C11.6322 5.58415 10.0002 3.95215 8.00017 3.95215C6.00017 3.95215 4.36816 5.58415 4.36816 7.58415C4.36816 7.87215 4.40017 8.16015 4.48017 8.44815C4.57617 8.91215 4.75217 9.20015 4.99217 9.60015C5.04017 9.69615 5.10416 9.79215 5.16816 9.90415C5.24816 10.0322 5.31217 10.1601 5.39217 10.2721C5.71217 10.8001 5.90417 11.1042 5.90417 11.7282V13.2321C5.90417 13.6161 6.17617 13.9202 6.54417 13.9842C6.70417 14.8002 7.18417 15.3121 8.00017 15.3121C8.81617 15.3121 9.31216 14.8002 9.45616 13.9842C9.82416 13.9202 10.0962 13.6001 10.0962 13.2321V11.7282C10.0962 11.1042 10.2882 10.7841 10.6082 10.2721C10.6722 10.1601 10.7522 10.0322 10.8322 9.90415C10.8962 9.79215 10.9602 9.69615 11.0082 9.60015C11.2482 9.20015 11.4242 8.91215 11.5202 8.44815C11.6002 8.16015 11.6322 7.87215 11.6322 7.58415ZM9.47217 12.1121H6.56017V11.7442C6.56017 11.6642 6.56017 11.6001 6.54417 11.5361H9.47217C9.47217 11.6001 9.45616 11.6642 9.45616 11.7442V12.1121H9.47217ZM9.32816 13.3761H6.67217C6.59217 13.3761 6.54417 13.3122 6.54417 13.2482V12.7521H9.45616V13.2482C9.47216 13.3122 9.40816 13.3761 9.32816 13.3761ZM8.00017 14.6882C7.82417 14.6882 7.37617 14.6881 7.20017 14.0161H8.81616C8.64016 14.6881 8.17617 14.6882 8.00017 14.6882ZM10.8962 8.32015C10.8162 8.67215 10.6882 8.91215 10.4642 9.28015C10.4002 9.37615 10.3522 9.47215 10.2882 9.58415C10.2082 9.71215 10.1442 9.84014 10.0802 9.93614C9.88817 10.2561 9.71217 10.5441 9.60017 10.8801H6.43217C6.32017 10.5441 6.16017 10.2561 5.95217 9.93614C5.88817 9.82414 5.80817 9.71215 5.74417 9.58415C5.68017 9.47215 5.61616 9.36015 5.56816 9.28015C5.34416 8.89615 5.21616 8.67215 5.13616 8.30415C5.07216 8.06415 5.04017 7.82415 5.04017 7.58415C5.04017 5.93615 6.38417 4.59215 8.03217 4.59215C9.68017 4.59215 11.0242 5.93615 11.0242 7.58415C10.9922 7.82415 10.9602 8.06415 10.8962 8.32015Z" fill="#FFDF6F"/>
<path fill-rule="evenodd" clip-rule="evenodd" d="M4.21826 7.58474C4.21826 5.50189 5.91742 3.80273 8.00026 3.80273C10.0831 3.80273 11.7823 5.50189 11.7823 7.58474C11.7823 7.88238 11.7494 8.18252 11.6661 8.48403C11.5663 8.96244 11.3836 9.26682 11.1524 9.65199C11.1482 9.65901 11.144 9.66606 11.1397 9.67314C11.108 9.73596 11.0669 9.80409 11.027 9.87032C11.0045 9.90763 10.9824 9.94434 10.9625 9.97916L10.9596 9.9843C10.8791 10.113 10.8007 10.2382 10.7385 10.3472L10.7356 10.3523C10.4178 10.8607 10.2463 11.1497 10.2463 11.7287V13.2327C10.2463 13.6397 9.97039 13.9949 9.58485 14.1085C9.5011 14.4969 9.33556 14.826 9.08315 15.0639C8.80794 15.3233 8.44161 15.4627 8.00026 15.4627C7.55861 15.4627 7.19611 15.3231 6.92293 15.0635C6.67252 14.8255 6.50746 14.4966 6.41754 14.1093C6.03248 13.9987 5.75427 13.6568 5.75427 13.2327V11.7287C5.75427 11.1592 5.58891 10.8865 5.27881 10.3749L5.26684 10.3552C5.22389 10.2945 5.186 10.2311 5.15055 10.1701C5.14197 10.1553 5.13358 10.1407 5.12528 10.1263C5.09742 10.078 5.07055 10.0314 5.04106 9.98424L5.03792 9.97922C5.01803 9.94439 4.99601 9.90763 4.97353 9.87032C4.93362 9.80409 4.89257 9.73596 4.86078 9.67313C4.85653 9.66606 4.8523 9.65901 4.84809 9.65199C4.61689 9.26682 4.43419 8.96244 4.3344 8.48404C4.25118 8.18252 4.21826 7.88238 4.21826 7.58474ZM8.00026 4.10273C6.08311 4.10273 4.51826 5.66758 4.51826 7.58474C4.51826 7.8615 4.549 8.13573 4.62479 8.40858L4.62748 8.41827C4.71666 8.84929 4.87648 9.11625 5.11257 9.50969L5.12683 9.53345C5.15464 9.58908 5.18488 9.63987 5.2205 9.69869C5.2437 9.737 5.26901 9.7788 5.29704 9.82776C5.32905 9.87912 5.35895 9.93099 5.38679 9.97927C5.39468 9.99297 5.40242 10.0064 5.40998 10.0194C5.44561 10.0808 5.47867 10.1356 5.51433 10.1855L5.52091 10.1948C5.52844 10.2072 5.53554 10.2197 5.54295 10.2319C5.85081 10.7395 6.05427 11.075 6.05427 11.7287V13.2327C6.05427 13.5404 6.27043 13.7849 6.56997 13.837L6.67161 13.8546L6.69146 13.9559C6.76738 14.3431 6.9164 14.6434 7.1296 14.846C7.34042 15.0464 7.62592 15.1627 8.00026 15.1627C8.37492 15.1627 8.66459 15.0462 8.87737 14.8456C9.09206 14.6432 9.24058 14.3438 9.30854 13.9587L9.32684 13.855L9.43056 13.837C9.72816 13.7852 9.94626 13.5263 9.94626 13.2327V11.7287C9.94626 11.0608 10.1581 10.71 10.4795 10.1957C10.5446 10.082 10.625 9.95327 10.7035 9.82772C10.7315 9.77878 10.7568 9.73699 10.78 9.69869C10.8156 9.63987 10.8463 9.58928 10.8741 9.53365L10.8793 9.52333L10.888 9.50969C11.124 9.11625 11.2842 8.84936 11.3734 8.41834L11.3754 8.40849C11.4512 8.13564 11.4823 7.8615 11.4823 7.58474C11.4823 5.66758 9.91742 4.10273 8.00026 4.10273ZM8.03227 4.74273C6.46711 4.74273 5.19026 6.01958 5.19026 7.58474C5.19026 7.81124 5.22044 8.03825 5.2812 8.26609L5.283 8.27284C5.35737 8.61495 5.47353 8.82063 5.69737 9.20437C5.74621 9.2858 5.81073 9.39871 5.87406 9.50954L5.87864 9.51755C5.90747 9.57521 5.94031 9.63059 5.97571 9.68763C5.9836 9.70034 5.99173 9.71333 5.99998 9.72651C6.02679 9.76933 6.05488 9.81422 6.08033 9.85852C6.2698 10.1503 6.42399 10.4222 6.53846 10.7307H9.4945C9.60738 10.4329 9.76585 10.169 9.92951 9.89641C9.93688 9.88414 9.94426 9.87186 9.95164 9.85956L9.95531 9.85343C9.9838 9.8107 10.0133 9.75956 10.0478 9.69878L10.0544 9.68704C10.0858 9.63155 10.1208 9.56982 10.1595 9.50781C10.1762 9.47842 10.1927 9.44859 10.2092 9.4186C10.2497 9.34532 10.2906 9.2711 10.3377 9.20017C10.5585 8.83722 10.6757 8.61436 10.75 8.28749L10.7507 8.28434C10.8115 8.04112 10.8426 7.81219 10.8743 7.5749C10.8689 6.01424 9.59414 4.74273 8.03227 4.74273ZM4.89026 7.58474C4.89026 5.85389 6.30142 4.44273 8.03227 4.44273C9.76311 4.44273 11.1743 5.85389 11.1743 7.58474V7.59469L11.1726 7.60752C11.1409 7.84528 11.108 8.09187 11.0422 8.35555C10.9566 8.73105 10.8182 8.98772 10.5924 9.35873L10.5892 9.36401C10.5485 9.42497 10.5165 9.48275 10.4789 9.55108C10.4606 9.58414 10.4411 9.61965 10.4185 9.65916L10.4156 9.6643C10.3798 9.72146 10.3472 9.77877 10.3148 9.83602L10.3088 9.84669C10.2758 9.90477 10.2419 9.96433 10.2071 10.0169C10.2024 10.0246 10.1978 10.0324 10.1932 10.0401C10.0059 10.3521 9.84551 10.6193 9.74257 10.9282L9.70838 11.0307H6.32415L6.28996 10.9282C6.18369 10.6093 6.03124 10.3335 5.8265 10.0185L5.82182 10.0113C5.79907 9.97147 5.77479 9.9322 5.74796 9.88933C5.73917 9.87528 5.73013 9.86084 5.72082 9.84584C5.68489 9.78795 5.64669 9.72451 5.61202 9.65564C5.5484 9.54431 5.48614 9.4354 5.43964 9.35791L5.43868 9.35632C5.21548 8.97367 5.07607 8.73166 4.99043 8.34002C4.92378 8.08897 4.89026 7.83711 4.89026 7.58474ZM6.35215 11.3867H9.62227V11.5367C9.62227 11.5762 9.61768 11.6148 9.61409 11.6451C9.61379 11.6475 9.61351 11.6499 9.61323 11.6523C9.60926 11.686 9.60626 11.7144 9.60626 11.7447V12.1127H9.47227V12.2627H6.41026V11.7447C6.41026 11.6608 6.40946 11.616 6.39875 11.5731L6.35215 11.3867ZM9.30626 11.9627H6.71026L6.71027 11.7367C6.71027 11.7203 6.71028 11.7037 6.71006 11.6867H9.30839C9.30711 11.7049 9.30626 11.7243 9.30626 11.7447V11.9627ZM6.39427 12.6027H9.60626V13.2347C9.61906 13.3197 9.58263 13.3945 9.53432 13.4428C9.48187 13.4953 9.40758 13.5267 9.32826 13.5267H6.67227C6.49742 13.5267 6.39427 13.383 6.39427 13.2487V12.6027ZM6.69427 12.9027V13.2267H9.30626V12.9027H6.69427ZM9.32826 13.2267C9.32845 13.2267 9.32853 13.2267 9.32826 13.2267ZM7.00592 13.8667H9.0106L8.96137 14.0547C8.86425 14.4256 8.68046 14.6312 8.47799 14.7375C8.28513 14.8388 8.09441 14.8388 8.00387 14.8387H7.99654C7.90604 14.8388 7.71857 14.8388 7.52915 14.7368C7.33052 14.6298 7.15185 14.4239 7.05516 14.0547L7.00592 13.8667ZM7.41007 14.1667C7.48692 14.3395 7.58495 14.4261 7.67138 14.4727C7.79132 14.5373 7.91326 14.5387 8.00026 14.5387C8.08725 14.5387 8.214 14.5373 8.33853 14.4719C8.42798 14.425 8.52825 14.3383 8.60584 14.1667H7.41007Z" fill="#FFDF6F"/>
<path d="M14.5923 7.26465H13.2643C13.0883 7.26465 12.9443 7.40865 12.9443 7.58465C12.9443 7.76065 13.0883 7.90465 13.2643 7.90465H14.5923C14.7683 7.90465 14.9123 7.76065 14.9123 7.58465C14.9123 7.40865 14.7683 7.26465 14.5923 7.26465Z" fill="#FFDF6F"/>
<path fill-rule="evenodd" clip-rule="evenodd" d="M12.7939 7.58426C12.7939 7.32541 13.0051 7.11426 13.2639 7.11426H14.5919C14.8508 7.11426 15.0619 7.32541 15.0619 7.58426C15.0619 7.8431 14.8508 8.05426 14.5919 8.05426H13.2639C13.0051 8.05426 12.7939 7.8431 12.7939 7.58426ZM13.2639 7.41426C13.1708 7.41426 13.0939 7.4911 13.0939 7.58426C13.0939 7.67741 13.1708 7.75426 13.2639 7.75426H14.5919C14.6851 7.75426 14.7619 7.67741 14.7619 7.58426C14.7619 7.4911 14.6851 7.41426 14.5919 7.41426H13.2639Z" fill="#FFDF6F"/>
<path d="M11.7121 4.1924C11.7921 4.1924 11.8721 4.16039 11.9361 4.09639L12.8801 3.1524C13.0081 3.0244 13.0081 2.8324 12.8801 2.7044C12.7521 2.5764 12.5601 2.5764 12.4321 2.7044L11.4881 3.64839C11.3601 3.77639 11.3601 3.96839 11.4881 4.09639C11.5521 4.16039 11.6321 4.1924 11.7121 4.1924Z" fill="#FFDF6F"/>
<path fill-rule="evenodd" clip-rule="evenodd" d="M12.3261 2.59794C12.5127 2.41136 12.7997 2.41136 12.9863 2.59794C13.1728 2.78452 13.1728 3.07149 12.9863 3.25807L12.8802 3.15201L12.9863 3.25807L12.0423 4.20207C11.951 4.29329 11.8332 4.342 11.7122 4.342C11.5912 4.342 11.4734 4.29329 11.3821 4.20206C11.1955 4.01549 11.1955 3.72851 11.3821 3.54193L11.3821 3.54193L12.3261 2.59794C12.3261 2.59794 12.3261 2.59794 12.3261 2.59794ZM12.7741 2.81007C12.7047 2.74065 12.6077 2.74065 12.5383 2.81007L11.5943 3.75407C11.5248 3.82349 11.5248 3.92051 11.5943 3.98993C11.631 4.0267 11.6732 4.042 11.7122 4.042C11.7511 4.042 11.7933 4.02671 11.8301 3.98993L11.9347 4.0945L11.8301 3.98993L12.7741 3.04594C12.8435 2.97652 12.8435 2.87949 12.7741 2.81007Z" fill="#FFDF6F"/>
<path d="M8.00018 2.64085C8.17618 2.64085 8.32018 2.49685 8.32018 2.32085V0.992852C8.32018 0.816852 8.17618 0.672852 8.00018 0.672852C7.82418 0.672852 7.68018 0.816852 7.68018 0.992852V2.32085C7.68018 2.49685 7.82418 2.64085 8.00018 2.64085Z" fill="#FFDF6F"/>
<path fill-rule="evenodd" clip-rule="evenodd" d="M7.53027 0.992461C7.53027 0.733618 7.74143 0.522461 8.00027 0.522461C8.25912 0.522461 8.47027 0.733618 8.47027 0.992461V2.32046C8.47027 2.5793 8.25912 2.79046 8.00027 2.79046C7.74143 2.79046 7.53027 2.5793 7.53027 2.32046V0.992461ZM8.00027 0.822461C7.90712 0.822461 7.83027 0.899304 7.83027 0.992461V2.32046C7.83027 2.41362 7.90712 2.49046 8.00027 2.49046C8.09343 2.49046 8.17027 2.41362 8.17027 2.32046V0.992461C8.17027 0.899304 8.09343 0.822461 8.00027 0.822461Z" fill="#FFDF6F"/>
<path d="M4.06393 4.09639C4.12793 4.16039 4.20792 4.1924 4.28792 4.1924C4.36792 4.1924 4.44793 4.16039 4.51193 4.09639C4.63993 3.96839 4.63993 3.77639 4.51193 3.64839L3.56792 2.7044C3.43992 2.5764 3.24793 2.5764 3.11993 2.7044C2.99193 2.8324 2.99193 3.0244 3.11993 3.1524L4.06393 4.09639Z" fill="#FFDF6F"/>
<path fill-rule="evenodd" clip-rule="evenodd" d="M3.67409 2.59794C3.67409 2.59794 3.67409 2.59794 3.67409 2.59794L4.61809 3.54193L4.52062 3.6394L4.61809 3.54193C4.80467 3.72851 4.80467 4.01549 4.61809 4.20206C4.52686 4.29329 4.40906 4.342 4.28802 4.342C4.16698 4.342 4.04919 4.29329 3.95796 4.20207L4.06403 4.096L3.95796 4.20207L3.01396 3.25807L3.01396 3.25807C2.82738 3.07149 2.82738 2.78452 3.01396 2.59794C3.20054 2.41136 3.48751 2.41136 3.67409 2.59794ZM3.46196 2.81007C3.39253 2.74065 3.29551 2.74065 3.22609 2.81007C3.15667 2.87949 3.15667 2.97652 3.22609 3.04594C3.22609 3.04594 3.22609 3.04594 3.22609 3.04594L4.17009 3.98993L4.06689 4.09313L4.17009 3.98993C4.20687 4.02671 4.24906 4.042 4.28802 4.042C4.32698 4.042 4.36919 4.0267 4.40596 3.98993C4.47538 3.92051 4.47538 3.82349 4.40596 3.75407L4.51202 3.648L4.40596 3.75407L3.46196 2.81007L3.46196 2.81007Z" fill="#FFDF6F"/>
<path d="M2.752 7.26465H1.424C1.248 7.26465 1.104 7.40865 1.104 7.58465C1.104 7.76065 1.248 7.90465 1.424 7.90465H2.752C2.928 7.90465 3.072 7.76065 3.072 7.58465C3.072 7.40865 2.928 7.26465 2.752 7.26465Z" fill="#FFDF6F"/>
<path fill-rule="evenodd" clip-rule="evenodd" d="M0.954102 7.58426C0.954102 7.32541 1.16526 7.11426 1.4241 7.11426H2.7521C3.01094 7.11426 3.2221 7.32541 3.2221 7.58426C3.2221 7.8431 3.01094 8.05426 2.7521 8.05426H1.4241C1.16526 8.05426 0.954102 7.8431 0.954102 7.58426ZM1.4241 7.41426C1.33094 7.41426 1.2541 7.4911 1.2541 7.58426C1.2541 7.67741 1.33094 7.75426 1.4241 7.75426H2.7521C2.84526 7.75426 2.9221 7.67741 2.9221 7.58426C2.9221 7.4911 2.84526 7.41426 2.7521 7.41426H1.4241Z" fill="#FFDF6F"/>
<path d="M4.06393 11.0726L3.11993 12.0166C2.99193 12.1446 2.99193 12.3366 3.11993 12.4646C3.18393 12.5286 3.26393 12.5606 3.34393 12.5606C3.42393 12.5606 3.50392 12.5286 3.56792 12.4646L4.51193 11.5206C4.63993 11.3926 4.63993 11.2006 4.51193 11.0726C4.38393 10.9446 4.17593 10.9446 4.06393 11.0726Z" fill="#FFDF6F"/>
<path fill-rule="evenodd" clip-rule="evenodd" d="M3.95479 10.9693C4.13086 10.773 4.43699 10.785 4.61809 10.9661C4.80467 11.1527 4.80467 11.4397 4.61809 11.6262L3.67409 12.5702C3.58285 12.6615 3.46506 12.7102 3.34403 12.7102C3.223 12.7102 3.10519 12.6615 3.01396 12.5702C2.82738 12.3837 2.82738 12.0967 3.01396 11.9101L3.01396 11.9101L3.95479 10.9693ZM4.40596 11.1782C4.33232 11.1046 4.22546 11.1155 4.17691 11.171L4.17033 11.1785L4.17009 11.1782L3.22609 12.1222C3.15667 12.1917 3.15667 12.2887 3.22609 12.3581C3.26285 12.3949 3.30505 12.4102 3.34403 12.4102C3.38299 12.4102 3.42519 12.3949 3.46196 12.3581L4.40596 11.4141C4.47538 11.3447 4.47538 11.2477 4.40596 11.1782Z" fill="#FFDF6F"/>
<path d="M11.9361 11.0726C11.8081 10.9446 11.6161 10.9446 11.4881 11.0726C11.3601 11.2006 11.3601 11.3926 11.4881 11.5206L12.4321 12.4646C12.4961 12.5286 12.5761 12.5606 12.6561 12.5606C12.7361 12.5606 12.8161 12.5286 12.8801 12.4646C13.0081 12.3366 13.0081 12.1446 12.8801 12.0166L11.9361 11.0726Z" fill="#FFDF6F"/>
<path fill-rule="evenodd" clip-rule="evenodd" d="M12.0423 10.9661C12.0423 10.9661 12.0423 10.9661 12.0423 10.9661L12.9863 11.9101L12.8802 12.0162L12.9863 11.9101C13.1728 12.0967 13.1728 12.3837 12.9863 12.5702C12.895 12.6615 12.7772 12.7102 12.6562 12.7102C12.5352 12.7102 12.4174 12.6615 12.3261 12.5702L11.3821 11.6262C11.1955 11.4397 11.1955 11.1527 11.3821 10.9661C11.5687 10.7795 11.8557 10.7795 12.0423 10.9661ZM11.8301 11.1782C11.7607 11.1088 11.6637 11.1088 11.5943 11.1782C11.5248 11.2477 11.5248 11.3447 11.5943 11.4141L12.5383 12.3581C12.575 12.3949 12.6172 12.4102 12.6562 12.4102C12.6952 12.4102 12.7374 12.3949 12.7741 12.3581C12.8435 12.2887 12.8435 12.1917 12.7741 12.1222L11.8301 11.1782L11.8301 11.1782Z" fill="#FFDF6F"/>
</svg>
