<!-- Generated by IcoMoon.io -->
<svg version="1.1" xmlns="http://www.w3.org/2000/svg" width="32" height="32" viewBox="0 0 32 32">
<title>lamp</title>
<path d="M23.264 15.168c0-4-3.264-7.264-7.264-7.264s-7.264 3.264-7.264 7.264c0 0.576 0.064 1.152 0.224 1.728 0.192 0.928 0.544 1.504 1.024 2.304 0.096 0.192 0.224 0.384 0.352 0.608 0.16 0.256 0.288 0.512 0.448 0.736 0.64 1.056 1.024 1.664 1.024 2.912v3.008c0 0.768 0.544 1.376 1.28 1.504 0.32 1.632 1.28 2.656 2.912 2.656s2.624-1.024 2.912-2.656c0.736-0.128 1.28-0.768 1.28-1.504v-3.008c0-1.248 0.384-1.888 1.024-2.912 0.128-0.224 0.288-0.48 0.448-0.736 0.128-0.224 0.256-0.416 0.352-0.608 0.48-0.8 0.832-1.376 1.024-2.304 0.16-0.576 0.224-1.152 0.224-1.728zM18.944 24.224h-5.824v-0.736c0-0.16 0-0.288-0.032-0.416h5.856c0 0.128-0.032 0.256-0.032 0.416v0.736h0.032zM18.656 26.752h-5.312c-0.16 0-0.256-0.128-0.256-0.256v-0.992h5.824v0.992c0.032 0.128-0.096 0.256-0.256 0.256zM16 29.376c-0.352 0-1.248-0-1.6-1.344h3.232c-0.352 1.344-1.28 1.344-1.632 1.344zM21.792 16.64c-0.16 0.704-0.416 1.184-0.864 1.92-0.128 0.192-0.224 0.384-0.352 0.608-0.16 0.256-0.288 0.512-0.416 0.704-0.384 0.64-0.736 1.216-0.96 1.888h-6.336c-0.224-0.672-0.544-1.248-0.96-1.888-0.128-0.224-0.288-0.448-0.416-0.704-0.128-0.224-0.256-0.448-0.352-0.608-0.448-0.768-0.704-1.216-0.864-1.952-0.128-0.48-0.192-0.96-0.192-1.44 0-3.296 2.688-5.984 5.984-5.984s5.984 2.688 5.984 5.984c-0.064 0.48-0.128 0.96-0.256 1.472z"></path>
<path d="M8.437 15.169c0-4.166 3.398-7.564 7.564-7.564s7.564 3.398 7.564 7.564c0 0.595-0.066 1.196-0.232 1.799-0.2 0.957-0.565 1.566-1.027 2.336-0.008 0.014-0.017 0.028-0.025 0.042-0.063 0.126-0.146 0.262-0.225 0.394-0.045 0.075-0.089 0.148-0.129 0.218l-0.006 0.010c-0.161 0.257-0.318 0.508-0.442 0.726l-0.006 0.010c-0.636 1.017-0.979 1.595-0.979 2.753v3.008c0 0.814-0.552 1.524-1.323 1.752-0.168 0.777-0.499 1.435-1.003 1.911-0.55 0.519-1.283 0.798-2.166 0.798s-1.608-0.279-2.155-0.798c-0.501-0.476-0.831-1.134-1.011-1.908-0.77-0.221-1.327-0.905-1.327-1.753v-3.008c0-1.139-0.331-1.684-0.951-2.708l-0.024-0.039c-0.086-0.121-0.162-0.248-0.233-0.37-0.017-0.030-0.034-0.059-0.051-0.088-0.056-0.097-0.109-0.19-0.168-0.284l-0.006-0.010c-0.040-0.070-0.084-0.143-0.129-0.218-0.080-0.132-0.162-0.269-0.226-0.394-0.008-0.014-0.017-0.028-0.025-0.042-0.462-0.77-0.828-1.379-1.027-2.336-0.166-0.603-0.232-1.203-0.232-1.799zM16.001 8.205c-3.834 0-6.964 3.13-6.964 6.964 0 0.554 0.061 1.102 0.213 1.648l0.005 0.019c0.178 0.862 0.498 1.396 0.97 2.183l0.029 0.048c0.056 0.111 0.116 0.213 0.187 0.33 0.046 0.077 0.097 0.16 0.153 0.258 0.064 0.103 0.124 0.206 0.18 0.303 0.016 0.027 0.031 0.054 0.046 0.080 0.071 0.123 0.137 0.232 0.209 0.332l0.013 0.019c0.015 0.025 0.029 0.050 0.044 0.074 0.616 1.015 1.023 1.686 1.023 2.994v3.008c0 0.615 0.432 1.104 1.031 1.209l0.203 0.035 0.040 0.203c0.152 0.774 0.45 1.375 0.876 1.78 0.422 0.401 0.993 0.633 1.741 0.633s1.329-0.233 1.754-0.634c0.429-0.405 0.726-1.004 0.862-1.774l0.037-0.207 0.207-0.036c0.595-0.104 1.031-0.621 1.031-1.209v-3.008c0-1.336 0.424-2.037 1.066-3.066 0.13-0.227 0.291-0.485 0.448-0.736 0.056-0.098 0.107-0.181 0.153-0.258 0.071-0.118 0.133-0.219 0.188-0.33l0.010-0.021 0.017-0.027c0.472-0.787 0.792-1.321 0.971-2.183l0.004-0.020c0.152-0.546 0.214-1.094 0.214-1.648 0-3.834-3.13-6.964-6.964-6.964zM16.065 9.485c-3.13 0-5.684 2.554-5.684 5.684 0 0.453 0.060 0.907 0.182 1.363l0.004 0.014c0.149 0.684 0.381 1.096 0.829 1.863 0.098 0.163 0.227 0.389 0.353 0.61l0.009 0.016c0.058 0.115 0.123 0.226 0.194 0.34 0.016 0.025 0.032 0.051 0.049 0.078 0.054 0.086 0.11 0.175 0.161 0.264 0.379 0.584 0.687 1.127 0.916 1.744h5.912c0.226-0.596 0.543-1.123 0.87-1.669 0.015-0.025 0.029-0.049 0.044-0.074l0.007-0.012c0.057-0.085 0.116-0.188 0.185-0.309l0.013-0.023c0.063-0.111 0.133-0.234 0.21-0.358 0.033-0.059 0.066-0.118 0.099-0.178 0.081-0.147 0.163-0.295 0.257-0.437 0.442-0.726 0.676-1.172 0.825-1.825l0.001-0.006c0.122-0.486 0.184-0.944 0.247-1.419-0.011-3.121-2.56-5.664-5.684-5.664zM9.781 15.169c0-3.462 2.822-6.284 6.284-6.284s6.284 2.822 6.284 6.284v0.020l-0.003 0.026c-0.063 0.476-0.129 0.969-0.261 1.496-0.171 0.751-0.448 1.264-0.9 2.006l-0.006 0.011c-0.081 0.122-0.145 0.237-0.221 0.374-0.037 0.066-0.076 0.137-0.121 0.216l-0.006 0.010c-0.072 0.114-0.137 0.229-0.202 0.343l-0.012 0.021c-0.066 0.116-0.134 0.235-0.203 0.34-0.009 0.015-0.019 0.031-0.028 0.046-0.375 0.624-0.695 1.158-0.901 1.776l-0.068 0.205h-6.768l-0.068-0.205c-0.213-0.638-0.517-1.189-0.927-1.819l-0.009-0.014c-0.046-0.080-0.094-0.158-0.148-0.244-0.018-0.028-0.036-0.057-0.054-0.087-0.072-0.116-0.148-0.243-0.218-0.38-0.127-0.223-0.252-0.44-0.345-0.595l-0.002-0.003c-0.446-0.765-0.725-1.249-0.896-2.033-0.133-0.502-0.2-1.006-0.2-1.511zM12.704 22.773l0.093 0.373c0.021 0.086 0.023 0.175 0.023 0.343v1.036h6.124v-0.3h0.268v-0.736c0-0.061 0.006-0.117 0.014-0.185 0.001-0.005 0.001-0.010 0.002-0.014 0.007-0.061 0.016-0.138 0.016-0.217v-0.3h-6.54zM18.613 23.925h-5.192l0-0.452c0-0.033 0-0.066-0-0.1h5.197c-0.003 0.036-0.004 0.075-0.004 0.116v0.436zM12.789 25.205h6.424v1.264c0.026 0.17-0.047 0.32-0.144 0.416-0.105 0.105-0.253 0.168-0.412 0.168h-5.312c-0.35 0-0.556-0.287-0.556-0.556v-1.292zM13.389 25.805v0.648h5.224v-0.648h-5.224zM18.657 26.453c0 0 0.001 0 0 0zM14.012 27.733h4.009l-0.098 0.376c-0.194 0.742-0.562 1.153-0.967 1.366-0.386 0.203-0.767 0.203-0.948 0.202h-0.015c-0.181 0-0.556 0-0.935-0.204-0.397-0.214-0.755-0.626-0.948-1.364l-0.098-0.376zM14.82 28.333c0.154 0.346 0.35 0.519 0.523 0.612 0.24 0.129 0.484 0.132 0.658 0.132s0.427-0.003 0.677-0.134c0.179-0.094 0.379-0.267 0.535-0.61h-2.392z"></path>
<path d="M29.185 14.529h-2.656c-0.352 0-0.64 0.288-0.64 0.64s0.288 0.64 0.64 0.64h2.656c0.352 0 0.64-0.288 0.64-0.64s-0.288-0.64-0.64-0.64z"></path>
<path d="M25.588 15.169c0-0.518 0.422-0.94 0.94-0.94h2.656c0.518 0 0.94 0.422 0.94 0.94s-0.422 0.94-0.94 0.94h-2.656c-0.518 0-0.94-0.422-0.94-0.94zM26.528 14.829c-0.186 0-0.34 0.154-0.34 0.34s0.154 0.34 0.34 0.34h2.656c0.186 0 0.34-0.154 0.34-0.34s-0.154-0.34-0.34-0.34h-2.656z"></path>
<path d="M23.424 8.385c0.16 0 0.32-0.064 0.448-0.192l1.888-1.888c0.256-0.256 0.256-0.64 0-0.896s-0.64-0.256-0.896 0l-1.888 1.888c-0.256 0.256-0.256 0.64 0 0.896 0.128 0.128 0.288 0.192 0.448 0.192z"></path>
<path d="M24.652 5.196c0.373-0.373 0.947-0.373 1.32 0s0.373 0.947 0 1.32v0l-1.888 1.888c-0.183 0.182-0.418 0.28-0.66 0.28s-0.478-0.097-0.66-0.28c-0.373-0.373-0.373-0.947 0-1.32v0l1.888-1.888c0 0 0 0 0 0zM25.548 5.62c-0.139-0.139-0.333-0.139-0.472 0l-1.888 1.888c-0.139 0.139-0.139 0.333 0 0.472 0.073 0.074 0.158 0.104 0.236 0.104s0.162-0.031 0.236-0.104v0l1.888-1.888c0.139-0.139 0.139-0.333 0-0.472z"></path>
<path d="M16 5.282c0.352 0 0.64-0.288 0.64-0.64v-2.656c0-0.352-0.288-0.64-0.64-0.64s-0.64 0.288-0.64 0.64v2.656c0 0.352 0.288 0.64 0.64 0.64z"></path>
<path d="M15.061 1.985c0-0.518 0.422-0.94 0.94-0.94s0.94 0.422 0.94 0.94v2.656c0 0.518-0.422 0.94-0.94 0.94s-0.94-0.422-0.94-0.94v-2.656zM16.001 1.645c-0.186 0-0.34 0.154-0.34 0.34v2.656c0 0.186 0.154 0.34 0.34 0.34s0.34-0.154 0.34-0.34v-2.656c0-0.186-0.154-0.34-0.34-0.34z"></path>
<path d="M8.128 8.193c0.128 0.128 0.288 0.192 0.448 0.192s0.32-0.064 0.448-0.192c0.256-0.256 0.256-0.64 0-0.896l-1.888-1.888c-0.256-0.256-0.64-0.256-0.896 0s-0.256 0.64 0 0.896l1.888 1.888z"></path>
<path d="M7.348 5.196c0 0 0 0 0 0l1.888 1.888c0.373 0.373 0.373 0.947 0 1.32-0.182 0.182-0.418 0.28-0.66 0.28s-0.478-0.097-0.66-0.28v0l-1.888-1.888c-0.373-0.373-0.373-0.947 0-1.32s0.947-0.373 1.32 0zM6.924 5.62c-0.139-0.139-0.333-0.139-0.472 0s-0.139 0.333 0 0.472c0 0 0 0 0 0l1.888 1.888c0.074 0.074 0.158 0.104 0.236 0.104s0.162-0.031 0.236-0.104c0.139-0.139 0.139-0.333 0-0.472v0l-1.888-1.888z"></path>
<path d="M5.504 14.529h-2.656c-0.352 0-0.64 0.288-0.64 0.64s0.288 0.64 0.64 0.64h2.656c0.352 0 0.64-0.288 0.64-0.64s-0.288-0.64-0.64-0.64z"></path>
<path d="M1.908 15.169c0-0.518 0.422-0.94 0.94-0.94h2.656c0.518 0 0.94 0.422 0.94 0.94s-0.422 0.94-0.94 0.94h-2.656c-0.518 0-0.94-0.422-0.94-0.94zM2.848 14.829c-0.186 0-0.34 0.154-0.34 0.34s0.154 0.34 0.34 0.34h2.656c0.186 0 0.34-0.154 0.34-0.34s-0.154-0.34-0.34-0.34h-2.656z"></path>
<path d="M8.128 22.145l-1.888 1.888c-0.256 0.256-0.256 0.64 0 0.896 0.128 0.128 0.288 0.192 0.448 0.192s0.32-0.064 0.448-0.192l1.888-1.888c0.256-0.256 0.256-0.64 0-0.896s-0.672-0.256-0.896 0z"></path>
<path d="M7.91 21.939c0.352-0.393 0.964-0.369 1.327-0.006 0.373 0.373 0.373 0.947 0 1.32l-1.888 1.888c-0.182 0.183-0.418 0.28-0.66 0.28s-0.478-0.097-0.66-0.28c-0.373-0.373-0.373-0.947 0-1.32v0l1.882-1.882zM8.812 22.356c-0.147-0.147-0.361-0.125-0.458-0.014l-0.013 0.015-0-0.001-1.888 1.888c-0.139 0.139-0.139 0.333 0 0.472 0.074 0.074 0.158 0.104 0.236 0.104s0.162-0.031 0.236-0.104l1.888-1.888c0.139-0.139 0.139-0.333 0-0.472z"></path>
<path d="M23.872 22.145c-0.256-0.256-0.64-0.256-0.896 0s-0.256 0.64 0 0.896l1.888 1.888c0.128 0.128 0.288 0.192 0.448 0.192s0.32-0.064 0.448-0.192c0.256-0.256 0.256-0.64 0-0.896l-1.888-1.888z"></path>
<path d="M24.085 21.932c0 0 0 0 0 0l1.888 1.888c0.373 0.373 0.373 0.947 0 1.32-0.183 0.183-0.418 0.28-0.66 0.28s-0.478-0.097-0.66-0.28l-1.888-1.888c-0.373-0.373-0.373-0.947 0-1.32s0.947-0.373 1.32 0zM23.66 22.356c-0.139-0.139-0.333-0.139-0.472 0s-0.139 0.333 0 0.472l1.888 1.888c0.073 0.074 0.158 0.104 0.236 0.104s0.162-0.031 0.236-0.104c0.139-0.139 0.139-0.333 0-0.472l-1.888-1.888z"></path>
</svg>
