<svg width="18" height="18" viewBox="0 0 18 18" fill="none" xmlns="http://www.w3.org/2000/svg">
<path d="M9.00003 0.899902C7.398 0.899902 5.83195 1.37496 4.49991 2.265C3.16787 3.15504 2.12967 4.42008 1.5166 5.90017C0.903534 7.38025 0.743127 9.00889 1.05567 10.5801C1.36821 12.1514 2.13966 13.5947 3.27246 14.7275C4.40527 15.8603 5.84855 16.6317 7.4198 16.9443C8.99104 17.2568 10.6197 17.0964 12.0998 16.4833C13.5798 15.8703 14.8449 14.8321 15.7349 13.5C16.625 12.168 17.1 10.6019 17.1 8.9999C17.1 6.85165 16.2466 4.79138 14.7276 3.27234C13.2085 1.75329 11.1483 0.899902 9.00003 0.899902ZM15.3093 6.10704H12.5525C12.1492 4.68174 11.4493 3.35776 10.4985 2.22194C11.5453 2.45565 12.524 2.92782 13.3584 3.60168C14.1929 4.27555 14.8605 5.13292 15.3093 6.10704ZM8.9682 15.6708C7.90734 14.6139 7.1148 13.3185 6.65681 11.8928H11.3432C10.8844 13.3188 10.0909 14.6142 9.02895 15.6708C9.0201 15.6772 9.00948 15.6806 8.99858 15.6806C8.98768 15.6806 8.97706 15.6772 8.9682 15.6708ZM6.36463 10.7356C6.15248 9.5882 6.15248 8.4116 6.36463 7.26419H11.6354C11.8476 8.4116 11.8476 9.5882 11.6354 10.7356H6.36463ZM2.05717 8.9999C2.05625 8.41433 2.13014 7.83104 2.27703 7.26419H5.19013C5.00124 8.41362 5.00124 9.58618 5.19013 10.7356H2.27703C2.13014 10.1688 2.05625 9.58547 2.05717 8.9999ZM9.00003 2.3174C9.01025 2.31337 9.02162 2.31337 9.03185 2.3174C10.0943 3.3776 10.8869 4.67717 11.3432 6.10704H6.65681C7.11564 4.68103 7.90918 3.38557 8.9711 2.32897C8.97898 2.32167 8.98928 2.31754 9.00003 2.3174ZM12.8099 7.26419H15.723C16.0162 8.40276 16.0162 9.59704 15.723 10.7356H12.8099C12.9988 9.58618 12.9988 8.41362 12.8099 7.26419ZM7.50153 2.22194C6.55184 3.35849 5.85202 4.68223 5.4476 6.10704H2.69071C3.13955 5.13292 3.80717 4.27555 4.6416 3.60168C5.47603 2.92782 6.45475 2.45565 7.50153 2.22194ZM2.69071 11.8928H5.4476C5.85081 13.3181 6.55075 14.642 7.50153 15.7779C6.45475 15.5442 5.47603 15.072 4.6416 14.3981C3.80717 13.7243 3.13955 12.8669 2.69071 11.8928ZM10.5014 15.7779C11.4501 14.6411 12.1489 13.3173 12.5525 11.8928H15.3093C14.8605 12.8669 14.1929 13.7243 13.3584 14.3981C12.524 15.072 11.5453 15.5442 10.4985 15.7779H10.5014Z" fill="#4DE2F0"/>
</svg>
