<!-- Generated by IcoMoon.io -->
<svg version="1.1" xmlns="http://www.w3.org/2000/svg" width="1024" height="1024" viewBox="0 0 1024 1024">
<title></title>
<g id="icomoon-ignore">
</g>
<path d="M814.080 209.92c-77.066-76.361-183.157-123.543-300.268-123.543-235.641 0-426.667 191.025-426.667 426.667 0 206.009 146.003 377.918 340.178 417.896l2.756 0.474c24.717 5.049 53.126 7.938 82.21 7.938 147.777 0 278.128-74.605 355.445-188.206l0.959-1.493c43.862-65.961 69.988-147.003 69.988-234.147 0-1.233-0.005-2.465-0.016-3.695l0.001 0.188c0.004-0.697 0.007-1.523 0.007-2.348 0-117.133-47.629-223.142-124.576-299.715l-0.017-0.017zM718.933 430.933h134.4c6.104 24.347 9.606 52.298 9.606 81.067s-3.502 56.72-10.104 83.449l0.498-2.383h-134.4c3.869-24.364 6.079-52.457 6.079-81.067s-2.21-56.703-6.469-84.118l0.39 3.051zM824.747 670.293c-44.052 85.293-119.585 149.147-210.846 176.844l-2.487 0.649c38.728-50.525 69.488-109.591 88.996-173.564l1.030-3.929zM640 593.067h-256c-4.275-24.371-6.719-52.434-6.719-81.067s2.444-56.695 7.135-83.989l-0.416 2.923h256c4.275 24.371 6.719 52.434 6.719 81.067s-2.444 56.695-7.135 83.989l0.416-2.923zM823.467 353.707h-121.173c-20.539-67.902-51.298-126.969-91.004-178.823l0.977 1.33c93.748 28.347 169.281 92.2 212.412 175.535l0.922 1.958zM401.493 353.707c24.812-68.986 62.505-127.963 110.561-176.695l-0.054 0.055c47.323 48.79 84.45 107.76 107.758 173.283l1.042 3.357zM197.973 353.707c44.052-85.293 119.585-149.147 210.846-176.844l2.487-0.649c-38.574 50.535-69.196 109.607-88.577 173.565l-1.023 3.929zM320.427 670.293c20.539 67.902 51.298 126.969 91.004 178.823l-0.977-1.33c-93.748-28.347-169.281-92.2-212.412-175.535l-0.922-1.958zM619.093 670.293c-23.914 68.622-60.472 127.442-107.266 176.395l0.173-0.182c-47.391-48.68-84.641-107.491-108.17-172.852l-1.057-3.361zM305.067 593.067h-134.4c-5.966-24.031-9.388-51.619-9.388-80.007 0-0.373 0.001-0.746 0.002-1.118v0.058c-0.001-0.315-0.002-0.687-0.002-1.060 0-28.387 3.423-55.975 9.878-82.374l-0.489 2.367h134.4c-3.869 24.364-6.079 52.457-6.079 81.067s2.21 56.703 6.469 84.118l-0.39-3.051z"></path>
</svg>
