<!-- Generated by IcoMoon.io -->
<svg version="1.1" xmlns="http://www.w3.org/2000/svg" width="45" height="32" viewBox="0 0 45 32">
<title>line-chart</title>
<path d="M34.438 4c0-2.193 1.858-4 4.114-4s4.114 1.807 4.114 4c0 2.193-1.858 4-4.114 4-0.564 0-1.094-0.13-1.586-0.333l-4.371 5.104c0.31 0.561 0.471 1.22 0.471 1.896 0 2.193-1.858 4-4.114 4s-4.114-1.807-4.114-4c0-0.381 0.067-0.754 0.171-1.104l-4.671-3.625c-0.669 0.459-1.484 0.729-2.357 0.729-0.564 0-1.094-0.13-1.586-0.333l-4.371 5.104c0.31 0.561 0.471 1.22 0.471 1.896 0 2.193-1.858 4-4.114 4s-4.114-1.807-4.114-4c0-2.193 1.858-4 4.114-4 0.571 0 1.111 0.104 1.607 0.312l4.371-5.083c-0.318-0.567-0.493-1.21-0.493-1.896 0-2.193 1.858-4 4.114-4s4.114 1.807 4.114 4c0 0.381-0.067 0.733-0.171 1.083l4.671 3.646c0.669-0.459 1.484-0.729 2.357-0.729 0.571 0 1.111 0.104 1.607 0.312l4.371-5.083c-0.318-0.567-0.493-1.21-0.493-1.896zM39.924 4c0-0.752-0.598-1.333-1.372-1.333s-1.371 0.581-1.371 1.333 0.598 1.333 1.371 1.333c0.774 0 1.372-0.581 1.372-1.333zM19.352 6.667c0-0.752-0.598-1.333-1.371-1.333s-1.371 0.581-1.371 1.333c0 0.752 0.598 1.333 1.371 1.333s1.371-0.581 1.371-1.333zM30.324 14.667c0-0.752-0.598-1.333-1.372-1.333s-1.371 0.581-1.371 1.333 0.598 1.333 1.371 1.333c0.774 0 1.372-0.581 1.372-1.333zM9.752 17.333c0-0.752-0.598-1.333-1.371-1.333s-1.371 0.581-1.371 1.333c0 0.752 0.598 1.333 1.371 1.333s1.371-0.581 1.371-1.333zM1.6 29.021c0-0.711 0.576-1.288 1.288-1.288h39.632c0.711 0 1.287 0.576 1.287 1.288s-0.576 1.287-1.287 1.287h-39.632c-0.711 0-1.288-0.576-1.288-1.287z"></path>
</svg>
