<!-- Generated by IcoMoon.io -->
<svg version="1.1" xmlns="http://www.w3.org/2000/svg" width="39" height="32" viewBox="0 0 39 32">
<title>link</title>
<path d="M28.571 2.46c2.893-1.783 6.684-0.883 8.468 2.010s0.883 6.684-2.010 8.467l-6.331 3.902c-2.466 1.52-5.584 1.090-7.555-0.861l4.739-3.317c0.278-0.195 0.346-0.579 0.151-0.857s-0.579-0.346-0.857-0.151l-4.819 3.373c-0.043-0.065-0.085-0.13-0.127-0.197-1.783-2.893-0.883-6.684 2.010-8.468l6.331-3.902zM18.492 16.332l-4.616 3.231c-0.278 0.195-0.346 0.579-0.151 0.857s0.579 0.346 0.857 0.151l4.665-3.265c0.008 0.013 0.016 0.025 0.024 0.038 1.783 2.893 0.883 6.684-2.010 8.468l-6.331 3.902c-2.893 1.783-6.684 0.883-8.467-2.010s-0.883-6.684 2.010-8.467l6.332-3.902c2.523-1.555 5.728-1.070 7.689 0.998zM21.594 5.315c-3.333 2.054-4.462 6.329-2.653 9.74-2.373-2.113-5.94-2.521-8.784-0.768l-6.332 3.902c-3.472 2.14-4.552 6.689-2.412 10.161s6.689 4.552 10.161 2.412l6.332-3.902c3.333-2.054 4.462-6.329 2.653-9.74 2.373 2.113 5.94 2.521 8.784 0.768l6.332-3.902c3.472-2.14 4.552-6.689 2.412-10.161s-6.689-4.552-10.161-2.412l-6.332 3.902z"></path>
</svg>
