<svg xmlns="http://www.w3.org/2000/svg" width="512" height="512"  xmlns:v="https://vecta.io/nano"><path d="M320 247.466c40.061 0 72.534 32.474 72.534 72.534v21.334c0 40.058-32.474 72.531-72.534 72.531H192c-40.059 0-72.534-32.474-72.534-72.531V320c0-40.059 32.474-72.534 72.534-72.534h128zm-128-34.133c-58.911 0-106.666 47.756-106.666 106.667v21.334C85.334 400.243 133.09 448 192 448h128c58.912 0 106.669-47.757 106.669-106.666V320c0-58.911-47.757-106.666-106.669-106.666H192zM256 384c-11.782 0-21.334-9.552-21.334-21.334v-63.999c0-11.782 9.552-21.333 21.334-21.333s21.334 9.551 21.334 21.333v63.999c0 11.783-9.551 21.334-21.334 21.334z"/><path d="M204.8 213.333v-64c0-28.277 22.923-51.2 51.2-51.2s51.2 22.923 51.2 51.2v64a51.02 51.02 0 0 1-4.642 21.333h36.089c1.753-6.819 2.688-13.966 2.688-21.333v-64c0-47.129-38.205-85.334-85.334-85.334s-85.334 38.205-85.334 85.334v64c0 7.367.934 14.514 2.689 21.333h36.088c-2.981-6.494-4.643-13.72-4.643-21.333z"/></svg>