<!-- Generated by IcoMoon.io -->
<svg version="1.1" xmlns="http://www.w3.org/2000/svg" width="1024" height="1024" viewBox="0 0 1024 1024">
<title></title>
<g id="icomoon-ignore">
</g>
<path d="M270.544 76.017c-81.614 0-147.982 66.364-147.982 147.976v575.998c0 81.613 66.368 147.977 147.982 147.977h328.922c81.613 0 147.981-66.364 147.981-147.977v-65.451c0-27.507-22.293-49.796-49.792-49.796-27.503 0-49.796 22.289-49.796 49.796v65.451c0 26.667-21.726 48.388-48.393 48.388h-328.922c-26.666 0-48.391-21.722-48.391-48.388v-575.998c0-26.663 21.725-48.388 48.391-48.388h328.922c26.667 0 48.393 21.725 48.393 48.388v65.455c0 27.503 22.293 49.794 49.796 49.794 27.499 0 49.792-22.291 49.792-49.794v-65.455c0-81.612-66.368-147.976-147.981-147.976h-328.922zM892.301 370.422c-19.452-19.447-50.982-19.451-70.426 0.003-19.447 19.443-19.443 50.973 0.004 70.415l22.993 22.997h-351.774c-27.503 0-49.796 22.289-49.796 49.792s22.293 49.792 49.796 49.792h351.774l-22.997 23.002c-19.447 19.443-19.447 50.97 0 70.413 9.719 9.719 22.49 14.588 35.209 14.588 12.723 0 25.493-4.868 35.217-14.588l73.284-73.284c38.571-38.566 38.571-101.278 0-139.844l-73.284-73.286z"></path>
</svg>
