<svg width="18" height="18" viewBox="0 0 18 18" fill="none" xmlns="http://www.w3.org/2000/svg">
<path d="M12.3228 13.303V14.5687C12.3228 15.9644 11.1873 17.0999 9.79143 17.0999H3.43139C2.03555 17.0999 0.900024 15.9644 0.900024 14.5687V3.43115C0.900024 2.03538 2.03555 0.899902 3.43139 0.899902H9.79143C11.1873 0.899902 12.3228 2.03538 12.3228 3.43115V4.69678C12.3228 5.04631 12.0395 5.32959 11.69 5.32959C11.3404 5.32959 11.0571 5.04631 11.0571 4.69678V3.43115C11.0571 2.73333 10.4893 2.16553 9.79143 2.16553H3.43139C2.73353 2.16553 2.16571 2.73333 2.16571 3.43115V14.5687C2.16571 15.2665 2.73353 15.8343 3.43139 15.8343H9.79143C10.4893 15.8343 11.0571 15.2665 11.0571 14.5687V13.303C11.0571 12.9535 11.3404 12.6702 11.69 12.6702C12.0395 12.6702 12.3228 12.9535 12.3228 13.303ZM16.6374 7.91287L15.2203 6.49584C14.9731 6.24865 14.5723 6.24865 14.3253 6.49584C14.0781 6.74291 14.0781 7.14361 14.3253 7.39068L15.3332 8.39873H7.7347C7.38515 8.39873 7.10186 8.68201 7.10186 9.03154C7.10186 9.38107 7.38515 9.66436 7.7347 9.66436H15.3332L14.3253 10.6724C14.0781 10.9195 14.0781 11.3202 14.3253 11.5672C14.4489 11.6908 14.6108 11.7526 14.7727 11.7526C14.9347 11.7526 15.0967 11.6908 15.2203 11.5672L16.6374 10.1502C17.2542 9.53334 17.2542 8.52974 16.6374 7.91287Z" fill="#4DE2F0"/>
</svg>
