<svg width="16" height="16" viewBox="0 0 16 16" fill="none" xmlns="http://www.w3.org/2000/svg">
<path d="M10.8715 11.7188V12.8125C10.8715 14.0187 9.89021 15 8.68393 15H3.1876C1.98132 15 1 14.0187 1 12.8125V3.1875C1 1.98128 1.98132 1 3.1876 1H8.68393C9.89021 1 10.8715 1.98128 10.8715 3.1875V4.28125C10.8715 4.58331 10.6267 4.82812 10.3246 4.82812C10.0226 4.82812 9.77773 4.58331 9.77773 4.28125V3.1875C9.77773 2.58444 9.28701 2.09375 8.68393 2.09375H3.1876C2.58451 2.09375 2.0938 2.58444 2.0938 3.1875V12.8125C2.0938 13.4156 2.58451 13.9062 3.1876 13.9062H8.68393C9.28701 13.9062 9.77773 13.4156 9.77773 12.8125V11.7188C9.77773 11.4167 10.0226 11.1719 10.3246 11.1719C10.6267 11.1719 10.8715 11.4167 10.8715 11.7188ZM14.6002 7.06059L13.3755 5.836C13.1619 5.62238 12.8156 5.62238 12.6021 5.836C12.3884 6.04951 12.3884 6.3958 12.6021 6.60931L13.4731 7.48047H6.90651C6.60443 7.48047 6.35961 7.72528 6.35961 8.02734C6.35961 8.32941 6.60443 8.57422 6.90651 8.57422H13.4731L12.6021 9.44537C12.3884 9.65889 12.3884 10.0052 12.6021 10.2187C12.7089 10.3255 12.8488 10.3789 12.9887 10.3789C13.1288 10.3789 13.2687 10.3255 13.3755 10.2187L14.6002 8.99409C15.1333 8.461 15.1333 7.59369 14.6002 7.06059Z" fill="white" stroke="white" stroke-width="0.4"/>
</svg>
