<svg xmlns="http://www.w3.org/2000/svg" width="20" height="21" xmlns:v="https://vecta.io/nano"><path d="M8.333 3.42c0-.46.373-.833.833-.833h1.667c.46 0 .833.373.833.833v2.206a3.67 3.67 0 0 0-1.689-.373 3.74 3.74 0 0 0-1.644.398V3.42zm2.52 5.331c.272.317.523.72.814 1.229v6.774c0 .46-.373.833-.833.833H9.167c-.46 0-.833-.373-.833-.833v-6.735c.29-.505.543-.91.816-1.231.37-.434.622-.531.872-.535.234-.003.47.076.832.498zM6.667 6.753v.334c-.482.622-.887 1.345-1.233 1.962l-.02.035-.159.282c-.486.86-.894 1.506-1.342 1.943-.187.182-.376.324-.58.424v-4.98c0-.46.373-.833.833-.833h1.667c.46 0 .833.373.833.833zm0 5.967c-.771.984-1.823 1.887-3.333 2.133v1.9c0 .46.373.833.833.833h1.667c.46 0 .833-.373.833-.833V12.72zm10 2.133c-1.51-.249-2.563-1.16-3.333-2.152v4.052c0 .46.373.833.833.833h1.667c.46 0 .833-.373.833-.833v-1.9zm-.575-3.549c.186.184.374.326.575.428V6.753c0-.46-.373-.833-.833-.833h-1.667c-.46 0-.833.373-.833.833v.294c.487.627.895 1.36 1.243 1.984l.02.036.149.267c.487.87.897 1.525 1.346 1.968zM10.01 7.42c.566-.008 1.018.254 1.476.788.43.501.799 1.163 1.221 1.92l.149.266c.905 1.615 2.12 3.692 4.644 3.692.368 0 .667-.298.667-.667s-.299-.667-.667-.667c-1.643 0-2.511-1.281-3.481-3.011l-.15-.269c-.408-.734-.847-1.522-1.37-2.133-.61-.711-1.408-1.27-2.508-1.254-1.093.016-1.884.584-2.49 1.297-.518.608-.953 1.385-1.358 2.109l-.16.285c-.967 1.713-1.835 2.976-3.482 2.976-.368 0-.667.298-.667.667s.298.667.667.667c2.52 0 3.735-2.046 4.643-3.654l.162-.287c.417-.743.784-1.396 1.211-1.898.461-.542.921-.819 1.494-.828z"/></svg>