<svg width="14" height="10" viewBox="0 0 14 10" fill="none" xmlns="http://www.w3.org/2000/svg">
<path d="M0.599941 0.427258H2.78318V9.68643H1.82648V1.80951H0.599941V0.427258Z" fill="white"/>
<path d="M6.06819 5.53968C6.50157 4.85803 6.79594 4.34679 6.9513 4.00596C7.11484 3.6525 7.19661 3.29905 7.19661 2.9456C7.19661 2.5669 7.10257 2.25132 6.9145 1.99886C6.73461 1.73377 6.50566 1.60122 6.22764 1.60122C5.72067 1.60122 5.31183 1.99254 5.00111 2.77519L4.17933 2.03673C4.45734 1.40556 4.7558 0.944813 5.0747 0.654477C5.40178 0.351518 5.80653 0.200039 6.28897 0.200039C6.80411 0.200039 7.24567 0.452505 7.61363 0.957436C7.98159 1.46237 8.16557 2.12509 8.16557 2.9456C8.16557 3.41266 8.0838 3.8671 7.92026 4.30891C7.7649 4.73811 7.47053 5.29353 7.03716 5.97519L5.62664 8.19057H8.34955V9.68643H4.25292V8.36098L6.06819 5.53968Z" fill="white"/>
<path d="M9.58541 1.80951V0.427258H13.0933V1.63909L11.646 4.1385C12.1857 4.16375 12.6109 4.42884 12.9216 4.93377C13.2405 5.42607 13.3999 6.0383 13.3999 6.77045C13.3999 7.70458 13.1914 8.44304 12.7744 8.98584C12.3656 9.52864 11.83 9.80004 11.1676 9.80004C10.5217 9.80004 9.88387 9.47815 9.25425 8.83436L9.68354 7.58465C10.1742 8.11483 10.6893 8.37992 11.229 8.37992C11.5888 8.37992 11.879 8.25369 12.0998 8.00122C12.3206 7.73613 12.431 7.37006 12.431 6.903C12.431 6.42331 12.3042 6.04461 12.0508 5.7669C11.7973 5.48919 11.4497 5.35034 11.0082 5.35034C10.7956 5.35034 10.583 5.40083 10.3704 5.50181V4.30891L11.7564 1.80951H9.58541Z" fill="white"/>
<path fill-rule="evenodd" clip-rule="evenodd" d="M0.439941 0.427258C0.439941 0.338892 0.511576 0.267258 0.599941 0.267258H2.78318C2.87154 0.267258 2.94318 0.338892 2.94318 0.427258V9.68643C2.94318 9.7748 2.87154 9.84643 2.78318 9.84643H1.82648C1.73811 9.84643 1.66648 9.7748 1.66648 9.68643V1.96951H0.599941C0.511576 1.96951 0.439941 1.89787 0.439941 1.80951V0.427258ZM1.82648 1.80951V9.68643H2.78318V0.427258H0.599941V1.80951H1.82648ZM4.17933 2.03673C4.45734 1.40556 4.7558 0.944813 5.0747 0.654477C5.40178 0.351518 5.80653 0.200039 6.28897 0.200039C6.80411 0.200039 7.24567 0.452505 7.61363 0.957436C7.98159 1.46237 8.16557 2.12509 8.16557 2.9456C8.16557 3.41266 8.0838 3.8671 7.92026 4.30891C7.7649 4.73811 7.47053 5.29353 7.03716 5.97519L5.62664 8.19057H8.34955V9.68643H4.25292V8.36098L6.06819 5.53968C6.50157 4.85803 6.79594 4.34679 6.9513 4.00596C7.11484 3.6525 7.19661 3.29905 7.19661 2.9456C7.19661 2.5669 7.10257 2.25132 6.9145 1.99886C6.73461 1.73377 6.50566 1.60122 6.22764 1.60122C5.75559 1.60122 5.36862 1.94049 5.06671 2.61903C5.04438 2.66923 5.02251 2.72128 5.00111 2.77519L4.17933 2.03673ZM5.93317 5.45384L4.11837 8.27441C4.10175 8.30023 4.09292 8.33028 4.09292 8.36098V9.68643C4.09292 9.7748 4.16455 9.84643 4.25292 9.84643H8.34955C8.43792 9.84643 8.50955 9.7748 8.50955 9.68643V8.19057C8.50955 8.10221 8.43792 8.03057 8.34955 8.03057H5.91819L7.17212 6.06112C7.60759 5.37618 7.9092 4.80933 8.07051 4.36392C8.24044 3.90466 8.32557 3.4316 8.32557 2.9456C8.32557 2.10178 8.13627 1.40296 7.74294 0.863204C7.35208 0.326852 6.86638 0.0400391 6.28897 0.0400391C5.77007 0.0400391 5.32559 0.204226 4.96648 0.536628C4.6243 0.848352 4.315 1.33179 4.0329 1.97223C4.00503 2.0355 4.02096 2.10952 4.07238 2.15574L4.89416 2.8942C4.9331 2.92918 4.98668 2.94291 5.03765 2.93096C5.08861 2.919 5.1305 2.88288 5.14982 2.83423C5.45411 2.06776 5.82384 1.76122 6.22764 1.76122C6.4439 1.76122 6.62673 1.85974 6.78211 2.0887L6.78619 2.09444C6.94978 2.31404 7.03661 2.59417 7.03661 2.9456C7.03661 3.27358 6.96089 3.60421 6.80609 3.93877L6.80571 3.93959C6.65529 4.26959 6.36591 4.77318 5.93317 5.45384C5.9331 5.45396 5.93325 5.45372 5.93317 5.45384ZM9.58541 1.96951C9.49705 1.96951 9.42541 1.89787 9.42541 1.80951V0.427258C9.42541 0.338892 9.49705 0.267258 9.58541 0.267258H13.0933C13.1817 0.267258 13.2533 0.338892 13.2533 0.427258V1.63909C13.2533 1.66725 13.2459 1.6949 13.2318 1.71927L11.9065 4.00798C12.3853 4.0986 12.7705 4.38369 13.0569 4.84832C13.3956 5.37201 13.5599 6.01583 13.5599 6.77045C13.5599 7.72682 13.3466 8.50343 12.9017 9.08275C12.4636 9.66403 11.8815 9.96004 11.1676 9.96004C10.4639 9.96004 9.78749 9.60843 9.13986 8.94623C9.09757 8.90298 9.08328 8.83959 9.10293 8.78238L9.53222 7.53267C9.55051 7.47943 9.59543 7.43972 9.65051 7.4281C9.7056 7.41648 9.76273 7.43466 9.80097 7.47598C10.272 7.98501 10.7475 8.21992 11.229 8.21992C11.5457 8.21992 11.7903 8.11135 11.9781 7.89735C12.1669 7.66984 12.271 7.34494 12.271 6.903C12.271 6.45184 12.1524 6.11555 11.9326 5.87477C11.7147 5.63611 11.4134 5.51033 11.0082 5.51033C10.8218 5.51033 10.6325 5.55444 10.439 5.64634C10.3895 5.66988 10.3313 5.66638 10.2849 5.63706C10.2385 5.60774 10.2104 5.55669 10.2104 5.50181V4.30891C10.2104 4.28177 10.2173 4.25506 10.2305 4.23132L11.4847 1.96951H9.58541ZM11.7564 1.80951L10.3704 4.30891V5.50181C10.4237 5.47648 10.4771 5.45432 10.5304 5.43535C10.6897 5.37867 10.8489 5.35034 11.0082 5.35034C11.4497 5.35034 11.7973 5.48919 12.0508 5.7669C12.3042 6.04461 12.431 6.42331 12.431 6.903C12.431 7.37006 12.3206 7.73613 12.0998 8.00122C11.879 8.25369 11.5888 8.37992 11.229 8.37992C10.7349 8.37992 10.2614 8.15775 9.80848 7.71342C9.76666 7.67239 9.72501 7.62947 9.68354 7.58465L9.25425 8.83436C9.88387 9.47815 10.5217 9.80004 11.1676 9.80004C11.83 9.80004 12.3656 9.52864 12.7744 8.98584C13.1914 8.44304 13.3999 7.70458 13.3999 6.77045C13.3999 6.0383 13.2405 5.42607 12.9216 4.93377C12.6453 4.4847 12.2784 4.22535 11.8209 4.15569C11.764 4.14702 11.7057 4.14129 11.646 4.1385L13.0933 1.63909V0.427258H9.58541V1.80951H11.7564Z" fill="white"/>
</svg>
