<!-- Generated by IcoMoon.io -->
<svg version="1.1" xmlns="http://www.w3.org/2000/svg" width="960" height="1024" viewBox="0 0 960 1024">
<title></title>
<g id="icomoon-ignore">
</g>
<path d="M707.776 14.423l241.671 244.136c6.736 6.807 10.558 16.11 10.558 25.753v699.624c0 20.079-16.060 36.302-35.936 36.302h-718.724c-19.876 0-35.936-16.223-35.936-36.302v-189.579h80.857v144.198h628.882v-560.421h-242.57c-12.509 0-24.506-5.020-33.351-13.955s-13.815-21.055-13.815-33.692v-245.043h-339.147v370.087h-80.857v-415.465c0-20.080 16.059-36.302 35.936-36.302h477.053c9.541 0 18.642 3.857 25.378 10.663zM665.775 300.989h211.353l-211.353-213.506v213.506z"></path>
<path d="M321.955 353.99c3.605-3.615 7.888-6.483 12.604-8.44s9.771-2.964 14.877-2.964c5.106 0 10.162 1.007 14.877 2.964s8.999 4.825 12.605 8.44l232.891 232.891c3.615 3.605 6.482 7.889 8.44 12.604s2.964 9.771 2.964 14.877c0 5.106-1.007 10.162-2.964 14.877s-4.825 8.999-8.44 12.605l-232.891 232.89c-7.289 7.291-17.174 11.385-27.482 11.385s-20.193-4.093-27.481-11.385c-7.289-7.285-11.383-17.172-11.383-27.479s4.095-20.194 11.383-27.485l205.487-205.407-205.487-205.409c-3.615-3.605-6.482-7.889-8.44-12.605s-2.964-9.771-2.964-14.877c0-5.106 1.007-10.161 2.964-14.877s4.825-8.999 8.44-12.604z"></path>
<path d="M-0.004 614.355c0-10.294 4.089-20.166 11.369-27.446s17.152-11.369 27.447-11.369h504.597c10.294 0 20.168 4.089 27.446 11.369s11.369 17.152 11.369 27.446c0 10.295-4.089 20.168-11.369 27.447s-17.152 11.372-27.446 11.372h-504.597c-10.294 0-20.168-4.093-27.447-11.372s-11.369-17.152-11.369-27.447z"></path>
</svg>
