<!-- Generated by IcoMoon.io -->
<svg version="1.1" xmlns="http://www.w3.org/2000/svg" width="37" height="32" viewBox="0 0 37 32">
<title>refresh</title>
<path d="M21.963 1.333c-8.1 0-14.667 6.567-14.667 14.667 0 0.434 0.021 0.862 0.060 1.285l-4.319-4.321-1.887 1.887 7.74 7.74 0.005-0.005 0.624 0.626 0.624-0.626 0.005 0.005 7.74-7.74-1.887-1.887-5.732 5.734c-0.202-0.879-0.305-1.781-0.305-2.698 0-6.617 5.383-12 12-12s12 5.383 12 12c0 6.617-5.383 12-12 12h-0.444v2.667h0.444c8.1 0 14.667-6.567 14.667-14.667s-6.567-14.667-14.667-14.667z"></path>
</svg>
