<!-- Generated by IcoMoon.io -->
<svg version="1.1" xmlns="http://www.w3.org/2000/svg" width="1229" height="1024" viewBox="0 0 1229 1024">
<title></title>
<g id="icomoon-ignore">
</g>
<path d="M1037.622 957.193c0 17.715-7.041 34.712-19.568 47.239s-29.524 19.568-47.239 19.568h-846.228c-29.521-0.035-57.824-11.773-78.697-32.652-20.874-20.872-32.616-49.178-32.648-78.694v-668.076c0-17.719 7.039-34.712 19.567-47.24s29.522-19.567 47.24-19.567c17.719 0 34.712 7.039 47.24 19.567s19.567 29.522 19.567 47.24v645.807h823.958c17.715 0 34.712 7.034 47.239 19.568 12.527 12.527 19.568 29.516 19.568 47.239zM1200.618 376.011c0.691-0.835 1.296-1.72 1.938-2.577 0.656-0.89 1.339-1.748 1.953-2.662 0.663-1.002 1.254-2.043 1.867-3.073 0.506-0.847 1.033-1.67 1.497-2.539 0.563-1.029 1.026-2.098 1.525-3.157 0.434-0.919 0.89-1.821 1.276-2.766 0.434-1.030 0.784-2.083 1.147-3.123 0.363-1.014 0.756-2.010 1.069-3.046 0.32-1.057 0.555-2.121 0.819-3.19 0.264-1.047 0.555-2.083 0.769-3.151 0.242-1.231 0.391-2.478 0.57-3.719 0.128-0.919 0.3-1.815 0.385-2.744 0.434-4.394 0.434-8.819 0-13.211-0.086-0.93-0.257-1.832-0.385-2.751-0.179-1.241-0.328-2.482-0.57-3.719-0.214-1.064-0.506-2.104-0.769-3.145-0.264-1.069-0.499-2.143-0.819-3.195-0.313-1.036-0.706-2.032-1.069-3.045-0.371-1.041-0.713-2.094-1.14-3.123-0.391-0.947-0.848-1.849-1.283-2.767-0.506-1.057-0.969-2.126-1.525-3.157-0.463-0.867-0.998-1.692-1.503-2.539-0.605-1.030-1.19-2.066-1.86-3.068-0.613-0.919-1.296-1.782-1.953-2.661-0.641-0.863-1.247-1.748-1.938-2.584-1.247-1.515-2.566-2.972-3.948-4.371-0.164-0.167-0.3-0.344-0.463-0.513l-267.231-267.231c-12.563-12.36-29.502-19.255-47.125-19.184s-34.505 7.105-46.969 19.567c-12.464 12.463-19.497 29.344-19.568 46.968s6.827 34.562 19.183 47.125l153.176 153.184h-150.475c-133.345-0.087-262.931 44.18-368.355 125.829s-180.696 196.044-213.967 325.172c-4.416 17.16-1.835 35.375 7.176 50.624 9.011 15.257 23.714 26.31 40.874 30.728s35.37 1.838 50.626-7.176c15.256-9.008 26.309-23.716 30.725-40.876 25.888-100.417 84.439-189.375 166.436-252.863s182.778-97.902 286.485-97.824h150.483l-153.184 153.184c-12.356 12.563-19.255 29.502-19.183 47.125s7.105 34.506 19.568 46.969c12.464 12.462 29.345 19.495 46.969 19.567s34.561-6.824 47.125-19.184l267.231-267.231c0.164-0.167 0.3-0.344 0.471-0.513 1.369-1.402 2.693-2.85 3.948-4.37h-0.007z"></path>
</svg>
