<!-- Generated by IcoMoon.io -->
<svg version="1.1" xmlns="http://www.w3.org/2000/svg" width="32" height="32" viewBox="0 0 32 32">
<title>remove-circle</title>
<path d="M32 16c0 2.901-0.715 5.579-2.144 8.032s-3.371 4.395-5.824 5.824c-2.453 1.429-5.131 2.144-8.032 2.144s-5.579-0.715-8.032-2.144c-2.453-1.429-4.395-3.371-5.824-5.824s-2.144-5.131-2.144-8.032c0-2.901 0.715-5.579 2.144-8.032s3.371-4.395 5.824-5.824c2.453-1.429 5.131-2.144 8.032-2.144s5.579 0.715 8.032 2.144c2.453 1.429 4.395 3.371 5.824 5.824s2.144 5.131 2.144 8.032zM21.152 23.424l2.272-2.272-5.152-5.152 5.152-5.152-2.272-2.272-5.152 5.152-5.152-5.152-2.272 2.272 5.152 5.152-5.152 5.152 2.272 2.272 5.152-5.152 5.152 5.152z"></path>
</svg>
