<svg width="18" height="18" viewBox="0 0 18 18" xmlns="http://www.w3.org/2000/svg">
<path d="M16.4473 4.72852L13.2715 1.55273C13.125 1.40625 12.9453 1.29883 12.75 1.24023V1.1875H1.8125C1.4668 1.1875 1.1875 1.4668 1.1875 1.8125V16.1875C1.1875 16.5332 1.4668 16.8125 1.8125 16.8125H16.1875C16.5332 16.8125 16.8125 16.5332 16.8125 16.1875V5.61133C16.8125 5.2793 16.6816 4.96289 16.4473 4.72852ZM6.5 2.59375H11.5V4.625H6.5V2.59375ZM15.4062 15.4062H2.59375V2.59375H5.25V5.25C5.25 5.5957 5.5293 5.875 5.875 5.875H12.125C12.4707 5.875 12.75 5.5957 12.75 5.25V3.01953L15.4062 5.67578V15.4062ZM9 7.63281C7.44727 7.63281 6.1875 8.89258 6.1875 10.4453C6.1875 11.998 7.44727 13.2578 9 13.2578C10.5527 13.2578 11.8125 11.998 11.8125 10.4453C11.8125 8.89258 10.5527 7.63281 9 7.63281ZM9 12.0078C8.13672 12.0078 7.4375 11.3086 7.4375 10.4453C7.4375 9.58203 8.13672 8.88281 9 8.88281C9.86328 8.88281 10.5625 9.58203 10.5625 10.4453C10.5625 11.3086 9.86328 12.0078 9 12.0078Z" stroke-width="0.4"/>
</svg>
