<!-- Generated by IcoMoon.io -->
<svg version="1.1" xmlns="http://www.w3.org/2000/svg" width="1037" height="1024" viewBox="0 0 1037 1024">
<title></title>
<g id="icomoon-ignore">
</g>
<path d="M296.084 238.932c8.929 0 16.168 7.642 16.168 17.068v42.666c0 9.426-7.238 17.066-16.168 17.066h-80.842c-8.929 0-16.169-7.64-16.169-17.066v-42.666c0-9.426 7.24-17.068 16.169-17.068h80.842zM215.242 170.666c-44.648 0-80.842 38.205-80.842 85.334v42.666c0 47.128 36.195 85.334 80.842 85.334h80.842c44.648 0 80.842-38.205 80.842-85.334v-42.666c0-47.128-36.195-85.334-80.842-85.334h-80.842z"></path>
<path d="M296.084 708.266c8.929 0 16.168 7.642 16.168 17.066v42.668c0 9.426-7.238 17.066-16.168 17.066h-80.842c-8.929 0-16.169-7.64-16.169-17.066v-42.668c0-9.425 7.24-17.066 16.169-17.066h80.842zM215.242 640c-44.648 0-80.842 38.204-80.842 85.332v42.668c0 47.128 36.195 85.332 80.842 85.332h80.842c44.648 0 80.842-38.204 80.842-85.332v-42.668c0-47.128-36.195-85.332-80.842-85.332h-80.842z"></path>
<path d="M579.031 238.932c8.931 0 16.169 7.642 16.169 17.068v42.666c0 9.426-7.238 17.066-16.169 17.066h-80.841c-8.931 0-16.169-7.64-16.169-17.066v-42.666c0-9.426 7.238-17.068 16.169-17.068h80.841zM498.19 170.666c-44.649 0-80.842 38.205-80.842 85.334v42.666c0 47.128 36.193 85.334 80.842 85.334h80.841c44.649 0 80.842-38.205 80.842-85.334v-42.666c0-47.128-36.193-85.334-80.842-85.334h-80.841z"></path>
<path d="M579.031 708.266c8.931 0 16.169 7.642 16.169 17.066v42.668c0 9.426-7.238 17.066-16.169 17.066h-80.841c-8.931 0-16.169-7.64-16.169-17.066v-42.668c0-9.425 7.238-17.066 16.169-17.066h80.841zM498.19 640c-44.649 0-80.842 38.204-80.842 85.332v42.668c0 47.128 36.193 85.332 80.842 85.332h80.841c44.649 0 80.842-38.204 80.842-85.332v-42.668c0-47.128-36.193-85.332-80.842-85.332h-80.841z"></path>
<path d="M821.558 473.6c8.929 0 16.169 7.64 16.169 17.066v42.666c0 9.426-7.24 17.068-16.169 17.068h-121.263c-8.929 0-16.168-7.642-16.168-17.068v-42.666c0-9.426 7.238-17.066 16.168-17.066h121.263zM700.294 405.332c-44.648 0-80.842 38.205-80.842 85.334v42.666c0 47.128 36.195 85.334 80.842 85.334h121.263c44.648 0 80.842-38.205 80.842-85.334v-42.666c0-47.128-36.195-85.334-80.842-85.334h-121.263z"></path>
<path d="M477.979 311.466h-121.263v-68.266h121.263v68.266z"></path>
<path d="M639.663 311.466h-20.211v-68.266h20.211c84.831 0 153.6 72.589 153.6 162.132h-64.673c0-51.84-39.814-93.866-88.927-93.866z"></path>
<path d="M639.663 712.532h-20.211v68.268h20.211c84.831 0 153.6-72.59 153.6-162.134h-64.673c0 51.841-39.814 93.866-88.927 93.866z"></path>
<path d="M477.979 780.8h-121.263v-68.268h121.263v68.268z"></path>
</svg>
