<svg width="20" height="20" viewBox="0 0 20 20" fill="none" xmlns="http://www.w3.org/2000/svg">
<path d="M10.2463 7.51211C9.73332 7.46145 9.21726 7.57057 8.76874 7.82454C8.32022 8.07851 7.96116 8.4649 7.74072 8.93082C7.52028 9.39673 7.44924 9.91939 7.53733 10.4272C7.62541 10.9351 7.86832 11.4033 8.23278 11.7678C8.59725 12.1322 9.06546 12.3751 9.57331 12.4632C10.0812 12.5513 10.6038 12.4803 11.0697 12.2598C11.5357 12.0394 11.922 11.6803 12.176 11.2318C12.43 10.7833 12.5391 10.2672 12.4884 9.7543C12.4307 9.17929 12.1759 8.64193 11.7673 8.23329C11.3586 7.82465 10.8213 7.56986 10.2463 7.51211V7.51211ZM16.2658 10C16.2642 10.2717 16.2442 10.5431 16.206 10.8121L17.972 12.1973C18.0489 12.261 18.1008 12.35 18.1183 12.4483C18.1358 12.5466 18.1179 12.648 18.0677 12.7344L16.397 15.625C16.3463 15.7106 16.267 15.7754 16.1731 15.8082C16.0792 15.841 15.9767 15.8396 15.8838 15.8043L14.1299 15.098C14.0331 15.0595 13.9284 15.0456 13.825 15.0576C13.7215 15.0695 13.6227 15.1069 13.5373 15.1664C13.2696 15.3507 12.9883 15.5145 12.6959 15.6562C12.6039 15.7009 12.5244 15.7676 12.4643 15.8503C12.4042 15.933 12.3654 16.0292 12.3513 16.1305L12.0884 18.0012C12.0712 18.1 12.0201 18.1897 11.944 18.255C11.868 18.3204 11.7715 18.3573 11.6713 18.3594H8.32985C8.23124 18.3577 8.13614 18.3224 8.06024 18.2594C7.98433 18.1965 7.93215 18.1095 7.91227 18.0129L7.64978 16.1449C7.63503 16.0426 7.59523 15.9454 7.53389 15.8621C7.47256 15.7789 7.3916 15.712 7.29821 15.6676C7.00611 15.5266 6.72578 15.3624 6.45993 15.1766C6.37481 15.1173 6.27629 15.0802 6.17326 15.0686C6.07022 15.0569 5.9659 15.0711 5.8697 15.1098L4.11618 15.8156C4.02325 15.851 3.92082 15.8525 3.82693 15.8197C3.73303 15.787 3.6537 15.7222 3.6029 15.6367L1.9322 12.7461C1.88197 12.6597 1.86402 12.5583 1.88154 12.46C1.89907 12.3616 1.95093 12.2727 2.0279 12.209L3.52048 11.0371C3.60225 10.9722 3.66652 10.8879 3.70745 10.7918C3.74837 10.6958 3.76467 10.5911 3.75485 10.4871C3.74079 10.3242 3.7322 10.1617 3.7322 9.99883C3.7322 9.83594 3.7404 9.67578 3.75485 9.51641C3.7636 9.4131 3.7465 9.30924 3.70511 9.21418C3.66372 9.11912 3.59933 9.03585 3.51774 8.97187L2.02595 7.8C1.95023 7.73597 1.89946 7.64734 1.88253 7.54964C1.8656 7.45194 1.8836 7.35139 1.93337 7.26562L3.60407 4.375C3.65481 4.28945 3.73412 4.22455 3.82802 4.19175C3.92192 4.15895 4.02438 4.16035 4.11735 4.1957L5.87126 4.90195C5.96798 4.94046 6.07274 4.95438 6.17616 4.94245C6.27958 4.93052 6.37843 4.89311 6.46384 4.83359C6.73151 4.64927 7.01279 4.48552 7.30524 4.34375C7.39719 4.29906 7.47671 4.23242 7.5368 4.14972C7.59689 4.06701 7.63569 3.97078 7.64978 3.86953L7.91267 1.99883C7.92993 1.90003 7.98097 1.8103 8.05707 1.74496C8.13316 1.67963 8.22958 1.64275 8.32985 1.64062H11.6713C11.7699 1.64233 11.865 1.67758 11.9409 1.74056C12.0168 1.80354 12.069 1.8905 12.0888 1.98711L12.3513 3.85508C12.3661 3.95745 12.4059 4.05459 12.4672 4.13787C12.5286 4.22114 12.6095 4.28798 12.7029 4.33242C12.995 4.47342 13.2753 4.63762 13.5412 4.82344C13.6263 4.88266 13.7248 4.91978 13.8279 4.93144C13.9309 4.9431 14.0352 4.92894 14.1314 4.89023L15.8849 4.18438C15.9779 4.14899 16.0803 4.14753 16.1742 4.18026C16.2681 4.21299 16.3474 4.2778 16.3982 4.36328L18.0689 7.25391C18.1191 7.34027 18.1371 7.44165 18.1196 7.54001C18.102 7.63837 18.0502 7.72732 17.9732 7.79102L16.4806 8.96289C16.3985 9.02759 16.3339 9.1118 16.2926 9.20786C16.2513 9.30392 16.2347 9.40878 16.2443 9.51289C16.2572 9.67461 16.2658 9.83711 16.2658 10Z" stroke-width="1.5" stroke-linecap="round" stroke-linejoin="round"/>
</svg>
