<!-- Generated by IcoMoon.io -->
<svg version="1.1" xmlns="http://www.w3.org/2000/svg" width="28" height="32" viewBox="0 0 28 32">
<title>share</title>
<path d="M23.111 3c2.019 0 3.556 1.521 3.556 3.278s-1.537 3.278-3.556 3.278c-1.328 0-2.447-0.658-3.058-1.608-0.016-0.029-0.033-0.056-0.051-0.083-0.285-0.475-0.446-1.019-0.446-1.587 0-1.757 1.537-3.278 3.556-3.278zM19.022 9.526c0.988 1.112 2.468 1.808 4.089 1.808 2.891 0 5.333-2.21 5.333-5.056s-2.443-5.056-5.333-5.056c-2.891 0-5.333 2.21-5.333 5.056 0 0.611 0.113 1.192 0.318 1.729l-8.674 4.745c-0.988-1.112-2.468-1.807-4.089-1.807-2.891 0-5.333 2.21-5.333 5.056s2.443 5.056 5.333 5.056c1.621 0 3.101-0.695 4.089-1.808l8.676 4.74c-0.207 0.538-0.32 1.122-0.32 1.735 0 2.845 2.443 5.055 5.333 5.055s5.333-2.21 5.333-5.055c0-2.845-2.443-5.056-5.333-5.056-1.619 0-3.097 0.693-4.084 1.802l-8.678-4.741c0.205-0.536 0.318-1.118 0.318-1.728s-0.113-1.192-0.318-1.729l8.674-4.745zM8.391 14.331c0.016 0.028 0.033 0.056 0.051 0.082 0.286 0.475 0.447 1.019 0.447 1.587s-0.161 1.111-0.446 1.586c-0.018 0.026-0.036 0.054-0.052 0.083-0.611 0.95-1.73 1.608-3.058 1.608-2.019 0-3.556-1.521-3.556-3.278s1.537-3.278 3.556-3.278c1.328 0 2.448 0.658 3.058 1.609zM19.556 25.722c0-0.539 0.145-1.055 0.403-1.513 0.042-0.048 0.079-0.101 0.11-0.159 0.014-0.026 0.027-0.053 0.039-0.081 0.621-0.906 1.714-1.526 3.003-1.526 2.019 0 3.556 1.521 3.556 3.278s-1.537 3.278-3.556 3.278-3.556-1.521-3.556-3.278z"></path>
</svg>
