<!-- Generated by IcoMoon.io -->
<svg version="1.1" xmlns="http://www.w3.org/2000/svg" width="32" height="32" viewBox="0 0 32 32">
<title>share</title>
<path fill="none" stroke-linejoin="round" stroke-linecap="round" stroke-miterlimit="4" stroke-width="1.6" stroke="#000" d="M24 11c2.209 0 4-1.679 4-3.75s-1.791-3.75-4-3.75c-2.209 0-4 1.679-4 3.75s1.791 3.75 4 3.75z"></path>
<path fill="none" stroke-linejoin="round" stroke-linecap="round" stroke-miterlimit="4" stroke-width="1.6" stroke="#000" d="M8 19.75c2.209 0 4-1.679 4-3.75s-1.791-3.75-4-3.75-4 1.679-4 3.75c0 2.071 1.791 3.75 4 3.75z"></path>
<path fill="none" stroke-linejoin="round" stroke-linecap="round" stroke-miterlimit="4" stroke-width="1.6" stroke="#000" d="M24 28.5c2.209 0 4-1.679 4-3.75s-1.791-3.75-4-3.75-4 1.679-4 3.75c0 2.071 1.791 3.75 4 3.75z"></path>
<path fill="none" stroke-linejoin="round" stroke-linecap="round" stroke-miterlimit="4" stroke-width="1.6" stroke="#000" d="M11.453 17.888l9.107 4.975"></path>
<path fill="none" stroke-linejoin="round" stroke-linecap="round" stroke-miterlimit="4" stroke-width="1.6" stroke="#000" d="M20.547 9.137l-9.093 4.975"></path>
</svg>
