<svg xmlns="http://www.w3.org/2000/svg" width="512" height="512"  xmlns:v="https://vecta.io/nano"><path d="M170.655 105.937a29.86 29.86 0 0 1 18.432 8.534l77.269 77.356a16.54 16.54 0 0 1 3.591 5.373 16.57 16.57 0 0 1 1.261 6.339c0 2.174-.429 4.328-1.261 6.338a16.58 16.58 0 0 1-8.964 8.965 16.58 16.58 0 0 1-12.678 0 16.6 16.6 0 0 1-5.373-3.59L184.18 156.5v236.544c-.216 4.25-2.056 8.256-5.141 11.187s-7.179 4.568-11.435 4.568a16.59 16.59 0 0 1-11.434-4.568 16.6 16.6 0 0 1-5.142-11.187V156.5l-58.752 58.752c-1.538 1.537-3.364 2.757-5.374 3.59a16.57 16.57 0 0 1-6.338 1.261c-2.175 0-4.329-.429-6.338-1.261s-3.835-2.053-5.374-3.59-2.758-3.365-3.591-5.375A16.55 16.55 0 0 1 64 203.539c0-2.176.428-4.329 1.261-6.339a16.55 16.55 0 0 1 3.591-5.373l77.312-77.313a29.87 29.87 0 0 1 18.432-8.534c1.986-.397 4.03-.397 6.016 0l.043-.043zm157.14 16.256v236.545l-58.752-58.752c-1.538-1.539-3.363-2.759-5.373-3.591a16.54 16.54 0 0 0-12.678 0 16.54 16.54 0 0 0-5.373 3.591c-1.537 1.538-2.758 3.363-3.59 5.373a16.57 16.57 0 0 0-1.261 6.339 16.56 16.56 0 0 0 1.261 6.337c.832 2.009 2.053 3.835 3.59 5.375l77.312 77.312c4.87 4.839 11.259 7.853 18.091 8.533 2.209.454 4.488.454 6.697 0a29.87 29.87 0 0 0 18.091-8.533l77.312-77.312a16.57 16.57 0 0 0 4.852-11.712 16.57 16.57 0 0 0-1.261-6.339 16.55 16.55 0 0 0-3.591-5.373c-1.538-1.539-3.363-2.759-5.373-3.591a16.54 16.54 0 0 0-6.339-1.261c-2.174 0-4.329.427-6.337 1.261a16.53 16.53 0 0 0-5.375 3.591l-58.752 58.752V122.194a16.6 16.6 0 0 0-16.576-15.756 16.6 16.6 0 0 0-16.576 15.756z"/></svg>