<svg xmlns="http://www.w3.org/2000/svg" width="20" height="21" xmlns:v="https://vecta.io/nano"><path fill-rule="evenodd" d="M3.836 17.068c-.294.51-.776.93-1.481.93-.38 0-.688-.305-.688-.682s.308-.682.688-.682c.059 0 .151-.007.287-.242.151-.261.279-.693.371-1.306.182-1.218.184-2.865.184-4.588v-.042l.199-4.746c.099-.665.258-1.299.537-1.783.294-.51.776-.929 1.481-.929s1.187.419 1.481.929c.279.485.438 1.118.537 1.783.199 1.328.199 3.072.199 4.746v.042l.184 4.588c.092.614.22 1.045.371 1.306.136.236.228.242.287.242s.151-.007.287-.242c.151-.261.279-.693.371-1.306.182-1.218.184-2.865.184-4.588v-.042l.199-4.746c.099-.665.258-1.299.537-1.783.294-.51.776-.929 1.481-.929s1.187.419 1.481.929c.279.485.438 1.118.537 1.783.199 1.328.199 3.072.199 4.746v.042l.184 4.588c.092.614.22 1.045.371 1.306.136.236.228.242.286.242s.151-.007.287-.242c.151-.261.279-.693.371-1.306.182-1.218.184-2.865.184-4.588v-.042l.199-4.746c.099-.665.258-1.299.537-1.783.294-.51.776-.929 1.481-.929.38 0 .688.305.688.682s-.308.682-.688.682c-.059 0-.151.007-.287.242-.151.261-.279.693-.371 1.306-.182 1.218-.184 2.865-.184 4.588v.042l-.199 4.746c-.099.665-.258 1.299-.537 1.783-.294.51-.776.93-1.481.93s-1.187-.419-1.481-.93c-.279-.484-.438-1.118-.537-1.783-.199-1.328-.199-3.072-.199-4.746v-.042l-.184-4.588c-.092-.614-.22-1.045-.371-1.306-.136-.236-.228-.242-.287-.242s-.151.007-.287.242c-.151.261-.279.693-.371 1.306-.182 1.218-.184 2.865-.184 4.588v.042l-.199 4.746c-.099.665-.258 1.299-.537 1.783-.294.51-.776.93-1.481.93s-1.187-.419-1.481-.93c-.279-.484-.438-1.118-.537-1.783-.199-1.328-.199-3.072-.199-4.746v-.042L6.07 5.909c-.092-.614-.22-1.045-.371-1.306-.136-.236-.228-.242-.287-.242s-.151.007-.287.242c-.151.261-.279.693-.371 1.306-.182 1.218-.184 2.865-.184 4.588v.042l-.199 4.746c-.099.665-.258 1.299-.537 1.783z" /></svg>