<svg width="10" height="14" viewBox="0 0 10 14" fill="none" xmlns="http://www.w3.org/2000/svg">
<path d="M9.68947 4.33293C9.6706 4.55019 9.57626 4.75398 9.4228 4.90893L7.00547 7.3236C6.95741 7.37166 6.90035 7.40979 6.83755 7.4358C6.77475 7.46181 6.70744 7.4752 6.63947 7.4752C6.5715 7.4752 6.50419 7.46181 6.44139 7.4358C6.37859 7.40979 6.32154 7.37166 6.27347 7.3236C6.22541 7.27553 6.18728 7.21847 6.16127 7.15567C6.13526 7.09288 6.12187 7.02557 6.12187 6.9576C6.12187 6.88962 6.13526 6.82232 6.16127 6.75952C6.18728 6.69672 6.22541 6.63966 6.27347 6.5916L8.10947 4.7556H0.717472C0.584635 4.74885 0.459464 4.69134 0.367828 4.59493C0.276192 4.49853 0.225094 4.3706 0.225094 4.2376C0.225094 4.10459 0.276192 3.97666 0.367828 3.88026C0.459464 3.78385 0.584635 3.72634 0.717472 3.71959H8.10947L6.27347 1.88359C6.22541 1.83553 6.18728 1.77847 6.16127 1.71567C6.13526 1.65287 6.12187 1.58557 6.12187 1.51759C6.12187 1.44962 6.13526 1.38232 6.16127 1.31952C6.18728 1.25672 6.22541 1.19966 6.27347 1.15159C6.32154 1.10353 6.37859 1.0654 6.44139 1.03939C6.50419 1.01338 6.5715 0.999992 6.63947 0.999992C6.70744 0.999992 6.77475 1.01338 6.83755 1.03939C6.90035 1.0654 6.95741 1.10353 7.00547 1.15159L9.42147 3.5676C9.57492 3.72255 9.66927 3.92634 9.68814 4.1436C9.70057 4.20565 9.70057 4.26954 9.68814 4.3316L9.68947 4.33293ZM9.18147 9.2436H1.78947L3.62547 7.4076C3.67354 7.35953 3.71166 7.30247 3.73767 7.23967C3.76369 7.17688 3.77707 7.10957 3.77707 7.0416C3.77707 6.97362 3.76369 6.90632 3.73767 6.84352C3.71166 6.78072 3.67354 6.72366 3.62547 6.6756C3.57741 6.62753 3.52035 6.58941 3.45755 6.56339C3.39475 6.53738 3.32744 6.52399 3.25947 6.52399C3.1915 6.52399 3.12419 6.53738 3.06139 6.56339C2.9986 6.58941 2.94154 6.62753 2.89347 6.6756L0.477472 9.0916C0.326247 9.24379 0.232074 9.44344 0.210805 9.65693C0.196577 9.72598 0.196577 9.79721 0.210805 9.86626C0.232074 10.0798 0.326247 10.2794 0.477472 10.4316L2.89347 12.8476C2.94154 12.8957 2.9986 12.9338 3.06139 12.9598C3.12419 12.9858 3.1915 12.9992 3.25947 12.9992C3.32744 12.9992 3.39475 12.9858 3.45755 12.9598C3.52035 12.9338 3.57741 12.8957 3.62547 12.8476C3.67354 12.7995 3.71166 12.7425 3.73767 12.6797C3.76369 12.6169 3.77707 12.5496 3.77707 12.4816C3.77707 12.4136 3.76369 12.3463 3.73767 12.2835C3.71166 12.2207 3.67354 12.1637 3.62547 12.1156L1.78947 10.2796H9.18147C9.31431 10.2729 9.43948 10.2153 9.53112 10.1189C9.62275 10.0225 9.67385 9.8946 9.67385 9.7616C9.67385 9.62859 9.62275 9.50066 9.53112 9.40426C9.43948 9.30785 9.31431 9.25034 9.18147 9.2436Z" fill="#2AD2E2" stroke="#2AD2E2" stroke-width="0.2"/>
</svg>
