<!-- Generated by IcoMoon.io -->
<svg version="1.1" xmlns="http://www.w3.org/2000/svg" width="50" height="32" viewBox="0 0 50 32">
<title>table-correlation</title>
<path d="M0 0c1.843 0 3.38 1.309 3.733 3.048h5.454c6.159 0 11.771 3.535 14.431 9.089l3.385 7.068c2.407 5.026 7.484 8.224 13.056 8.224h5.731c0.353-1.739 1.89-3.048 3.733-3.048v7.619c-1.843 0-3.38-1.309-3.733-3.048h-5.731c-6.159 0-11.77-3.535-14.431-9.089l-3.385-7.068c-2.407-5.026-7.484-8.224-13.056-8.224h-5.454c-0.353 1.739-1.89 3.048-3.733 3.048v-7.619z"></path>
</svg>
