<!-- Generated by IcoMoon.io -->
<svg version="1.1" xmlns="http://www.w3.org/2000/svg" width="32" height="32" viewBox="0 0 32 32">
<title>table</title>
<path d="M0.036 2.896c0.086-1.030 0.918-1.896 1.964-1.896h28c1.046 0 1.878 0.866 1.966 1.896h0.034v26.104c0 1.104-0.896 2-2 2h-28c-1.104 0-2-0.896-2-2v-26.104h0.036zM22 29h8v-6h-8v6zM22 21.166h8v-6.166h-8v6.166zM22 13h8v-6h-8v6zM12 29h8v-6h-8v6zM12 21.166h8v-6.166h-8v6.166zM12 13h8v-6h-8v6zM2 29h8v-6h-8v6zM2 21.166h8v-6.166h-8v6.166zM2 13h8v-6h-8v6z"></path>
</svg>
