<!-- Generated by IcoMoon.io -->
<svg version="1.1" xmlns="http://www.w3.org/2000/svg" width="1024" height="1024" viewBox="0 0 1024 1024">
<title></title>
<g id="icomoon-ignore">
</g>
<path d="M1006.548 644.551l-84.8-22.614c4.71-17.666 8.346-35.874 10.803-54.57 2.464-18.695 3.667-37.223 3.686-55.506l87.763 0.104c-0.026 22.069-1.478 44.388-4.435 66.857-2.963 22.468-7.334 44.404-13.018 65.729zM1006.625 379.462l-84.762 22.749c-9.658-36.006-24.006-70.359-42.458-102.256l75.974-43.935c22.24 38.46 39.571 79.926 51.245 123.442zM874.011 149.98l-62.099 62.013c-26.035-26.073-55.501-48.824-87.782-67.476l43.91-75.987c39.014 22.544 74.579 50.013 105.971 81.45zM644.551 17.455l-22.614 84.798c-17.666-4.711-35.874-8.344-54.57-10.805s-37.223-3.665-55.506-3.687l0.104-87.761c22.069 0.026 44.388 1.479 66.857 4.437s44.404 7.331 65.729 13.018zM379.462 17.373l22.749 84.762c-36.006 9.663-70.359 24.012-102.256 42.458l-43.935-75.972c38.46-22.241 79.926-39.568 123.442-51.247zM149.98 149.988l62.013 62.1c-26.073 26.036-48.824 55.504-67.476 87.783l-75.987-43.912c22.544-39.011 50.013-74.579 81.45-105.972zM17.455 379.451c-5.687 21.324-10.060 43.259-13.018 65.727s-4.411 44.788-4.437 66.857l87.761 0.104c0.022-18.283 1.226-36.811 3.687-55.506s6.094-36.904 10.805-54.57l-84.798-22.613zM17.373 644.539l84.762-22.749c9.663 36.010 24.012 70.358 42.458 102.256l-75.972 43.936c-22.241-38.464-39.568-79.93-51.247-123.443zM149.988 874.023l62.1-62.016c26.036 26.074 55.504 48.826 87.783 67.475l-43.912 75.987c-39.011-22.541-74.579-50.010-105.972-81.446zM379.451 1006.548l22.613-84.8c17.666 4.71 35.874 8.346 54.57 10.803 18.695 2.464 37.223 3.667 55.506 3.686l-0.104 87.763c-22.069-0.026-44.388-1.478-66.857-4.435-22.468-2.963-44.404-7.334-65.727-13.018zM644.539 1006.625l-22.749-84.762c36.010-9.664 70.358-24.006 102.256-42.458l43.936 75.974c-38.464 22.24-79.93 39.571-123.443 51.245zM874.023 874.011l-62.016-62.099c26.074-26.035 48.826-55.501 67.475-87.782l75.987 43.91c-22.541 39.014-50.010 74.579-81.446 105.971z"></path>
<path d="M804.5 346.797l-348.998 384.627-236.076-245.722 53.61-55.8 180.913 188.302 295.435-325.591 55.117 54.183z"></path>
<path d="M511.964 1023.963c282.737 0 511.94-229.203 511.94-511.944 0-282.738-229.203-511.942-511.94-511.942v87.762c234.27 0 424.184 189.912 424.184 424.18s-189.914 424.181-424.184 424.181v87.763z"></path>
</svg>
