<!-- Generated by IcoMoon.io -->
<svg version="1.1" xmlns="http://www.w3.org/2000/svg" width="975" height="1024" viewBox="0 0 975 1024">
<title></title>
<g id="icomoon-ignore">
</g>
<path d="M892.343 658.286c0-43.886-14.629-82.895-39.010-117.029l-53.638-170.667c0-9.752-4.876-19.505-9.752-29.257l-19.505-68.267c0-68.267-53.638-121.905-121.905-121.905s-121.905 53.638-121.905 121.905v39.010h-78.019v-39.010c0-68.267-53.638-121.905-121.905-121.905s-121.905 53.638-121.905 121.905l-24.381 68.267c-4.876 9.752-4.876 19.505-4.876 29.257l-53.638 170.667c-24.381 29.257-39.010 73.143-39.010 117.029 0 4.876 0 9.752 0 19.505v4.876c9.752 92.648 87.771 160.914 180.419 160.914 87.771 0 160.914-58.514 180.419-141.41h92.648c19.505 82.895 92.648 141.41 180.419 141.41 92.648 0 170.667-73.143 180.419-160.914v0-4.876c-4.876-9.752-4.876-14.629-4.876-19.505zM263.314 780.19c-68.267 0-121.905-53.638-121.905-121.905s53.638-121.905 121.905-121.905 121.905 53.638 121.905 121.905c0 68.267-53.638 121.905-121.905 121.905zM385.219 521.752c-34.133-29.257-73.143-48.762-121.905-48.762-19.505 4.876-39.010 4.876-58.514 14.629l34.133-121.905c9.752-19.505 39.010-39.010 73.143-39.010s63.39 14.629 73.143 39.010v156.038zM385.219 282.819c-19.505-9.752-48.762-19.505-73.143-19.505-14.629 0-34.133 4.876-48.762 9.752v0c0-34.133 29.257-58.514 58.514-58.514s58.514 29.257 58.514 58.514v9.752zM526.629 638.781h-78.019v-263.314h78.019v263.314zM590.019 273.067c0-34.133 29.257-58.514 58.514-58.514s58.514 29.257 58.514 58.514v0c-14.629-4.876-34.133-9.752-48.762-9.752-24.381 0-53.638 4.876-73.143 19.505v-9.752zM590.019 365.714c9.752-19.505 39.010-39.010 73.143-39.010 39.010 0 63.39 19.505 73.143 39.010l34.133 121.905c-19.505-4.876-39.010-9.752-63.39-9.752-48.762 0-87.771 19.505-121.905 48.762v-160.914zM711.924 780.19c-68.267 0-121.905-53.638-121.905-121.905s53.638-121.905 121.905-121.905c68.267 0 121.905 53.638 121.905 121.905s-53.638 121.905-121.905 121.905z"></path>
</svg>
