<!-- Generated by IcoMoon.io -->
<svg version="1.1" xmlns="http://www.w3.org/2000/svg" width="32" height="32" viewBox="0 0 32 32">
<title>text-file</title>
<path d="M5.601 1.441c-0.53 0-0.96 0.43-0.96 0.96v27.2c0 0.53 0.43 0.96 0.96 0.96h20.8c0.53 0 0.96-0.43 0.96-0.96v-21.6c0-0.255-0.101-0.499-0.281-0.679l-5.6-5.6c-0.18-0.18-0.424-0.281-0.679-0.281h-15.2zM6.561 28.641v-25.28h12.48v5.44c0 0.53 0.43 0.96 0.96 0.96h5.44v18.88h-18.88zM20.961 7.841v-3.922l3.922 3.922h-3.922zM9.601 7.841c-0.088 0-0.16 0.072-0.16 0.16v1.6c0 0.088 0.072 0.16 0.16 0.16h6.4c0.088 0 0.16-0.072 0.16-0.16v-1.6c0-0.088-0.072-0.16-0.16-0.16h-6.4zM9.601 12.641c-0.088 0-0.16 0.072-0.16 0.16v1.6c0 0.088 0.072 0.16 0.16 0.16h12.8c0.088 0 0.16-0.072 0.16-0.16v-1.6c0-0.088-0.072-0.16-0.16-0.16h-12.8zM9.601 17.441c-0.088 0-0.16 0.072-0.16 0.16v1.6c0 0.088 0.072 0.16 0.16 0.16h12.8c0.088 0 0.16-0.072 0.16-0.16v-1.6c0-0.088-0.072-0.16-0.16-0.16h-12.8zM9.601 22.241c-0.088 0-0.16 0.072-0.16 0.16v1.6c0 0.088 0.072 0.16 0.16 0.16h12.8c0.088 0 0.16-0.072 0.16-0.16v-1.6c0-0.088-0.072-0.16-0.16-0.16h-12.8z"></path>
</svg>
