<svg width="18" height="16" viewBox="0 0 18 16" fill="none" xmlns="http://www.w3.org/2000/svg">
<path d="M11 4.39991L11 1.19984C11 1.09375 10.9579 0.992011 10.8828 0.916995C10.8078 0.841979 10.7061 0.799835 10.6 0.799835L7.39993 0.799835C7.29384 0.799835 7.19209 0.841979 7.11708 0.916995C7.04206 0.992011 6.99992 1.09375 6.99992 1.19984L6.99992 4.39991C6.99992 4.506 7.04206 4.60774 7.11708 4.68276C7.19209 4.75777 7.29384 4.79992 7.39993 4.79992L10.6 4.79992C10.7061 4.79992 10.8078 4.75777 10.8828 4.68276C10.9579 4.60774 11 4.506 11 4.39991ZM7.79993 3.9999L7.79993 1.59985L10.2 1.59985L10.2 3.9999L7.79993 3.9999Z" fill="white" stroke="white" stroke-width="0.5"/>
<path d="M17 14.7999L17 11.5998C17 11.4937 16.9579 11.392 16.8828 11.317C16.8078 11.242 16.7061 11.1998 16.6 11.1998L13.3999 11.1998C13.2938 11.1998 13.1921 11.242 13.1171 11.317C13.0421 11.392 12.9999 11.4937 12.9999 11.5998L12.9999 14.7999C12.9999 14.906 13.0421 15.0077 13.1171 15.0828C13.1921 15.1578 13.2938 15.1999 13.3999 15.1999L16.6 15.1999C16.7061 15.1999 16.8078 15.1578 16.8828 15.0828C16.9579 15.0077 17 14.906 17 14.7999ZM13.7999 14.3999L13.7999 11.9998L16.2 11.9998L16.2 14.3999L13.7999 14.3999Z" fill="white" stroke="white" stroke-width="0.5"/>
<path d="M4.99976 14.7999L4.99976 11.5998C4.99976 11.4937 4.95761 11.392 4.8826 11.317C4.80758 11.242 4.70584 11.1998 4.59975 11.1998L1.39968 11.1998C1.29359 11.1998 1.19185 11.242 1.11683 11.317C1.04182 11.392 0.999674 11.4937 0.999674 11.5998L0.999674 14.7999C0.999674 14.906 1.04182 15.0077 1.11683 15.0828C1.19185 15.1578 1.29359 15.1999 1.39968 15.1999L4.59975 15.1999C4.70584 15.1999 4.80758 15.1578 4.8826 15.0828C4.95761 15.0077 4.99976 14.906 4.99976 14.7999ZM1.79969 14.3999L1.79969 11.9998L4.19974 11.9998L4.19974 14.3999L1.79969 14.3999Z" fill="white" stroke="white" stroke-width="0.5"/>
<path d="M11 14.7999L11 11.5998C11 11.4937 10.9579 11.392 10.8828 11.317C10.8078 11.242 10.7061 11.1998 10.6 11.1998L7.39993 11.1998C7.29384 11.1998 7.19209 11.242 7.11708 11.317C7.04206 11.392 6.99992 11.4937 6.99992 11.5998L6.99992 14.7999C6.99992 14.906 7.04206 15.0077 7.11708 15.0828C7.19209 15.1578 7.29384 15.1999 7.39993 15.1999L10.6 15.1999C10.7061 15.1999 10.8078 15.1578 10.8828 15.0828C10.9579 15.0077 11 14.906 11 14.7999ZM7.79993 14.3999L7.79993 11.9998L10.2 11.9998L10.2 14.3999L7.79993 14.3999Z" fill="white" stroke="white" stroke-width="0.5"/>
<path d="M14.5999 10C14.5999 10.1061 14.642 10.2079 14.717 10.2829C14.7921 10.3579 14.8938 10.4 14.9999 10.4C15.106 10.4 15.2077 10.3579 15.2827 10.2829C15.3578 10.2079 15.3999 10.1061 15.3999 10L15.3999 8.4C15.3999 8.29391 15.3578 8.19217 15.2827 8.11715C15.2077 8.04214 15.106 7.99999 14.9999 7.99999L9.39978 7.99999L9.39978 5.99995C9.39978 5.89386 9.35764 5.79212 9.28262 5.7171C9.2076 5.64209 9.10586 5.59994 8.99977 5.59994C8.89368 5.59994 8.79194 5.64209 8.71692 5.7171C8.64191 5.79212 8.59976 5.89386 8.59976 5.99995L8.59976 7.99999L2.99965 7.99999C2.89356 7.99999 2.79182 8.04214 2.7168 8.11715C2.64178 8.19217 2.59964 8.29391 2.59964 8.4L2.59964 10C2.59964 10.1061 2.64178 10.2079 2.7168 10.2829C2.79182 10.3579 2.89356 10.4 2.99965 10.4C3.10574 10.4 3.20748 10.3579 3.2825 10.2829C3.35751 10.2079 3.39966 10.1061 3.39966 10L3.39966 8.80001L8.59976 8.80001L8.59976 10C8.59976 10.1061 8.64191 10.2079 8.71692 10.2829C8.79194 10.3579 8.89368 10.4 8.99977 10.4C9.10586 10.4 9.2076 10.3579 9.28262 10.2829C9.35764 10.2079 9.39978 10.1061 9.39978 10L9.39978 8.80001L14.5999 8.80001L14.5999 10Z" fill="white" stroke="white" stroke-width="0.5"/>
</svg>
