<!-- Generated by IcoMoon.io -->
<svg version="1.1" xmlns="http://www.w3.org/2000/svg" width="975" height="1024" viewBox="0 0 975 1024">
<title></title>
<g id="icomoon-ignore">
</g>
<path d="M650.157 183.111c0-22.442 18.193-40.635 40.633-40.635h81.271c22.44 0 40.633 18.193 40.633 40.635v112.999c-15.092 1.287-29.964 7.010-42.545 17.369l-119.993 98.825v-229.194z"></path>
<path d="M568.886 305.016v174.22l-53.623 44.16-79.374-90.713c-8.34-9.532-18.514-16.532-29.542-20.924v-106.742c0-22.442 18.193-40.635 40.635-40.635h81.271c22.44 0 40.633 18.193 40.633 40.635z"></path>
<path d="M180.338 695.886l193.257-161.065 105.21 120.242c8.269 9.45 20.337 13.663 31.971 12.298 0.176-0.024 0.346-0.044 0.517-0.068 6.602-0.863 13.044-3.53 18.549-8.065l312.827-257.656c15.662-12.899 17.9-36.054 5.003-51.717s-36.055-17.903-51.717-5.003l-285.33 234.988-105.348-120.394c-13.135-15.011-35.847-16.8-51.17-4.031l-220.838 184.026c-15.588 12.99-17.695 36.157-4.705 51.746 8.587 10.303 21.621 14.716 33.973 12.771 6.344-0.99 12.509-3.662 17.801-8.070z"></path>
<path d="M284.441 426.921c10.617 0 20.283 4.072 27.521 10.738l-149.426 124.517v-94.621c0-22.442 18.193-40.635 40.635-40.635h81.27z"></path>
<path d="M162.537 833.268v-88.439c15.557-1.136 30.918-6.978 43.815-17.725l118.724-98.933v205.097c0 22.445-18.193 40.638-40.635 40.638h-81.27c-22.442 0-40.635-18.193-40.635-40.638z"></path>
<path d="M448.254 681.818l-41.907-47.894v199.344c0 22.445 18.193 40.638 40.635 40.638h81.271c22.44 0 40.633-18.193 40.633-40.638v-153.556l-13.21 10.879c-32.295 26.595-79.875 22.708-107.422-8.772z"></path>
<path d="M650.157 833.268v-220.487l162.538-133.863v354.349c0 22.445-18.193 40.638-40.633 40.638h-81.271c-22.44 0-40.633-18.193-40.633-40.638z"></path>
</svg>
