<!-- Generated by IcoMoon.io -->
<svg version="1.1" xmlns="http://www.w3.org/2000/svg" width="1059" height="1024" viewBox="0 0 1059 1024">
<title></title>
<g id="icomoon-ignore">
</g>
<path d="M711.642 444.602c0 41.029 33.787 74.295 75.476 74.295 41.681 0 75.476-33.264 75.476-74.295 0-41.036-33.795-74.3-75.476-74.3-41.688 0-75.476 33.264-75.476 74.3z"></path>
<path d="M887.755 246.472c0 41.030 33.787 74.295 75.476 74.295 41.681 0 75.476-33.264 75.476-74.295 0-41.034-33.795-74.298-75.476-74.298-41.688 0-75.476 33.264-75.476 74.298z"></path>
<path d="M510.366 296.007c0 41.029 33.795 74.295 75.476 74.295 41.688 0 75.476-33.264 75.476-74.295 0-41.036-33.787-74.3-75.476-74.3-41.681 0-75.476 33.264-75.476 74.3z"></path>
<path d="M414.762 479.275l166.053-217.945 202.728 149.676 160.755-180.841 37.864 32.62-191.472 215.412-199.814-147.516-135.859 178.315-40.255-29.719z"></path>
<path d="M359.413 494.13c0 41.036 33.795 74.3 75.476 74.3 41.688 0 75.476-33.264 75.476-74.3 0-41.029-33.787-74.295-75.476-74.295-41.681 0-75.476 33.264-75.476 74.295z"></path>
<path d="M708.395 568.43c33.911 0 55.899 35.119 36.302 62.794 18.607 2.195 36.635 10.427 50.913 24.699l220.648 220.635c33.728 33.734 33.728 88.417 0 122.145-33.734 33.728-88.423 33.728-122.151 0l-220.648-220.635c-14.273-14.273-22.512-32.295-24.705-50.894-156.252 110.691-374.101 96.058-514.069-43.91-156.317-156.305-156.317-409.729 0-566.035 156.313-156.307 409.758-156.307 566.071 0 21.417 21.414 4.525 54.943-25.759 54.943h-59.649c-15.1 0-29.644-5.223-42.341-13.405-111.16-71.628-260.952-58.789-358.266 38.516-112.099 112.097-112.099 293.837 0 405.934 112.105 112.091 293.856 112.091 405.961 0 3.234-3.24 6.372-6.527 9.423-9.877 13.593-14.925 32.22-24.909 52.408-24.909h25.867z"></path>
</svg>
