<!-- Generated by IcoMoon.io -->
<svg version="1.1" xmlns="http://www.w3.org/2000/svg" width="32" height="32" viewBox="0 0 32 32">
<title>unpin</title>
<path d="M1.813 13.796l10.601 5.79-10.532 10.531 1.331 1.331 10.922-10.922 2.228 1.217 0.712 8.402 5.806-5.806 7.266 7.266 1.331-1.331-7.267-7.266 5.558-5.558-7.701-1.342-1.242-2.274 10.621-10.621-1.331-1.331-10.23 10.23-5.79-10.601-12.284 12.284zM15.523 19.139l3.918-3.918 1.412 2.586 5.024 0.876-7.267 7.267-0.455-5.373-2.631-1.437zM18.5 13.5l-4.699 4.699-8.879-4.85 8.728-8.728 4.85 8.879z"></path>
</svg>
