<!-- Generated by IcoMoon.io -->
<svg version="1.1" xmlns="http://www.w3.org/2000/svg" width="32" height="32" viewBox="0 0 32 32">
<title>upload</title>
<path d="M16.197 14.344c-0.023-0.030-0.053-0.054-0.087-0.071s-0.072-0.025-0.109-0.025c-0.038 0-0.075 0.009-0.11 0.025s-0.064 0.041-0.087 0.071l-3.5 4.428c-0.029 0.037-0.047 0.081-0.052 0.128s0.003 0.094 0.024 0.136c0.021 0.042 0.053 0.077 0.092 0.102s0.086 0.038 0.132 0.038h2.309v7.575c0 0.138 0.113 0.25 0.25 0.25h1.875c0.138 0 0.25-0.112 0.25-0.25v-7.572h2.316c0.209 0 0.325-0.241 0.197-0.403l-3.5-4.431z"></path>
<path d="M25.356 11.459c-1.431-3.775-5.078-6.459-9.35-6.459s-7.919 2.681-9.35 6.456c-2.678 0.703-4.656 3.144-4.656 6.044 0 3.453 2.797 6.25 6.247 6.25h1.253c0.138 0 0.25-0.112 0.25-0.25v-1.875c0-0.137-0.112-0.25-0.25-0.25h-1.253c-1.053 0-2.044-0.419-2.781-1.178-0.734-0.756-1.125-1.775-1.091-2.831 0.028-0.825 0.309-1.6 0.819-2.253 0.522-0.666 1.253-1.15 2.066-1.366l1.184-0.309 0.434-1.144c0.269-0.713 0.644-1.378 1.116-1.981 0.466-0.598 1.018-1.123 1.637-1.559 1.284-0.903 2.797-1.381 4.375-1.381s3.091 0.478 4.375 1.381c0.622 0.438 1.172 0.963 1.638 1.559 0.472 0.603 0.847 1.272 1.116 1.981l0.431 1.141 1.181 0.313c1.694 0.456 2.878 1.997 2.878 3.753 0 1.034-0.403 2.009-1.134 2.741-0.359 0.361-0.785 0.647-1.255 0.841s-0.974 0.294-1.482 0.293h-1.253c-0.138 0-0.25 0.113-0.25 0.25v1.875c0 0.138 0.112 0.25 0.25 0.25h1.253c3.45 0 6.247-2.797 6.247-6.25 0-2.897-1.972-5.334-4.644-6.041z"></path>
</svg>
