<svg width="16" height="16" viewBox="0 0 16 16" fill="none" xmlns="http://www.w3.org/2000/svg">
<path d="M5.875 0.25C3.70712 0.25 1.9375 2.01962 1.9375 4.1875C1.9375 5.54313 2.62937 6.748 3.67788 7.45731C1.67144 8.31794 0.25 10.3075 0.25 12.625H1.375C1.375 10.1331 3.38313 8.125 5.875 8.125C6.649 8.125 7.36788 8.32638 8.00125 8.67062C7.35327 9.47122 6.99982 10.47 7 11.5C7 13.9784 9.02162 16 11.5 16C13.9784 16 16 13.9784 16 11.5C16 9.02162 13.9784 7 11.5 7C10.5522 7.00127 9.62909 7.30254 8.863 7.86063C8.61438 7.70481 8.3455 7.57375 8.07212 7.45675C8.60747 7.09571 9.04608 6.60887 9.3495 6.03889C9.65293 5.46891 9.8119 4.83321 9.8125 4.1875C9.8125 2.01962 8.04288 0.25 5.875 0.25ZM5.875 1.375C7.43481 1.375 8.6875 2.62769 8.6875 4.1875C8.6875 5.74731 7.43481 7 5.875 7C4.31519 7 3.0625 5.74731 3.0625 4.1875C3.0625 2.62769 4.31519 1.375 5.875 1.375ZM11.5 8.125C13.3709 8.125 14.875 9.62912 14.875 11.5C14.875 13.3709 13.3709 14.875 11.5 14.875C9.62912 14.875 8.125 13.3709 8.125 11.5C8.125 9.62912 9.62912 8.125 11.5 8.125ZM10.9375 9.25V10.9375H9.25V12.0625H10.9375V13.75H12.0625V12.0625H13.75V10.9375H12.0625V9.25H10.9375Z" fill="white"/>
</svg>
