<svg xmlns="http://www.w3.org/2000/svg" width="18" height="18" xmlns:v="https://vecta.io/nano"><path fill-rule="evenodd" d="M9 .1c-2.6 0-4.9 1.86-4.9 4.4S6.41 8.9 9 8.9s4.9-1.86 4.9-4.4S11.6.1 9 .1zM5.9 4.5c0-1.327 1.27-2.6 3.1-2.6s3.1 1.273 3.1 2.6S10.83 7.1 9 7.1 5.9 5.826 5.9 4.5zm2.234 5.412c-4.08 0-7.448 3.055-7.94 7.003a.9.9 0 0 0 .893 1.011H17a.9.9 0 0 0 .893-1.011c-.492-3.948-3.86-7.003-7.94-7.003h-1.82zm7.76 6.214h-13.7c.767-2.554 3.137-4.414 5.94-4.414h1.82c2.803 0 5.173 1.86 5.94 4.414z" /></svg>