<!-- Generated by IcoMoon.io -->
<svg version="1.1" xmlns="http://www.w3.org/2000/svg" width="1024" height="1024" viewBox="0 0 1024 1024">
<title></title>
<g id="icomoon-ignore">
</g>
<path d="M512.005 5.66c-147.317 0-278.756 105.86-278.756 250.311s131.439 250.311 278.756 250.311c147.314 0 278.756-105.86 278.756-250.311s-131.442-250.311-278.756-250.311zM335.65 255.971c0-75.481 72.321-147.911 176.356-147.911 104.033 0 176.356 72.43 176.356 147.911s-72.323 147.911-176.356 147.911c-104.034 0-176.356-72.43-176.356-147.911zM462.721 563.871c-232.174 0-423.683 173.773-451.688 398.376-1.817 14.569 2.709 29.218 12.428 40.226 9.719 11.002 23.695 17.311 38.378 17.311h905.277c14.683 0 28.661-6.309 38.383-17.311 9.717-11.008 14.245-25.657 12.425-40.226-28.001-224.603-219.511-398.376-451.686-398.376h-103.517zM904.181 917.385h-779.402c43.645-145.266 178.463-251.113 337.942-251.113h103.517c159.477 0 294.298 105.847 337.943 251.113z"></path>
</svg>
