<svg xmlns="http://www.w3.org/2000/svg" width="16" height="13" fill="none" xmlns:v="https://vecta.io/nano"><path d="M4.666.138c.272.024.526.142.72.333l3.018 3.022c.06.06.108.13.14.2s.05.163.05.248-.017.17-.05.248-.08.15-.14.2-.13.108-.2.14-.163.05-.248.05-.17-.017-.248-.05-.15-.08-.2-.14L5.195 2.113v9.24a.65.65 0 0 1-.647.616.65.65 0 0 1-.647-.616v-9.24L1.605 4.408c-.06.06-.13.108-.2.14s-.163.05-.248.05-.17-.017-.248-.05-.15-.08-.2-.14-.108-.13-.14-.2S.5 4.036.5 3.95s.017-.17.05-.248.08-.15.14-.2L3.7.473c.194-.192.448-.3.72-.333a.6.6 0 0 1 .235 0l.002-.002zm6.138.635v9.24L8.5 7.718c-.06-.06-.13-.108-.2-.14s-.163-.05-.248-.05-.17.017-.248.05-.15.08-.2.14-.108.13-.14.2-.05.163-.05.248.017.17.05.248.08.15.14.2l3.02 3.02c.2.19.44.307.707.333.086.018.175.018.262 0 .267-.026.516-.144.707-.333l3.02-3.02a.65.65 0 0 0 .14-.21c.033-.078.05-.163.05-.248s-.017-.17-.05-.248a.65.65 0 0 0-.14-.21c-.06-.06-.13-.108-.2-.14s-.163-.05-.248-.05-.17.017-.248.05-.15.08-.2.14L12.1 10.013V.773a.65.65 0 0 0-.648-.615.65.65 0 0 0-.647.615z" fill="#fff" stroke="#fff" stroke-width=".2"/></svg>