<!-- Generated by IcoMoon.io -->
<svg version="1.1" xmlns="http://www.w3.org/2000/svg" width="32" height="32" viewBox="0 0 32 32">
<title>vertical-selection</title>
<path d="M26.267 8v2h1.733v1.2h2v-3.2h-3.733zM30 12.8v6.4h-2v-6.4h2zM29 20.8h1v3.2h-3.733v-2h1.733v-1.2h1zM24.4 23v1h-2.4v-2h2.4v1zM22 10h2.4v-2h-2.4v2zM10 8h-2.4v2h2.4v-2zM10 22h-2.4v2h2.4v-2zM5.733 23v1h-3.733v-3.2h2v1.2h1.733v1zM3 19.2h-1v-6.4h2v6.4h-1zM3 11.2h-1v-3.2h3.733v2h-1.733v1.2h-1zM15.998 2l3.464 4.5h-6.928l3.464-4.5zM12.537 25.5l3.464 4.5 3.464-4.5h-6.928z"></path>
</svg>
