<svg xmlns="http://www.w3.org/2000/svg" width="20" height="20" xmlns:v="https://vecta.io/nano"><path fill-rule="evenodd" d="M10.005 3.333h0-.01c-1.99.074-3.913.72-5.533 1.862A10.07 10.07 0 0 0 .878 9.753h0l-.001.003a.71.71 0 0 0 0 .489h0l.001.002a10.07 10.07 0 0 0 3.585 4.558c1.62 1.14 3.544 1.788 5.533 1.862h0 .01c1.99-.074 3.913-.72 5.533-1.862a10.07 10.07 0 0 0 3.585-4.558l.001-.002a.71.71 0 0 0 0-.489l-.115.042.114-.044a10.07 10.07 0 0 0-3.585-4.558c-1.62-1.14-3.544-1.788-5.533-1.862zM10 15.23c-3.127 0-6.44-2.282-7.662-5.23C3.56 7.05 6.873 4.768 10 4.768S16.44 7.05 17.662 10c-1.222 2.95-4.536 5.23-7.662 5.23zm0-8.625c-.675 0-1.334.2-1.896.572a3.4 3.4 0 0 0-1.257 1.523 3.38 3.38 0 0 0-.194 1.961 3.39 3.39 0 0 0 .934 1.738 3.42 3.42 0 0 0 1.747.929 3.43 3.43 0 0 0 1.971-.193 3.41 3.41 0 0 0 1.531-1.25 3.38 3.38 0 0 0 .575-1.886c0-.9-.36-1.764-1-2.4A3.42 3.42 0 0 0 10 6.606zm-.404 1.376a2.08 2.08 0 0 1 1.195.117c.378.156.7.42.93.758a2.05 2.05 0 0 1 .349 1.144c0 .546-.218 1.07-.606 1.456s-.914.603-1.463.603c-.41 0-.81-.12-1.15-.347a2.06 2.06 0 0 1-.762-.924 2.05 2.05 0 0 1-.118-1.189c.08-.4.277-.766.566-1.054a2.07 2.07 0 0 1 1.059-.563z"/></svg>