<!-- Generated by IcoMoon.io -->
<svg version="1.1" xmlns="http://www.w3.org/2000/svg" width="1024" height="1024" viewBox="0 0 1024 1024">
<title></title>
<g id="icomoon-ignore">
</g>
<path d="M961.133 682.24l-0.147-0.16-0.154-0.16c-66.515-149.752-169.53-226.795-306.63-226.795s-240.115 77.204-306.781 226.795v0.16c-8.145 18.458-8.145 39.968 0 58.426 66.666 149.594 169.681 226.637 306.781 226.637s240.115-77.203 306.784-226.797c8.141-18.458 8.141-39.808 0.147-58.106zM654.202 864.416c-93.662 0-161.987-48.147-212.815-153.28 50.678-105.134 119.153-153.286 212.815-153.286 93.664 0 161.99 48.152 212.819 153.286-50.682 105.133-119.155 153.28-212.819 153.28z"></path>
<path d="M570.563 711.885c0 23.84 8.899 46.701 24.739 63.558s37.324 26.323 59.726 26.323c22.4 0 43.885-9.466 59.725-26.323s24.736-39.718 24.736-63.558c0-23.84-8.896-46.701-24.736-63.558s-37.325-26.326-59.725-26.326c-22.403 0-43.886 9.47-59.726 26.326-15.84 16.858-24.739 39.718-24.739 63.558z"></path>
<path d="M327.56 857.914c-154.648-24.326-270.685-98.835-270.685-184.154v-481.257c0-104.337 173.53-192.503 378.991-192.503 205.459 0 378.989 88.166 378.989 192.503v236.72c-29.6-12.097-61.395-20.956-94.746-26.030v-85.226c-70.067 40.763-172.299 67.039-284.243 67.039s-214.177-26.276-284.243-67.039v115.165c2.748 19.939 78.136 74.346 205.921 91.203-23.412 26.579-41.954 56.412-54.506 88.55-58.477-11.572-110.445-30.454-151.415-54.289v115.164c2.198 15.955 50.916 53.984 135.779 77.184 5.737 38.24 19.631 74.323 40.159 106.97zM720.109 192.214c-3.27-23.437-109.387-95.963-284.243-95.963s-280.974 72.525-284.243 96.54c3.269 23.437 109.386 95.963 284.243 95.963s280.973-72.525 284.243-96.54z"></path>
</svg>
