<!-- Generated by IcoMoon.io -->
<svg version="1.1" xmlns="http://www.w3.org/2000/svg" width="1229" height="1024" viewBox="0 0 1229 1024">
<title></title>
<g id="icomoon-ignore">
</g>
<path d="M768.127 460.79c0 86.983-68.784 157.497-153.627 157.497-84.846 0-153.627-70.515-153.627-157.497s68.781-157.497 153.627-157.497c84.843 0 153.627 70.514 153.627 157.497z"></path>
<path d="M383.959 235.613c0-36.96-40.247-56.469-63.459-28.19-56.206 68.477-90.069 156.869-90.069 253.368s33.862 184.892 90.069 253.368c23.212 28.281 63.459 8.774 63.459-28.188 0-10.916-3.987-21.378-10.592-29.939-41.404-53.674-66.122-121.498-66.122-195.24s24.717-141.566 66.122-195.24c6.605-8.563 10.592-19.022 10.592-29.939z"></path>
<path d="M844.839 686.224c0-10.929 4.001-21.399 10.617-29.965 41.513-53.709 66.299-121.621 66.299-195.467s-24.785-141.758-66.299-195.467c-6.616-8.566-10.617-19.036-10.617-29.965 0-36.937 40.216-56.448 63.438-28.209 56.344 68.514 90.292 157.013 90.292 253.64s-33.948 185.126-90.292 253.641c-23.221 28.24-63.438 8.726-63.438-28.209z"></path>
<path d="M230.432 57.627c0 11.137-4.314 21.778-11.67 29.972-88.137 98.179-141.957 229.242-141.957 373.19s53.821 275.013 141.957 373.191c7.356 8.193 11.67 18.838 11.67 29.974 0 35.696-39.606 54.541-63.474 28.547-103.528-112.756-166.967-264.64-166.967-431.713s63.438-318.956 166.967-431.713c23.869-25.997 63.474-7.151 63.474 28.55z"></path>
<path d="M1062.041 29.077c-23.863-25.997-63.472-7.151-63.472 28.55 0 11.137 4.315 21.778 11.669 29.972 88.141 98.179 141.958 229.242 141.958 373.19s-53.818 275.013-141.958 373.191c-7.353 8.193-11.669 18.838-11.669 29.974 0 35.696 39.608 54.541 63.472 28.547 103.531-112.756 166.969-264.64 166.969-431.713s-63.438-318.956-166.969-431.714z"></path>
<path d="M614.5 699.766l177.396 307.255h-354.789l177.394-307.255z"></path>
</svg>
