<!-- Generated by IcoMoon.io -->
<svg version="1.1" xmlns="http://www.w3.org/2000/svg" width="544" height="512" viewBox="0 0 544 512">
<title></title>
<g id="icomoon-ignore">
</g>
<path d="M-0.001 30.309c0.049-16.125 13.107-29.183 29.227-29.231h26.517c16.124 0.048 29.183 13.107 29.231 29.227v0.005c-0.049 16.125-13.106 29.183-29.227 29.231h-26.517c-16.125-0.048-29.183-13.106-29.231-29.227v-0.005z"></path>
<path d="M156.69 1.079c-16.125 0.048-29.183 13.107-29.231 29.227v0.005c0.049 16.124 13.107 29.183 29.226 29.231h323.925c16.125-0.048 29.183-13.107 29.231-29.227v-0.005c-0.048-16.125-13.106-29.183-29.226-29.231h-323.925zM156.69 132.618c-16.125 0.048-29.183 13.107-29.231 29.226v0.005c0.049 16.125 13.107 29.183 29.226 29.231h116.419c24.829-9.604 53.561-15.168 83.593-15.168 0.097 0 0.195 0 0.291 0h-0.014c0.070 0 0.152 0 0.235 0 30.031 0 58.763 5.565 85.221 15.718l-1.628-0.549h39.81c16.125-0.048 29.183-13.107 29.231-29.226v-0.005c-0.048-16.125-13.106-29.183-29.226-29.231h-323.925zM171.774 264.2h-15.041c-16.125 0.048-29.183 13.106-29.231 29.226v0.005c0 9.644 4.673 18.185 11.854 23.495 9.143-20.123 19.996-37.468 32.802-53.158l-0.341 0.432zM135.107 405.298c-4.758 5.183-7.647 12.109-7.647 19.714 0.049 16.125 13.106 29.183 29.227 29.231h4.763c-9.993-14.117-18.827-30.239-25.73-47.347l-0.569-1.598z"></path>
<path d="M29.23 132.618c-16.125 0.048-29.183 13.107-29.231 29.226v0.005c0.049 16.125 13.107 29.183 29.227 29.231h26.517c16.124-0.048 29.183-13.107 29.231-29.226v-0.005c-0.049-16.125-13.106-29.183-29.227-29.231h-26.517z"></path>
<path d="M-0.001 293.432c0.049-16.125 13.107-29.183 29.227-29.231h26.517c16.124 0.048 29.183 13.106 29.231 29.226v0.005c-0.049 16.125-13.106 29.183-29.227 29.231h-26.517c-16.125-0.048-29.183-13.106-29.231-29.226v-0.005z"></path>
<path d="M29.23 395.782c-16.125 0.048-29.183 13.106-29.231 29.226v0.005c0.049 16.125 13.107 29.183 29.227 29.231h26.517c16.124-0.048 29.183-13.106 29.231-29.226v-0.005c-0.049-16.125-13.106-29.183-29.227-29.231h-26.517z"></path>
<path d="M359.779 431.897c36.337-0.024 65.788-29.474 65.813-65.81v-0.002c-0.024-36.337-29.474-65.788-65.81-65.813h-0.002c-36.337 0.024-65.788 29.474-65.813 65.81v0.002c0.024 36.337 29.474 65.788 65.81 65.813h0.002z"></path>
<path d="M356.931 221.245c-89.945 0-165.571 61.563-186.985 144.838 21.456 83.274 97.040 144.838 187.027 144.838s165.572-61.563 187.028-144.838c-21.456-83.317-97.040-144.838-187.028-144.838zM356.974 465.546c-0.005 0-0.010 0-0.014 0-64.34 0-119.081-41.096-139.406-98.47l-0.32-1.034c20.65-58.397 75.387-99.483 139.718-99.483s119.067 41.086 139.398 98.449l0.32 1.034c-20.644 58.409-75.386 99.504-139.724 99.504-0.005 0-0.010 0-0.014 0h0z"></path>
</svg>
