<svg width="170" height="84" viewBox="0 0 170 84" fill="none" xmlns="http://www.w3.org/2000/svg">
<path d="M3.89629 0C2.55597 0 1.55852 0.663189 0.888354 2.02542C0.296118 3.17256 0 4.71402 0 6.64982C0 8.58561 0.296118 10.1271 0.888354 11.2742C1.55852 12.6185 2.55597 13.2996 3.89629 13.2996C5.22103 13.2996 6.21848 12.6185 6.90423 11.2742C7.49646 10.1271 7.79258 8.58561 7.79258 6.64982C7.79258 4.71402 7.49646 3.17256 6.90423 2.02542C6.21848 0.663189 5.22103 0 3.89629 0ZM3.89629 1.25468C4.89374 1.25468 5.61066 1.8641 6.04704 3.10086C6.35875 3.96121 6.53018 5.1442 6.53018 6.64982C6.53018 8.13751 6.35875 9.3205 6.04704 10.1988C5.61066 11.4176 4.89374 12.045 3.89629 12.045C2.89884 12.045 2.18192 11.4176 1.74554 10.1988C1.43383 9.3205 1.27798 8.13751 1.27798 6.64982C1.27798 5.1442 1.43383 3.96121 1.74554 3.10086C2.18192 1.8641 2.89884 1.25468 3.89629 1.25468Z" fill="#E4F0F0"/>
<path d="M14.4881 0.250936C14.1141 0.734886 13.6777 1.16506 13.1478 1.55939C12.6179 1.91787 12.088 2.16881 11.5893 2.33012V3.7999C12.6335 3.44142 13.5062 2.86785 14.2076 2.04334V13.0487H15.4856V0.250936H14.4881Z" fill="#E4F0F0"/>
<path d="M24.1722 0C22.8319 0 21.8344 0.663189 21.1643 2.02542C20.572 3.17256 20.2759 4.71402 20.2759 6.64982C20.2759 8.58561 20.572 10.1271 21.1643 11.2742C21.8344 12.6185 22.8319 13.2996 24.1722 13.2996C25.497 13.2996 26.4944 12.6185 27.1802 11.2742C27.7724 10.1271 28.0685 8.58561 28.0685 6.64982C28.0685 4.71402 27.7724 3.17256 27.1802 2.02542C26.4944 0.663189 25.497 0 24.1722 0ZM24.1722 1.25468C25.1697 1.25468 25.8866 1.8641 26.323 3.10086C26.6347 3.96121 26.8061 5.1442 26.8061 6.64982C26.8061 8.13751 26.6347 9.3205 26.323 10.1988C25.8866 11.4176 25.1697 12.045 24.1722 12.045C23.1748 12.045 22.4579 11.4176 22.0215 10.1988C21.7098 9.3205 21.5539 8.13751 21.5539 6.64982C21.5539 5.1442 21.7098 3.96121 22.0215 3.10086C22.4579 1.8641 23.1748 1.25468 24.1722 1.25468Z" fill="#E4F0F0"/>
<path d="M35.855 0C34.5147 0 33.5172 0.663189 32.8471 2.02542C32.2548 3.17256 31.9587 4.71402 31.9587 6.64982C31.9587 8.58561 32.2548 10.1271 32.8471 11.2742C33.5172 12.6185 34.5147 13.2996 35.855 13.2996C37.1797 13.2996 38.1772 12.6185 38.8629 11.2742C39.4552 10.1271 39.7513 8.58561 39.7513 6.64982C39.7513 4.71402 39.4552 3.17256 38.8629 2.02542C38.1772 0.663189 37.1797 0 35.855 0ZM35.855 1.25468C36.8524 1.25468 37.5694 1.8641 38.0057 3.10086C38.3175 3.96121 38.4889 5.1442 38.4889 6.64982C38.4889 8.13751 38.3175 9.3205 38.0057 10.1988C37.5694 11.4176 36.8524 12.045 35.855 12.045C34.8575 12.045 34.1406 11.4176 33.7042 10.1988C33.3925 9.3205 33.2367 8.13751 33.2367 6.64982C33.2367 5.1442 33.3925 3.96121 33.7042 3.10086C34.1406 1.8641 34.8575 1.25468 35.855 1.25468Z" fill="#E4F0F0"/>
<path d="M46.4468 0.250936C46.0728 0.734886 45.6364 1.16506 45.1065 1.55939C44.5766 1.91787 44.0467 2.16881 43.548 2.33012V3.7999C44.5922 3.44142 45.4649 2.86785 46.1663 2.04334V13.0487H47.4443V0.250936H46.4468Z" fill="#E4F0F0"/>
<path d="M55.04 0.250936C54.6659 0.734886 54.2295 1.16506 53.6996 1.55939C53.1697 1.91787 52.6398 2.16881 52.1411 2.33012V3.7999C53.1853 3.44142 54.0581 2.86785 54.7594 2.04334V13.0487H56.0374V0.250936H55.04Z" fill="#E4F0F0"/>
<path d="M64.7241 0C63.3837 0 62.3863 0.663189 61.7161 2.02542C61.1239 3.17256 60.8278 4.71402 60.8278 6.64982C60.8278 8.58561 61.1239 10.1271 61.7161 11.2742C62.3863 12.6185 63.3837 13.2996 64.7241 13.2996C66.0488 13.2996 67.0463 12.6185 67.732 11.2742C68.3242 10.1271 68.6204 8.58561 68.6204 6.64982C68.6204 4.71402 68.3242 3.17256 67.732 2.02542C67.0463 0.663189 66.0488 0 64.7241 0ZM64.7241 1.25468C65.7215 1.25468 66.4384 1.8641 66.8748 3.10086C67.1865 3.96121 67.358 5.1442 67.358 6.64982C67.358 8.13751 67.1865 9.3205 66.8748 10.1988C66.4384 11.4176 65.7215 12.045 64.7241 12.045C63.7266 12.045 63.0097 11.4176 62.5733 10.1988C62.2616 9.3205 62.1058 8.13751 62.1058 6.64982C62.1058 5.1442 62.2616 3.96121 62.5733 3.10086C63.0097 1.8641 63.7266 1.25468 64.7241 1.25468Z" fill="#E4F0F0"/>
<path d="M75.3159 0.250936C74.9418 0.734886 74.5055 1.16506 73.9756 1.55939C73.4457 1.91787 72.9158 2.16881 72.417 2.33012V3.7999C73.4613 3.44142 74.334 2.86785 75.0354 2.04334V13.0487H76.3133V0.250936H75.3159Z" fill="#E4F0F0"/>
<path d="M85 0C83.6597 0 82.6622 0.663189 81.9921 2.02542C81.3998 3.17256 81.1037 4.71402 81.1037 6.64982C81.1037 8.58561 81.3998 10.1271 81.9921 11.2742C82.6622 12.6185 83.6597 13.2996 85 13.2996C86.3247 13.2996 87.3222 12.6185 88.0079 11.2742C88.6002 10.1271 88.8963 8.58561 88.8963 6.64982C88.8963 4.71402 88.6002 3.17256 88.0079 2.02542C87.3222 0.663189 86.3247 0 85 0ZM85 1.25468C85.9974 1.25468 86.7144 1.8641 87.1507 3.10086C87.4625 3.96121 87.6339 5.1442 87.6339 6.64982C87.6339 8.13751 87.4625 9.3205 87.1507 10.1988C86.7144 11.4176 85.9974 12.045 85 12.045C84.0025 12.045 83.2856 11.4176 82.8492 10.1988C82.5375 9.3205 82.3817 8.13751 82.3817 6.64982C82.3817 5.1442 82.5375 3.96121 82.8492 3.10086C83.2856 1.8641 84.0025 1.25468 85 1.25468Z" fill="#E4F0F0"/>
<path d="M95.5918 0.250936C95.2178 0.734886 94.7814 1.16506 94.2515 1.55939C93.7216 1.91787 93.1917 2.16881 92.693 2.33012V3.7999C93.7372 3.44142 94.61 2.86785 95.3113 2.04334V13.0487H96.5893V0.250936H95.5918Z" fill="#E4F0F0"/>
<path d="M105.276 0C103.936 0 102.938 0.663189 102.268 2.02542C101.676 3.17256 101.38 4.71402 101.38 6.64982C101.38 8.58561 101.676 10.1271 102.268 11.2742C102.938 12.6185 103.936 13.2996 105.276 13.2996C106.601 13.2996 107.598 12.6185 108.284 11.2742C108.876 10.1271 109.172 8.58561 109.172 6.64982C109.172 4.71402 108.876 3.17256 108.284 2.02542C107.598 0.663189 106.601 0 105.276 0ZM105.276 1.25468C106.273 1.25468 106.99 1.8641 107.427 3.10086C107.738 3.96121 107.91 5.1442 107.91 6.64982C107.91 8.13751 107.738 9.3205 107.427 10.1988C106.99 11.4176 106.273 12.045 105.276 12.045C104.278 12.045 103.562 11.4176 103.125 10.1988C102.813 9.3205 102.658 8.13751 102.658 6.64982C102.658 5.1442 102.813 3.96121 103.125 3.10086C103.562 1.8641 104.278 1.25468 105.276 1.25468Z" fill="#E4F0F0"/>
<path d="M116.959 0C115.618 0 114.621 0.663189 113.951 2.02542C113.359 3.17256 113.062 4.71402 113.062 6.64982C113.062 8.58561 113.359 10.1271 113.951 11.2742C114.621 12.6185 115.618 13.2996 116.959 13.2996C118.283 13.2996 119.281 12.6185 119.967 11.2742C120.559 10.1271 120.855 8.58561 120.855 6.64982C120.855 4.71402 120.559 3.17256 119.967 2.02542C119.281 0.663189 118.283 0 116.959 0ZM116.959 1.25468C117.956 1.25468 118.673 1.8641 119.109 3.10086C119.421 3.96121 119.593 5.1442 119.593 6.64982C119.593 8.13751 119.421 9.3205 119.109 10.1988C118.673 11.4176 117.956 12.045 116.959 12.045C115.961 12.045 115.244 11.4176 114.808 10.1988C114.496 9.3205 114.34 8.13751 114.34 6.64982C114.34 5.1442 114.496 3.96121 114.808 3.10086C115.244 1.8641 115.961 1.25468 116.959 1.25468Z" fill="#E4F0F0"/>
<path d="M127.551 0.250936C127.176 0.734886 126.74 1.16506 126.21 1.55939C125.68 1.91787 125.15 2.16881 124.652 2.33012V3.7999C125.696 3.44142 126.569 2.86785 127.27 2.04334V13.0487H128.548V0.250936H127.551Z" fill="#E4F0F0"/>
<path d="M136.144 0.250936C135.77 0.734886 135.333 1.16506 134.803 1.55939C134.273 1.91787 133.744 2.16881 133.245 2.33012V3.7999C134.289 3.44142 135.162 2.86785 135.863 2.04334V13.0487H137.141V0.250936H136.144Z" fill="#E4F0F0"/>
<path d="M145.828 0C144.487 0 143.49 0.663189 142.82 2.02542C142.228 3.17256 141.932 4.71402 141.932 6.64982C141.932 8.58561 142.228 10.1271 142.82 11.2742C143.49 12.6185 144.487 13.2996 145.828 13.2996C147.153 13.2996 148.15 12.6185 148.836 11.2742C149.428 10.1271 149.724 8.58561 149.724 6.64982C149.724 4.71402 149.428 3.17256 148.836 2.02542C148.15 0.663189 147.153 0 145.828 0ZM145.828 1.25468C146.825 1.25468 147.542 1.8641 147.979 3.10086C148.29 3.96121 148.462 5.1442 148.462 6.64982C148.462 8.13751 148.29 9.3205 147.979 10.1988C147.542 11.4176 146.825 12.045 145.828 12.045C144.83 12.045 144.113 11.4176 143.677 10.1988C143.365 9.3205 143.209 8.13751 143.209 6.64982C143.209 5.1442 143.365 3.96121 143.677 3.10086C144.113 1.8641 144.83 1.25468 145.828 1.25468Z" fill="#E4F0F0"/>
<path d="M156.42 0.250936C156.046 0.734886 155.609 1.16506 155.079 1.55939C154.549 1.91787 154.019 2.16881 153.521 2.33012V3.7999C154.565 3.44142 155.438 2.86785 156.139 2.04334V13.0487H157.417V0.250936H156.42Z" fill="#E4F0F0"/>
<path d="M166.104 0C164.763 0 163.766 0.663189 163.096 2.02542C162.504 3.17256 162.207 4.71402 162.207 6.64982C162.207 8.58561 162.504 10.1271 163.096 11.2742C163.766 12.6185 164.763 13.2996 166.104 13.2996C167.428 13.2996 168.426 12.6185 169.112 11.2742C169.704 10.1271 170 8.58561 170 6.64982C170 4.71402 169.704 3.17256 169.112 2.02542C168.426 0.663189 167.428 0 166.104 0ZM166.104 1.25468C167.101 1.25468 167.818 1.8641 168.254 3.10086C168.566 3.96121 168.738 5.1442 168.738 6.64982C168.738 8.13751 168.566 9.3205 168.254 10.1988C167.818 11.4176 167.101 12.045 166.104 12.045C165.106 12.045 164.389 11.4176 163.953 10.1988C163.641 9.3205 163.485 8.13751 163.485 6.64982C163.485 5.1442 163.641 3.96121 163.953 3.10086C164.389 1.8641 165.106 1.25468 166.104 1.25468Z" fill="#E4F0F0"/>
<path d="M11.2825 22.9029C9.94217 22.9029 8.94472 23.5661 8.27456 24.9284C7.68233 26.0755 7.38621 27.617 7.38621 29.5528C7.38621 31.4885 7.68233 33.03 8.27456 34.1772C8.94472 35.5215 9.94217 36.2026 11.2825 36.2026C12.6072 36.2026 13.6047 35.5215 14.2904 34.1772C14.8827 33.03 15.1788 31.4885 15.1788 29.5528C15.1788 27.617 14.8827 26.0755 14.2904 24.9284C13.6047 23.5661 12.6072 22.9029 11.2825 22.9029ZM11.2825 24.1576C12.2799 24.1576 12.9969 24.767 13.4332 26.0038C13.745 26.8641 13.9164 28.0471 13.9164 29.5528C13.9164 31.0404 13.745 32.2234 13.4332 33.1017C12.9969 34.3205 12.2799 34.9479 11.2825 34.9479C10.285 34.9479 9.56813 34.3205 9.13174 33.1017C8.82004 32.2234 8.66419 31.0404 8.66419 29.5528C8.66419 28.0471 8.82004 26.8641 9.13174 26.0038C9.56813 24.767 10.285 24.1576 11.2825 24.1576Z" fill="#E4F0F0"/>
<path d="M21.8743 23.1539C21.5003 23.6378 21.0639 24.068 20.534 24.4623C20.0041 24.8208 19.4742 25.0717 18.9755 25.2331V26.7028C20.0197 26.3443 20.8924 25.7708 21.5938 24.9463V35.9516H22.8718V23.1539H21.8743Z" fill="#E4F0F0"/>
<path d="M30.4675 23.1539C30.0934 23.6378 29.657 24.068 29.1271 24.4623C28.5972 24.8208 28.0673 25.0717 27.5686 25.2331V26.7028C28.6128 26.3443 29.4856 25.7708 30.1869 24.9463V35.9516H31.4649V23.1539H30.4675Z" fill="#E4F0F0"/>
<path d="M40.1516 22.9029C38.8112 22.9029 37.8138 23.5661 37.1436 24.9284C36.5514 26.0755 36.2553 27.617 36.2553 29.5528C36.2553 31.4885 36.5514 33.03 37.1436 34.1772C37.8138 35.5215 38.8112 36.2026 40.1516 36.2026C41.4763 36.2026 42.4738 35.5215 43.1595 34.1772C43.7517 33.03 44.0479 31.4885 44.0479 29.5528C44.0479 27.617 43.7517 26.0755 43.1595 24.9284C42.4738 23.5661 41.4763 22.9029 40.1516 22.9029ZM40.1516 24.1576C41.149 24.1576 41.8659 24.767 42.3023 26.0038C42.614 26.8641 42.7855 28.0471 42.7855 29.5528C42.7855 31.0404 42.614 32.2234 42.3023 33.1017C41.8659 34.3205 41.149 34.9479 40.1516 34.9479C39.1541 34.9479 38.4372 34.3205 38.0008 33.1017C37.6891 32.2234 37.5333 31.0404 37.5333 29.5528C37.5333 28.0471 37.6891 26.8641 38.0008 26.0038C38.4372 24.767 39.1541 24.1576 40.1516 24.1576Z" fill="#E4F0F0"/>
<path d="M50.7434 23.1539C50.3693 23.6378 49.933 24.068 49.4031 24.4623C48.8732 24.8208 48.3433 25.0717 47.8446 25.2331V26.7028C48.8888 26.3443 49.7615 25.7708 50.4629 24.9463V35.9516H51.7408V23.1539H50.7434Z" fill="#E4F0F0"/>
<path d="M60.4275 22.9029C59.0872 22.9029 58.0897 23.5661 57.4196 24.9284C56.8273 26.0755 56.5312 27.617 56.5312 29.5528C56.5312 31.4885 56.8273 33.03 57.4196 34.1772C58.0897 35.5215 59.0872 36.2026 60.4275 36.2026C61.7522 36.2026 62.7497 35.5215 63.4354 34.1772C64.0277 33.03 64.3238 31.4885 64.3238 29.5528C64.3238 27.617 64.0277 26.0755 63.4354 24.9284C62.7497 23.5661 61.7522 22.9029 60.4275 22.9029ZM60.4275 24.1576C61.4249 24.1576 62.1419 24.767 62.5782 26.0038C62.89 26.8641 63.0614 28.0471 63.0614 29.5528C63.0614 31.0404 62.89 32.2234 62.5782 33.1017C62.1419 34.3205 61.4249 34.9479 60.4275 34.9479C59.43 34.9479 58.7131 34.3205 58.2767 33.1017C57.965 32.2234 57.8092 31.0404 57.8092 29.5528C57.8092 28.0471 57.965 26.8641 58.2767 26.0038C58.7131 24.767 59.43 24.1576 60.4275 24.1576Z" fill="#E4F0F0"/>
<path d="M71.0193 23.1539C70.6453 23.6378 70.2089 24.068 69.679 24.4623C69.1491 24.8208 68.6192 25.0717 68.1205 25.2331V26.7028C69.1647 26.3443 70.0374 25.7708 70.7388 24.9463V35.9516H72.0168V23.1539H71.0193Z" fill="#E4F0F0"/>
<path d="M79.6125 23.1539C79.2384 23.6378 78.802 24.068 78.2721 24.4623C77.7422 24.8208 77.2123 25.0717 76.7136 25.2331V26.7028C77.7578 26.3443 78.6306 25.7708 79.3319 24.9463V35.9516H80.6099V23.1539H79.6125Z" fill="#E4F0F0"/>
<path d="M89.2966 22.9029C87.9562 22.9029 86.9588 23.5661 86.2886 24.9284C85.6964 26.0755 85.4003 27.617 85.4003 29.5528C85.4003 31.4885 85.6964 33.03 86.2886 34.1772C86.9588 35.5215 87.9562 36.2026 89.2966 36.2026C90.6213 36.2026 91.6188 35.5215 92.3045 34.1772C92.8967 33.03 93.1929 31.4885 93.1929 29.5528C93.1929 27.617 92.8967 26.0755 92.3045 24.9284C91.6188 23.5661 90.6213 22.9029 89.2966 22.9029ZM89.2966 24.1576C90.294 24.1576 91.0109 24.767 91.4473 26.0038C91.759 26.8641 91.9305 28.0471 91.9305 29.5528C91.9305 31.0404 91.759 32.2234 91.4473 33.1017C91.0109 34.3205 90.294 34.9479 89.2966 34.9479C88.2991 34.9479 87.5822 34.3205 87.1458 33.1017C86.8341 32.2234 86.6783 31.0404 86.6783 29.5528C86.6783 28.0471 86.8341 26.8641 87.1458 26.0038C87.5822 24.767 88.2991 24.1576 89.2966 24.1576Z" fill="#E4F0F0"/>
<path d="M99.8884 23.1539C99.5143 23.6378 99.078 24.068 98.5481 24.4623C98.0182 24.8208 97.4883 25.0717 96.9895 25.2331V26.7028C98.0338 26.3443 98.9065 25.7708 99.6079 24.9463V35.9516H100.886V23.1539H99.8884Z" fill="#E4F0F0"/>
<path d="M109.572 22.9029C108.232 22.9029 107.235 23.5661 106.565 24.9284C105.972 26.0755 105.676 27.617 105.676 29.5528C105.676 31.4885 105.972 33.03 106.565 34.1772C107.235 35.5215 108.232 36.2026 109.572 36.2026C110.897 36.2026 111.895 35.5215 112.58 34.1772C113.173 33.03 113.469 31.4885 113.469 29.5528C113.469 27.617 113.173 26.0755 112.58 24.9284C111.895 23.5661 110.897 22.9029 109.572 22.9029ZM109.572 24.1576C110.57 24.1576 111.287 24.767 111.723 26.0038C112.035 26.8641 112.206 28.0471 112.206 29.5528C112.206 31.0404 112.035 32.2234 111.723 33.1017C111.287 34.3205 110.57 34.9479 109.572 34.9479C108.575 34.9479 107.858 34.3205 107.422 33.1017C107.11 32.2234 106.954 31.0404 106.954 29.5528C106.954 28.0471 107.11 26.8641 107.422 26.0038C107.858 24.767 108.575 24.1576 109.572 24.1576Z" fill="#E4F0F0"/>
<path d="M121.255 22.9029C119.915 22.9029 118.917 23.5661 118.247 24.9284C117.655 26.0755 117.359 27.617 117.359 29.5528C117.359 31.4885 117.655 33.03 118.247 34.1772C118.917 35.5215 119.915 36.2026 121.255 36.2026C122.58 36.2026 123.577 35.5215 124.263 34.1772C124.855 33.03 125.152 31.4885 125.152 29.5528C125.152 27.617 124.855 26.0755 124.263 24.9284C123.577 23.5661 122.58 22.9029 121.255 22.9029ZM121.255 24.1576C122.253 24.1576 122.97 24.767 123.406 26.0038C123.718 26.8641 123.889 28.0471 123.889 29.5528C123.889 31.0404 123.718 32.2234 123.406 33.1017C122.97 34.3205 122.253 34.9479 121.255 34.9479C120.258 34.9479 119.541 34.3205 119.105 33.1017C118.793 32.2234 118.637 31.0404 118.637 29.5528C118.637 28.0471 118.793 26.8641 119.105 26.0038C119.541 24.767 120.258 24.1576 121.255 24.1576Z" fill="#E4F0F0"/>
<path d="M131.847 23.1539C131.473 23.6378 131.037 24.068 130.507 24.4623C129.977 24.8208 129.447 25.0717 128.948 25.2331V26.7028C129.992 26.3443 130.865 25.7708 131.567 24.9463V35.9516H132.845V23.1539H131.847Z" fill="#E4F0F0"/>
<path d="M140.44 23.1539C140.066 23.6378 139.63 24.068 139.1 24.4623C138.57 24.8208 138.04 25.0717 137.541 25.2331V26.7028C138.586 26.3443 139.458 25.7708 140.16 24.9463V35.9516H141.438V23.1539H140.44Z" fill="#E4F0F0"/>
<path d="M149.033 23.1539C148.659 23.6378 148.223 24.068 147.693 24.4623C147.163 24.8208 146.633 25.0717 146.135 25.2331V26.7028C147.179 26.3443 148.052 25.7708 148.753 24.9463V35.9516H150.031V23.1539H149.033Z" fill="#E4F0F0"/>
<path d="M158.717 22.9029C157.377 22.9029 156.38 23.5661 155.71 24.9284C155.117 26.0755 154.821 27.617 154.821 29.5528C154.821 31.4885 155.117 33.03 155.71 34.1772C156.38 35.5215 157.377 36.2026 158.717 36.2026C160.042 36.2026 161.04 35.5215 161.725 34.1772C162.318 33.03 162.614 31.4885 162.614 29.5528C162.614 27.617 162.318 26.0755 161.725 24.9284C161.04 23.5661 160.042 22.9029 158.717 22.9029ZM158.717 24.1576C159.715 24.1576 160.432 24.767 160.868 26.0038C161.18 26.8641 161.351 28.0471 161.351 29.5528C161.351 31.0404 161.18 32.2234 160.868 33.1017C160.432 34.3205 159.715 34.9479 158.717 34.9479C157.72 34.9479 157.003 34.3205 156.567 33.1017C156.255 32.2234 156.099 31.0404 156.099 29.5528C156.099 28.0471 156.255 26.8641 156.567 26.0038C157.003 24.767 157.72 24.1576 158.717 24.1576Z" fill="#E4F0F0"/>
<path d="M14.4881 47.0526C14.1141 47.5365 13.6777 47.9667 13.1478 48.361C12.6179 48.7195 12.088 48.9705 11.5893 49.1318V50.6015C12.6335 50.2431 13.5062 49.6695 14.2076 48.845V59.8503H15.4856V47.0526H14.4881Z" fill="#E4F0F0"/>
<path d="M24.1722 46.8016C22.8319 46.8016 21.8344 47.4648 21.1643 48.8271C20.572 49.9742 20.2759 51.5157 20.2759 53.4515C20.2759 55.3873 20.572 56.9287 21.1643 58.0759C21.8344 59.4202 22.8319 60.1013 24.1722 60.1013C25.4969 60.1013 26.4944 59.4202 27.1801 58.0759C27.7724 56.9287 28.0685 55.3873 28.0685 53.4515C28.0685 51.5157 27.7724 49.9742 27.1801 48.8271C26.4944 47.4648 25.4969 46.8016 24.1722 46.8016ZM24.1722 48.0563C25.1697 48.0563 25.8866 48.6658 26.323 49.9025C26.6347 50.7629 26.8061 51.9458 26.8061 53.4515C26.8061 54.9392 26.6347 56.1221 26.323 57.0004C25.8866 58.2193 25.1697 58.8466 24.1722 58.8466C23.1748 58.8466 22.4578 58.2193 22.0215 57.0004C21.7098 56.1221 21.5539 54.9392 21.5539 53.4515C21.5539 51.9458 21.7098 50.7629 22.0215 49.9025C22.4578 48.6658 23.1748 48.0563 24.1722 48.0563Z" fill="#E4F0F0"/>
<path d="M34.764 47.0526C34.39 47.5365 33.9536 47.9667 33.4237 48.361C32.8938 48.7195 32.3639 48.9705 31.8652 49.1318V50.6015C32.9094 50.2431 33.7822 49.6695 34.4835 48.845V59.8503H35.7615V47.0526H34.764Z" fill="#E4F0F0"/>
<path d="M44.4481 46.8016C43.1078 46.8016 42.1104 47.4648 41.4402 48.8271C40.848 49.9742 40.5518 51.5157 40.5518 53.4515C40.5518 55.3873 40.848 56.9287 41.4402 58.0759C42.1104 59.4202 43.1078 60.1013 44.4481 60.1013C45.7729 60.1013 46.7703 59.4202 47.4561 58.0759C48.0483 56.9287 48.3444 55.3873 48.3444 53.4515C48.3444 51.5157 48.0483 49.9742 47.4561 48.8271C46.7703 47.4648 45.7729 46.8016 44.4481 46.8016ZM44.4481 48.0563C45.4456 48.0563 46.1625 48.6658 46.5989 49.9025C46.9106 50.7629 47.082 51.9458 47.082 53.4515C47.082 54.9392 46.9106 56.1221 46.5989 57.0004C46.1625 58.2193 45.4456 58.8466 44.4481 58.8466C43.4507 58.8466 42.7338 58.2193 42.2974 57.0004C41.9857 56.1221 41.8298 54.9392 41.8298 53.4515C41.8298 51.9458 41.9857 50.7629 42.2974 49.9025C42.7338 48.6658 43.4507 48.0563 44.4481 48.0563Z" fill="#E4F0F0"/>
<path d="M55.04 47.0526C54.6659 47.5365 54.2295 47.9667 53.6996 48.361C53.1697 48.7195 52.6398 48.9705 52.1411 49.1318V50.6015C53.1853 50.2431 54.0581 49.6695 54.7594 48.845V59.8503H56.0374V47.0526H55.04Z" fill="#E4F0F0"/>
<path d="M63.6331 47.0526C63.2591 47.5365 62.8227 47.9667 62.2928 48.361C61.7629 48.7195 61.233 48.9705 60.7343 49.1318V50.6015C61.7785 50.2431 62.6512 49.6695 63.3526 48.845V59.8503H64.6306V47.0526H63.6331Z" fill="#E4F0F0"/>
<path d="M72.2262 47.0526C71.8522 47.5365 71.4158 47.9667 70.8859 48.361C70.356 48.7195 69.8261 48.9705 69.3274 49.1318V50.6015C70.3716 50.2431 71.2444 49.6695 71.9457 48.845V59.8503H73.2237V47.0526H72.2262Z" fill="#E4F0F0"/>
<path d="M81.9104 46.8016C80.57 46.8016 79.5726 47.4648 78.9024 48.8271C78.3102 49.9742 78.0141 51.5157 78.0141 53.4515C78.0141 55.3873 78.3102 56.9287 78.9024 58.0759C79.5726 59.4202 80.57 60.1013 81.9104 60.1013C83.2351 60.1013 84.2325 59.4202 84.9183 58.0759C85.5105 56.9287 85.8066 55.3873 85.8066 53.4515C85.8066 51.5157 85.5105 49.9742 84.9183 48.8271C84.2325 47.4648 83.2351 46.8016 81.9104 46.8016ZM81.9104 48.0563C82.9078 48.0563 83.6247 48.6658 84.0611 49.9025C84.3728 50.7629 84.5443 51.9458 84.5443 53.4515C84.5443 54.9392 84.3728 56.1221 84.0611 57.0004C83.6247 58.2193 82.9078 58.8466 81.9104 58.8466C80.9129 58.8466 80.196 58.2193 79.7596 57.0004C79.4479 56.1221 79.292 54.9392 79.292 53.4515C79.292 51.9458 79.4479 50.7629 79.7596 49.9025C80.196 48.6658 80.9129 48.0563 81.9104 48.0563Z" fill="#E4F0F0"/>
<path d="M92.5022 47.0526C92.1281 47.5365 91.6917 47.9667 91.1619 48.361C90.632 48.7195 90.1021 48.9705 89.6033 49.1318V50.6015C90.6475 50.2431 91.5203 49.6695 92.2216 48.845V59.8503H93.4996V47.0526H92.5022Z" fill="#E4F0F0"/>
<path d="M102.186 46.8016C100.846 46.8016 99.8485 47.4648 99.1783 48.8271C98.5861 49.9742 98.29 51.5157 98.29 53.4515C98.29 55.3873 98.5861 56.9287 99.1783 58.0759C99.8485 59.4202 100.846 60.1013 102.186 60.1013C103.511 60.1013 104.508 59.4202 105.194 58.0759C105.786 56.9287 106.083 55.3873 106.083 53.4515C106.083 51.5157 105.786 49.9742 105.194 48.8271C104.508 47.4648 103.511 46.8016 102.186 46.8016ZM102.186 48.0563C103.184 48.0563 103.901 48.6658 104.337 49.9025C104.649 50.7629 104.82 51.9458 104.82 53.4515C104.82 54.9392 104.649 56.1221 104.337 57.0004C103.901 58.2193 103.184 58.8466 102.186 58.8466C101.189 58.8466 100.472 58.2193 100.036 57.0004C99.7238 56.1221 99.568 54.9392 99.568 53.4515C99.568 51.9458 99.7238 50.7629 100.036 49.9025C100.472 48.6658 101.189 48.0563 102.186 48.0563Z" fill="#E4F0F0"/>
<path d="M112.778 47.0526C112.404 47.5365 111.968 47.9667 111.438 48.361C110.908 48.7195 110.378 48.9705 109.879 49.1318V50.6015C110.923 50.2431 111.796 49.6695 112.498 48.845V59.8503H113.776V47.0526H112.778Z" fill="#E4F0F0"/>
<path d="M122.462 46.8016C121.122 46.8016 120.124 47.4648 119.454 48.8271C118.862 49.9742 118.566 51.5157 118.566 53.4515C118.566 55.3873 118.862 56.9287 119.454 58.0759C120.124 59.4202 121.122 60.1013 122.462 60.1013C123.787 60.1013 124.784 59.4202 125.47 58.0759C126.062 56.9287 126.358 55.3873 126.358 53.4515C126.358 51.5157 126.062 49.9742 125.47 48.8271C124.784 47.4648 123.787 46.8016 122.462 46.8016ZM122.462 48.0563C123.46 48.0563 124.177 48.6658 124.613 49.9025C124.925 50.7629 125.096 51.9458 125.096 53.4515C125.096 54.9392 124.925 56.1221 124.613 57.0004C124.177 58.2193 123.46 58.8466 122.462 58.8466C121.465 58.8466 120.748 58.2193 120.311 57.0004C120 56.1221 119.844 54.9392 119.844 53.4515C119.844 51.9458 120 50.7629 120.311 49.9025C120.748 48.6658 121.465 48.0563 122.462 48.0563Z" fill="#E4F0F0"/>
<path d="M134.145 46.8016C132.805 46.8016 131.807 47.4648 131.137 48.8271C130.545 49.9742 130.249 51.5157 130.249 53.4515C130.249 55.3873 130.545 56.9287 131.137 58.0759C131.807 59.4202 132.805 60.1013 134.145 60.1013C135.47 60.1013 136.467 59.4202 137.153 58.0759C137.745 56.9287 138.041 55.3873 138.041 53.4515C138.041 51.5157 137.745 49.9742 137.153 48.8271C136.467 47.4648 135.47 46.8016 134.145 46.8016ZM134.145 48.0563C135.142 48.0563 135.859 48.6658 136.296 49.9025C136.607 50.7629 136.779 51.9458 136.779 53.4515C136.779 54.9392 136.607 56.1221 136.296 57.0004C135.859 58.2193 135.142 58.8466 134.145 58.8466C133.148 58.8466 132.431 58.2193 131.994 57.0004C131.683 56.1221 131.527 54.9392 131.527 53.4515C131.527 51.9458 131.683 50.7629 131.994 49.9025C132.431 48.6658 133.148 48.0563 134.145 48.0563Z" fill="#E4F0F0"/>
<path d="M144.737 47.0526C144.363 47.5365 143.926 47.9667 143.396 48.361C142.867 48.7195 142.337 48.9705 141.838 49.1318V50.6015C142.882 50.2431 143.755 49.6695 144.456 48.845V59.8503H145.734V47.0526H144.737Z" fill="#E4F0F0"/>
<path d="M154.421 46.8016C153.081 46.8016 152.083 47.4648 151.413 48.8271C150.821 49.9742 150.525 51.5157 150.525 53.4515C150.525 55.3873 150.821 56.9287 151.413 58.0759C152.083 59.4202 153.081 60.1013 154.421 60.1013C155.746 60.1013 156.743 59.4202 157.429 58.0759C158.021 56.9287 158.317 55.3873 158.317 53.4515C158.317 51.5157 158.021 49.9742 157.429 48.8271C156.743 47.4648 155.746 46.8016 154.421 46.8016ZM154.421 48.0563C155.418 48.0563 156.135 48.6658 156.572 49.9025C156.883 50.7629 157.055 51.9458 157.055 53.4515C157.055 54.9392 156.883 56.1221 156.572 57.0004C156.135 58.2193 155.418 58.8466 154.421 58.8466C153.423 58.8466 152.707 58.2193 152.27 57.0004C151.958 56.1221 151.803 54.9392 151.803 53.4515C151.803 51.9458 151.958 50.7629 152.27 49.9025C152.707 48.6658 153.423 48.0563 154.421 48.0563Z" fill="#E4F0F0"/>
<path d="M25.717 70.7004C24.3767 70.7004 23.3793 71.3636 22.7091 72.7258C22.1169 73.8729 21.8207 75.4144 21.8207 77.3502C21.8207 79.286 22.1169 80.8274 22.7091 81.9746C23.3793 83.3189 24.3767 84 25.717 84C27.0418 84 28.0392 83.3189 28.725 81.9746C29.3172 80.8274 29.6133 79.286 29.6133 77.3502C29.6133 75.4144 29.3172 73.8729 28.725 72.7258C28.0392 71.3636 27.0418 70.7004 25.717 70.7004ZM25.717 71.955C26.7145 71.955 27.4314 72.5645 27.8678 73.8012C28.1795 74.6616 28.3509 75.8446 28.3509 77.3502C28.3509 78.8379 28.1795 80.0209 27.8678 80.8991C27.4314 82.118 26.7145 82.7453 25.717 82.7453C24.7196 82.7453 24.0027 82.118 23.5663 80.8991C23.2546 80.0209 23.0987 78.8379 23.0987 77.3502C23.0987 75.8446 23.2546 74.6616 23.5663 73.8012C24.0027 72.5645 24.7196 71.955 25.717 71.955Z" fill="#E4F0F0"/>
<path d="M36.3089 70.9513C35.9348 71.4352 35.4984 71.8654 34.9685 72.2598C34.4386 72.6182 33.9087 72.8692 33.41 73.0305V74.5003C34.4542 74.1418 35.327 73.5682 36.0283 72.7437V83.7491H37.3063V70.9513H36.3089Z" fill="#E4F0F0"/>
<path d="M44.902 70.9513C44.528 71.4352 44.0916 71.8654 43.5617 72.2598C43.0318 72.6182 42.5019 72.8692 42.0032 73.0305V74.5003C43.0474 74.1418 43.9201 73.5682 44.6215 72.7437V83.7491H45.8995V70.9513H44.902Z" fill="#E4F0F0"/>
<path d="M54.5861 70.7004C53.2458 70.7004 52.2483 71.3636 51.5782 72.7258C50.9859 73.8729 50.6898 75.4144 50.6898 77.3502C50.6898 79.286 50.9859 80.8274 51.5782 81.9746C52.2483 83.3189 53.2458 84 54.5861 84C55.9108 84 56.9083 83.3189 57.594 81.9746C58.1863 80.8274 58.4824 79.286 58.4824 77.3502C58.4824 75.4144 58.1863 73.8729 57.594 72.7258C56.9083 71.3636 55.9108 70.7004 54.5861 70.7004ZM54.5861 71.955C55.5835 71.955 56.3005 72.5645 56.7369 73.8012C57.0486 74.6616 57.22 75.8446 57.22 77.3502C57.22 78.8379 57.0486 80.0209 56.7369 80.8991C56.3005 82.118 55.5835 82.7453 54.5861 82.7453C53.5886 82.7453 52.8717 82.118 52.4353 80.8991C52.1236 80.0209 51.9678 78.8379 51.9678 77.3502C51.9678 75.8446 52.1236 74.6616 52.4353 73.8012C52.8717 72.5645 53.5886 71.955 54.5861 71.955Z" fill="#E4F0F0"/>
<path d="M65.1779 70.9513C64.8039 71.4352 64.3675 71.8654 63.8376 72.2598C63.3077 72.6182 62.7778 72.8692 62.2791 73.0305V74.5003C63.3233 74.1418 64.1961 73.5682 64.8974 72.7437V83.7491H66.1754V70.9513H65.1779Z" fill="#E4F0F0"/>
<path d="M74.862 70.7004C73.5217 70.7004 72.5243 71.3636 71.8541 72.7258C71.2619 73.8729 70.9657 75.4144 70.9657 77.3502C70.9657 79.286 71.2619 80.8274 71.8541 81.9746C72.5243 83.3189 73.5217 84 74.862 84C76.1868 84 77.1842 83.3189 77.87 81.9746C78.4622 80.8274 78.7583 79.286 78.7583 77.3502C78.7583 75.4144 78.4622 73.8729 77.87 72.7258C77.1842 71.3636 76.1868 70.7004 74.862 70.7004ZM74.862 71.955C75.8595 71.955 76.5764 72.5645 77.0128 73.8012C77.3245 74.6616 77.4959 75.8446 77.4959 77.3502C77.4959 78.8379 77.3245 80.0209 77.0128 80.8991C76.5764 82.118 75.8595 82.7453 74.862 82.7453C73.8646 82.7453 73.1477 82.118 72.7113 80.8991C72.3996 80.0209 72.2437 78.8379 72.2437 77.3502C72.2437 75.8446 72.3996 74.6616 72.7113 73.8012C73.1477 72.5645 73.8646 71.955 74.862 71.955Z" fill="#E4F0F0"/>
<path d="M85.4538 70.9513C85.0798 71.4352 84.6434 71.8654 84.1135 72.2598C83.5836 72.6182 83.0537 72.8692 82.555 73.0305V74.5003C83.5992 74.1418 84.472 73.5682 85.1733 72.7437V83.7491H86.4513V70.9513H85.4538Z" fill="#E4F0F0"/>
<path d="M95.138 70.7004C93.7976 70.7004 92.8002 71.3636 92.13 72.7258C91.5378 73.8729 91.2417 75.4144 91.2417 77.3502C91.2417 79.286 91.5378 80.8274 92.13 81.9746C92.8002 83.3189 93.7976 84 95.138 84C96.4627 84 97.4602 83.3189 98.1459 81.9746C98.7381 80.8274 99.0343 79.286 99.0343 77.3502C99.0343 75.4144 98.7381 73.8729 98.1459 72.7258C97.4602 71.3636 96.4627 70.7004 95.138 70.7004ZM95.138 71.955C96.1354 71.955 96.8523 72.5645 97.2887 73.8012C97.6004 74.6616 97.7719 75.8446 97.7719 77.3502C97.7719 78.8379 97.6004 80.0209 97.2887 80.8991C96.8523 82.118 96.1354 82.7453 95.138 82.7453C94.1405 82.7453 93.4236 82.118 92.9872 80.8991C92.6755 80.0209 92.5197 78.8379 92.5197 77.3502C92.5197 75.8446 92.6755 74.6616 92.9872 73.8012C93.4236 72.5645 94.1405 71.955 95.138 71.955Z" fill="#E4F0F0"/>
<path d="M105.73 70.9513C105.356 71.4352 104.919 71.8654 104.389 72.2598C103.86 72.6182 103.33 72.8692 102.831 73.0305V74.5003C103.875 74.1418 104.748 73.5682 105.449 72.7437V83.7491H106.727V70.9513H105.73Z" fill="#E4F0F0"/>
<path d="M115.414 70.7004C114.074 70.7004 113.076 71.3636 112.406 72.7258C111.814 73.8729 111.518 75.4144 111.518 77.3502C111.518 79.286 111.814 80.8274 112.406 81.9746C113.076 83.3189 114.074 84 115.414 84C116.739 84 117.736 83.3189 118.422 81.9746C119.014 80.8274 119.31 79.286 119.31 77.3502C119.31 75.4144 119.014 73.8729 118.422 72.7258C117.736 71.3636 116.739 70.7004 115.414 70.7004ZM115.414 71.955C116.411 71.955 117.128 72.5645 117.565 73.8012C117.876 74.6616 118.048 75.8446 118.048 77.3502C118.048 78.8379 117.876 80.0209 117.565 80.8991C117.128 82.118 116.411 82.7453 115.414 82.7453C114.416 82.7453 113.7 82.118 113.263 80.8991C112.951 80.0209 112.796 78.8379 112.796 77.3502C112.796 75.8446 112.951 74.6616 113.263 73.8012C113.7 72.5645 114.416 71.955 115.414 71.955Z" fill="#E4F0F0"/>
<path d="M127.097 70.7004C125.756 70.7004 124.759 71.3636 124.089 72.7258C123.496 73.8729 123.2 75.4144 123.2 77.3502C123.2 79.286 123.496 80.8274 124.089 81.9746C124.759 83.3189 125.756 84 127.097 84C128.421 84 129.419 83.3189 130.105 81.9746C130.697 80.8274 130.993 79.286 130.993 77.3502C130.993 75.4144 130.697 73.8729 130.105 72.7258C129.419 71.3636 128.421 70.7004 127.097 70.7004ZM127.097 71.955C128.094 71.955 128.811 72.5645 129.247 73.8012C129.559 74.6616 129.731 75.8446 129.731 77.3502C129.731 78.8379 129.559 80.0209 129.247 80.8991C128.811 82.118 128.094 82.7453 127.097 82.7453C126.099 82.7453 125.382 82.118 124.946 80.8991C124.634 80.0209 124.478 78.8379 124.478 77.3502C124.478 75.8446 124.634 74.6616 124.946 73.8012C125.382 72.5645 126.099 71.955 127.097 71.955Z" fill="#E4F0F0"/>
<path d="M137.688 70.9513C137.314 71.4352 136.878 71.8654 136.348 72.2598C135.818 72.6182 135.288 72.8692 134.79 73.0305V74.5003C135.834 74.1418 136.707 73.5682 137.408 72.7437V83.7491H138.686V70.9513H137.688Z" fill="#E4F0F0"/>
<path d="M146.282 70.9513C145.908 71.4352 145.471 71.8654 144.941 72.2598C144.411 72.6182 143.882 72.8692 143.383 73.0305V74.5003C144.427 74.1418 145.3 73.5682 146.001 72.7437V83.7491H147.279V70.9513H146.282Z" fill="#E4F0F0"/>
<circle cx="81" cy="42" r="18.5" fill="white" stroke="#78A5A9" stroke-width="3"/>
<line x1="96.1213" y1="55" x2="105" y2="63.8787" stroke="#78A5A9" stroke-width="3" stroke-linecap="round"/>
<path fill-rule="evenodd" clip-rule="evenodd" d="M113.445 66.787L105.422 58.7656L99.7655 64.4229L107.784 72.4399C107.799 72.4552 107.814 72.4704 107.829 72.4855C109.391 74.0475 111.924 74.0473 113.486 72.4851C115.047 70.9228 115.047 68.3902 113.485 66.8282C113.471 66.8146 113.458 66.8011 113.444 66.7877L113.445 66.787Z" fill="#E4F0F0"/>
<path d="M105.422 58.7656L106.129 58.0585L105.422 57.3514L104.715 58.0586L105.422 58.7656ZM113.445 66.787L114.152 67.4941L114.859 66.7869L114.152 66.0799L113.445 66.787ZM99.7655 64.4229L99.0583 63.7159L98.3513 64.4231L99.0584 65.1301L99.7655 64.4229ZM107.784 72.4399L108.502 71.7439L108.496 71.7383L108.491 71.7327L107.784 72.4399ZM113.444 66.7877L112.737 66.0806L112.02 66.7979L112.747 67.5048L113.444 66.7877ZM104.715 59.4728L112.738 67.4942L114.152 66.0799L106.129 58.0585L104.715 59.4728ZM100.473 65.13L106.129 59.4727L104.715 58.0586L99.0583 63.7159L100.473 65.13ZM108.491 71.7327L100.473 63.7158L99.0584 65.1301L107.077 73.147L108.491 71.7327ZM108.536 71.7783C108.524 71.7669 108.513 71.7554 108.502 71.7439L107.066 73.1358C107.084 73.1549 107.103 73.1739 107.122 73.1927L108.536 71.7783ZM112.778 71.778C111.607 72.9497 109.707 72.9498 108.536 71.7783L107.122 73.1927C109.074 75.1451 112.24 75.1449 114.193 73.1921L112.778 71.778ZM112.778 67.5354C113.95 68.7068 113.95 70.6063 112.778 71.778L114.193 73.1921C116.145 71.2393 116.145 68.0735 114.192 66.121L112.778 67.5354ZM112.747 67.5048C112.757 67.5149 112.768 67.5251 112.778 67.5354L114.192 66.121C114.175 66.1041 114.158 66.0873 114.141 66.0706L112.747 67.5048ZM112.737 66.08L112.737 66.0806L114.151 67.4947L114.152 67.4941L112.737 66.08Z" fill="#78A5A9"/>
<circle cx="75" cy="39" r="2" fill="#67888E"/>
<circle cx="87" cy="39" r="2" fill="#67888E"/>
<path d="M76 48.6766C78 46.1765 82.5 44.1766 86.5 48.6766" stroke="#67888E" stroke-width="2" stroke-linecap="round"/>
</svg>
