<svg width="315" height="219" viewBox="0 0 315 219" fill="none" xmlns="http://www.w3.org/2000/svg">
<rect x="1.52612" y="46.0176" width="308.947" height="160.877" rx="7" fill="white" stroke="#E0E0E0" stroke-width="2"/>
<rect x="46.8306" y="132.756" width="14.9369" height="41.8233" fill="#D1E3E5"/>
<rect x="99.1099" y="117.819" width="14.9369" height="56.7602" fill="#D1E3E5"/>
<rect x="151.389" y="96.4355" width="14.9369" height="78.1436" fill="#78A5A9"/>
<rect x="203.668" y="68.5273" width="14.9369" height="106.052" fill="#D1E3E5"/>
<rect x="255.947" y="86.4512" width="14.9369" height="88.1277" fill="#D1E3E5"/>
<g filter="url(#filter0_d)">
<rect x="160.936" y="8" width="117.222" height="140.667" rx="8" fill="#E4F0F0"/>
<rect x="161.936" y="9" width="115.222" height="138.667" rx="7" stroke="white" stroke-width="2"/>
</g>
<line x1="181.944" y1="31.4121" x2="260.851" y2="31.4121" stroke="white" stroke-width="5" stroke-linecap="round"/>
<line x1="181.944" y1="53.623" x2="225.067" y2="53.623" stroke="white" stroke-width="5" stroke-linecap="round"/>
<g filter="url(#filter1_d)">
<rect x="180.678" y="72.1641" width="113.52" height="35.1464" fill="#78A5A9"/>
</g>
<g filter="url(#filter2_d)">
<rect x="180.678" y="117.819" width="113.52" height="33.6819" fill="#67888E"/>
</g>
<g filter="url(#filter3_d)">
<rect x="180.678" y="161.006" width="113.52" height="35.1464" fill="#78A5A9"/>
</g>
<path d="M206.718 91.4528C206.06 92.7128 205.052 93.7628 203.68 94.6028L204.352 95.7228C205.892 94.5888 206.998 93.1608 207.67 91.4528H207.754V96.4788H209.028V91.4528H209.084C209.658 92.9788 210.624 94.3648 211.996 95.5968L212.822 94.5468C211.548 93.6228 210.624 92.6008 210.05 91.4528H212.374V90.2348H209.028V88.8208H207.754V90.2348H204.436V91.4528H206.718ZM201.678 96.4788C202.574 96.4788 203.022 96.0168 203.022 95.1068V91.1168C203.4 90.9488 203.778 90.7668 204.156 90.5708V89.2548C203.778 89.4508 203.4 89.6328 203.022 89.8008V87.4628H204.184V86.1888H203.022V83.6548H201.706V86.1888H200.152V87.4628H201.706V90.3188C201.104 90.5288 200.502 90.6968 199.886 90.8368L200.222 92.1668C200.726 92.0128 201.216 91.8448 201.706 91.6628V94.7848C201.706 95.1208 201.538 95.2888 201.216 95.2888C200.88 95.2888 200.516 95.2608 200.152 95.2048L200.432 96.4788H201.678ZM212.164 84.0888H204.576V86.9028H205.822V85.2788H210.918V86.8468H212.164V84.0888ZM206.83 85.8108C206.774 86.6228 206.564 87.2108 206.228 87.5748C205.878 87.9388 205.29 88.2608 204.45 88.5408L205.234 89.5208C206.214 89.1288 206.9 88.6808 207.32 88.1628C207.698 87.6588 207.922 86.8748 208.006 85.8108H206.83ZM208.818 85.7968V87.9108C208.818 88.5268 209.154 88.8488 209.826 88.8488H212.262V87.7148H210.414C210.148 87.7148 210.022 87.6028 210.022 87.3788V85.7968H208.818ZM215.97 84.7748V85.9228H217.16V90.4308H215.858V91.5788H216.502V94.7288C216.502 95.5968 216.922 96.0308 217.776 96.0308H222.438V95.8768L223.222 96.5768C224.762 94.7288 225.56 91.8168 225.616 87.8408H227.156C227.142 91.5368 227.1 93.7068 227.03 94.3648C226.946 94.9668 226.68 95.2748 226.246 95.2748C225.882 95.2748 225.476 95.2468 225.014 95.2188L225.28 96.3248C225.84 96.3528 226.218 96.3808 226.442 96.3808C227.492 96.3808 228.08 95.8628 228.22 94.8268C228.332 93.7908 228.402 91.0328 228.402 86.5528H225.616V83.6128H224.37V86.5528H223.152V87.8408H224.37C224.328 91.2848 223.684 93.8608 222.438 95.5408V94.8688H218.112C217.832 94.8688 217.706 94.7148 217.706 94.4208V93.7348L218.42 94.3648C219.12 93.7208 219.526 92.7828 219.638 91.5788H220.324V93.2448C220.324 93.8048 220.59 94.0848 221.136 94.0848H222.676V93.0768H221.668C221.472 93.0768 221.374 92.9648 221.374 92.7688V91.5788H223.306V90.4308H222.116V85.9228H223.264V84.7748H222.116V83.6268H220.912V84.7748H218.392V83.6408H217.16V84.7748H215.97ZM217.706 91.5788H218.574C218.476 92.4048 218.182 93.0488 217.706 93.5248V91.5788ZM218.392 90.4308V89.6468H220.912V90.4308H218.392ZM218.392 88.6388V87.7988H220.912V88.6388H218.392ZM218.392 86.7908V85.9228H220.912V86.7908H218.392ZM236.884 93.5388C235.498 94.0428 233.874 94.4488 232.012 94.7428L232.18 96.0728C233.944 95.7508 235.512 95.3308 236.884 94.8128V93.5388ZM234.154 83.5428C233.692 85.0828 233.16 86.4828 232.558 87.7428C232.39 87.9808 232.208 88.1488 231.998 88.2328L232.334 89.4508C233.02 89.3388 233.678 89.2408 234.308 89.1428C233.72 90.2908 233.216 91.0888 232.824 91.5648C232.656 91.7188 232.46 91.8448 232.222 91.9428L232.572 93.1468C233.832 92.9368 235.176 92.5448 236.576 91.9708V90.7528C235.736 91.1168 234.924 91.4108 234.126 91.6348C234.854 90.5988 235.736 88.9608 236.8 86.7348L235.638 86.3008C235.372 86.8748 235.12 87.4208 234.896 87.9248C234.448 88.0088 234 88.0648 233.552 88.1208C234.196 87.0708 234.812 85.7128 235.428 84.0468L234.154 83.5428ZM239.04 89.9688H241.224V91.5368H239.04V89.9688ZM239.04 92.7548H241.224V94.5468H239.04V92.7548ZM239.04 95.7788H244.864V94.5468H242.498V92.7548H244.346V91.5368H242.498V89.9688H244.346V88.7508H242.498V87.1548H244.584V85.8948H242.568C242.4 85.1948 242.148 84.4248 241.84 83.5708L240.552 83.9208C240.832 84.5508 241.084 85.2088 241.308 85.8948H239.138C239.39 85.2508 239.6 84.5928 239.768 83.9068L238.508 83.6548C238.074 85.5448 237.332 87.2948 236.282 88.8908L236.688 90.2348C237.08 89.7308 237.43 89.2128 237.766 88.6808V96.5068H239.04V95.7788ZM241.224 87.1548V88.7508H239.04V87.1548H241.224ZM250.98 91.2988V92.4328H251.918C252.506 93.1888 253.234 93.8468 254.116 94.4348C252.912 94.8968 251.526 95.2328 249.972 95.4568L250.546 96.6188C252.394 96.3108 254.032 95.8348 255.432 95.1768C256.762 95.8208 258.358 96.3108 260.22 96.6188L260.794 95.4708C259.254 95.2748 257.882 94.9388 256.692 94.4908C257.7 93.8748 258.554 93.1468 259.268 92.2788V91.2988H250.98ZM253.346 92.4328H257.476C256.86 92.9788 256.146 93.4688 255.334 93.8888C254.564 93.4688 253.906 92.9928 253.346 92.4328ZM250.364 88.3728H252.464V90.5288H258.33V88.3728H260.43V87.1408H258.33V86.1888H257.042V87.1408H253.752V86.2028H252.464V87.1408H250.364V85.8528H260.43V84.5928H255.726C255.586 84.2008 255.432 83.8368 255.278 83.5148L253.864 83.7388C254.032 83.9908 254.2 84.2848 254.354 84.5928H249.048V89.1568C249.02 91.9008 248.614 94.0568 247.858 95.5968L248.866 96.4928C249.818 94.6448 250.308 92.2088 250.364 89.1568V88.3728ZM253.752 88.3728H257.042V89.4228H253.752V88.3728ZM272.462 95.0928H270.626V87.7178C270.626 86.8376 270.647 86.1396 270.688 85.624C270.569 85.749 270.42 85.887 270.243 86.0381C270.071 86.1891 269.488 86.6683 268.493 87.4756L267.571 86.3115L270.931 83.6709H272.462V95.0928Z" fill="white"/>
<path d="M206.718 135.643C206.06 136.903 205.052 137.953 203.68 138.793L204.352 139.913C205.892 138.779 206.998 137.351 207.67 135.643H207.754V140.669H209.028V135.643H209.084C209.658 137.169 210.624 138.555 211.996 139.787L212.822 138.737C211.548 137.813 210.624 136.791 210.05 135.643H212.374V134.425H209.028V133.011H207.754V134.425H204.436V135.643H206.718ZM201.678 140.669C202.574 140.669 203.022 140.207 203.022 139.297V135.307C203.4 135.139 203.778 134.957 204.156 134.761V133.445C203.778 133.641 203.4 133.823 203.022 133.991V131.653H204.184V130.379H203.022V127.845H201.706V130.379H200.152V131.653H201.706V134.509C201.104 134.719 200.502 134.887 199.886 135.027L200.222 136.357C200.726 136.203 201.216 136.035 201.706 135.853V138.975C201.706 139.311 201.538 139.479 201.216 139.479C200.88 139.479 200.516 139.451 200.152 139.395L200.432 140.669H201.678ZM212.164 128.279H204.576V131.093H205.822V129.469H210.918V131.037H212.164V128.279ZM206.83 130.001C206.774 130.813 206.564 131.401 206.228 131.765C205.878 132.129 205.29 132.451 204.45 132.731L205.234 133.711C206.214 133.319 206.9 132.871 207.32 132.353C207.698 131.849 207.922 131.065 208.006 130.001H206.83ZM208.818 129.987V132.101C208.818 132.717 209.154 133.039 209.826 133.039H212.262V131.905H210.414C210.148 131.905 210.022 131.793 210.022 131.569V129.987H208.818ZM215.97 128.965V130.113H217.16V134.621H215.858V135.769H216.502V138.919C216.502 139.787 216.922 140.221 217.776 140.221H222.438V140.067L223.222 140.767C224.762 138.919 225.56 136.007 225.616 132.031H227.156C227.142 135.727 227.1 137.897 227.03 138.555C226.946 139.157 226.68 139.465 226.246 139.465C225.882 139.465 225.476 139.437 225.014 139.409L225.28 140.515C225.84 140.543 226.218 140.571 226.442 140.571C227.492 140.571 228.08 140.053 228.22 139.017C228.332 137.981 228.402 135.223 228.402 130.743H225.616V127.803H224.37V130.743H223.152V132.031H224.37C224.328 135.475 223.684 138.051 222.438 139.731V139.059H218.112C217.832 139.059 217.706 138.905 217.706 138.611V137.925L218.42 138.555C219.12 137.911 219.526 136.973 219.638 135.769H220.324V137.435C220.324 137.995 220.59 138.275 221.136 138.275H222.676V137.267H221.668C221.472 137.267 221.374 137.155 221.374 136.959V135.769H223.306V134.621H222.116V130.113H223.264V128.965H222.116V127.817H220.912V128.965H218.392V127.831H217.16V128.965H215.97ZM217.706 135.769H218.574C218.476 136.595 218.182 137.239 217.706 137.715V135.769ZM218.392 134.621V133.837H220.912V134.621H218.392ZM218.392 132.829V131.989H220.912V132.829H218.392ZM218.392 130.981V130.113H220.912V130.981H218.392ZM236.884 137.729C235.498 138.233 233.874 138.639 232.012 138.933L232.18 140.263C233.944 139.941 235.512 139.521 236.884 139.003V137.729ZM234.154 127.733C233.692 129.273 233.16 130.673 232.558 131.933C232.39 132.171 232.208 132.339 231.998 132.423L232.334 133.641C233.02 133.529 233.678 133.431 234.308 133.333C233.72 134.481 233.216 135.279 232.824 135.755C232.656 135.909 232.46 136.035 232.222 136.133L232.572 137.337C233.832 137.127 235.176 136.735 236.576 136.161V134.943C235.736 135.307 234.924 135.601 234.126 135.825C234.854 134.789 235.736 133.151 236.8 130.925L235.638 130.491C235.372 131.065 235.12 131.611 234.896 132.115C234.448 132.199 234 132.255 233.552 132.311C234.196 131.261 234.812 129.903 235.428 128.237L234.154 127.733ZM239.04 134.159H241.224V135.727H239.04V134.159ZM239.04 136.945H241.224V138.737H239.04V136.945ZM239.04 139.969H244.864V138.737H242.498V136.945H244.346V135.727H242.498V134.159H244.346V132.941H242.498V131.345H244.584V130.085H242.568C242.4 129.385 242.148 128.615 241.84 127.761L240.552 128.111C240.832 128.741 241.084 129.399 241.308 130.085H239.138C239.39 129.441 239.6 128.783 239.768 128.097L238.508 127.845C238.074 129.735 237.332 131.485 236.282 133.081L236.688 134.425C237.08 133.921 237.43 133.403 237.766 132.871V140.697H239.04V139.969ZM241.224 131.345V132.941H239.04V131.345H241.224ZM250.98 135.489V136.623H251.918C252.506 137.379 253.234 138.037 254.116 138.625C252.912 139.087 251.526 139.423 249.972 139.647L250.546 140.809C252.394 140.501 254.032 140.025 255.432 139.367C256.762 140.011 258.358 140.501 260.22 140.809L260.794 139.661C259.254 139.465 257.882 139.129 256.692 138.681C257.7 138.065 258.554 137.337 259.268 136.469V135.489H250.98ZM253.346 136.623H257.476C256.86 137.169 256.146 137.659 255.334 138.079C254.564 137.659 253.906 137.183 253.346 136.623ZM250.364 132.563H252.464V134.719H258.33V132.563H260.43V131.331H258.33V130.379H257.042V131.331H253.752V130.393H252.464V131.331H250.364V130.043H260.43V128.783H255.726C255.586 128.391 255.432 128.027 255.278 127.705L253.864 127.929C254.032 128.181 254.2 128.475 254.354 128.783H249.048V133.347C249.02 136.091 248.614 138.247 247.858 139.787L248.866 140.683C249.818 138.835 250.308 136.399 250.364 133.347V132.563ZM253.752 132.563H257.042V133.613H253.752V132.563ZM274.813 139.283H267.071V137.893L270.017 134.932C270.886 134.041 271.462 133.411 271.743 133.041C272.03 132.666 272.238 132.314 272.368 131.986C272.498 131.658 272.563 131.307 272.563 130.932C272.563 130.416 272.407 130.01 272.095 129.713C271.787 129.416 271.36 129.268 270.813 129.268C270.376 129.268 269.951 129.348 269.54 129.51C269.134 129.671 268.662 129.963 268.126 130.385L267.134 129.174C267.769 128.637 268.386 128.257 268.985 128.033C269.584 127.809 270.222 127.697 270.899 127.697C271.962 127.697 272.813 127.976 273.454 128.533C274.095 129.085 274.415 129.83 274.415 130.768C274.415 131.283 274.321 131.773 274.134 132.236C273.951 132.7 273.668 133.179 273.282 133.674C272.902 134.163 272.267 134.827 271.376 135.666L269.392 137.588V137.666H274.813V139.283Z" fill="white"/>
<path d="M206.718 179.831C206.06 181.091 205.052 182.141 203.68 182.981L204.352 184.101C205.892 182.967 206.998 181.539 207.67 179.831H207.754V184.857H209.028V179.831H209.084C209.658 181.357 210.624 182.743 211.996 183.975L212.822 182.925C211.548 182.001 210.624 180.979 210.05 179.831H212.374V178.613H209.028V177.199H207.754V178.613H204.436V179.831H206.718ZM201.678 184.857C202.574 184.857 203.022 184.395 203.022 183.485V179.495C203.4 179.327 203.778 179.145 204.156 178.949V177.633C203.778 177.829 203.4 178.011 203.022 178.179V175.841H204.184V174.567H203.022V172.033H201.706V174.567H200.152V175.841H201.706V178.697C201.104 178.907 200.502 179.075 199.886 179.215L200.222 180.545C200.726 180.391 201.216 180.223 201.706 180.041V183.163C201.706 183.499 201.538 183.667 201.216 183.667C200.88 183.667 200.516 183.639 200.152 183.583L200.432 184.857H201.678ZM212.164 172.467H204.576V175.281H205.822V173.657H210.918V175.225H212.164V172.467ZM206.83 174.189C206.774 175.001 206.564 175.589 206.228 175.953C205.878 176.317 205.29 176.639 204.45 176.919L205.234 177.899C206.214 177.507 206.9 177.059 207.32 176.541C207.698 176.037 207.922 175.253 208.006 174.189H206.83ZM208.818 174.175V176.289C208.818 176.905 209.154 177.227 209.826 177.227H212.262V176.093H210.414C210.148 176.093 210.022 175.981 210.022 175.757V174.175H208.818ZM215.97 173.153V174.301H217.16V178.809H215.858V179.957H216.502V183.107C216.502 183.975 216.922 184.409 217.776 184.409H222.438V184.255L223.222 184.955C224.762 183.107 225.56 180.195 225.616 176.219H227.156C227.142 179.915 227.1 182.085 227.03 182.743C226.946 183.345 226.68 183.653 226.246 183.653C225.882 183.653 225.476 183.625 225.014 183.597L225.28 184.703C225.84 184.731 226.218 184.759 226.442 184.759C227.492 184.759 228.08 184.241 228.22 183.205C228.332 182.169 228.402 179.411 228.402 174.931H225.616V171.991H224.37V174.931H223.152V176.219H224.37C224.328 179.663 223.684 182.239 222.438 183.919V183.247H218.112C217.832 183.247 217.706 183.093 217.706 182.799V182.113L218.42 182.743C219.12 182.099 219.526 181.161 219.638 179.957H220.324V181.623C220.324 182.183 220.59 182.463 221.136 182.463H222.676V181.455H221.668C221.472 181.455 221.374 181.343 221.374 181.147V179.957H223.306V178.809H222.116V174.301H223.264V173.153H222.116V172.005H220.912V173.153H218.392V172.019H217.16V173.153H215.97ZM217.706 179.957H218.574C218.476 180.783 218.182 181.427 217.706 181.903V179.957ZM218.392 178.809V178.025H220.912V178.809H218.392ZM218.392 177.017V176.177H220.912V177.017H218.392ZM218.392 175.169V174.301H220.912V175.169H218.392ZM236.884 181.917C235.498 182.421 233.874 182.827 232.012 183.121L232.18 184.451C233.944 184.129 235.512 183.709 236.884 183.191V181.917ZM234.154 171.921C233.692 173.461 233.16 174.861 232.558 176.121C232.39 176.359 232.208 176.527 231.998 176.611L232.334 177.829C233.02 177.717 233.678 177.619 234.308 177.521C233.72 178.669 233.216 179.467 232.824 179.943C232.656 180.097 232.46 180.223 232.222 180.321L232.572 181.525C233.832 181.315 235.176 180.923 236.576 180.349V179.131C235.736 179.495 234.924 179.789 234.126 180.013C234.854 178.977 235.736 177.339 236.8 175.113L235.638 174.679C235.372 175.253 235.12 175.799 234.896 176.303C234.448 176.387 234 176.443 233.552 176.499C234.196 175.449 234.812 174.091 235.428 172.425L234.154 171.921ZM239.04 178.347H241.224V179.915H239.04V178.347ZM239.04 181.133H241.224V182.925H239.04V181.133ZM239.04 184.157H244.864V182.925H242.498V181.133H244.346V179.915H242.498V178.347H244.346V177.129H242.498V175.533H244.584V174.273H242.568C242.4 173.573 242.148 172.803 241.84 171.949L240.552 172.299C240.832 172.929 241.084 173.587 241.308 174.273H239.138C239.39 173.629 239.6 172.971 239.768 172.285L238.508 172.033C238.074 173.923 237.332 175.673 236.282 177.269L236.688 178.613C237.08 178.109 237.43 177.591 237.766 177.059V184.885H239.04V184.157ZM241.224 175.533V177.129H239.04V175.533H241.224ZM250.98 179.677V180.811H251.918C252.506 181.567 253.234 182.225 254.116 182.813C252.912 183.275 251.526 183.611 249.972 183.835L250.546 184.997C252.394 184.689 254.032 184.213 255.432 183.555C256.762 184.199 258.358 184.689 260.22 184.997L260.794 183.849C259.254 183.653 257.882 183.317 256.692 182.869C257.7 182.253 258.554 181.525 259.268 180.657V179.677H250.98ZM253.346 180.811H257.476C256.86 181.357 256.146 181.847 255.334 182.267C254.564 181.847 253.906 181.371 253.346 180.811ZM250.364 176.751H252.464V178.907H258.33V176.751H260.43V175.519H258.33V174.567H257.042V175.519H253.752V174.581H252.464V175.519H250.364V174.231H260.43V172.971H255.726C255.586 172.579 255.432 172.215 255.278 171.893L253.864 172.117C254.032 172.369 254.2 172.663 254.354 172.971H249.048V177.535C249.02 180.279 248.614 182.435 247.858 183.975L248.866 184.871C249.818 183.023 250.308 180.587 250.364 177.535V176.751ZM253.752 176.751H257.042V177.801H253.752V176.751ZM274.384 174.674C274.384 175.398 274.173 176.002 273.751 176.486C273.329 176.965 272.735 177.288 271.97 177.455V177.518C272.886 177.632 273.574 177.919 274.032 178.377C274.491 178.83 274.72 179.434 274.72 180.189C274.72 181.288 274.332 182.137 273.556 182.736C272.78 183.33 271.675 183.627 270.243 183.627C268.978 183.627 267.91 183.421 267.04 183.01V181.377C267.524 181.617 268.037 181.801 268.579 181.932C269.121 182.062 269.642 182.127 270.142 182.127C271.027 182.127 271.688 181.963 272.126 181.635C272.563 181.307 272.782 180.799 272.782 180.111C272.782 179.502 272.54 179.054 272.056 178.768C271.571 178.481 270.811 178.338 269.774 178.338H268.782V176.846H269.79C271.613 176.846 272.524 176.215 272.524 174.955C272.524 174.465 272.366 174.088 272.048 173.822C271.73 173.557 271.261 173.424 270.642 173.424C270.209 173.424 269.793 173.486 269.392 173.611C268.991 173.731 268.517 173.968 267.97 174.322L267.071 173.041C268.118 172.27 269.334 171.885 270.72 171.885C271.871 171.885 272.769 172.132 273.415 172.627C274.061 173.122 274.384 173.804 274.384 174.674Z" fill="white"/>
<path d="M277.7 167.578L278.701 137.578L302.716 154.601L292.927 159.679L302.506 178.144L296.524 181.247L286.945 162.782L277.7 167.578Z" fill="white" stroke="#48666A" stroke-width="2"/>
<defs>
<filter id="filter0_d" x="148.936" y="0" width="141.222" height="164.667" filterUnits="userSpaceOnUse" color-interpolation-filters="sRGB">
<feFlood flood-opacity="0" result="BackgroundImageFix"/>
<feColorMatrix in="SourceAlpha" type="matrix" values="0 0 0 0 0 0 0 0 0 0 0 0 0 0 0 0 0 0 127 0"/>
<feOffset dy="4"/>
<feGaussianBlur stdDeviation="6"/>
<feColorMatrix type="matrix" values="0 0 0 0 0 0 0 0 0 0 0 0 0 0 0 0 0 0 0.08 0"/>
<feBlend mode="normal" in2="BackgroundImageFix" result="effect1_dropShadow"/>
<feBlend mode="normal" in="SourceGraphic" in2="effect1_dropShadow" result="shape"/>
</filter>
<filter id="filter1_d" x="160.678" y="60.1641" width="145.52" height="67.1464" filterUnits="userSpaceOnUse" color-interpolation-filters="sRGB">
<feFlood flood-opacity="0" result="BackgroundImageFix"/>
<feColorMatrix in="SourceAlpha" type="matrix" values="0 0 0 0 0 0 0 0 0 0 0 0 0 0 0 0 0 0 127 0"/>
<feOffset dx="-4" dy="4"/>
<feGaussianBlur stdDeviation="8"/>
<feColorMatrix type="matrix" values="0 0 0 0 0 0 0 0 0 0 0 0 0 0 0 0 0 0 0.12 0"/>
<feBlend mode="normal" in2="BackgroundImageFix" result="effect1_dropShadow"/>
<feBlend mode="normal" in="SourceGraphic" in2="effect1_dropShadow" result="shape"/>
</filter>
<filter id="filter2_d" x="160.678" y="105.819" width="145.52" height="65.6819" filterUnits="userSpaceOnUse" color-interpolation-filters="sRGB">
<feFlood flood-opacity="0" result="BackgroundImageFix"/>
<feColorMatrix in="SourceAlpha" type="matrix" values="0 0 0 0 0 0 0 0 0 0 0 0 0 0 0 0 0 0 127 0"/>
<feOffset dx="-4" dy="4"/>
<feGaussianBlur stdDeviation="8"/>
<feColorMatrix type="matrix" values="0 0 0 0 0 0 0 0 0 0 0 0 0 0 0 0 0 0 0.12 0"/>
<feBlend mode="normal" in2="BackgroundImageFix" result="effect1_dropShadow"/>
<feBlend mode="normal" in="SourceGraphic" in2="effect1_dropShadow" result="shape"/>
</filter>
<filter id="filter3_d" x="160.678" y="149.006" width="145.52" height="67.1464" filterUnits="userSpaceOnUse" color-interpolation-filters="sRGB">
<feFlood flood-opacity="0" result="BackgroundImageFix"/>
<feColorMatrix in="SourceAlpha" type="matrix" values="0 0 0 0 0 0 0 0 0 0 0 0 0 0 0 0 0 0 127 0"/>
<feOffset dx="-4" dy="4"/>
<feGaussianBlur stdDeviation="8"/>
<feColorMatrix type="matrix" values="0 0 0 0 0 0 0 0 0 0 0 0 0 0 0 0 0 0 0.12 0"/>
<feBlend mode="normal" in2="BackgroundImageFix" result="effect1_dropShadow"/>
<feBlend mode="normal" in="SourceGraphic" in2="effect1_dropShadow" result="shape"/>
</filter>
</defs>
</svg>
