<svg width="394" height="210" viewBox="0 0 394 210" fill="none" xmlns="http://www.w3.org/2000/svg">
<path d="M28.4 4.896C26.852 4.896 25.7 5.562 24.926 6.93C24.242 8.082 23.9 9.63 23.9 11.574C23.9 13.518 24.242 15.066 24.926 16.218C25.7 17.568 26.852 18.252 28.4 18.252C29.93 18.252 31.082 17.568 31.874 16.218C32.558 15.066 32.9 13.518 32.9 11.574C32.9 9.63 32.558 8.082 31.874 6.93C31.082 5.562 29.93 4.896 28.4 4.896ZM28.4 6.156C29.552 6.156 30.38 6.768 30.884 8.01C31.244 8.874 31.442 10.062 31.442 11.574C31.442 13.068 31.244 14.256 30.884 15.138C30.38 16.362 29.552 16.992 28.4 16.992C27.248 16.992 26.42 16.362 25.916 15.138C25.556 14.256 25.376 13.068 25.376 11.574C25.376 10.062 25.556 8.874 25.916 8.01C26.42 6.768 27.248 6.156 28.4 6.156ZM40.633 5.148C40.201 5.634 39.697 6.066 39.085 6.462C38.473 6.822 37.861 7.074 37.285 7.236V8.712C38.491 8.352 39.499 7.776 40.309 6.948V18H41.785V5.148H40.633ZM50.5576 5.148C50.1256 5.634 49.6216 6.066 49.0096 6.462C48.3976 6.822 47.7856 7.074 47.2096 7.236V8.712C48.4156 8.352 49.4236 7.776 50.2336 6.948V18H51.7096V5.148H50.5576ZM60.4822 5.148C60.0502 5.634 59.5462 6.066 58.9342 6.462C58.3222 6.822 57.7102 7.074 57.1342 7.236V8.712C58.3402 8.352 59.3482 7.776 60.1582 6.948V18H61.6342V5.148H60.4822ZM71.6668 4.896C70.1188 4.896 68.9668 5.562 68.1928 6.93C67.5088 8.082 67.1668 9.63 67.1668 11.574C67.1668 13.518 67.5088 15.066 68.1928 16.218C68.9668 17.568 70.1188 18.252 71.6668 18.252C73.1968 18.252 74.3488 17.568 75.1408 16.218C75.8248 15.066 76.1668 13.518 76.1668 11.574C76.1668 9.63 75.8248 8.082 75.1408 6.93C74.3488 5.562 73.1968 4.896 71.6668 4.896ZM71.6668 6.156C72.8188 6.156 73.6468 6.768 74.1508 8.01C74.5108 8.874 74.7088 10.062 74.7088 11.574C74.7088 13.068 74.5108 14.256 74.1508 15.138C73.6468 16.362 72.8188 16.992 71.6668 16.992C70.5148 16.992 69.6868 16.362 69.1828 15.138C68.8228 14.256 68.6428 13.068 68.6428 11.574C68.6428 10.062 68.8228 8.874 69.1828 8.01C69.6868 6.768 70.5148 6.156 71.6668 6.156ZM85.1598 4.896C83.6118 4.896 82.4598 5.562 81.6858 6.93C81.0018 8.082 80.6598 9.63 80.6598 11.574C80.6598 13.518 81.0018 15.066 81.6858 16.218C82.4598 17.568 83.6118 18.252 85.1598 18.252C86.6898 18.252 87.8418 17.568 88.6338 16.218C89.3178 15.066 89.6598 13.518 89.6598 11.574C89.6598 9.63 89.3178 8.082 88.6338 6.93C87.8418 5.562 86.6898 4.896 85.1598 4.896ZM85.1598 6.156C86.3118 6.156 87.1398 6.768 87.6438 8.01C88.0038 8.874 88.2018 10.062 88.2018 11.574C88.2018 13.068 88.0038 14.256 87.6438 15.138C87.1398 16.362 86.3118 16.992 85.1598 16.992C84.0078 16.992 83.1798 16.362 82.6758 15.138C82.3158 14.256 82.1358 13.068 82.1358 11.574C82.1358 10.062 82.3158 8.874 82.6758 8.01C83.1798 6.768 84.0078 6.156 85.1598 6.156ZM98.6527 4.896C97.1047 4.896 95.9527 5.562 95.1787 6.93C94.4947 8.082 94.1527 9.63 94.1527 11.574C94.1527 13.518 94.4947 15.066 95.1787 16.218C95.9527 17.568 97.1047 18.252 98.6527 18.252C100.183 18.252 101.335 17.568 102.127 16.218C102.811 15.066 103.153 13.518 103.153 11.574C103.153 9.63 102.811 8.082 102.127 6.93C101.335 5.562 100.183 4.896 98.6527 4.896ZM98.6527 6.156C99.8047 6.156 100.633 6.768 101.137 8.01C101.497 8.874 101.695 10.062 101.695 11.574C101.695 13.068 101.497 14.256 101.137 15.138C100.633 16.362 99.8047 16.992 98.6527 16.992C97.5007 16.992 96.6727 16.362 96.1687 15.138C95.8087 14.256 95.6287 13.068 95.6287 11.574C95.6287 10.062 95.8087 8.874 96.1687 8.01C96.6727 6.768 97.5007 6.156 98.6527 6.156ZM112.146 4.896C110.598 4.896 109.446 5.562 108.672 6.93C107.988 8.082 107.646 9.63 107.646 11.574C107.646 13.518 107.988 15.066 108.672 16.218C109.446 17.568 110.598 18.252 112.146 18.252C113.676 18.252 114.828 17.568 115.62 16.218C116.304 15.066 116.646 13.518 116.646 11.574C116.646 9.63 116.304 8.082 115.62 6.93C114.828 5.562 113.676 4.896 112.146 4.896ZM112.146 6.156C113.298 6.156 114.126 6.768 114.63 8.01C114.99 8.874 115.188 10.062 115.188 11.574C115.188 13.068 114.99 14.256 114.63 15.138C114.126 16.362 113.298 16.992 112.146 16.992C110.994 16.992 110.166 16.362 109.662 15.138C109.302 14.256 109.122 13.068 109.122 11.574C109.122 10.062 109.302 8.874 109.662 8.01C110.166 6.768 110.994 6.156 112.146 6.156ZM124.379 5.148C123.947 5.634 123.443 6.066 122.831 6.462C122.219 6.822 121.607 7.074 121.031 7.236V8.712C122.237 8.352 123.245 7.776 124.055 6.948V18H125.531V5.148H124.379ZM134.303 5.148C133.871 5.634 133.367 6.066 132.755 6.462C132.143 6.822 131.531 7.074 130.955 7.236V8.712C132.161 8.352 133.169 7.776 133.979 6.948V18H135.455V5.148H134.303ZM145.488 4.896C143.94 4.896 142.788 5.562 142.014 6.93C141.33 8.082 140.988 9.63 140.988 11.574C140.988 13.518 141.33 15.066 142.014 16.218C142.788 17.568 143.94 18.252 145.488 18.252C147.018 18.252 148.17 17.568 148.962 16.218C149.646 15.066 149.988 13.518 149.988 11.574C149.988 9.63 149.646 8.082 148.962 6.93C148.17 5.562 147.018 4.896 145.488 4.896ZM145.488 6.156C146.64 6.156 147.468 6.768 147.972 8.01C148.332 8.874 148.53 10.062 148.53 11.574C148.53 13.068 148.332 14.256 147.972 15.138C147.468 16.362 146.64 16.992 145.488 16.992C144.336 16.992 143.508 16.362 143.004 15.138C142.644 14.256 142.464 13.068 142.464 11.574C142.464 10.062 142.644 8.874 143.004 8.01C143.508 6.768 144.336 6.156 145.488 6.156ZM157.721 5.148C157.289 5.634 156.785 6.066 156.173 6.462C155.561 6.822 154.949 7.074 154.373 7.236V8.712C155.579 8.352 156.587 7.776 157.397 6.948V18H158.873V5.148H157.721ZM168.905 4.896C167.357 4.896 166.205 5.562 165.431 6.93C164.747 8.082 164.405 9.63 164.405 11.574C164.405 13.518 164.747 15.066 165.431 16.218C166.205 17.568 167.357 18.252 168.905 18.252C170.435 18.252 171.587 17.568 172.379 16.218C173.063 15.066 173.405 13.518 173.405 11.574C173.405 9.63 173.063 8.082 172.379 6.93C171.587 5.562 170.435 4.896 168.905 4.896ZM168.905 6.156C170.057 6.156 170.885 6.768 171.389 8.01C171.749 8.874 171.947 10.062 171.947 11.574C171.947 13.068 171.749 14.256 171.389 15.138C170.885 16.362 170.057 16.992 168.905 16.992C167.753 16.992 166.925 16.362 166.421 15.138C166.061 14.256 165.881 13.068 165.881 11.574C165.881 10.062 166.061 8.874 166.421 8.01C166.925 6.768 167.753 6.156 168.905 6.156ZM182.398 4.896C180.85 4.896 179.698 5.562 178.924 6.93C178.24 8.082 177.898 9.63 177.898 11.574C177.898 13.518 178.24 15.066 178.924 16.218C179.698 17.568 180.85 18.252 182.398 18.252C183.928 18.252 185.08 17.568 185.872 16.218C186.556 15.066 186.898 13.518 186.898 11.574C186.898 9.63 186.556 8.082 185.872 6.93C185.08 5.562 183.928 4.896 182.398 4.896ZM182.398 6.156C183.55 6.156 184.378 6.768 184.882 8.01C185.242 8.874 185.44 10.062 185.44 11.574C185.44 13.068 185.242 14.256 184.882 15.138C184.378 16.362 183.55 16.992 182.398 16.992C181.246 16.992 180.418 16.362 179.914 15.138C179.554 14.256 179.374 13.068 179.374 11.574C179.374 10.062 179.554 8.874 179.914 8.01C180.418 6.768 181.246 6.156 182.398 6.156ZM194.631 5.148C194.199 5.634 193.695 6.066 193.083 6.462C192.471 6.822 191.859 7.074 191.283 7.236V8.712C192.489 8.352 193.497 7.776 194.307 6.948V18H195.783V5.148H194.631ZM204.556 5.148C204.124 5.634 203.62 6.066 203.008 6.462C202.396 6.822 201.784 7.074 201.208 7.236V8.712C202.414 8.352 203.422 7.776 204.232 6.948V18H205.708V5.148H204.556ZM215.741 4.896C214.193 4.896 213.041 5.562 212.267 6.93C211.583 8.082 211.241 9.63 211.241 11.574C211.241 13.518 211.583 15.066 212.267 16.218C213.041 17.568 214.193 18.252 215.741 18.252C217.271 18.252 218.423 17.568 219.215 16.218C219.899 15.066 220.241 13.518 220.241 11.574C220.241 9.63 219.899 8.082 219.215 6.93C218.423 5.562 217.271 4.896 215.741 4.896ZM215.741 6.156C216.893 6.156 217.721 6.768 218.225 8.01C218.585 8.874 218.783 10.062 218.783 11.574C218.783 13.068 218.585 14.256 218.225 15.138C217.721 16.362 216.893 16.992 215.741 16.992C214.589 16.992 213.761 16.362 213.257 15.138C212.897 14.256 212.717 13.068 212.717 11.574C212.717 10.062 212.897 8.874 213.257 8.01C213.761 6.768 214.589 6.156 215.741 6.156ZM227.974 5.148C227.542 5.634 227.038 6.066 226.426 6.462C225.814 6.822 225.202 7.074 224.626 7.236V8.712C225.832 8.352 226.84 7.776 227.65 6.948V18H229.126V5.148H227.974ZM239.158 4.896C237.61 4.896 236.458 5.562 235.684 6.93C235 8.082 234.658 9.63 234.658 11.574C234.658 13.518 235 15.066 235.684 16.218C236.458 17.568 237.61 18.252 239.158 18.252C240.688 18.252 241.84 17.568 242.632 16.218C243.316 15.066 243.658 13.518 243.658 11.574C243.658 9.63 243.316 8.082 242.632 6.93C241.84 5.562 240.688 4.896 239.158 4.896ZM239.158 6.156C240.31 6.156 241.138 6.768 241.642 8.01C242.002 8.874 242.2 10.062 242.2 11.574C242.2 13.068 242.002 14.256 241.642 15.138C241.138 16.362 240.31 16.992 239.158 16.992C238.006 16.992 237.178 16.362 236.674 15.138C236.314 14.256 236.134 13.068 236.134 11.574C236.134 10.062 236.314 8.874 236.674 8.01C237.178 6.768 238.006 6.156 239.158 6.156ZM251.391 5.148C250.959 5.634 250.455 6.066 249.843 6.462C249.231 6.822 248.619 7.074 248.043 7.236V8.712C249.249 8.352 250.257 7.776 251.067 6.948V18H252.543V5.148H251.391ZM262.576 4.896C261.028 4.896 259.876 5.562 259.102 6.93C258.418 8.082 258.076 9.63 258.076 11.574C258.076 13.518 258.418 15.066 259.102 16.218C259.876 17.568 261.028 18.252 262.576 18.252C264.106 18.252 265.258 17.568 266.05 16.218C266.734 15.066 267.076 13.518 267.076 11.574C267.076 9.63 266.734 8.082 266.05 6.93C265.258 5.562 264.106 4.896 262.576 4.896ZM262.576 6.156C263.728 6.156 264.556 6.768 265.06 8.01C265.42 8.874 265.618 10.062 265.618 11.574C265.618 13.068 265.42 14.256 265.06 15.138C264.556 16.362 263.728 16.992 262.576 16.992C261.424 16.992 260.596 16.362 260.092 15.138C259.732 14.256 259.552 13.068 259.552 11.574C259.552 10.062 259.732 8.874 260.092 8.01C260.596 6.768 261.424 6.156 262.576 6.156ZM276.069 4.896C274.521 4.896 273.369 5.562 272.595 6.93C271.911 8.082 271.569 9.63 271.569 11.574C271.569 13.518 271.911 15.066 272.595 16.218C273.369 17.568 274.521 18.252 276.069 18.252C277.599 18.252 278.751 17.568 279.543 16.218C280.227 15.066 280.569 13.518 280.569 11.574C280.569 9.63 280.227 8.082 279.543 6.93C278.751 5.562 277.599 4.896 276.069 4.896ZM276.069 6.156C277.221 6.156 278.049 6.768 278.553 8.01C278.913 8.874 279.111 10.062 279.111 11.574C279.111 13.068 278.913 14.256 278.553 15.138C278.049 16.362 277.221 16.992 276.069 16.992C274.917 16.992 274.089 16.362 273.585 15.138C273.225 14.256 273.045 13.068 273.045 11.574C273.045 10.062 273.225 8.874 273.585 8.01C274.089 6.768 274.917 6.156 276.069 6.156ZM288.302 5.148C287.87 5.634 287.366 6.066 286.754 6.462C286.142 6.822 285.53 7.074 284.954 7.236V8.712C286.16 8.352 287.168 7.776 287.978 6.948V18H289.454V5.148H288.302ZM299.486 4.896C297.938 4.896 296.786 5.562 296.012 6.93C295.328 8.082 294.986 9.63 294.986 11.574C294.986 13.518 295.328 15.066 296.012 16.218C296.786 17.568 297.938 18.252 299.486 18.252C301.016 18.252 302.168 17.568 302.96 16.218C303.644 15.066 303.986 13.518 303.986 11.574C303.986 9.63 303.644 8.082 302.96 6.93C302.168 5.562 301.016 4.896 299.486 4.896ZM299.486 6.156C300.638 6.156 301.466 6.768 301.97 8.01C302.33 8.874 302.528 10.062 302.528 11.574C302.528 13.068 302.33 14.256 301.97 15.138C301.466 16.362 300.638 16.992 299.486 16.992C298.334 16.992 297.506 16.362 297.002 15.138C296.642 14.256 296.462 13.068 296.462 11.574C296.462 10.062 296.642 8.874 297.002 8.01C297.506 6.768 298.334 6.156 299.486 6.156ZM311.719 5.148C311.287 5.634 310.783 6.066 310.171 6.462C309.559 6.822 308.947 7.074 308.371 7.236V8.712C309.577 8.352 310.585 7.776 311.395 6.948V18H312.871V5.148H311.719ZM321.644 5.148C321.212 5.634 320.708 6.066 320.096 6.462C319.484 6.822 318.872 7.074 318.296 7.236V8.712C319.502 8.352 320.51 7.776 321.32 6.948V18H322.796V5.148H321.644ZM331.569 5.148C331.137 5.634 330.633 6.066 330.021 6.462C329.409 6.822 328.797 7.074 328.221 7.236V8.712C329.427 8.352 330.435 7.776 331.245 6.948V18H332.721V5.148H331.569ZM342.753 4.896C341.205 4.896 340.053 5.562 339.279 6.93C338.595 8.082 338.253 9.63 338.253 11.574C338.253 13.518 338.595 15.066 339.279 16.218C340.053 17.568 341.205 18.252 342.753 18.252C344.283 18.252 345.435 17.568 346.227 16.218C346.911 15.066 347.253 13.518 347.253 11.574C347.253 9.63 346.911 8.082 346.227 6.93C345.435 5.562 344.283 4.896 342.753 4.896ZM342.753 6.156C343.905 6.156 344.733 6.768 345.237 8.01C345.597 8.874 345.795 10.062 345.795 11.574C345.795 13.068 345.597 14.256 345.237 15.138C344.733 16.362 343.905 16.992 342.753 16.992C341.601 16.992 340.773 16.362 340.269 15.138C339.909 14.256 339.729 13.068 339.729 11.574C339.729 10.062 339.909 8.874 340.269 8.01C340.773 6.768 341.601 6.156 342.753 6.156ZM356.246 4.896C354.698 4.896 353.546 5.562 352.772 6.93C352.088 8.082 351.746 9.63 351.746 11.574C351.746 13.518 352.088 15.066 352.772 16.218C353.546 17.568 354.698 18.252 356.246 18.252C357.776 18.252 358.928 17.568 359.72 16.218C360.404 15.066 360.746 13.518 360.746 11.574C360.746 9.63 360.404 8.082 359.72 6.93C358.928 5.562 357.776 4.896 356.246 4.896ZM356.246 6.156C357.398 6.156 358.226 6.768 358.73 8.01C359.09 8.874 359.288 10.062 359.288 11.574C359.288 13.068 359.09 14.256 358.73 15.138C358.226 16.362 357.398 16.992 356.246 16.992C355.094 16.992 354.266 16.362 353.762 15.138C353.402 14.256 353.222 13.068 353.222 11.574C353.222 10.062 353.402 8.874 353.762 8.01C354.266 6.768 355.094 6.156 356.246 6.156Z" fill="#E4F0F0"/>
<path d="M40.0293 28.148C39.5973 28.634 39.0933 29.066 38.4813 29.462C37.8693 29.822 37.2573 30.074 36.6813 30.236V31.712C37.8873 31.352 38.8953 30.776 39.7053 29.948V41H41.1813V28.148H40.0293ZM51.2139 27.896C49.6659 27.896 48.5139 28.562 47.7399 29.93C47.0559 31.082 46.7139 32.63 46.7139 34.574C46.7139 36.518 47.0559 38.066 47.7399 39.218C48.5139 40.568 49.6659 41.252 51.2139 41.252C52.7439 41.252 53.8959 40.568 54.6879 39.218C55.3719 38.066 55.7139 36.518 55.7139 34.574C55.7139 32.63 55.3719 31.082 54.6879 29.93C53.8959 28.562 52.7439 27.896 51.2139 27.896ZM51.2139 29.156C52.3659 29.156 53.1939 29.768 53.6979 31.01C54.0579 31.874 54.2559 33.062 54.2559 34.574C54.2559 36.068 54.0579 37.256 53.6979 38.138C53.1939 39.362 52.3659 39.992 51.2139 39.992C50.0619 39.992 49.2339 39.362 48.7299 38.138C48.3699 37.256 48.1899 36.068 48.1899 34.574C48.1899 33.062 48.3699 31.874 48.7299 31.01C49.2339 29.768 50.0619 29.156 51.2139 29.156ZM64.7068 27.896C63.1588 27.896 62.0068 28.562 61.2328 29.93C60.5488 31.082 60.2068 32.63 60.2068 34.574C60.2068 36.518 60.5488 38.066 61.2328 39.218C62.0068 40.568 63.1588 41.252 64.7068 41.252C66.2368 41.252 67.3888 40.568 68.1808 39.218C68.8648 38.066 69.2068 36.518 69.2068 34.574C69.2068 32.63 68.8648 31.082 68.1808 29.93C67.3888 28.562 66.2368 27.896 64.7068 27.896ZM64.7068 29.156C65.8588 29.156 66.6868 29.768 67.1908 31.01C67.5508 31.874 67.7488 33.062 67.7488 34.574C67.7488 36.068 67.5508 37.256 67.1908 38.138C66.6868 39.362 65.8588 39.992 64.7068 39.992C63.5548 39.992 62.7268 39.362 62.2228 38.138C61.8628 37.256 61.6828 36.068 61.6828 34.574C61.6828 33.062 61.8628 31.874 62.2228 31.01C62.7268 29.768 63.5548 29.156 64.7068 29.156ZM76.9398 28.148C76.5078 28.634 76.0038 29.066 75.3918 29.462C74.7798 29.822 74.1678 30.074 73.5918 30.236V31.712C74.7978 31.352 75.8058 30.776 76.6158 29.948V41H78.0918V28.148H76.9398ZM88.1244 27.896C86.5764 27.896 85.4244 28.562 84.6504 29.93C83.9664 31.082 83.6244 32.63 83.6244 34.574C83.6244 36.518 83.9664 38.066 84.6504 39.218C85.4244 40.568 86.5764 41.252 88.1244 41.252C89.6544 41.252 90.8064 40.568 91.5984 39.218C92.2824 38.066 92.6244 36.518 92.6244 34.574C92.6244 32.63 92.2824 31.082 91.5984 29.93C90.8064 28.562 89.6544 27.896 88.1244 27.896ZM88.1244 29.156C89.2764 29.156 90.1044 29.768 90.6084 31.01C90.9684 31.874 91.1664 33.062 91.1664 34.574C91.1664 36.068 90.9684 37.256 90.6084 38.138C90.1044 39.362 89.2764 39.992 88.1244 39.992C86.9724 39.992 86.1444 39.362 85.6404 38.138C85.2804 37.256 85.1004 36.068 85.1004 34.574C85.1004 33.062 85.2804 31.874 85.6404 31.01C86.1444 29.768 86.9724 29.156 88.1244 29.156ZM101.617 27.896C100.069 27.896 98.9174 28.562 98.1434 29.93C97.4594 31.082 97.1174 32.63 97.1174 34.574C97.1174 36.518 97.4594 38.066 98.1434 39.218C98.9174 40.568 100.069 41.252 101.617 41.252C103.147 41.252 104.299 40.568 105.091 39.218C105.775 38.066 106.117 36.518 106.117 34.574C106.117 32.63 105.775 31.082 105.091 29.93C104.299 28.562 103.147 27.896 101.617 27.896ZM101.617 29.156C102.769 29.156 103.597 29.768 104.101 31.01C104.461 31.874 104.659 33.062 104.659 34.574C104.659 36.068 104.461 37.256 104.101 38.138C103.597 39.362 102.769 39.992 101.617 39.992C100.465 39.992 99.6374 39.362 99.1334 38.138C98.7734 37.256 98.5934 36.068 98.5934 34.574C98.5934 33.062 98.7734 31.874 99.1334 31.01C99.6374 29.768 100.465 29.156 101.617 29.156ZM113.85 28.148C113.418 28.634 112.914 29.066 112.302 29.462C111.69 29.822 111.078 30.074 110.502 30.236V31.712C111.708 31.352 112.716 30.776 113.526 29.948V41H115.002V28.148H113.85ZM123.775 28.148C123.343 28.634 122.839 29.066 122.227 29.462C121.615 29.822 121.003 30.074 120.427 30.236V31.712C121.633 31.352 122.641 30.776 123.451 29.948V41H124.927V28.148H123.775ZM134.96 27.896C133.412 27.896 132.26 28.562 131.486 29.93C130.802 31.082 130.46 32.63 130.46 34.574C130.46 36.518 130.802 38.066 131.486 39.218C132.26 40.568 133.412 41.252 134.96 41.252C136.49 41.252 137.642 40.568 138.434 39.218C139.118 38.066 139.46 36.518 139.46 34.574C139.46 32.63 139.118 31.082 138.434 29.93C137.642 28.562 136.49 27.896 134.96 27.896ZM134.96 29.156C136.112 29.156 136.94 29.768 137.444 31.01C137.804 31.874 138.002 33.062 138.002 34.574C138.002 36.068 137.804 37.256 137.444 38.138C136.94 39.362 136.112 39.992 134.96 39.992C133.808 39.992 132.98 39.362 132.476 38.138C132.116 37.256 131.936 36.068 131.936 34.574C131.936 33.062 132.116 31.874 132.476 31.01C132.98 29.768 133.808 29.156 134.96 29.156ZM147.193 28.148C146.761 28.634 146.257 29.066 145.645 29.462C145.033 29.822 144.421 30.074 143.845 30.236V31.712C145.051 31.352 146.059 30.776 146.869 29.948V41H148.345V28.148H147.193ZM158.377 27.896C156.829 27.896 155.677 28.562 154.903 29.93C154.219 31.082 153.877 32.63 153.877 34.574C153.877 36.518 154.219 38.066 154.903 39.218C155.677 40.568 156.829 41.252 158.377 41.252C159.907 41.252 161.059 40.568 161.851 39.218C162.535 38.066 162.877 36.518 162.877 34.574C162.877 32.63 162.535 31.082 161.851 29.93C161.059 28.562 159.907 27.896 158.377 27.896ZM158.377 29.156C159.529 29.156 160.357 29.768 160.861 31.01C161.221 31.874 161.419 33.062 161.419 34.574C161.419 36.068 161.221 37.256 160.861 38.138C160.357 39.362 159.529 39.992 158.377 39.992C157.225 39.992 156.397 39.362 155.893 38.138C155.533 37.256 155.353 36.068 155.353 34.574C155.353 33.062 155.533 31.874 155.893 31.01C156.397 29.768 157.225 29.156 158.377 29.156ZM171.87 27.896C170.322 27.896 169.17 28.562 168.396 29.93C167.712 31.082 167.37 32.63 167.37 34.574C167.37 36.518 167.712 38.066 168.396 39.218C169.17 40.568 170.322 41.252 171.87 41.252C173.4 41.252 174.552 40.568 175.344 39.218C176.028 38.066 176.37 36.518 176.37 34.574C176.37 32.63 176.028 31.082 175.344 29.93C174.552 28.562 173.4 27.896 171.87 27.896ZM171.87 29.156C173.022 29.156 173.85 29.768 174.354 31.01C174.714 31.874 174.912 33.062 174.912 34.574C174.912 36.068 174.714 37.256 174.354 38.138C173.85 39.362 173.022 39.992 171.87 39.992C170.718 39.992 169.89 39.362 169.386 38.138C169.026 37.256 168.846 36.068 168.846 34.574C168.846 33.062 169.026 31.874 169.386 31.01C169.89 29.768 170.718 29.156 171.87 29.156ZM184.103 28.148C183.671 28.634 183.167 29.066 182.555 29.462C181.943 29.822 181.331 30.074 180.755 30.236V31.712C181.961 31.352 182.969 30.776 183.779 29.948V41H185.255V28.148H184.103ZM194.028 28.148C193.596 28.634 193.092 29.066 192.48 29.462C191.868 29.822 191.256 30.074 190.68 30.236V31.712C191.886 31.352 192.894 30.776 193.704 29.948V41H195.18V28.148H194.028ZM205.212 27.896C203.664 27.896 202.512 28.562 201.738 29.93C201.054 31.082 200.712 32.63 200.712 34.574C200.712 36.518 201.054 38.066 201.738 39.218C202.512 40.568 203.664 41.252 205.212 41.252C206.742 41.252 207.894 40.568 208.686 39.218C209.37 38.066 209.712 36.518 209.712 34.574C209.712 32.63 209.37 31.082 208.686 29.93C207.894 28.562 206.742 27.896 205.212 27.896ZM205.212 29.156C206.364 29.156 207.192 29.768 207.696 31.01C208.056 31.874 208.254 33.062 208.254 34.574C208.254 36.068 208.056 37.256 207.696 38.138C207.192 39.362 206.364 39.992 205.212 39.992C204.06 39.992 203.232 39.362 202.728 38.138C202.368 37.256 202.188 36.068 202.188 34.574C202.188 33.062 202.368 31.874 202.728 31.01C203.232 29.768 204.06 29.156 205.212 29.156ZM217.445 28.148C217.013 28.634 216.509 29.066 215.897 29.462C215.285 29.822 214.673 30.074 214.097 30.236V31.712C215.303 31.352 216.311 30.776 217.121 29.948V41H218.597V28.148H217.445ZM228.63 27.896C227.082 27.896 225.93 28.562 225.156 29.93C224.472 31.082 224.13 32.63 224.13 34.574C224.13 36.518 224.472 38.066 225.156 39.218C225.93 40.568 227.082 41.252 228.63 41.252C230.16 41.252 231.312 40.568 232.104 39.218C232.788 38.066 233.13 36.518 233.13 34.574C233.13 32.63 232.788 31.082 232.104 29.93C231.312 28.562 230.16 27.896 228.63 27.896ZM228.63 29.156C229.782 29.156 230.61 29.768 231.114 31.01C231.474 31.874 231.672 33.062 231.672 34.574C231.672 36.068 231.474 37.256 231.114 38.138C230.61 39.362 229.782 39.992 228.63 39.992C227.478 39.992 226.65 39.362 226.146 38.138C225.786 37.256 225.606 36.068 225.606 34.574C225.606 33.062 225.786 31.874 226.146 31.01C226.65 29.768 227.478 29.156 228.63 29.156ZM240.863 28.148C240.431 28.634 239.927 29.066 239.315 29.462C238.703 29.822 238.091 30.074 237.515 30.236V31.712C238.721 31.352 239.729 30.776 240.539 29.948V41H242.015V28.148H240.863ZM252.047 27.896C250.499 27.896 249.347 28.562 248.573 29.93C247.889 31.082 247.547 32.63 247.547 34.574C247.547 36.518 247.889 38.066 248.573 39.218C249.347 40.568 250.499 41.252 252.047 41.252C253.577 41.252 254.729 40.568 255.521 39.218C256.205 38.066 256.547 36.518 256.547 34.574C256.547 32.63 256.205 31.082 255.521 29.93C254.729 28.562 253.577 27.896 252.047 27.896ZM252.047 29.156C253.199 29.156 254.027 29.768 254.531 31.01C254.891 31.874 255.089 33.062 255.089 34.574C255.089 36.068 254.891 37.256 254.531 38.138C254.027 39.362 253.199 39.992 252.047 39.992C250.895 39.992 250.067 39.362 249.563 38.138C249.203 37.256 249.023 36.068 249.023 34.574C249.023 33.062 249.203 31.874 249.563 31.01C250.067 29.768 250.895 29.156 252.047 29.156ZM265.54 27.896C263.992 27.896 262.84 28.562 262.066 29.93C261.382 31.082 261.04 32.63 261.04 34.574C261.04 36.518 261.382 38.066 262.066 39.218C262.84 40.568 263.992 41.252 265.54 41.252C267.07 41.252 268.222 40.568 269.014 39.218C269.698 38.066 270.04 36.518 270.04 34.574C270.04 32.63 269.698 31.082 269.014 29.93C268.222 28.562 267.07 27.896 265.54 27.896ZM265.54 29.156C266.692 29.156 267.52 29.768 268.024 31.01C268.384 31.874 268.582 33.062 268.582 34.574C268.582 36.068 268.384 37.256 268.024 38.138C267.52 39.362 266.692 39.992 265.54 39.992C264.388 39.992 263.56 39.362 263.056 38.138C262.696 37.256 262.516 36.068 262.516 34.574C262.516 33.062 262.696 31.874 263.056 31.01C263.56 29.768 264.388 29.156 265.54 29.156ZM277.773 28.148C277.341 28.634 276.837 29.066 276.225 29.462C275.613 29.822 275.001 30.074 274.425 30.236V31.712C275.631 31.352 276.639 30.776 277.449 29.948V41H278.925V28.148H277.773ZM288.958 27.896C287.41 27.896 286.258 28.562 285.484 29.93C284.8 31.082 284.458 32.63 284.458 34.574C284.458 36.518 284.8 38.066 285.484 39.218C286.258 40.568 287.41 41.252 288.958 41.252C290.488 41.252 291.64 40.568 292.432 39.218C293.116 38.066 293.458 36.518 293.458 34.574C293.458 32.63 293.116 31.082 292.432 29.93C291.64 28.562 290.488 27.896 288.958 27.896ZM288.958 29.156C290.11 29.156 290.938 29.768 291.442 31.01C291.802 31.874 292 33.062 292 34.574C292 36.068 291.802 37.256 291.442 38.138C290.938 39.362 290.11 39.992 288.958 39.992C287.806 39.992 286.978 39.362 286.474 38.138C286.114 37.256 285.934 36.068 285.934 34.574C285.934 33.062 286.114 31.874 286.474 31.01C286.978 29.768 287.806 29.156 288.958 29.156ZM301.191 28.148C300.759 28.634 300.255 29.066 299.643 29.462C299.031 29.822 298.419 30.074 297.843 30.236V31.712C299.049 31.352 300.057 30.776 300.867 29.948V41H302.343V28.148H301.191ZM311.116 28.148C310.684 28.634 310.18 29.066 309.568 29.462C308.956 29.822 308.344 30.074 307.768 30.236V31.712C308.974 31.352 309.982 30.776 310.792 29.948V41H312.268V28.148H311.116ZM321.04 28.148C320.608 28.634 320.104 29.066 319.492 29.462C318.88 29.822 318.268 30.074 317.692 30.236V31.712C318.898 31.352 319.906 30.776 320.716 29.948V41H322.192V28.148H321.04ZM332.225 27.896C330.677 27.896 329.525 28.562 328.751 29.93C328.067 31.082 327.725 32.63 327.725 34.574C327.725 36.518 328.067 38.066 328.751 39.218C329.525 40.568 330.677 41.252 332.225 41.252C333.755 41.252 334.907 40.568 335.699 39.218C336.383 38.066 336.725 36.518 336.725 34.574C336.725 32.63 336.383 31.082 335.699 29.93C334.907 28.562 333.755 27.896 332.225 27.896ZM332.225 29.156C333.377 29.156 334.205 29.768 334.709 31.01C335.069 31.874 335.267 33.062 335.267 34.574C335.267 36.068 335.069 37.256 334.709 38.138C334.205 39.362 333.377 39.992 332.225 39.992C331.073 39.992 330.245 39.362 329.741 38.138C329.381 37.256 329.201 36.068 329.201 34.574C329.201 33.062 329.381 31.874 329.741 31.01C330.245 29.768 331.073 29.156 332.225 29.156ZM345.718 27.896C344.17 27.896 343.018 28.562 342.244 29.93C341.56 31.082 341.218 32.63 341.218 34.574C341.218 36.518 341.56 38.066 342.244 39.218C343.018 40.568 344.17 41.252 345.718 41.252C347.248 41.252 348.4 40.568 349.192 39.218C349.876 38.066 350.218 36.518 350.218 34.574C350.218 32.63 349.876 31.082 349.192 29.93C348.4 28.562 347.248 27.896 345.718 27.896ZM345.718 29.156C346.87 29.156 347.698 29.768 348.202 31.01C348.562 31.874 348.76 33.062 348.76 34.574C348.76 36.068 348.562 37.256 348.202 38.138C347.698 39.362 346.87 39.992 345.718 39.992C344.566 39.992 343.738 39.362 343.234 38.138C342.874 37.256 342.694 36.068 342.694 34.574C342.694 33.062 342.874 31.874 343.234 31.01C343.738 29.768 344.566 29.156 345.718 29.156Z" fill="#E4F0F0"/>
<path d="M46.2516 50.896C44.7036 50.896 43.5516 51.562 42.7776 52.93C42.0936 54.082 41.7516 55.63 41.7516 57.574C41.7516 59.518 42.0936 61.066 42.7776 62.218C43.5516 63.568 44.7036 64.252 46.2516 64.252C47.7816 64.252 48.9336 63.568 49.7256 62.218C50.4096 61.066 50.7516 59.518 50.7516 57.574C50.7516 55.63 50.4096 54.082 49.7256 52.93C48.9336 51.562 47.7816 50.896 46.2516 50.896ZM46.2516 52.156C47.4036 52.156 48.2316 52.768 48.7356 54.01C49.0956 54.874 49.2936 56.062 49.2936 57.574C49.2936 59.068 49.0956 60.256 48.7356 61.138C48.2316 62.362 47.4036 62.992 46.2516 62.992C45.0996 62.992 44.2716 62.362 43.7676 61.138C43.4076 60.256 43.2276 59.068 43.2276 57.574C43.2276 56.062 43.4076 54.874 43.7676 54.01C44.2716 52.768 45.0996 52.156 46.2516 52.156ZM58.4845 51.148C58.0525 51.634 57.5485 52.066 56.9365 52.462C56.3245 52.822 55.7125 53.074 55.1365 53.236V54.712C56.3425 54.352 57.3505 53.776 58.1605 52.948V64H59.6365V51.148H58.4845ZM68.4091 51.148C67.9771 51.634 67.4731 52.066 66.8611 52.462C66.2491 52.822 65.6371 53.074 65.0611 53.236V54.712C66.2671 54.352 67.2751 53.776 68.0851 52.948V64H69.5611V51.148H68.4091ZM79.5937 50.896C78.0457 50.896 76.8937 51.562 76.1197 52.93C75.4357 54.082 75.0937 55.63 75.0937 57.574C75.0937 59.518 75.4357 61.066 76.1197 62.218C76.8937 63.568 78.0457 64.252 79.5937 64.252C81.1237 64.252 82.2757 63.568 83.0677 62.218C83.7517 61.066 84.0937 59.518 84.0937 57.574C84.0937 55.63 83.7517 54.082 83.0677 52.93C82.2757 51.562 81.1237 50.896 79.5937 50.896ZM79.5937 52.156C80.7457 52.156 81.5737 52.768 82.0777 54.01C82.4377 54.874 82.6357 56.062 82.6357 57.574C82.6357 59.068 82.4377 60.256 82.0777 61.138C81.5737 62.362 80.7457 62.992 79.5937 62.992C78.4417 62.992 77.6137 62.362 77.1097 61.138C76.7497 60.256 76.5697 59.068 76.5697 57.574C76.5697 56.062 76.7497 54.874 77.1097 54.01C77.6137 52.768 78.4417 52.156 79.5937 52.156ZM93.0867 50.896C91.5387 50.896 90.3867 51.562 89.6127 52.93C88.9287 54.082 88.5867 55.63 88.5867 57.574C88.5867 59.518 88.9287 61.066 89.6127 62.218C90.3867 63.568 91.5387 64.252 93.0867 64.252C94.6167 64.252 95.7687 63.568 96.5607 62.218C97.2447 61.066 97.5867 59.518 97.5867 57.574C97.5867 55.63 97.2447 54.082 96.5607 52.93C95.7687 51.562 94.6167 50.896 93.0867 50.896ZM93.0867 52.156C94.2387 52.156 95.0667 52.768 95.5707 54.01C95.9307 54.874 96.1287 56.062 96.1287 57.574C96.1287 59.068 95.9307 60.256 95.5707 61.138C95.0667 62.362 94.2387 62.992 93.0867 62.992C91.9347 62.992 91.1067 62.362 90.6027 61.138C90.2427 60.256 90.0627 59.068 90.0627 57.574C90.0627 56.062 90.2427 54.874 90.6027 54.01C91.1067 52.768 91.9347 52.156 93.0867 52.156ZM105.32 51.148C104.888 51.634 104.384 52.066 103.772 52.462C103.16 52.822 102.548 53.074 101.972 53.236V54.712C103.178 54.352 104.186 53.776 104.996 52.948V64H106.472V51.148H105.32ZM115.244 51.148C114.812 51.634 114.308 52.066 113.696 52.462C113.084 52.822 112.472 53.074 111.896 53.236V54.712C113.102 54.352 114.11 53.776 114.92 52.948V64H116.396V51.148H115.244ZM126.429 50.896C124.881 50.896 123.729 51.562 122.955 52.93C122.271 54.082 121.929 55.63 121.929 57.574C121.929 59.518 122.271 61.066 122.955 62.218C123.729 63.568 124.881 64.252 126.429 64.252C127.959 64.252 129.111 63.568 129.903 62.218C130.587 61.066 130.929 59.518 130.929 57.574C130.929 55.63 130.587 54.082 129.903 52.93C129.111 51.562 127.959 50.896 126.429 50.896ZM126.429 52.156C127.581 52.156 128.409 52.768 128.913 54.01C129.273 54.874 129.471 56.062 129.471 57.574C129.471 59.068 129.273 60.256 128.913 61.138C128.409 62.362 127.581 62.992 126.429 62.992C125.277 62.992 124.449 62.362 123.945 61.138C123.585 60.256 123.405 59.068 123.405 57.574C123.405 56.062 123.585 54.874 123.945 54.01C124.449 52.768 125.277 52.156 126.429 52.156ZM138.662 51.148C138.23 51.634 137.726 52.066 137.114 52.462C136.502 52.822 135.89 53.074 135.314 53.236V54.712C136.52 54.352 137.528 53.776 138.338 52.948V64H139.814V51.148H138.662ZM149.846 50.896C148.298 50.896 147.146 51.562 146.372 52.93C145.688 54.082 145.346 55.63 145.346 57.574C145.346 59.518 145.688 61.066 146.372 62.218C147.146 63.568 148.298 64.252 149.846 64.252C151.376 64.252 152.528 63.568 153.32 62.218C154.004 61.066 154.346 59.518 154.346 57.574C154.346 55.63 154.004 54.082 153.32 52.93C152.528 51.562 151.376 50.896 149.846 50.896ZM149.846 52.156C150.998 52.156 151.826 52.768 152.33 54.01C152.69 54.874 152.888 56.062 152.888 57.574C152.888 59.068 152.69 60.256 152.33 61.138C151.826 62.362 150.998 62.992 149.846 62.992C148.694 62.992 147.866 62.362 147.362 61.138C147.002 60.256 146.822 59.068 146.822 57.574C146.822 56.062 147.002 54.874 147.362 54.01C147.866 52.768 148.694 52.156 149.846 52.156ZM163.339 50.896C161.791 50.896 160.639 51.562 159.865 52.93C159.181 54.082 158.839 55.63 158.839 57.574C158.839 59.518 159.181 61.066 159.865 62.218C160.639 63.568 161.791 64.252 163.339 64.252C164.869 64.252 166.021 63.568 166.813 62.218C167.497 61.066 167.839 59.518 167.839 57.574C167.839 55.63 167.497 54.082 166.813 52.93C166.021 51.562 164.869 50.896 163.339 50.896ZM163.339 52.156C164.491 52.156 165.319 52.768 165.823 54.01C166.183 54.874 166.381 56.062 166.381 57.574C166.381 59.068 166.183 60.256 165.823 61.138C165.319 62.362 164.491 62.992 163.339 62.992C162.187 62.992 161.359 62.362 160.855 61.138C160.495 60.256 160.315 59.068 160.315 57.574C160.315 56.062 160.495 54.874 160.855 54.01C161.359 52.768 162.187 52.156 163.339 52.156ZM175.572 51.148C175.14 51.634 174.636 52.066 174.024 52.462C173.412 52.822 172.8 53.074 172.224 53.236V54.712C173.43 54.352 174.438 53.776 175.248 52.948V64H176.724V51.148H175.572ZM185.497 51.148C185.065 51.634 184.561 52.066 183.949 52.462C183.337 52.822 182.725 53.074 182.149 53.236V54.712C183.355 54.352 184.363 53.776 185.173 52.948V64H186.649V51.148H185.497ZM196.682 50.896C195.134 50.896 193.982 51.562 193.208 52.93C192.524 54.082 192.182 55.63 192.182 57.574C192.182 59.518 192.524 61.066 193.208 62.218C193.982 63.568 195.134 64.252 196.682 64.252C198.212 64.252 199.364 63.568 200.156 62.218C200.84 61.066 201.182 59.518 201.182 57.574C201.182 55.63 200.84 54.082 200.156 52.93C199.364 51.562 198.212 50.896 196.682 50.896ZM196.682 52.156C197.834 52.156 198.662 52.768 199.166 54.01C199.526 54.874 199.724 56.062 199.724 57.574C199.724 59.068 199.526 60.256 199.166 61.138C198.662 62.362 197.834 62.992 196.682 62.992C195.53 62.992 194.702 62.362 194.198 61.138C193.838 60.256 193.658 59.068 193.658 57.574C193.658 56.062 193.838 54.874 194.198 54.01C194.702 52.768 195.53 52.156 196.682 52.156ZM208.915 51.148C208.483 51.634 207.979 52.066 207.367 52.462C206.755 52.822 206.143 53.074 205.567 53.236V54.712C206.773 54.352 207.781 53.776 208.591 52.948V64H210.067V51.148H208.915ZM220.099 50.896C218.551 50.896 217.399 51.562 216.625 52.93C215.941 54.082 215.599 55.63 215.599 57.574C215.599 59.518 215.941 61.066 216.625 62.218C217.399 63.568 218.551 64.252 220.099 64.252C221.629 64.252 222.781 63.568 223.573 62.218C224.257 61.066 224.599 59.518 224.599 57.574C224.599 55.63 224.257 54.082 223.573 52.93C222.781 51.562 221.629 50.896 220.099 50.896ZM220.099 52.156C221.251 52.156 222.079 52.768 222.583 54.01C222.943 54.874 223.141 56.062 223.141 57.574C223.141 59.068 222.943 60.256 222.583 61.138C222.079 62.362 221.251 62.992 220.099 62.992C218.947 62.992 218.119 62.362 217.615 61.138C217.255 60.256 217.075 59.068 217.075 57.574C217.075 56.062 217.255 54.874 217.615 54.01C218.119 52.768 218.947 52.156 220.099 52.156ZM232.332 51.148C231.9 51.634 231.396 52.066 230.784 52.462C230.172 52.822 229.56 53.074 228.984 53.236V54.712C230.19 54.352 231.198 53.776 232.008 52.948V64H233.484V51.148H232.332ZM243.517 50.896C241.969 50.896 240.817 51.562 240.043 52.93C239.359 54.082 239.017 55.63 239.017 57.574C239.017 59.518 239.359 61.066 240.043 62.218C240.817 63.568 241.969 64.252 243.517 64.252C245.047 64.252 246.199 63.568 246.991 62.218C247.675 61.066 248.017 59.518 248.017 57.574C248.017 55.63 247.675 54.082 246.991 52.93C246.199 51.562 245.047 50.896 243.517 50.896ZM243.517 52.156C244.669 52.156 245.497 52.768 246.001 54.01C246.361 54.874 246.559 56.062 246.559 57.574C246.559 59.068 246.361 60.256 246.001 61.138C245.497 62.362 244.669 62.992 243.517 62.992C242.365 62.992 241.537 62.362 241.033 61.138C240.673 60.256 240.493 59.068 240.493 57.574C240.493 56.062 240.673 54.874 241.033 54.01C241.537 52.768 242.365 52.156 243.517 52.156ZM257.01 50.896C255.462 50.896 254.31 51.562 253.536 52.93C252.852 54.082 252.51 55.63 252.51 57.574C252.51 59.518 252.852 61.066 253.536 62.218C254.31 63.568 255.462 64.252 257.01 64.252C258.54 64.252 259.692 63.568 260.484 62.218C261.168 61.066 261.51 59.518 261.51 57.574C261.51 55.63 261.168 54.082 260.484 52.93C259.692 51.562 258.54 50.896 257.01 50.896ZM257.01 52.156C258.162 52.156 258.99 52.768 259.494 54.01C259.854 54.874 260.052 56.062 260.052 57.574C260.052 59.068 259.854 60.256 259.494 61.138C258.99 62.362 258.162 62.992 257.01 62.992C255.858 62.992 255.03 62.362 254.526 61.138C254.166 60.256 253.986 59.068 253.986 57.574C253.986 56.062 254.166 54.874 254.526 54.01C255.03 52.768 255.858 52.156 257.01 52.156ZM269.243 51.148C268.811 51.634 268.307 52.066 267.695 52.462C267.083 52.822 266.471 53.074 265.895 53.236V54.712C267.101 54.352 268.109 53.776 268.919 52.948V64H270.395V51.148H269.243ZM280.427 50.896C278.879 50.896 277.727 51.562 276.953 52.93C276.269 54.082 275.927 55.63 275.927 57.574C275.927 59.518 276.269 61.066 276.953 62.218C277.727 63.568 278.879 64.252 280.427 64.252C281.957 64.252 283.109 63.568 283.901 62.218C284.585 61.066 284.927 59.518 284.927 57.574C284.927 55.63 284.585 54.082 283.901 52.93C283.109 51.562 281.957 50.896 280.427 50.896ZM280.427 52.156C281.579 52.156 282.407 52.768 282.911 54.01C283.271 54.874 283.469 56.062 283.469 57.574C283.469 59.068 283.271 60.256 282.911 61.138C282.407 62.362 281.579 62.992 280.427 62.992C279.275 62.992 278.447 62.362 277.943 61.138C277.583 60.256 277.403 59.068 277.403 57.574C277.403 56.062 277.583 54.874 277.943 54.01C278.447 52.768 279.275 52.156 280.427 52.156ZM293.92 50.896C292.372 50.896 291.22 51.562 290.446 52.93C289.762 54.082 289.42 55.63 289.42 57.574C289.42 59.518 289.762 61.066 290.446 62.218C291.22 63.568 292.372 64.252 293.92 64.252C295.45 64.252 296.602 63.568 297.394 62.218C298.078 61.066 298.42 59.518 298.42 57.574C298.42 55.63 298.078 54.082 297.394 52.93C296.602 51.562 295.45 50.896 293.92 50.896ZM293.92 52.156C295.072 52.156 295.9 52.768 296.404 54.01C296.764 54.874 296.962 56.062 296.962 57.574C296.962 59.068 296.764 60.256 296.404 61.138C295.9 62.362 295.072 62.992 293.92 62.992C292.768 62.992 291.94 62.362 291.436 61.138C291.076 60.256 290.896 59.068 290.896 57.574C290.896 56.062 291.076 54.874 291.436 54.01C291.94 52.768 292.768 52.156 293.92 52.156ZM307.413 50.896C305.865 50.896 304.713 51.562 303.939 52.93C303.255 54.082 302.913 55.63 302.913 57.574C302.913 59.518 303.255 61.066 303.939 62.218C304.713 63.568 305.865 64.252 307.413 64.252C308.943 64.252 310.095 63.568 310.887 62.218C311.571 61.066 311.913 59.518 311.913 57.574C311.913 55.63 311.571 54.082 310.887 52.93C310.095 51.562 308.943 50.896 307.413 50.896ZM307.413 52.156C308.565 52.156 309.393 52.768 309.897 54.01C310.257 54.874 310.455 56.062 310.455 57.574C310.455 59.068 310.257 60.256 309.897 61.138C309.393 62.362 308.565 62.992 307.413 62.992C306.261 62.992 305.433 62.362 304.929 61.138C304.569 60.256 304.389 59.068 304.389 57.574C304.389 56.062 304.569 54.874 304.929 54.01C305.433 52.768 306.261 52.156 307.413 52.156ZM319.646 51.148C319.214 51.634 318.71 52.066 318.098 52.462C317.486 52.822 316.874 53.074 316.298 53.236V54.712C317.504 54.352 318.512 53.776 319.322 52.948V64H320.798V51.148H319.646ZM329.571 51.148C329.139 51.634 328.635 52.066 328.023 52.462C327.411 52.822 326.799 53.074 326.223 53.236V54.712C327.429 54.352 328.437 53.776 329.247 52.948V64H330.723V51.148H329.571ZM340.755 50.896C339.207 50.896 338.055 51.562 337.281 52.93C336.597 54.082 336.255 55.63 336.255 57.574C336.255 59.518 336.597 61.066 337.281 62.218C338.055 63.568 339.207 64.252 340.755 64.252C342.285 64.252 343.437 63.568 344.229 62.218C344.913 61.066 345.255 59.518 345.255 57.574C345.255 55.63 344.913 54.082 344.229 52.93C343.437 51.562 342.285 50.896 340.755 50.896ZM340.755 52.156C341.907 52.156 342.735 52.768 343.239 54.01C343.599 54.874 343.797 56.062 343.797 57.574C343.797 59.068 343.599 60.256 343.239 61.138C342.735 62.362 341.907 62.992 340.755 62.992C339.603 62.992 338.775 62.362 338.271 61.138C337.911 60.256 337.731 59.068 337.731 57.574C337.731 56.062 337.911 54.874 338.271 54.01C338.775 52.768 339.603 52.156 340.755 52.156Z" fill="#E4F0F0"/>
<path d="M56.7003 74.148C56.2683 74.634 55.7643 75.066 55.1523 75.462C54.5403 75.822 53.9283 76.074 53.3523 76.236V77.712C54.5583 77.352 55.5663 76.776 56.3763 75.948V87H57.8523V74.148H56.7003ZM67.885 73.896C66.337 73.896 65.185 74.562 64.411 75.93C63.727 77.082 63.385 78.63 63.385 80.574C63.385 82.518 63.727 84.066 64.411 85.218C65.185 86.568 66.337 87.252 67.885 87.252C69.415 87.252 70.567 86.568 71.359 85.218C72.043 84.066 72.385 82.518 72.385 80.574C72.385 78.63 72.043 77.082 71.359 75.93C70.567 74.562 69.415 73.896 67.885 73.896ZM67.885 75.156C69.037 75.156 69.865 75.768 70.369 77.01C70.729 77.874 70.927 79.062 70.927 80.574C70.927 82.068 70.729 83.256 70.369 84.138C69.865 85.362 69.037 85.992 67.885 85.992C66.733 85.992 65.905 85.362 65.401 84.138C65.041 83.256 64.861 82.068 64.861 80.574C64.861 79.062 65.041 77.874 65.401 77.01C65.905 75.768 66.733 75.156 67.885 75.156ZM81.3779 73.896C79.8299 73.896 78.6779 74.562 77.9039 75.93C77.2199 77.082 76.8779 78.63 76.8779 80.574C76.8779 82.518 77.2199 84.066 77.9039 85.218C78.6779 86.568 79.8299 87.252 81.3779 87.252C82.9079 87.252 84.0599 86.568 84.8519 85.218C85.5359 84.066 85.8779 82.518 85.8779 80.574C85.8779 78.63 85.5359 77.082 84.8519 75.93C84.0599 74.562 82.9079 73.896 81.3779 73.896ZM81.3779 75.156C82.5299 75.156 83.3579 75.768 83.8619 77.01C84.2219 77.874 84.4199 79.062 84.4199 80.574C84.4199 82.068 84.2219 83.256 83.8619 84.138C83.3579 85.362 82.5299 85.992 81.3779 85.992C80.2259 85.992 79.3979 85.362 78.8939 84.138C78.5339 83.256 78.3539 82.068 78.3539 80.574C78.3539 79.062 78.5339 77.874 78.8939 77.01C79.3979 75.768 80.2259 75.156 81.3779 75.156ZM93.6109 74.148C93.1789 74.634 92.6749 75.066 92.0629 75.462C91.4509 75.822 90.8389 76.074 90.2629 76.236V77.712C91.4689 77.352 92.4769 76.776 93.2869 75.948V87H94.7629V74.148H93.6109ZM103.536 74.148C103.104 74.634 102.6 75.066 101.988 75.462C101.376 75.822 100.764 76.074 100.188 76.236V77.712C101.394 77.352 102.402 76.776 103.212 75.948V87H104.688V74.148H103.536ZM114.72 73.896C113.172 73.896 112.02 74.562 111.246 75.93C110.562 77.082 110.22 78.63 110.22 80.574C110.22 82.518 110.562 84.066 111.246 85.218C112.02 86.568 113.172 87.252 114.72 87.252C116.25 87.252 117.402 86.568 118.194 85.218C118.878 84.066 119.22 82.518 119.22 80.574C119.22 78.63 118.878 77.082 118.194 75.93C117.402 74.562 116.25 73.896 114.72 73.896ZM114.72 75.156C115.872 75.156 116.7 75.768 117.204 77.01C117.564 77.874 117.762 79.062 117.762 80.574C117.762 82.068 117.564 83.256 117.204 84.138C116.7 85.362 115.872 85.992 114.72 85.992C113.568 85.992 112.74 85.362 112.236 84.138C111.876 83.256 111.696 82.068 111.696 80.574C111.696 79.062 111.876 77.874 112.236 77.01C112.74 75.768 113.568 75.156 114.72 75.156ZM128.213 73.896C126.665 73.896 125.513 74.562 124.739 75.93C124.055 77.082 123.713 78.63 123.713 80.574C123.713 82.518 124.055 84.066 124.739 85.218C125.513 86.568 126.665 87.252 128.213 87.252C129.743 87.252 130.895 86.568 131.687 85.218C132.371 84.066 132.713 82.518 132.713 80.574C132.713 78.63 132.371 77.082 131.687 75.93C130.895 74.562 129.743 73.896 128.213 73.896ZM128.213 75.156C129.365 75.156 130.193 75.768 130.697 77.01C131.057 77.874 131.255 79.062 131.255 80.574C131.255 82.068 131.057 83.256 130.697 84.138C130.193 85.362 129.365 85.992 128.213 85.992C127.061 85.992 126.233 85.362 125.729 84.138C125.369 83.256 125.189 82.068 125.189 80.574C125.189 79.062 125.369 77.874 125.729 77.01C126.233 75.768 127.061 75.156 128.213 75.156ZM141.706 73.896C140.158 73.896 139.006 74.562 138.232 75.93C137.548 77.082 137.206 78.63 137.206 80.574C137.206 82.518 137.548 84.066 138.232 85.218C139.006 86.568 140.158 87.252 141.706 87.252C143.236 87.252 144.388 86.568 145.18 85.218C145.864 84.066 146.206 82.518 146.206 80.574C146.206 78.63 145.864 77.082 145.18 75.93C144.388 74.562 143.236 73.896 141.706 73.896ZM141.706 75.156C142.858 75.156 143.686 75.768 144.19 77.01C144.55 77.874 144.748 79.062 144.748 80.574C144.748 82.068 144.55 83.256 144.19 84.138C143.686 85.362 142.858 85.992 141.706 85.992C140.554 85.992 139.726 85.362 139.222 84.138C138.862 83.256 138.682 82.068 138.682 80.574C138.682 79.062 138.862 77.874 139.222 77.01C139.726 75.768 140.554 75.156 141.706 75.156ZM155.199 73.896C153.651 73.896 152.499 74.562 151.725 75.93C151.041 77.082 150.699 78.63 150.699 80.574C150.699 82.518 151.041 84.066 151.725 85.218C152.499 86.568 153.651 87.252 155.199 87.252C156.729 87.252 157.881 86.568 158.673 85.218C159.357 84.066 159.699 82.518 159.699 80.574C159.699 78.63 159.357 77.082 158.673 75.93C157.881 74.562 156.729 73.896 155.199 73.896ZM155.199 75.156C156.351 75.156 157.179 75.768 157.683 77.01C158.043 77.874 158.241 79.062 158.241 80.574C158.241 82.068 158.043 83.256 157.683 84.138C157.179 85.362 156.351 85.992 155.199 85.992C154.047 85.992 153.219 85.362 152.715 84.138C152.355 83.256 152.175 82.068 152.175 80.574C152.175 79.062 152.355 77.874 152.715 77.01C153.219 75.768 154.047 75.156 155.199 75.156ZM167.432 74.148C167 74.634 166.496 75.066 165.884 75.462C165.272 75.822 164.66 76.074 164.084 76.236V77.712C165.29 77.352 166.298 76.776 167.108 75.948V87H168.584V74.148H167.432ZM177.357 74.148C176.925 74.634 176.421 75.066 175.809 75.462C175.197 75.822 174.585 76.074 174.009 76.236V77.712C175.215 77.352 176.223 76.776 177.033 75.948V87H178.509V74.148H177.357ZM188.541 73.896C186.993 73.896 185.841 74.562 185.067 75.93C184.383 77.082 184.041 78.63 184.041 80.574C184.041 82.518 184.383 84.066 185.067 85.218C185.841 86.568 186.993 87.252 188.541 87.252C190.071 87.252 191.223 86.568 192.015 85.218C192.699 84.066 193.041 82.518 193.041 80.574C193.041 78.63 192.699 77.082 192.015 75.93C191.223 74.562 190.071 73.896 188.541 73.896ZM188.541 75.156C189.693 75.156 190.521 75.768 191.025 77.01C191.385 77.874 191.583 79.062 191.583 80.574C191.583 82.068 191.385 83.256 191.025 84.138C190.521 85.362 189.693 85.992 188.541 85.992C187.389 85.992 186.561 85.362 186.057 84.138C185.697 83.256 185.517 82.068 185.517 80.574C185.517 79.062 185.697 77.874 186.057 77.01C186.561 75.768 187.389 75.156 188.541 75.156ZM200.774 74.148C200.342 74.634 199.838 75.066 199.226 75.462C198.614 75.822 198.002 76.074 197.426 76.236V77.712C198.632 77.352 199.64 76.776 200.45 75.948V87H201.926V74.148H200.774ZM211.959 73.896C210.411 73.896 209.259 74.562 208.485 75.93C207.801 77.082 207.459 78.63 207.459 80.574C207.459 82.518 207.801 84.066 208.485 85.218C209.259 86.568 210.411 87.252 211.959 87.252C213.489 87.252 214.641 86.568 215.433 85.218C216.117 84.066 216.459 82.518 216.459 80.574C216.459 78.63 216.117 77.082 215.433 75.93C214.641 74.562 213.489 73.896 211.959 73.896ZM211.959 75.156C213.111 75.156 213.939 75.768 214.443 77.01C214.803 77.874 215.001 79.062 215.001 80.574C215.001 82.068 214.803 83.256 214.443 84.138C213.939 85.362 213.111 85.992 211.959 85.992C210.807 85.992 209.979 85.362 209.475 84.138C209.115 83.256 208.935 82.068 208.935 80.574C208.935 79.062 209.115 77.874 209.475 77.01C209.979 75.768 210.807 75.156 211.959 75.156ZM225.452 73.896C223.904 73.896 222.752 74.562 221.978 75.93C221.294 77.082 220.952 78.63 220.952 80.574C220.952 82.518 221.294 84.066 221.978 85.218C222.752 86.568 223.904 87.252 225.452 87.252C226.982 87.252 228.134 86.568 228.926 85.218C229.61 84.066 229.952 82.518 229.952 80.574C229.952 78.63 229.61 77.082 228.926 75.93C228.134 74.562 226.982 73.896 225.452 73.896ZM225.452 75.156C226.604 75.156 227.432 75.768 227.936 77.01C228.296 77.874 228.494 79.062 228.494 80.574C228.494 82.068 228.296 83.256 227.936 84.138C227.432 85.362 226.604 85.992 225.452 85.992C224.3 85.992 223.472 85.362 222.968 84.138C222.608 83.256 222.428 82.068 222.428 80.574C222.428 79.062 222.608 77.874 222.968 77.01C223.472 75.768 224.3 75.156 225.452 75.156ZM237.685 74.148C237.253 74.634 236.749 75.066 236.137 75.462C235.525 75.822 234.913 76.074 234.337 76.236V77.712C235.543 77.352 236.551 76.776 237.361 75.948V87H238.837V74.148H237.685ZM247.609 74.148C247.177 74.634 246.673 75.066 246.061 75.462C245.449 75.822 244.837 76.074 244.261 76.236V77.712C245.467 77.352 246.475 76.776 247.285 75.948V87H248.761V74.148H247.609ZM258.794 73.896C257.246 73.896 256.094 74.562 255.32 75.93C254.636 77.082 254.294 78.63 254.294 80.574C254.294 82.518 254.636 84.066 255.32 85.218C256.094 86.568 257.246 87.252 258.794 87.252C260.324 87.252 261.476 86.568 262.268 85.218C262.952 84.066 263.294 82.518 263.294 80.574C263.294 78.63 262.952 77.082 262.268 75.93C261.476 74.562 260.324 73.896 258.794 73.896ZM258.794 75.156C259.946 75.156 260.774 75.768 261.278 77.01C261.638 77.874 261.836 79.062 261.836 80.574C261.836 82.068 261.638 83.256 261.278 84.138C260.774 85.362 259.946 85.992 258.794 85.992C257.642 85.992 256.814 85.362 256.31 84.138C255.95 83.256 255.77 82.068 255.77 80.574C255.77 79.062 255.95 77.874 256.31 77.01C256.814 75.768 257.642 75.156 258.794 75.156ZM271.027 74.148C270.595 74.634 270.091 75.066 269.479 75.462C268.867 75.822 268.255 76.074 267.679 76.236V77.712C268.885 77.352 269.893 76.776 270.703 75.948V87H272.179V74.148H271.027ZM282.212 73.896C280.664 73.896 279.512 74.562 278.738 75.93C278.054 77.082 277.712 78.63 277.712 80.574C277.712 82.518 278.054 84.066 278.738 85.218C279.512 86.568 280.664 87.252 282.212 87.252C283.742 87.252 284.894 86.568 285.686 85.218C286.37 84.066 286.712 82.518 286.712 80.574C286.712 78.63 286.37 77.082 285.686 75.93C284.894 74.562 283.742 73.896 282.212 73.896ZM282.212 75.156C283.364 75.156 284.192 75.768 284.696 77.01C285.056 77.874 285.254 79.062 285.254 80.574C285.254 82.068 285.056 83.256 284.696 84.138C284.192 85.362 283.364 85.992 282.212 85.992C281.06 85.992 280.232 85.362 279.728 84.138C279.368 83.256 279.188 82.068 279.188 80.574C279.188 79.062 279.368 77.874 279.728 77.01C280.232 75.768 281.06 75.156 282.212 75.156ZM294.445 74.148C294.013 74.634 293.509 75.066 292.897 75.462C292.285 75.822 291.673 76.074 291.097 76.236V77.712C292.303 77.352 293.311 76.776 294.121 75.948V87H295.597V74.148H294.445ZM305.629 73.896C304.081 73.896 302.929 74.562 302.155 75.93C301.471 77.082 301.129 78.63 301.129 80.574C301.129 82.518 301.471 84.066 302.155 85.218C302.929 86.568 304.081 87.252 305.629 87.252C307.159 87.252 308.311 86.568 309.103 85.218C309.787 84.066 310.129 82.518 310.129 80.574C310.129 78.63 309.787 77.082 309.103 75.93C308.311 74.562 307.159 73.896 305.629 73.896ZM305.629 75.156C306.781 75.156 307.609 75.768 308.113 77.01C308.473 77.874 308.671 79.062 308.671 80.574C308.671 82.068 308.473 83.256 308.113 84.138C307.609 85.362 306.781 85.992 305.629 85.992C304.477 85.992 303.649 85.362 303.145 84.138C302.785 83.256 302.605 82.068 302.605 80.574C302.605 79.062 302.785 77.874 303.145 77.01C303.649 75.768 304.477 75.156 305.629 75.156ZM319.122 73.896C317.574 73.896 316.422 74.562 315.648 75.93C314.964 77.082 314.622 78.63 314.622 80.574C314.622 82.518 314.964 84.066 315.648 85.218C316.422 86.568 317.574 87.252 319.122 87.252C320.652 87.252 321.804 86.568 322.596 85.218C323.28 84.066 323.622 82.518 323.622 80.574C323.622 78.63 323.28 77.082 322.596 75.93C321.804 74.562 320.652 73.896 319.122 73.896ZM319.122 75.156C320.274 75.156 321.102 75.768 321.606 77.01C321.966 77.874 322.164 79.062 322.164 80.574C322.164 82.068 321.966 83.256 321.606 84.138C321.102 85.362 320.274 85.992 319.122 85.992C317.97 85.992 317.142 85.362 316.638 84.138C316.278 83.256 316.098 82.068 316.098 80.574C316.098 79.062 316.278 77.874 316.638 77.01C317.142 75.768 317.97 75.156 319.122 75.156ZM331.355 74.148C330.923 74.634 330.419 75.066 329.807 75.462C329.195 75.822 328.583 76.074 328.007 76.236V77.712C329.213 77.352 330.221 76.776 331.031 75.948V87H332.507V74.148H331.355Z" fill="#E4F0F0"/>
<path d="M74.6314 119.896C73.0834 119.896 71.9314 120.562 71.1574 121.93C70.4734 123.082 70.1314 124.63 70.1314 126.574C70.1314 128.518 70.4734 130.066 71.1574 131.218C71.9314 132.568 73.0834 133.252 74.6314 133.252C76.1614 133.252 77.3134 132.568 78.1054 131.218C78.7894 130.066 79.1314 128.518 79.1314 126.574C79.1314 124.63 78.7894 123.082 78.1054 121.93C77.3134 120.562 76.1614 119.896 74.6314 119.896ZM74.6314 121.156C75.7834 121.156 76.6114 121.768 77.1154 123.01C77.4754 123.874 77.6734 125.062 77.6734 126.574C77.6734 128.068 77.4754 129.256 77.1154 130.138C76.6114 131.362 75.7834 131.992 74.6314 131.992C73.4794 131.992 72.6514 131.362 72.1474 130.138C71.7874 129.256 71.6074 128.068 71.6074 126.574C71.6074 125.062 71.7874 123.874 72.1474 123.01C72.6514 121.768 73.4794 121.156 74.6314 121.156ZM86.8644 120.148C86.4324 120.634 85.9284 121.066 85.3164 121.462C84.7044 121.822 84.0924 122.074 83.5164 122.236V123.712C84.7224 123.352 85.7304 122.776 86.5404 121.948V133H88.0164V120.148H86.8644ZM98.049 119.896C96.501 119.896 95.349 120.562 94.575 121.93C93.891 123.082 93.549 124.63 93.549 126.574C93.549 128.518 93.891 130.066 94.575 131.218C95.349 132.568 96.501 133.252 98.049 133.252C99.579 133.252 100.731 132.568 101.523 131.218C102.207 130.066 102.549 128.518 102.549 126.574C102.549 124.63 102.207 123.082 101.523 121.93C100.731 120.562 99.579 119.896 98.049 119.896ZM98.049 121.156C99.201 121.156 100.029 121.768 100.533 123.01C100.893 123.874 101.091 125.062 101.091 126.574C101.091 128.068 100.893 129.256 100.533 130.138C100.029 131.362 99.201 131.992 98.049 131.992C96.897 131.992 96.069 131.362 95.565 130.138C95.205 129.256 95.025 128.068 95.025 126.574C95.025 125.062 95.205 123.874 95.565 123.01C96.069 121.768 96.897 121.156 98.049 121.156ZM111.542 119.896C109.994 119.896 108.842 120.562 108.068 121.93C107.384 123.082 107.042 124.63 107.042 126.574C107.042 128.518 107.384 130.066 108.068 131.218C108.842 132.568 109.994 133.252 111.542 133.252C113.072 133.252 114.224 132.568 115.016 131.218C115.7 130.066 116.042 128.518 116.042 126.574C116.042 124.63 115.7 123.082 115.016 121.93C114.224 120.562 113.072 119.896 111.542 119.896ZM111.542 121.156C112.694 121.156 113.522 121.768 114.026 123.01C114.386 123.874 114.584 125.062 114.584 126.574C114.584 128.068 114.386 129.256 114.026 130.138C113.522 131.362 112.694 131.992 111.542 131.992C110.39 131.992 109.562 131.362 109.058 130.138C108.698 129.256 108.518 128.068 108.518 126.574C108.518 125.062 108.698 123.874 109.058 123.01C109.562 121.768 110.39 121.156 111.542 121.156ZM123.775 120.148C123.343 120.634 122.839 121.066 122.227 121.462C121.615 121.822 121.003 122.074 120.427 122.236V123.712C121.633 123.352 122.641 122.776 123.451 121.948V133H124.927V120.148H123.775ZM133.7 120.148C133.268 120.634 132.764 121.066 132.152 121.462C131.54 121.822 130.928 122.074 130.352 122.236V123.712C131.558 123.352 132.566 122.776 133.376 121.948V133H134.852V120.148H133.7ZM144.884 119.896C143.336 119.896 142.184 120.562 141.41 121.93C140.726 123.082 140.384 124.63 140.384 126.574C140.384 128.518 140.726 130.066 141.41 131.218C142.184 132.568 143.336 133.252 144.884 133.252C146.414 133.252 147.566 132.568 148.358 131.218C149.042 130.066 149.384 128.518 149.384 126.574C149.384 124.63 149.042 123.082 148.358 121.93C147.566 120.562 146.414 119.896 144.884 119.896ZM144.884 121.156C146.036 121.156 146.864 121.768 147.368 123.01C147.728 123.874 147.926 125.062 147.926 126.574C147.926 128.068 147.728 129.256 147.368 130.138C146.864 131.362 146.036 131.992 144.884 131.992C143.732 131.992 142.904 131.362 142.4 130.138C142.04 129.256 141.86 128.068 141.86 126.574C141.86 125.062 142.04 123.874 142.4 123.01C142.904 121.768 143.732 121.156 144.884 121.156ZM157.117 120.148C156.685 120.634 156.181 121.066 155.569 121.462C154.957 121.822 154.345 122.074 153.769 122.236V123.712C154.975 123.352 155.983 122.776 156.793 121.948V133H158.269V120.148H157.117ZM168.302 119.896C166.754 119.896 165.602 120.562 164.828 121.93C164.144 123.082 163.802 124.63 163.802 126.574C163.802 128.518 164.144 130.066 164.828 131.218C165.602 132.568 166.754 133.252 168.302 133.252C169.832 133.252 170.984 132.568 171.776 131.218C172.46 130.066 172.802 128.518 172.802 126.574C172.802 124.63 172.46 123.082 171.776 121.93C170.984 120.562 169.832 119.896 168.302 119.896ZM168.302 121.156C169.454 121.156 170.282 121.768 170.786 123.01C171.146 123.874 171.344 125.062 171.344 126.574C171.344 128.068 171.146 129.256 170.786 130.138C170.282 131.362 169.454 131.992 168.302 131.992C167.15 131.992 166.322 131.362 165.818 130.138C165.458 129.256 165.278 128.068 165.278 126.574C165.278 125.062 165.458 123.874 165.818 123.01C166.322 121.768 167.15 121.156 168.302 121.156ZM180.535 120.148C180.103 120.634 179.599 121.066 178.987 121.462C178.375 121.822 177.763 122.074 177.187 122.236V123.712C178.393 123.352 179.401 122.776 180.211 121.948V133H181.687V120.148H180.535ZM191.719 119.896C190.171 119.896 189.019 120.562 188.245 121.93C187.561 123.082 187.219 124.63 187.219 126.574C187.219 128.518 187.561 130.066 188.245 131.218C189.019 132.568 190.171 133.252 191.719 133.252C193.249 133.252 194.401 132.568 195.193 131.218C195.877 130.066 196.219 128.518 196.219 126.574C196.219 124.63 195.877 123.082 195.193 121.93C194.401 120.562 193.249 119.896 191.719 119.896ZM191.719 121.156C192.871 121.156 193.699 121.768 194.203 123.01C194.563 123.874 194.761 125.062 194.761 126.574C194.761 128.068 194.563 129.256 194.203 130.138C193.699 131.362 192.871 131.992 191.719 131.992C190.567 131.992 189.739 131.362 189.235 130.138C188.875 129.256 188.695 128.068 188.695 126.574C188.695 125.062 188.875 123.874 189.235 123.01C189.739 121.768 190.567 121.156 191.719 121.156ZM205.212 119.896C203.664 119.896 202.512 120.562 201.738 121.93C201.054 123.082 200.712 124.63 200.712 126.574C200.712 128.518 201.054 130.066 201.738 131.218C202.512 132.568 203.664 133.252 205.212 133.252C206.742 133.252 207.894 132.568 208.686 131.218C209.37 130.066 209.712 128.518 209.712 126.574C209.712 124.63 209.37 123.082 208.686 121.93C207.894 120.562 206.742 119.896 205.212 119.896ZM205.212 121.156C206.364 121.156 207.192 121.768 207.696 123.01C208.056 123.874 208.254 125.062 208.254 126.574C208.254 128.068 208.056 129.256 207.696 130.138C207.192 131.362 206.364 131.992 205.212 131.992C204.06 131.992 203.232 131.362 202.728 130.138C202.368 129.256 202.188 128.068 202.188 126.574C202.188 125.062 202.368 123.874 202.728 123.01C203.232 121.768 204.06 121.156 205.212 121.156ZM217.445 120.148C217.013 120.634 216.509 121.066 215.897 121.462C215.285 121.822 214.673 122.074 214.097 122.236V123.712C215.303 123.352 216.311 122.776 217.121 121.948V133H218.597V120.148H217.445ZM228.63 119.896C227.082 119.896 225.93 120.562 225.156 121.93C224.472 123.082 224.13 124.63 224.13 126.574C224.13 128.518 224.472 130.066 225.156 131.218C225.93 132.568 227.082 133.252 228.63 133.252C230.16 133.252 231.312 132.568 232.104 131.218C232.788 130.066 233.13 128.518 233.13 126.574C233.13 124.63 232.788 123.082 232.104 121.93C231.312 120.562 230.16 119.896 228.63 119.896ZM228.63 121.156C229.782 121.156 230.61 121.768 231.114 123.01C231.474 123.874 231.672 125.062 231.672 126.574C231.672 128.068 231.474 129.256 231.114 130.138C230.61 131.362 229.782 131.992 228.63 131.992C227.478 131.992 226.65 131.362 226.146 130.138C225.786 129.256 225.606 128.068 225.606 126.574C225.606 125.062 225.786 123.874 226.146 123.01C226.65 121.768 227.478 121.156 228.63 121.156ZM240.863 120.148C240.431 120.634 239.927 121.066 239.315 121.462C238.703 121.822 238.091 122.074 237.515 122.236V123.712C238.721 123.352 239.729 122.776 240.539 121.948V133H242.015V120.148H240.863ZM252.047 119.896C250.499 119.896 249.347 120.562 248.573 121.93C247.889 123.082 247.547 124.63 247.547 126.574C247.547 128.518 247.889 130.066 248.573 131.218C249.347 132.568 250.499 133.252 252.047 133.252C253.577 133.252 254.729 132.568 255.521 131.218C256.205 130.066 256.547 128.518 256.547 126.574C256.547 124.63 256.205 123.082 255.521 121.93C254.729 120.562 253.577 119.896 252.047 119.896ZM252.047 121.156C253.199 121.156 254.027 121.768 254.531 123.01C254.891 123.874 255.089 125.062 255.089 126.574C255.089 128.068 254.891 129.256 254.531 130.138C254.027 131.362 253.199 131.992 252.047 131.992C250.895 131.992 250.067 131.362 249.563 130.138C249.203 129.256 249.023 128.068 249.023 126.574C249.023 125.062 249.203 123.874 249.563 123.01C250.067 121.768 250.895 121.156 252.047 121.156ZM265.54 119.896C263.992 119.896 262.84 120.562 262.066 121.93C261.382 123.082 261.04 124.63 261.04 126.574C261.04 128.518 261.382 130.066 262.066 131.218C262.84 132.568 263.992 133.252 265.54 133.252C267.07 133.252 268.222 132.568 269.014 131.218C269.698 130.066 270.04 128.518 270.04 126.574C270.04 124.63 269.698 123.082 269.014 121.93C268.222 120.562 267.07 119.896 265.54 119.896ZM265.54 121.156C266.692 121.156 267.52 121.768 268.024 123.01C268.384 123.874 268.582 125.062 268.582 126.574C268.582 128.068 268.384 129.256 268.024 130.138C267.52 131.362 266.692 131.992 265.54 131.992C264.388 131.992 263.56 131.362 263.056 130.138C262.696 129.256 262.516 128.068 262.516 126.574C262.516 125.062 262.696 123.874 263.056 123.01C263.56 121.768 264.388 121.156 265.54 121.156ZM277.773 120.148C277.341 120.634 276.837 121.066 276.225 121.462C275.613 121.822 275.001 122.074 274.425 122.236V123.712C275.631 123.352 276.639 122.776 277.449 121.948V133H278.925V120.148H277.773ZM288.958 119.896C287.41 119.896 286.258 120.562 285.484 121.93C284.8 123.082 284.458 124.63 284.458 126.574C284.458 128.518 284.8 130.066 285.484 131.218C286.258 132.568 287.41 133.252 288.958 133.252C290.488 133.252 291.64 132.568 292.432 131.218C293.116 130.066 293.458 128.518 293.458 126.574C293.458 124.63 293.116 123.082 292.432 121.93C291.64 120.562 290.488 119.896 288.958 119.896ZM288.958 121.156C290.11 121.156 290.938 121.768 291.442 123.01C291.802 123.874 292 125.062 292 126.574C292 128.068 291.802 129.256 291.442 130.138C290.938 131.362 290.11 131.992 288.958 131.992C287.806 131.992 286.978 131.362 286.474 130.138C286.114 129.256 285.934 128.068 285.934 126.574C285.934 125.062 286.114 123.874 286.474 123.01C286.978 121.768 287.806 121.156 288.958 121.156ZM301.191 120.148C300.759 120.634 300.255 121.066 299.643 121.462C299.031 121.822 298.419 122.074 297.843 122.236V123.712C299.049 123.352 300.057 122.776 300.867 121.948V133H302.343V120.148H301.191ZM312.376 119.896C310.828 119.896 309.676 120.562 308.902 121.93C308.218 123.082 307.876 124.63 307.876 126.574C307.876 128.518 308.218 130.066 308.902 131.218C309.676 132.568 310.828 133.252 312.376 133.252C313.906 133.252 315.058 132.568 315.85 131.218C316.534 130.066 316.876 128.518 316.876 126.574C316.876 124.63 316.534 123.082 315.85 121.93C315.058 120.562 313.906 119.896 312.376 119.896ZM312.376 121.156C313.528 121.156 314.356 121.768 314.86 123.01C315.22 123.874 315.418 125.062 315.418 126.574C315.418 128.068 315.22 129.256 314.86 130.138C314.356 131.362 313.528 131.992 312.376 131.992C311.224 131.992 310.396 131.362 309.892 130.138C309.532 129.256 309.352 128.068 309.352 126.574C309.352 125.062 309.532 123.874 309.892 123.01C310.396 121.768 311.224 121.156 312.376 121.156Z" fill="#E4F0F0"/>
<path d="M84.9463 142.896C83.3983 142.896 82.2463 143.562 81.4723 144.93C80.7883 146.082 80.4463 147.63 80.4463 149.574C80.4463 151.518 80.7883 153.066 81.4723 154.218C82.2463 155.568 83.3983 156.252 84.9463 156.252C86.4763 156.252 87.6283 155.568 88.4203 154.218C89.1043 153.066 89.4463 151.518 89.4463 149.574C89.4463 147.63 89.1043 146.082 88.4203 144.93C87.6283 143.562 86.4763 142.896 84.9463 142.896ZM84.9463 144.156C86.0983 144.156 86.9263 144.768 87.4303 146.01C87.7903 146.874 87.9883 148.062 87.9883 149.574C87.9883 151.068 87.7903 152.256 87.4303 153.138C86.9263 154.362 86.0983 154.992 84.9463 154.992C83.7943 154.992 82.9663 154.362 82.4623 153.138C82.1023 152.256 81.9223 151.068 81.9223 149.574C81.9223 148.062 82.1023 146.874 82.4623 146.01C82.9663 144.768 83.7943 144.156 84.9463 144.156ZM97.1793 143.148C96.7473 143.634 96.2433 144.066 95.6313 144.462C95.0193 144.822 94.4073 145.074 93.8313 145.236V146.712C95.0373 146.352 96.0453 145.776 96.8553 144.948V156H98.3313V143.148H97.1793ZM107.104 143.148C106.672 143.634 106.168 144.066 105.556 144.462C104.944 144.822 104.332 145.074 103.756 145.236V146.712C104.962 146.352 105.97 145.776 106.78 144.948V156H108.256V143.148H107.104ZM118.288 142.896C116.74 142.896 115.588 143.562 114.814 144.93C114.13 146.082 113.788 147.63 113.788 149.574C113.788 151.518 114.13 153.066 114.814 154.218C115.588 155.568 116.74 156.252 118.288 156.252C119.818 156.252 120.97 155.568 121.762 154.218C122.446 153.066 122.788 151.518 122.788 149.574C122.788 147.63 122.446 146.082 121.762 144.93C120.97 143.562 119.818 142.896 118.288 142.896ZM118.288 144.156C119.44 144.156 120.268 144.768 120.772 146.01C121.132 146.874 121.33 148.062 121.33 149.574C121.33 151.068 121.132 152.256 120.772 153.138C120.268 154.362 119.44 154.992 118.288 154.992C117.136 154.992 116.308 154.362 115.804 153.138C115.444 152.256 115.264 151.068 115.264 149.574C115.264 148.062 115.444 146.874 115.804 146.01C116.308 144.768 117.136 144.156 118.288 144.156ZM130.521 143.148C130.089 143.634 129.585 144.066 128.973 144.462C128.361 144.822 127.749 145.074 127.173 145.236V146.712C128.379 146.352 129.387 145.776 130.197 144.948V156H131.673V143.148H130.521ZM141.706 142.896C140.158 142.896 139.006 143.562 138.232 144.93C137.548 146.082 137.206 147.63 137.206 149.574C137.206 151.518 137.548 153.066 138.232 154.218C139.006 155.568 140.158 156.252 141.706 156.252C143.236 156.252 144.388 155.568 145.18 154.218C145.864 153.066 146.206 151.518 146.206 149.574C146.206 147.63 145.864 146.082 145.18 144.93C144.388 143.562 143.236 142.896 141.706 142.896ZM141.706 144.156C142.858 144.156 143.686 144.768 144.19 146.01C144.55 146.874 144.748 148.062 144.748 149.574C144.748 151.068 144.55 152.256 144.19 153.138C143.686 154.362 142.858 154.992 141.706 154.992C140.554 154.992 139.726 154.362 139.222 153.138C138.862 152.256 138.682 151.068 138.682 149.574C138.682 148.062 138.862 146.874 139.222 146.01C139.726 144.768 140.554 144.156 141.706 144.156ZM153.939 143.148C153.507 143.634 153.003 144.066 152.391 144.462C151.779 144.822 151.167 145.074 150.591 145.236V146.712C151.797 146.352 152.805 145.776 153.615 144.948V156H155.091V143.148H153.939ZM163.864 143.148C163.432 143.634 162.928 144.066 162.316 144.462C161.704 144.822 161.092 145.074 160.516 145.236V146.712C161.722 146.352 162.73 145.776 163.54 144.948V156H165.016V143.148H163.864ZM175.048 142.896C173.5 142.896 172.348 143.562 171.574 144.93C170.89 146.082 170.548 147.63 170.548 149.574C170.548 151.518 170.89 153.066 171.574 154.218C172.348 155.568 173.5 156.252 175.048 156.252C176.578 156.252 177.73 155.568 178.522 154.218C179.206 153.066 179.548 151.518 179.548 149.574C179.548 147.63 179.206 146.082 178.522 144.93C177.73 143.562 176.578 142.896 175.048 142.896ZM175.048 144.156C176.2 144.156 177.028 144.768 177.532 146.01C177.892 146.874 178.09 148.062 178.09 149.574C178.09 151.068 177.892 152.256 177.532 153.138C177.028 154.362 176.2 154.992 175.048 154.992C173.896 154.992 173.068 154.362 172.564 153.138C172.204 152.256 172.024 151.068 172.024 149.574C172.024 148.062 172.204 146.874 172.564 146.01C173.068 144.768 173.896 144.156 175.048 144.156ZM187.281 143.148C186.849 143.634 186.345 144.066 185.733 144.462C185.121 144.822 184.509 145.074 183.933 145.236V146.712C185.139 146.352 186.147 145.776 186.957 144.948V156H188.433V143.148H187.281ZM198.466 142.896C196.918 142.896 195.766 143.562 194.992 144.93C194.308 146.082 193.966 147.63 193.966 149.574C193.966 151.518 194.308 153.066 194.992 154.218C195.766 155.568 196.918 156.252 198.466 156.252C199.996 156.252 201.148 155.568 201.94 154.218C202.624 153.066 202.966 151.518 202.966 149.574C202.966 147.63 202.624 146.082 201.94 144.93C201.148 143.562 199.996 142.896 198.466 142.896ZM198.466 144.156C199.618 144.156 200.446 144.768 200.95 146.01C201.31 146.874 201.508 148.062 201.508 149.574C201.508 151.068 201.31 152.256 200.95 153.138C200.446 154.362 199.618 154.992 198.466 154.992C197.314 154.992 196.486 154.362 195.982 153.138C195.622 152.256 195.442 151.068 195.442 149.574C195.442 148.062 195.622 146.874 195.982 146.01C196.486 144.768 197.314 144.156 198.466 144.156ZM210.699 143.148C210.267 143.634 209.763 144.066 209.151 144.462C208.539 144.822 207.927 145.074 207.351 145.236V146.712C208.557 146.352 209.565 145.776 210.375 144.948V156H211.851V143.148H210.699ZM221.883 142.896C220.335 142.896 219.183 143.562 218.409 144.93C217.725 146.082 217.383 147.63 217.383 149.574C217.383 151.518 217.725 153.066 218.409 154.218C219.183 155.568 220.335 156.252 221.883 156.252C223.413 156.252 224.565 155.568 225.357 154.218C226.041 153.066 226.383 151.518 226.383 149.574C226.383 147.63 226.041 146.082 225.357 144.93C224.565 143.562 223.413 142.896 221.883 142.896ZM221.883 144.156C223.035 144.156 223.863 144.768 224.367 146.01C224.727 146.874 224.925 148.062 224.925 149.574C224.925 151.068 224.727 152.256 224.367 153.138C223.863 154.362 223.035 154.992 221.883 154.992C220.731 154.992 219.903 154.362 219.399 153.138C219.039 152.256 218.859 151.068 218.859 149.574C218.859 148.062 219.039 146.874 219.399 146.01C219.903 144.768 220.731 144.156 221.883 144.156ZM234.116 143.148C233.684 143.634 233.18 144.066 232.568 144.462C231.956 144.822 231.344 145.074 230.768 145.236V146.712C231.974 146.352 232.982 145.776 233.792 144.948V156H235.268V143.148H234.116ZM245.301 142.896C243.753 142.896 242.601 143.562 241.827 144.93C241.143 146.082 240.801 147.63 240.801 149.574C240.801 151.518 241.143 153.066 241.827 154.218C242.601 155.568 243.753 156.252 245.301 156.252C246.831 156.252 247.983 155.568 248.775 154.218C249.459 153.066 249.801 151.518 249.801 149.574C249.801 147.63 249.459 146.082 248.775 144.93C247.983 143.562 246.831 142.896 245.301 142.896ZM245.301 144.156C246.453 144.156 247.281 144.768 247.785 146.01C248.145 146.874 248.343 148.062 248.343 149.574C248.343 151.068 248.145 152.256 247.785 153.138C247.281 154.362 246.453 154.992 245.301 154.992C244.149 154.992 243.321 154.362 242.817 153.138C242.457 152.256 242.277 151.068 242.277 149.574C242.277 148.062 242.457 146.874 242.817 146.01C243.321 144.768 244.149 144.156 245.301 144.156ZM258.794 142.896C257.246 142.896 256.094 143.562 255.32 144.93C254.636 146.082 254.294 147.63 254.294 149.574C254.294 151.518 254.636 153.066 255.32 154.218C256.094 155.568 257.246 156.252 258.794 156.252C260.324 156.252 261.476 155.568 262.268 154.218C262.952 153.066 263.294 151.518 263.294 149.574C263.294 147.63 262.952 146.082 262.268 144.93C261.476 143.562 260.324 142.896 258.794 142.896ZM258.794 144.156C259.946 144.156 260.774 144.768 261.278 146.01C261.638 146.874 261.836 148.062 261.836 149.574C261.836 151.068 261.638 152.256 261.278 153.138C260.774 154.362 259.946 154.992 258.794 154.992C257.642 154.992 256.814 154.362 256.31 153.138C255.95 152.256 255.77 151.068 255.77 149.574C255.77 148.062 255.95 146.874 256.31 146.01C256.814 144.768 257.642 144.156 258.794 144.156ZM271.027 143.148C270.595 143.634 270.091 144.066 269.479 144.462C268.867 144.822 268.255 145.074 267.679 145.236V146.712C268.885 146.352 269.893 145.776 270.703 144.948V156H272.179V143.148H271.027ZM280.952 143.148C280.52 143.634 280.016 144.066 279.404 144.462C278.792 144.822 278.18 145.074 277.604 145.236V146.712C278.81 146.352 279.818 145.776 280.628 144.948V156H282.104V143.148H280.952ZM290.876 143.148C290.444 143.634 289.94 144.066 289.328 144.462C288.716 144.822 288.104 145.074 287.528 145.236V146.712C288.734 146.352 289.742 145.776 290.552 144.948V156H292.028V143.148H290.876ZM302.061 142.896C300.513 142.896 299.361 143.562 298.587 144.93C297.903 146.082 297.561 147.63 297.561 149.574C297.561 151.518 297.903 153.066 298.587 154.218C299.361 155.568 300.513 156.252 302.061 156.252C303.591 156.252 304.743 155.568 305.535 154.218C306.219 153.066 306.561 151.518 306.561 149.574C306.561 147.63 306.219 146.082 305.535 144.93C304.743 143.562 303.591 142.896 302.061 142.896ZM302.061 144.156C303.213 144.156 304.041 144.768 304.545 146.01C304.905 146.874 305.103 148.062 305.103 149.574C305.103 151.068 304.905 152.256 304.545 153.138C304.041 154.362 303.213 154.992 302.061 154.992C300.909 154.992 300.081 154.362 299.577 153.138C299.217 152.256 299.037 151.068 299.037 149.574C299.037 148.062 299.217 146.874 299.577 146.01C300.081 144.768 300.909 144.156 302.061 144.156Z" fill="#E4F0F0"/>
<path d="M90.4328 167.148C90.0008 167.634 89.4968 168.066 88.8848 168.462C88.2728 168.822 87.6608 169.074 87.0848 169.236V170.712C88.2908 170.352 89.2988 169.776 90.1088 168.948V180H91.5848V167.148H90.4328ZM101.617 166.896C100.069 166.896 98.9174 167.562 98.1434 168.93C97.4594 170.082 97.1174 171.63 97.1174 173.574C97.1174 175.518 97.4594 177.066 98.1434 178.218C98.9174 179.568 100.069 180.252 101.617 180.252C103.147 180.252 104.299 179.568 105.091 178.218C105.775 177.066 106.117 175.518 106.117 173.574C106.117 171.63 105.775 170.082 105.091 168.93C104.299 167.562 103.147 166.896 101.617 166.896ZM101.617 168.156C102.769 168.156 103.597 168.768 104.101 170.01C104.461 170.874 104.659 172.062 104.659 173.574C104.659 175.068 104.461 176.256 104.101 177.138C103.597 178.362 102.769 178.992 101.617 178.992C100.465 178.992 99.6374 178.362 99.1334 177.138C98.7734 176.256 98.5934 175.068 98.5934 173.574C98.5934 172.062 98.7734 170.874 99.1334 170.01C99.6374 168.768 100.465 168.156 101.617 168.156ZM113.85 167.148C113.418 167.634 112.914 168.066 112.302 168.462C111.69 168.822 111.078 169.074 110.502 169.236V170.712C111.708 170.352 112.716 169.776 113.526 168.948V180H115.002V167.148H113.85ZM125.035 166.896C123.487 166.896 122.335 167.562 121.561 168.93C120.877 170.082 120.535 171.63 120.535 173.574C120.535 175.518 120.877 177.066 121.561 178.218C122.335 179.568 123.487 180.252 125.035 180.252C126.565 180.252 127.717 179.568 128.509 178.218C129.193 177.066 129.535 175.518 129.535 173.574C129.535 171.63 129.193 170.082 128.509 168.93C127.717 167.562 126.565 166.896 125.035 166.896ZM125.035 168.156C126.187 168.156 127.015 168.768 127.519 170.01C127.879 170.874 128.077 172.062 128.077 173.574C128.077 175.068 127.879 176.256 127.519 177.138C127.015 178.362 126.187 178.992 125.035 178.992C123.883 178.992 123.055 178.362 122.551 177.138C122.191 176.256 122.011 175.068 122.011 173.574C122.011 172.062 122.191 170.874 122.551 170.01C123.055 168.768 123.883 168.156 125.035 168.156ZM137.268 167.148C136.836 167.634 136.332 168.066 135.72 168.462C135.108 168.822 134.496 169.074 133.92 169.236V170.712C135.126 170.352 136.134 169.776 136.944 168.948V180H138.42V167.148H137.268ZM147.193 167.148C146.761 167.634 146.257 168.066 145.645 168.462C145.033 168.822 144.421 169.074 143.845 169.236V170.712C145.051 170.352 146.059 169.776 146.869 168.948V180H148.345V167.148H147.193ZM157.117 167.148C156.685 167.634 156.181 168.066 155.569 168.462C154.957 168.822 154.345 169.074 153.769 169.236V170.712C154.975 170.352 155.983 169.776 156.793 168.948V180H158.269V167.148H157.117ZM167.042 167.148C166.61 167.634 166.106 168.066 165.494 168.462C164.882 168.822 164.27 169.074 163.694 169.236V170.712C164.9 170.352 165.908 169.776 166.718 168.948V180H168.194V167.148H167.042ZM176.966 167.148C176.534 167.634 176.03 168.066 175.418 168.462C174.806 168.822 174.194 169.074 173.618 169.236V170.712C174.824 170.352 175.832 169.776 176.642 168.948V180H178.118V167.148H176.966ZM188.151 166.896C186.603 166.896 185.451 167.562 184.677 168.93C183.993 170.082 183.651 171.63 183.651 173.574C183.651 175.518 183.993 177.066 184.677 178.218C185.451 179.568 186.603 180.252 188.151 180.252C189.681 180.252 190.833 179.568 191.625 178.218C192.309 177.066 192.651 175.518 192.651 173.574C192.651 171.63 192.309 170.082 191.625 168.93C190.833 167.562 189.681 166.896 188.151 166.896ZM188.151 168.156C189.303 168.156 190.131 168.768 190.635 170.01C190.995 170.874 191.193 172.062 191.193 173.574C191.193 175.068 190.995 176.256 190.635 177.138C190.131 178.362 189.303 178.992 188.151 178.992C186.999 178.992 186.171 178.362 185.667 177.138C185.307 176.256 185.127 175.068 185.127 173.574C185.127 172.062 185.307 170.874 185.667 170.01C186.171 168.768 186.999 168.156 188.151 168.156ZM200.384 167.148C199.952 167.634 199.448 168.066 198.836 168.462C198.224 168.822 197.612 169.074 197.036 169.236V170.712C198.242 170.352 199.25 169.776 200.06 168.948V180H201.536V167.148H200.384ZM211.569 166.896C210.021 166.896 208.869 167.562 208.095 168.93C207.411 170.082 207.069 171.63 207.069 173.574C207.069 175.518 207.411 177.066 208.095 178.218C208.869 179.568 210.021 180.252 211.569 180.252C213.099 180.252 214.251 179.568 215.043 178.218C215.727 177.066 216.069 175.518 216.069 173.574C216.069 171.63 215.727 170.082 215.043 168.93C214.251 167.562 213.099 166.896 211.569 166.896ZM211.569 168.156C212.721 168.156 213.549 168.768 214.053 170.01C214.413 170.874 214.611 172.062 214.611 173.574C214.611 175.068 214.413 176.256 214.053 177.138C213.549 178.362 212.721 178.992 211.569 178.992C210.417 178.992 209.589 178.362 209.085 177.138C208.725 176.256 208.545 175.068 208.545 173.574C208.545 172.062 208.725 170.874 209.085 170.01C209.589 168.768 210.417 168.156 211.569 168.156ZM223.802 167.148C223.37 167.634 222.866 168.066 222.254 168.462C221.642 168.822 221.03 169.074 220.454 169.236V170.712C221.66 170.352 222.668 169.776 223.478 168.948V180H224.954V167.148H223.802ZM234.986 166.896C233.438 166.896 232.286 167.562 231.512 168.93C230.828 170.082 230.486 171.63 230.486 173.574C230.486 175.518 230.828 177.066 231.512 178.218C232.286 179.568 233.438 180.252 234.986 180.252C236.516 180.252 237.668 179.568 238.46 178.218C239.144 177.066 239.486 175.518 239.486 173.574C239.486 171.63 239.144 170.082 238.46 168.93C237.668 167.562 236.516 166.896 234.986 166.896ZM234.986 168.156C236.138 168.156 236.966 168.768 237.47 170.01C237.83 170.874 238.028 172.062 238.028 173.574C238.028 175.068 237.83 176.256 237.47 177.138C236.966 178.362 236.138 178.992 234.986 178.992C233.834 178.992 233.006 178.362 232.502 177.138C232.142 176.256 231.962 175.068 231.962 173.574C231.962 172.062 232.142 170.874 232.502 170.01C233.006 168.768 233.834 168.156 234.986 168.156ZM247.219 167.148C246.787 167.634 246.283 168.066 245.671 168.462C245.059 168.822 244.447 169.074 243.871 169.236V170.712C245.077 170.352 246.085 169.776 246.895 168.948V180H248.371V167.148H247.219ZM258.404 166.896C256.856 166.896 255.704 167.562 254.93 168.93C254.246 170.082 253.904 171.63 253.904 173.574C253.904 175.518 254.246 177.066 254.93 178.218C255.704 179.568 256.856 180.252 258.404 180.252C259.934 180.252 261.086 179.568 261.878 178.218C262.562 177.066 262.904 175.518 262.904 173.574C262.904 171.63 262.562 170.082 261.878 168.93C261.086 167.562 259.934 166.896 258.404 166.896ZM258.404 168.156C259.556 168.156 260.384 168.768 260.888 170.01C261.248 170.874 261.446 172.062 261.446 173.574C261.446 175.068 261.248 176.256 260.888 177.138C260.384 178.362 259.556 178.992 258.404 178.992C257.252 178.992 256.424 178.362 255.92 177.138C255.56 176.256 255.38 175.068 255.38 173.574C255.38 172.062 255.56 170.874 255.92 170.01C256.424 168.768 257.252 168.156 258.404 168.156ZM271.897 166.896C270.349 166.896 269.197 167.562 268.423 168.93C267.739 170.082 267.397 171.63 267.397 173.574C267.397 175.518 267.739 177.066 268.423 178.218C269.197 179.568 270.349 180.252 271.897 180.252C273.427 180.252 274.579 179.568 275.371 178.218C276.055 177.066 276.397 175.518 276.397 173.574C276.397 171.63 276.055 170.082 275.371 168.93C274.579 167.562 273.427 166.896 271.897 166.896ZM271.897 168.156C273.049 168.156 273.877 168.768 274.381 170.01C274.741 170.874 274.939 172.062 274.939 173.574C274.939 175.068 274.741 176.256 274.381 177.138C273.877 178.362 273.049 178.992 271.897 178.992C270.745 178.992 269.917 178.362 269.413 177.138C269.053 176.256 268.873 175.068 268.873 173.574C268.873 172.062 269.053 170.874 269.413 170.01C269.917 168.768 270.745 168.156 271.897 168.156ZM284.13 167.148C283.698 167.634 283.194 168.066 282.582 168.462C281.97 168.822 281.358 169.074 280.782 169.236V170.712C281.988 170.352 282.996 169.776 283.806 168.948V180H285.282V167.148H284.13ZM295.314 166.896C293.766 166.896 292.614 167.562 291.84 168.93C291.156 170.082 290.814 171.63 290.814 173.574C290.814 175.518 291.156 177.066 291.84 178.218C292.614 179.568 293.766 180.252 295.314 180.252C296.844 180.252 297.996 179.568 298.788 178.218C299.472 177.066 299.814 175.518 299.814 173.574C299.814 171.63 299.472 170.082 298.788 168.93C297.996 167.562 296.844 166.896 295.314 166.896ZM295.314 168.156C296.466 168.156 297.294 168.768 297.798 170.01C298.158 170.874 298.356 172.062 298.356 173.574C298.356 175.068 298.158 176.256 297.798 177.138C297.294 178.362 296.466 178.992 295.314 178.992C294.162 178.992 293.334 178.362 292.83 177.138C292.47 176.256 292.29 175.068 292.29 173.574C292.29 172.062 292.47 170.874 292.83 170.01C293.334 168.768 294.162 168.156 295.314 168.156Z" fill="#E4F0F0"/>
<path d="M102.142 191.148C101.71 191.634 101.206 192.066 100.594 192.462C99.9816 192.822 99.3696 193.074 98.7936 193.236V194.712C99.9996 194.352 101.008 193.776 101.818 192.948V204H103.294V191.148H102.142ZM112.066 191.148C111.634 191.634 111.13 192.066 110.518 192.462C109.906 192.822 109.294 193.074 108.718 193.236V194.712C109.924 194.352 110.932 193.776 111.742 192.948V204H113.218V191.148H112.066ZM123.251 190.896C121.703 190.896 120.551 191.562 119.777 192.93C119.093 194.082 118.751 195.63 118.751 197.574C118.751 199.518 119.093 201.066 119.777 202.218C120.551 203.568 121.703 204.252 123.251 204.252C124.781 204.252 125.933 203.568 126.725 202.218C127.409 201.066 127.751 199.518 127.751 197.574C127.751 195.63 127.409 194.082 126.725 192.93C125.933 191.562 124.781 190.896 123.251 190.896ZM123.251 192.156C124.403 192.156 125.231 192.768 125.735 194.01C126.095 194.874 126.293 196.062 126.293 197.574C126.293 199.068 126.095 200.256 125.735 201.138C125.231 202.362 124.403 202.992 123.251 202.992C122.099 202.992 121.271 202.362 120.767 201.138C120.407 200.256 120.227 199.068 120.227 197.574C120.227 196.062 120.407 194.874 120.767 194.01C121.271 192.768 122.099 192.156 123.251 192.156ZM135.484 191.148C135.052 191.634 134.548 192.066 133.936 192.462C133.324 192.822 132.712 193.074 132.136 193.236V194.712C133.342 194.352 134.35 193.776 135.16 192.948V204H136.636V191.148H135.484ZM146.668 190.896C145.12 190.896 143.968 191.562 143.194 192.93C142.51 194.082 142.168 195.63 142.168 197.574C142.168 199.518 142.51 201.066 143.194 202.218C143.968 203.568 145.12 204.252 146.668 204.252C148.198 204.252 149.35 203.568 150.142 202.218C150.826 201.066 151.168 199.518 151.168 197.574C151.168 195.63 150.826 194.082 150.142 192.93C149.35 191.562 148.198 190.896 146.668 190.896ZM146.668 192.156C147.82 192.156 148.648 192.768 149.152 194.01C149.512 194.874 149.71 196.062 149.71 197.574C149.71 199.068 149.512 200.256 149.152 201.138C148.648 202.362 147.82 202.992 146.668 202.992C145.516 202.992 144.688 202.362 144.184 201.138C143.824 200.256 143.644 199.068 143.644 197.574C143.644 196.062 143.824 194.874 144.184 194.01C144.688 192.768 145.516 192.156 146.668 192.156ZM158.901 191.148C158.469 191.634 157.965 192.066 157.353 192.462C156.741 192.822 156.129 193.074 155.553 193.236V194.712C156.759 194.352 157.767 193.776 158.577 192.948V204H160.053V191.148H158.901ZM168.826 191.148C168.394 191.634 167.89 192.066 167.278 192.462C166.666 192.822 166.054 193.074 165.478 193.236V194.712C166.684 194.352 167.692 193.776 168.502 192.948V204H169.978V191.148H168.826ZM180.011 190.896C178.463 190.896 177.311 191.562 176.537 192.93C175.853 194.082 175.511 195.63 175.511 197.574C175.511 199.518 175.853 201.066 176.537 202.218C177.311 203.568 178.463 204.252 180.011 204.252C181.541 204.252 182.693 203.568 183.485 202.218C184.169 201.066 184.511 199.518 184.511 197.574C184.511 195.63 184.169 194.082 183.485 192.93C182.693 191.562 181.541 190.896 180.011 190.896ZM180.011 192.156C181.163 192.156 181.991 192.768 182.495 194.01C182.855 194.874 183.053 196.062 183.053 197.574C183.053 199.068 182.855 200.256 182.495 201.138C181.991 202.362 181.163 202.992 180.011 202.992C178.859 202.992 178.031 202.362 177.527 201.138C177.167 200.256 176.987 199.068 176.987 197.574C176.987 196.062 177.167 194.874 177.527 194.01C178.031 192.768 178.859 192.156 180.011 192.156ZM192.244 191.148C191.812 191.634 191.308 192.066 190.696 192.462C190.084 192.822 189.472 193.074 188.896 193.236V194.712C190.102 194.352 191.11 193.776 191.92 192.948V204H193.396V191.148H192.244ZM203.428 190.896C201.88 190.896 200.728 191.562 199.954 192.93C199.27 194.082 198.928 195.63 198.928 197.574C198.928 199.518 199.27 201.066 199.954 202.218C200.728 203.568 201.88 204.252 203.428 204.252C204.958 204.252 206.11 203.568 206.902 202.218C207.586 201.066 207.928 199.518 207.928 197.574C207.928 195.63 207.586 194.082 206.902 192.93C206.11 191.562 204.958 190.896 203.428 190.896ZM203.428 192.156C204.58 192.156 205.408 192.768 205.912 194.01C206.272 194.874 206.47 196.062 206.47 197.574C206.47 199.068 206.272 200.256 205.912 201.138C205.408 202.362 204.58 202.992 203.428 202.992C202.276 202.992 201.448 202.362 200.944 201.138C200.584 200.256 200.404 199.068 200.404 197.574C200.404 196.062 200.584 194.874 200.944 194.01C201.448 192.768 202.276 192.156 203.428 192.156ZM215.661 191.148C215.229 191.634 214.725 192.066 214.113 192.462C213.501 192.822 212.889 193.074 212.313 193.236V194.712C213.519 194.352 214.527 193.776 215.337 192.948V204H216.813V191.148H215.661ZM226.846 190.896C225.298 190.896 224.146 191.562 223.372 192.93C222.688 194.082 222.346 195.63 222.346 197.574C222.346 199.518 222.688 201.066 223.372 202.218C224.146 203.568 225.298 204.252 226.846 204.252C228.376 204.252 229.528 203.568 230.32 202.218C231.004 201.066 231.346 199.518 231.346 197.574C231.346 195.63 231.004 194.082 230.32 192.93C229.528 191.562 228.376 190.896 226.846 190.896ZM226.846 192.156C227.998 192.156 228.826 192.768 229.33 194.01C229.69 194.874 229.888 196.062 229.888 197.574C229.888 199.068 229.69 200.256 229.33 201.138C228.826 202.362 227.998 202.992 226.846 202.992C225.694 202.992 224.866 202.362 224.362 201.138C224.002 200.256 223.822 199.068 223.822 197.574C223.822 196.062 224.002 194.874 224.362 194.01C224.866 192.768 225.694 192.156 226.846 192.156ZM239.079 191.148C238.647 191.634 238.143 192.066 237.531 192.462C236.919 192.822 236.307 193.074 235.731 193.236V194.712C236.937 194.352 237.945 193.776 238.755 192.948V204H240.231V191.148H239.079ZM250.263 190.896C248.715 190.896 247.563 191.562 246.789 192.93C246.105 194.082 245.763 195.63 245.763 197.574C245.763 199.518 246.105 201.066 246.789 202.218C247.563 203.568 248.715 204.252 250.263 204.252C251.793 204.252 252.945 203.568 253.737 202.218C254.421 201.066 254.763 199.518 254.763 197.574C254.763 195.63 254.421 194.082 253.737 192.93C252.945 191.562 251.793 190.896 250.263 190.896ZM250.263 192.156C251.415 192.156 252.243 192.768 252.747 194.01C253.107 194.874 253.305 196.062 253.305 197.574C253.305 199.068 253.107 200.256 252.747 201.138C252.243 202.362 251.415 202.992 250.263 202.992C249.111 202.992 248.283 202.362 247.779 201.138C247.419 200.256 247.239 199.068 247.239 197.574C247.239 196.062 247.419 194.874 247.779 194.01C248.283 192.768 249.111 192.156 250.263 192.156ZM263.756 190.896C262.208 190.896 261.056 191.562 260.282 192.93C259.598 194.082 259.256 195.63 259.256 197.574C259.256 199.518 259.598 201.066 260.282 202.218C261.056 203.568 262.208 204.252 263.756 204.252C265.286 204.252 266.438 203.568 267.23 202.218C267.914 201.066 268.256 199.518 268.256 197.574C268.256 195.63 267.914 194.082 267.23 192.93C266.438 191.562 265.286 190.896 263.756 190.896ZM263.756 192.156C264.908 192.156 265.736 192.768 266.24 194.01C266.6 194.874 266.798 196.062 266.798 197.574C266.798 199.068 266.6 200.256 266.24 201.138C265.736 202.362 264.908 202.992 263.756 202.992C262.604 202.992 261.776 202.362 261.272 201.138C260.912 200.256 260.732 199.068 260.732 197.574C260.732 196.062 260.912 194.874 261.272 194.01C261.776 192.768 262.604 192.156 263.756 192.156ZM275.989 191.148C275.557 191.634 275.053 192.066 274.441 192.462C273.829 192.822 273.217 193.074 272.641 193.236V194.712C273.847 194.352 274.855 193.776 275.665 192.948V204H277.141V191.148H275.989ZM285.914 191.148C285.482 191.634 284.978 192.066 284.366 192.462C283.754 192.822 283.142 193.074 282.566 193.236V194.712C283.772 194.352 284.78 193.776 285.59 192.948V204H287.066V191.148H285.914Z" fill="#E4F0F0"/>
<g filter="url(#filter0_d)">
<rect x="20" y="87" width="354" height="37" rx="18.5" fill="white"/>
<rect x="21" y="88" width="352" height="35" rx="17.5" stroke="#78A5A9" stroke-width="2"/>
</g>
<path d="M68.488 97.294V111.82H62.008V113.08H78.028V111.82H69.82V104.116H76.498V102.856H69.82V97.294H68.488ZM81.7 104.746V106.042H97.882V104.746H81.7ZM101.878 100.462V101.65H107.512C106.432 102.802 104.452 103.828 101.572 104.746L102.256 105.862C105.496 104.674 107.692 103.27 108.844 101.65H108.934V105.376H104.866V106.51H112.174C111.526 106.87 110.59 107.356 109.348 107.932V108.994H102.22V110.182H109.348V111.838C109.348 112.306 109.096 112.558 108.628 112.558C107.836 112.558 107.116 112.54 106.468 112.522L106.792 113.692H109.06C110.122 113.692 110.662 113.206 110.662 112.252V110.182H116.962V108.994H110.662V108.436C111.85 107.806 112.93 107.158 113.902 106.51V105.376H110.266V103.126C111.382 103.378 112.462 103.702 113.506 104.116C114.694 104.548 115.864 105.088 117.052 105.7L117.556 104.53C116.206 103.918 115.108 103.486 114.262 103.216C113.308 102.856 111.976 102.478 110.266 102.064V101.65H117.322V100.462H110.266V99.022C112.318 98.878 114.1 98.644 115.648 98.338L115.072 97.33C111.958 97.852 108.034 98.122 103.318 98.14L103.696 99.238C105.55 99.238 107.296 99.184 108.934 99.112V100.462H101.878ZM127.672 100.408H124.774C125.134 99.508 125.404 98.518 125.62 97.456L124.324 97.276C124.162 98.356 123.91 99.4 123.55 100.408H121.876V113.206H123.136V111.658H126.412V112.684H127.672V100.408ZM123.136 110.452V106.51H126.412V110.452H123.136ZM123.136 105.34V101.632H126.412V105.34H123.136ZM130.804 104.584L129.76 105.232C131.002 106.708 131.992 108.04 132.73 109.228L133.756 108.508C133.072 107.392 132.1 106.078 130.804 104.584ZM136.978 100.426H131.236C131.56 99.49 131.812 98.482 132.028 97.42L130.75 97.258C130.282 99.814 129.436 101.974 128.176 103.738L128.95 104.764C129.652 103.846 130.246 102.82 130.75 101.686H135.7C135.664 106.87 135.592 109.984 135.484 110.992C135.34 111.91 134.854 112.378 134.008 112.378C133.45 112.378 132.802 112.36 132.046 112.324L132.352 113.512C133.216 113.548 133.828 113.584 134.188 113.584C135.7 113.584 136.528 112.882 136.708 111.514C136.888 110.11 136.978 106.402 136.978 100.426ZM153.592 97.24L152.764 98.032C153.682 98.734 154.402 99.4 154.942 100.048H151.576C151.54 99.184 151.522 98.266 151.522 97.258H150.19C150.19 98.23 150.208 99.148 150.244 100.048H142.81V106.042C142.756 108.976 142.162 111.262 141.01 112.918L142 113.8C143.332 111.856 144.052 109.264 144.124 106.042V105.502H147.238C147.202 107.482 147.148 108.778 147.04 109.39C146.932 109.894 146.68 110.164 146.284 110.182C145.798 110.182 145.204 110.164 144.502 110.128L144.898 111.298C145.474 111.334 145.996 111.37 146.428 111.37C147.328 111.334 147.886 110.938 148.12 110.164C148.354 109.282 148.498 107.32 148.534 104.278H144.124V101.29H150.298C150.442 103.54 150.694 105.43 151.09 106.942C151.288 107.716 151.522 108.436 151.774 109.102C150.532 110.668 149.002 111.856 147.202 112.666L147.922 113.746C149.614 112.99 151.09 111.892 152.35 110.416C152.62 110.974 152.926 111.478 153.25 111.91C154.114 112.99 154.924 113.53 155.68 113.53C156.49 113.53 157.102 112.324 157.534 109.93L156.364 109.282C156.094 111.136 155.788 112.072 155.464 112.09C155.104 112.09 154.618 111.658 154.024 110.794C153.736 110.38 153.466 109.876 153.214 109.3C154.366 107.68 155.302 105.664 156.022 103.288L154.852 102.784C154.294 104.71 153.574 106.402 152.674 107.842C152.548 107.446 152.422 107.032 152.314 106.582C151.99 105.286 151.756 103.522 151.63 101.29H157.174V100.048H154.978L155.806 99.22C155.194 98.554 154.456 97.888 153.592 97.24ZM161.296 100.606V101.848H167.182C165.85 105.034 163.69 107.644 160.666 109.66L161.404 110.866C164.608 108.508 166.876 105.502 168.208 101.848H168.334V108.868H164.626V110.11H168.334V113.8H169.666V110.11H173.518V108.868H169.666V101.848H169.81C171.034 105.106 173.23 108.04 176.398 110.632L177.28 109.516C174.184 107.266 172.024 104.71 170.818 101.848H176.686V100.606H169.666V97.348H168.334V100.606H161.296ZM183.904 104.782C184.264 105.43 184.696 106.24 185.2 107.248L185.866 106.258C185.218 105.178 184.552 104.206 183.904 103.342V101.83H185.272V100.642H183.904V97.312H182.734V100.642H180.79V101.83H182.734C182.266 104.17 181.492 106.276 180.394 108.112L180.934 109.444C181.654 108.076 182.266 106.582 182.734 104.944V113.836H183.904V104.782ZM187.108 102.82H189.07V105.538H187.108V102.82ZM189.07 101.74H187.108V99.094H189.07V101.74ZM195.694 113.512C196.306 113.476 196.684 113.314 196.864 112.99C197.044 112.63 197.134 111.712 197.134 110.218L196.234 109.858C196.234 110.794 196.198 111.496 196.144 111.928C196.108 112.288 195.946 112.486 195.658 112.504H195.208C194.974 112.486 194.866 112.396 194.866 112.252V107.122H193.966C194.074 106.672 194.182 106.204 194.29 105.718H196.522V104.566H194.488C194.686 103.234 194.794 101.776 194.83 100.21V99.184H196.414V98.032H190.888V99.184H191.482C191.374 101.092 191.23 103.27 191.05 105.718H193.174C192.742 107.626 192.058 109.282 191.14 110.686C190.708 109.714 190.132 108.562 189.394 107.248L188.512 107.806C188.836 108.382 189.124 108.94 189.394 109.498C188.638 110.038 187.882 110.506 187.108 110.884V106.636H190.168V98.014H185.974V111.046C185.974 111.262 185.83 111.442 185.578 111.55L185.884 112.648C187.432 111.964 188.764 111.226 189.862 110.47C190.042 110.884 190.222 111.298 190.384 111.712C190.024 112.144 189.646 112.54 189.214 112.936L190.168 113.764C191.788 112.234 192.994 110.218 193.786 107.716V112.432C193.786 113.152 194.254 113.512 195.19 113.512H195.694ZM192.526 99.184H193.75V100.21C193.732 101.758 193.606 103.216 193.39 104.566H192.184C192.292 103.036 192.418 101.236 192.526 99.184ZM201.652 97.564L200.752 98.41C202.066 99.328 203.11 100.192 203.866 101.002L204.748 100.12C203.92 99.274 202.876 98.428 201.652 97.564ZM201.22 102.118L200.32 102.964C201.616 103.9 202.624 104.764 203.344 105.592L204.226 104.71C203.398 103.846 202.408 102.982 201.22 102.118ZM203.182 107.068C202.444 109.138 201.58 111.154 200.572 113.134L201.796 113.674C202.714 111.748 203.542 109.696 204.28 107.5L203.182 107.068ZM206.08 98.14V105.484H208.456C208.276 108.832 206.8 111.226 204.064 112.666L204.766 113.8C207.826 112.072 209.482 109.3 209.698 105.484H211.426V111.928C211.426 112.918 211.912 113.422 212.902 113.422H214.792C215.404 113.422 215.872 113.242 216.16 112.882C216.484 112.486 216.718 111.334 216.844 109.444L215.674 109.084C215.602 110.614 215.476 111.532 215.296 111.856C215.152 112.108 214.918 112.252 214.558 112.252H213.28C212.866 112.252 212.668 112.054 212.668 111.676V105.484H215.134V98.14H206.08ZM213.874 104.278H207.34V99.382H213.874V104.278Z" fill="#006464"/>
<defs>
<filter id="filter0_d" x="0" y="71" width="394" height="77" filterUnits="userSpaceOnUse" color-interpolation-filters="sRGB">
<feFlood flood-opacity="0" result="BackgroundImageFix"/>
<feColorMatrix in="SourceAlpha" type="matrix" values="0 0 0 0 0 0 0 0 0 0 0 0 0 0 0 0 0 0 127 0"/>
<feOffset dy="4"/>
<feGaussianBlur stdDeviation="10"/>
<feColorMatrix type="matrix" values="0 0 0 0 0 0 0 0 0 0 0 0 0 0 0 0 0 0 0.08 0"/>
<feBlend mode="normal" in2="BackgroundImageFix" result="effect1_dropShadow"/>
<feBlend mode="normal" in="SourceGraphic" in2="effect1_dropShadow" result="shape"/>
</filter>
</defs>
</svg>
