<svg width="366" height="234" viewBox="0 0 366 234" fill="none" xmlns="http://www.w3.org/2000/svg">
<g filter="url(#filter0_d)">
<rect x="13" y="68.9248" width="123.062" height="91.15" rx="7" fill="#E4F0F0" stroke="white" stroke-width="2"/>
<circle cx="72.375" cy="115.363" r="22.425" stroke="#9FC2C6" stroke-width="10"/>
<path d="M94.8 115.362C94.8 102.978 84.76 92.9375 72.375 92.9375" stroke="white" stroke-width="10"/>
</g>
<g filter="url(#filter1_d)">
<rect x="155" y="128" width="164.738" height="93.15" rx="8" fill="#F1F7F7"/>
<rect x="156" y="129" width="162.738" height="91.15" rx="7" stroke="white" stroke-width="2"/>
</g>
<path d="M172.25 191.825L191.544 181.688L215.29 188.139L233.1 170.629L256.352 158.188L282.572 165.56L303.35 158.188" stroke="#78A5A9" stroke-width="3" stroke-linecap="round"/>
<g filter="url(#filter2_d)">
<rect x="156" y="13" width="193" height="96.325" rx="7" fill="#F2F2F2" stroke="white" stroke-width="2"/>
<rect x="177.5" y="69.7881" width="9.375" height="24.15" fill="#67888E"/>
<rect x="189.688" y="61.1631" width="9.375" height="32.775" fill="#9FC2C6"/>
<rect x="220.625" y="48.8154" width="9.375" height="45.1224" fill="#67888E"/>
<rect x="232.812" y="32.7002" width="9.375" height="61.2375" fill="#9FC2C6"/>
<rect x="263.75" y="57.7119" width="9.375" height="36.225" fill="#67888E"/>
<rect x="275.938" y="44.7744" width="9.375" height="49.1625" fill="#9FC2C6"/>
<rect x="306.875" y="50.8125" width="9.375" height="43.125" fill="#67888E"/>
<rect x="319.062" y="61.1621" width="9.375" height="32.775" fill="#9FC2C6"/>
</g>
<defs>
<filter id="filter0_d" x="0" y="59.9248" width="149.062" height="117.15" filterUnits="userSpaceOnUse" color-interpolation-filters="sRGB">
<feFlood flood-opacity="0" result="BackgroundImageFix"/>
<feColorMatrix in="SourceAlpha" type="matrix" values="0 0 0 0 0 0 0 0 0 0 0 0 0 0 0 0 0 0 127 0"/>
<feOffset dy="4"/>
<feGaussianBlur stdDeviation="6"/>
<feColorMatrix type="matrix" values="0 0 0 0 0 0 0 0 0 0 0 0 0 0 0 0 0 0 0.08 0"/>
<feBlend mode="normal" in2="BackgroundImageFix" result="effect1_dropShadow"/>
<feBlend mode="normal" in="SourceGraphic" in2="effect1_dropShadow" result="shape"/>
</filter>
<filter id="filter1_d" x="147" y="124" width="180.738" height="109.15" filterUnits="userSpaceOnUse" color-interpolation-filters="sRGB">
<feFlood flood-opacity="0" result="BackgroundImageFix"/>
<feColorMatrix in="SourceAlpha" type="matrix" values="0 0 0 0 0 0 0 0 0 0 0 0 0 0 0 0 0 0 127 0"/>
<feOffset dy="4"/>
<feGaussianBlur stdDeviation="4"/>
<feColorMatrix type="matrix" values="0 0 0 0 0 0 0 0 0 0 0 0 0 0 0 0 0 0 0.08 0"/>
<feBlend mode="normal" in2="BackgroundImageFix" result="effect1_dropShadow"/>
<feBlend mode="normal" in="SourceGraphic" in2="effect1_dropShadow" result="shape"/>
</filter>
<filter id="filter2_d" x="139" y="0" width="227" height="130.325" filterUnits="userSpaceOnUse" color-interpolation-filters="sRGB">
<feFlood flood-opacity="0" result="BackgroundImageFix"/>
<feColorMatrix in="SourceAlpha" type="matrix" values="0 0 0 0 0 0 0 0 0 0 0 0 0 0 0 0 0 0 127 0"/>
<feOffset dy="4"/>
<feGaussianBlur stdDeviation="8"/>
<feColorMatrix type="matrix" values="0 0 0 0 0 0 0 0 0 0 0 0 0 0 0 0 0 0 0.08 0"/>
<feBlend mode="normal" in2="BackgroundImageFix" result="effect1_dropShadow"/>
<feBlend mode="normal" in="SourceGraphic" in2="effect1_dropShadow" result="shape"/>
</filter>
</defs>
</svg>
