<svg xmlns="http://www.w3.org/2000/svg" width="44" height="33" fill="none" xmlns:v="https://vecta.io/nano"><path d="M43.883 8.1L40.344.65C40.15.246 39.758 0 39.34 0c-.043 0-17.337 2.315-17.337 2.315L4.665 0c-.42 0-.8.253-1.006.65L.12 8.1c-.318.666.022 1.462.695 1.664l3.582 1.078v15.29c0 1.064.687 2 1.664 2.243l14.862 3.915a4.21 4.21 0 0 0 2.134 0l14.877-3.915c.977-.26 1.664-1.187 1.664-2.243v-15.29l3.582-1.078c.68-.203 1.013-1 .702-1.664zM5.287 2.4l13.1 1.758-4.132 7.22-11.57-3.48 2.612-5.5zm1.317 9.088l8.133 2.395a1.1 1.1 0 0 0 .962-.572l5.203-9.08v25.644L6.604 26.12V11.498zM37.4 26.12L23.1 29.884V4.233l5.203 9.08a1.12 1.12 0 0 0 .962.572c.224 0-.362.152 8.133-2.395v14.63zm-7.634-14.74l-4.132-7.22L38.716 2.4l2.612 5.5-11.563 3.473z" fill="#aaa"/></svg>